<svg xmlns="http://www.w3.org/2000/svg" version="1.1" xmlns:xlink="http://www.w3.org/1999/xlink" xmlns:svgjs="http://svgjs.dev/svgjs" viewBox="0 0 800 800" opacity="0.66"><defs><linearGradient x1="50%" y1="0%" x2="50%" y2="100%" id="ccchaos-grad"><stop stop-color="hsl(206, 75%, 49%)" stop-opacity="1" offset="0%"></stop><stop stop-color="hsl(331, 90%, 56%)" stop-opacity="1" offset="100%"></stop></linearGradient></defs><g stroke-width="2" stroke="url(#ccchaos-grad)" fill="none" stroke-linecap="round"><path d="M402.59 114.47C412.52 112.27 422.67 110.63 433.02 109.58 443.39 108.65 453.97 108.37 464.74 108.75 475.54 109.35 486.52 110.66 497.61 112.65 508.69 114.91 519.82 117.87 530.89 121.49 541.82 125.38 552.55 129.91 562.92 135.04 572.92 140.41 582.32 146.33 590.94 152.75 598.89 159.35 605.81 166.4 611.51 173.84 616.35 181.4 619.85 189.3 621.96 197.5 623.3 205.74 623.43 214.25 622.49 222.97 621.36 231.7 619.72 240.62 617.94 249.7 616.96 258.76 616.61 267.96 617.29 277.29 619.77 286.58 623.84 295.99 629.66 305.51 637.53 315 647 324.61 657.76 334.31 669.59 343.99 681.67 353.77 693.3 363.66 704.05 373.53 712.95 383.51 719.29 393.58 723.03 403.65 723.44 413.8 720.38 424.03 714.6 434.26 706.15 444.31 695.78 454.16 684.59 464 673.03 473.61 661.89 482.97 652.08 492.3 643.8 501.35 637.39 510.07 633.33 518.73 631.23 527.03 630.86 534.92 632.4 542.72 634.93 550.07 637.96 556.94 641.62 563.68 644.84 569.91 647.2 575.59 649.13 583.61 643.41 596.67 635.51 601.74 628.57 604.9 620.29 607.58 610.91 609.83 600.78 612.17 589.93 614.18 578.6 615.94 566.96 617.95 555.13 619.85 543.29 621.7 531.44 624.01 519.73 626.4 508.24 628.96 496.88 632.12 485.76 635.53 474.92 639.22 464.22 643.58 453.75 648.22 443.51 653.1 433.36 658.58 423.38 664.2 413.58 669.85 403.81 675.85 394.16 681.68 384.65 687.18 375.14 692.65 365.97 697.4 357.14 701.31 348.3 704.83 339.8 707.32 331.65 708.73 323.49 709.52 315.68 709.14 308.24 707.61 300.78 705.41 293.66 702.07 286.88 697.69 280.04 692.71 273.49 686.79 267.21 680.04 260.78 672.85 254.54 664.99 248.45 656.56 242.08 647.9 235.78 638.82 229.5 629.43 222.84 619.98 216.13 610.32 209.36 600.55 202.2 590.84 194.99 581.08 187.75 571.31 180.25 561.67 172.84 552.05 165.62 542.47 158.38 533.04 151.51 523.64 145.14 514.28 139.06 505.05 133.65 495.83 129.05 486.62 124.92 477.51 121.67 468.37 119.34 459.2 117.47 450.1 116.43 440.92 116.18 431.69 116.13 422.49 116.65 413.21 117.62 403.85 118.4 394.5 119.38 385.06 120.46 375.55 121.04 366.04 121.59 356.68 122.1 347.5 122.1 338.32 122.18 329.32 122.4 320.54 122.39 311.78 122.76 303.24 123.62 294.95 124.61 286.7 126.31 278.72 128.77 271.04 131.65 263.4 135.39 256.08 139.98 249.11 145.06 242.18 150.94 235.6 157.52 229.4 164.45 223.23 171.93 217.43 179.85 212.01 187.88 206.59 196.17 201.54 204.63 196.86 212.96 192.14 221.34 187.75 229.73 183.69 237.84 179.54 245.92 175.66 253.96 172.06 261.7 168.29 269.43 164.75 277.2 161.43 284.69 157.87 292.29 154.49 300.01 151.28 307.55 147.8 315.29 144.46 323.26 141.29 331.12 137.84 339.27 134.55 347.74 131.46 356.14 128.13 364.9 125.03 374.03 122.22 383.13 119.26 392.65 116.66 402.58 114.47" stroke-dasharray="5 8" transform="rotate(0, 400, 400)" opacity="0.15"></path><path d="M409.37 125.48C419.08 123.31 428.96 121.67 438.99 120.59 449.04 119.62 459.25 119.28 469.58 119.56 479.9 120.04 490.32 121.2 500.74 123 511.1 125.06 521.39 127.78 531.5 131.14 541.41 134.75 550.98 138.99 560.07 143.79 568.75 148.83 576.75 154.41 583.89 160.48 590.41 166.72 595.91 173.42 600.25 180.5 603.88 187.71 606.33 195.27 607.6 203.13 608.35 211.05 608.16 219.24 607.22 227.65 606.35 236.09 605.26 244.72 604.28 253.51 604.25 262.3 604.99 271.24 606.82 280.31 610.36 289.35 615.38 298.51 621.97 307.77 630.32 317.01 640 326.35 650.67 335.78 662.12 345.19 673.61 354.69 684.49 364.27 694.43 373.84 702.55 383.5 708.25 393.21 711.56 402.92 711.79 412.7 708.84 422.51 703.41 432.32 695.52 441.94 685.8 451.32 675.26 460.7 664.25 469.83 653.47 478.69 643.78 487.52 635.36 496.05 628.52 504.24 623.77 512.38 620.79 520.16 619.45 527.53 619.94 534.81 621.5 541.66 623.72 548.05 628.19 557.22 634.47 572.89 634.51 579.35 631.74 585.18 617.28 594.47 606.1 598.11 597.5 600.53 588.04 602.68 577.96 604.61 567.46 606.82 556.6 608.95 545.55 611.04 534.39 613.57 523.21 616.2 512.13 618.96 501.08 622.29 490.21 625.84 479.54 629.62 468.96 634.01 458.59 638.63 448.46 643.44 438.39 648.77 428.52 654.21 418.86 659.65 409.23 665.38 399.77 670.94 390.49 676.17 381.21 681.37 372.31 685.89 363.79 689.62 355.25 693.02 347.06 695.45 339.24 696.89 331.39 697.77 323.88 697.58 316.72 696.31 309.49 694.43 302.58 691.49 295.97 687.57 289.24 683.09 282.76 677.71 276.49 671.53 270.02 664.92 263.68 657.64 257.44 649.79 250.91 641.69 244.4 633.15 237.87 624.27 230.99 615.3 224.06 606.08 217.07 596.71 209.75 587.36 202.41 577.91 195.09 568.42 187.59 559.03 180.23 549.62 173.12 540.24 166.07 530.97 159.44 521.72 153.35 512.5 147.58 503.39 142.52 494.3 138.26 485.22 134.49 476.23 131.58 467.23 129.55 458.22 127.97 449.27 127.18 440.28 127.13 431.27 127.26 422.28 127.91 413.24 128.97 404.16 129.84 395.09 130.88 385.96 132 376.8 132.61 367.64 133.18 358.65 133.68 349.86 133.67 341.08 133.7 332.49 133.85 324.13 133.74 315.78 133.96 307.67 134.62 299.82 135.37 291.98 136.77 284.43 138.88 277.17 141.37 269.94 144.69 263.03 148.82 256.44 153.43 249.88 158.83 243.66 164.96 237.79 171.46 231.94 178.57 226.43 186.16 221.27 193.92 216.1 202.02 211.27 210.34 206.78 218.63 202.23 227.02 197.98 235.46 194.03 243.71 189.98 251.96 186.18 260.18 182.63 268.15 178.91 276.11 175.4 284.08 172.09 291.8 168.55 299.58 165.17 307.45 161.96 315.13 158.49 322.97 155.17 330.98 152 338.88 148.58 347.01 145.31 355.42 142.24 363.75 138.96 372.4 135.9 381.38 133.13 390.33 130.22 399.66 127.65 409.36 125.48" stroke-dasharray="1 0" transform="rotate(4.04, 400, 400)" opacity="0.82"></path><path d="M415.23 136.5C424.68 134.35 434.24 132.72 443.88 131.62 453.53 130.62 463.26 130.21 473.02 130.4 482.76 130.77 492.48 131.78 502.1 133.41 511.63 135.27 520.97 137.76 530.01 140.86 538.83 144.2 547.2 148.13 554.99 152.61 562.39 157.32 569.05 162.55 574.85 168.26 580.1 174.14 584.39 180.47 587.63 187.18 590.32 194.03 592.02 201.22 592.76 208.72 593.23 216.3 593.02 224.14 592.33 232.21 591.93 240.32 591.55 248.64 591.48 257.12 592.45 265.61 594.26 274.25 597.16 283.01 601.65 291.77 607.49 300.65 614.68 309.62 623.37 318.58 633.11 327.63 643.57 336.75 654.58 345.87 665.43 355.06 675.55 364.31 684.7 373.56 692.07 382.86 697.17 392.21 700.07 401.55 700.14 410.93 697.3 420.32 692.22 429.71 684.85 438.89 675.77 447.81 665.86 456.73 655.42 465.39 645.06 473.76 635.55 482.11 627.06 490.15 619.91 497.84 614.58 505.49 610.83 512.77 608.59 519.66 608.08 526.47 608.67 532.87 610.02 538.82 613.5 547.39 619.47 562.07 620.29 568.18 618.92 573.77 608.39 582.9 599.43 586.62 592.34 589.14 584.33 591.44 575.58 593.56 566.36 595.96 556.64 598.29 546.59 600.61 536.33 603.35 525.91 606.18 515.47 609.13 504.98 612.59 494.55 616.25 484.26 620.09 474 624.48 463.9 629.06 453.99 633.79 444.14 638.97 434.47 644.21 425 649.43 415.57 654.91 406.31 660.19 397.26 665.15 388.21 670.09 379.54 674.38 371.26 677.95 362.95 681.21 355 683.58 347.4 685.03 339.76 685.99 332.44 685.96 325.43 684.93 318.33 683.35 311.51 680.78 304.93 677.29 298.22 673.28 291.69 668.42 285.32 662.79 278.73 656.75 272.23 650.05 265.78 642.78 259.04 635.25 252.3 627.26 245.53 618.91 238.45 610.44 231.32 601.7 224.16 592.76 216.73 583.81 209.33 574.74 202 565.59 194.57 556.49 187.34 547.36 180.41 538.22 173.61 529.17 167.28 520.12 161.52 511.1 156.13 502.16 151.44 493.24 147.56 484.33 144.16 475.51 141.59 466.68 139.87 457.86 138.56 449.09 138.01 440.3 138.15 431.51 138.44 422.75 139.21 413.96 140.36 405.16 141.3 396.37 142.39 387.56 143.54 378.74 144.18 369.91 144.76 361.29 145.26 352.88 145.25 344.46 145.26 336.27 145.35 328.31 145.16 320.35 145.26 312.64 145.74 305.19 146.27 297.76 147.39 290.6 149.17 283.73 151.28 276.88 154.17 270.33 157.83 264.1 161.96 257.88 166.86 251.98 172.48 246.41 178.51 240.84 185.16 235.59 192.34 230.67 199.75 225.72 207.55 221.07 215.64 216.74 223.77 212.34 232.08 208.21 240.48 204.36 248.77 200.39 257.09 196.65 265.42 193.15 273.56 189.47 281.7 185.98 289.83 182.68 297.76 179.16 305.72 175.79 313.74 172.58 321.59 169.13 329.54 165.82 337.63 162.66 345.6 159.27 353.76 156.04 362.13 153 370.44 149.76 379 146.75 387.84 144.02 396.66 141.16 405.78 138.63 415.22 136.5" stroke-dasharray="4 8" transform="rotate(8.08, 400, 400)" opacity="0.52"></path><path d="M419.61 147.51C428.75 145.4 437.92 143.77 447.11 142.66 456.28 141.63 465.45 141.17 474.55 141.27 483.62 141.54 492.56 142.41 501.3 143.87 509.93 145.54 518.27 147.81 526.22 150.65 533.93 153.72 541.13 157.35 547.71 161.52 553.92 165.89 559.4 170.77 564.04 176.12 568.24 181.64 571.56 187.59 573.98 193.92 576.03 200.38 577.28 207.2 577.8 214.31 578.26 221.52 578.27 229 578.05 236.7 578.3 244.46 578.74 252.43 579.63 260.56 581.59 268.72 584.41 277.03 588.29 285.47 593.6 293.91 600.09 302.47 607.74 311.11 616.61 319.76 626.29 328.49 636.46 337.29 646.94 346.08 657.12 354.94 666.48 363.84 674.85 372.74 681.51 381.68 686.04 390.64 688.56 399.6 688.49 408.57 685.77 417.54 681.01 426.5 674.15 435.23 665.69 443.71 656.41 452.17 646.55 460.37 636.63 468.27 627.37 476.15 618.9 483.72 611.54 490.94 605.74 498.13 601.33 504.96 598.27 511.4 596.66 520.78 599.27 537.38 601.82 544.57 604.77 556.86 597.89 571.55 590.92 575.4 585.25 578.02 578.64 580.47 571.24 582.77 563.35 585.35 554.87 587.89 545.94 590.42 536.74 593.34 527.26 596.34 517.63 599.44 507.89 603.02 498.1 606.75 488.36 610.64 478.59 615.01 468.92 619.52 459.38 624.14 449.86 629.16 440.49 634.21 431.3 639.2 422.13 644.42 413.12 649.44 404.3 654.14 395.47 658.82 387.02 662.89 378.93 666.28 370.82 669.4 363.04 671.71 355.58 673.16 348.07 674.18 340.84 674.29 333.89 673.47 326.84 672.16 320.01 669.94 313.38 666.85 306.59 663.29 299.95 658.92 293.41 653.82 286.66 648.33 279.96 642.19 273.28 635.49 266.34 628.53 259.39 621.11 252.4 613.3 245.16 605.36 237.89 597.12 230.62 588.66 223.17 580.15 215.78 571.49 208.53 562.72 201.25 553.98 194.23 545.17 187.56 536.33 181.08 527.55 175.1 518.76 169.72 509.98 164.73 501.26 160.45 492.55 156.96 483.86 153.94 475.24 151.72 466.62 150.31 458.02 149.27 449.46 148.94 440.9 149.26 432.36 149.69 423.84 150.56 415.31 151.78 406.8 152.78 398.29 153.9 389.79 155.07 381.3 155.75 372.81 156.34 364.54 156.85 356.49 156.85 348.43 156.85 340.61 156.91 333.03 156.66 325.44 156.66 318.11 156.98 311.04 157.32 303.97 158.19 297.18 159.65 290.67 161.4 284.16 163.87 277.95 167.07 272.04 170.7 266.13 175.08 260.51 180.18 255.21 185.68 249.9 191.82 244.88 198.51 240.16 205.49 235.4 212.9 230.92 220.65 226.73 228.52 222.45 236.61 218.43 244.86 214.66 253.08 210.76 261.38 207.08 269.71 203.6 277.92 199.96 286.15 196.49 294.38 193.2 302.46 189.69 310.56 186.34 318.69 183.13 326.68 179.7 334.74 176.41 342.89 173.28 350.93 169.92 359.12 166.73 367.45 163.72 375.73 160.54 384.21 157.59 392.89 154.89 401.55 152.1 410.45 149.62 419.59 147.51" stroke-dasharray="2 8" transform="rotate(12.12, 400, 400)" opacity="0.18"></path><path d="M422.05 158.52C430.85 156.45 439.59 154.84 448.25 153.71 456.91 152.67 465.45 152.16 473.85 152.18 482.19 152.35 490.31 153.09 498.16 154.38 505.88 155.87 513.23 157.92 520.13 160.51 526.81 163.32 532.93 166.66 538.43 170.51 543.62 174.56 548.1 179.09 551.82 184.07 555.21 189.22 557.85 194.78 559.75 200.73 561.44 206.8 562.52 213.22 563.09 219.94 563.76 226.76 564.22 233.85 564.63 241.17 565.61 248.55 566.93 256.14 568.78 263.9 571.69 271.7 575.44 279.65 580.16 287.73 586.15 295.82 593.15 304.03 601.08 312.32 610.01 320.63 619.51 329.01 629.28 337.45 639.19 345.9 648.67 354.39 657.27 362.92 664.88 371.45 670.87 380.01 674.86 388.57 677.03 397.14 676.84 405.7 674.23 414.23 669.8 422.77 663.43 431.06 655.56 439.09 646.9 447.11 637.62 454.86 628.17 462.31 619.22 469.75 610.85 476.87 603.37 483.66 597.22 490.42 592.26 496.83 588.5 502.87 585.58 511.68 585.65 527.31 587.28 534.11 590.09 545.94 585.98 560.49 580.71 564.46 576.3 567.21 570.98 569.8 564.87 572.28 558.29 575.03 551.05 577.74 543.29 580.45 535.23 583.53 526.8 586.67 518.1 589.91 509.25 593.56 500.26 597.35 491.19 601.25 482.08 605.57 472.97 610.01 463.91 614.51 454.86 619.36 445.89 624.2 437.04 628.97 428.2 633.93 419.49 638.68 410.91 643.13 402.34 647.55 394.1 651.4 386.18 654.62 378.23 657.6 370.58 659.83 363.21 661.28 355.78 662.35 348.59 662.57 341.62 661.95 334.55 660.89 327.66 658.98 320.92 656.27 314.03 653.13 307.23 649.22 300.51 644.62 293.59 639.66 286.7 634.07 279.81 627.93 272.7 621.54 265.58 614.68 258.44 607.43 251.1 600.02 243.77 592.3 236.49 584.34 229.1 576.32 221.82 568.1 214.73 559.76 207.69 551.41 200.95 542.97 194.62 534.48 188.52 526.03 182.94 517.54 177.99 509.05 173.43 500.6 169.58 492.15 166.5 483.72 163.86 475.34 161.98 466.96 160.87 458.61 160.09 450.29 159.97 441.99 160.44 433.7 161 425.45 161.96 417.2 163.24 408.98 164.28 400.77 165.43 392.57 166.61 384.41 167.31 376.26 167.92 368.32 168.45 360.62 168.47 352.91 168.47 345.44 168.5 338.21 168.22 330.98 168.14 324 168.34 317.28 168.52 310.56 169.16 304.1 170.33 297.92 171.74 291.73 173.81 285.82 176.56 280.2 179.7 274.56 183.56 269.21 188.1 264.15 193.04 259.05 198.63 254.24 204.78 249.7 211.24 245.11 218.18 240.77 225.5 236.7 232.99 232.53 240.76 228.6 248.74 224.89 256.76 221.06 264.9 217.42 273.13 213.97 281.3 210.36 289.51 206.91 297.74 203.63 305.87 200.15 314.03 196.81 322.2 193.61 330.26 190.21 338.37 186.94 346.54 183.83 354.62 180.52 362.79 177.37 371.06 174.42 379.28 171.29 387.64 168.39 396.13 165.76 404.61 163.02 413.25 160.59 422.04 158.53" stroke-dasharray="0 4" transform="rotate(16.16, 400, 400)" opacity="0.20"></path><path d="M422.34 169.54C430.74 167.5 439.01 165.92 447.11 164.79 455.2 163.73 463.11 163.17 470.77 163.12 478.38 163.2 485.7 163.82 492.68 164.95 499.53 166.26 505.97 168.1 511.92 170.46 520.28 174.54 533.7 185.42 538.62 192.13 541.47 196.91 543.69 202.09 545.34 207.63 546.93 213.31 548.09 219.33 548.94 225.64 550.03 232.05 551.06 238.73 552.2 245.65 553.99 252.63 556.19 259.82 558.97 267.19 562.73 274.6 567.29 282.17 572.72 289.86 579.23 297.58 586.58 305.41 594.66 313.32 603.5 321.26 612.71 329.27 622.02 337.33 631.31 345.4 640.07 353.51 647.92 361.65 654.8 369.8 660.14 377.96 663.64 386.11 665.48 394.27 665.18 402.41 662.69 410.51 658.57 418.61 652.67 426.47 645.38 434.06 637.33 441.65 628.63 448.97 619.68 455.99 611.08 463 602.88 469.71 595.38 476.1 588.99 482.46 583.59 488.49 579.23 494.17 575.15 502.47 572.71 517.26 573.31 523.75 575.39 535.21 572.94 549.72 569.02 553.84 563.57 558.07 548.12 566.41 538.49 570.72 531.58 573.92 524.22 577.18 516.51 580.51 508.64 584.22 500.51 588.02 492.23 591.91 483.88 596.18 475.43 600.51 466.96 604.88 458.47 609.55 449.98 614.19 441.55 618.72 433.12 623.43 424.75 627.92 416.46 632.11 408.17 636.28 400.15 639.92 392.4 642.96 384.62 645.81 377.08 647.96 369.77 649.39 362.4 650.49 355.22 650.81 348.21 650.36 341.11 649.52 334.14 647.9 327.28 645.53 320.28 642.78 313.34 639.31 306.45 635.19 299.39 630.73 292.34 625.67 285.3 620.08 278.09 614.24 270.87 607.94 263.67 601.25 256.33 594.39 249.04 587.21 241.84 579.77 234.6 572.24 227.53 564.51 220.69 556.62 213.97 548.71 207.6 540.68 201.66 532.58 196 524.5 190.88 516.36 186.38 508.2 182.28 500.07 178.87 491.93 176.2 483.79 173.94 475.69 172.4 467.59 171.56 459.52 171.03 451.48 171.1 443.45 171.71 435.46 172.38 427.48 173.41 419.52 174.72 411.61 175.79 403.7 176.96 395.82 178.15 387.99 178.87 380.16 179.5 372.56 180.04 365.19 180.09 357.82 180.1 350.68 180.13 343.79 179.84 336.9 179.71 330.25 179.81 323.85 179.85 317.45 180.3 311.3 181.22 305.41 182.32 299.52 184.01 293.88 186.34 288.52 188.99 283.14 192.33 278.01 196.32 273.16 200.69 268.27 205.69 263.63 211.25 259.25 217.14 254.8 223.53 250.59 230.33 246.62 237.35 242.55 244.69 238.69 252.29 235.04 259.98 231.26 267.85 227.66 275.84 224.24 283.83 220.67 291.91 217.24 300.02 213.97 308.09 210.51 316.19 207.19 324.3 204.02 332.35 200.65 340.42 197.42 348.52 194.34 356.57 191.08 364.67 187.98 372.81 185.07 380.92 182.02 389.11 179.18 397.36 176.6 405.6 173.93 413.93 171.56 422.33 169.54" stroke-dasharray="7 2" transform="rotate(20.200000000000003, 400, 400)" opacity="0.55"></path><path d="M420.44 180.55C428.41 178.56 436.17 177 443.7 175.87 451.22 174.81 458.48 174.22 465.44 174.09 472.35 174.09 478.92 174.59 485.1 175.58 493.99 177.54 509.19 184.18 515.34 188.81 520.7 194.13 528.53 207.12 531.21 214.66 532.93 219.94 534.37 225.55 535.66 231.44 537.3 237.44 539.01 243.7 540.93 250.19 543.52 256.76 546.56 263.54 550.17 270.49 554.69 277.49 559.92 284.64 565.89 291.93 572.77 299.25 580.31 306.68 588.39 314.19 597.02 321.73 605.86 329.34 614.63 337 623.27 344.67 631.31 352.39 638.43 360.12 644.61 367.86 649.34 375.62 652.37 383.35 653.91 391.09 653.52 398.81 651.16 406.48 647.33 414.15 641.88 421.58 635.15 428.75 627.7 435.91 619.58 442.82 611.15 449.44 602.93 456.04 594.98 462.36 587.54 468.37 581 474.37 575.28 480.05 570.45 485.41 565.36 493.27 560.54 507.33 560.05 513.56 560.94 524.75 559.1 539.29 556.16 543.56 552 547.96 539.58 556.7 531.54 561.21 525.72 564.51 519.4 567.86 512.68 571.25 505.79 574.98 498.58 578.78 491.13 582.63 483.59 586.81 475.87 591.03 468.05 595.25 460.19 599.74 452.26 604.16 444.3 608.47 436.33 612.92 428.36 617.16 420.39 621.1 412.43 625.02 404.66 628.45 397.08 631.32 389.49 634.02 382.08 636.09 374.83 637.49 367.53 638.61 360.37 639.01 353.33 638.71 346.22 638.07 339.18 636.71 332.22 634.66 325.15 632.27 318.12 629.21 311.12 625.53 303.98 621.55 296.86 617 289.75 611.94 282.52 606.64 275.31 600.89 268.15 594.75 260.91 588.44 253.76 581.8 246.75 574.89 239.77 567.88 233 560.65 226.52 553.25 220.2 545.81 214.25 538.23 208.77 530.55 203.59 522.88 198.96 515.13 194.94 507.34 191.31 499.57 188.34 491.77 186.07 483.97 184.19 476.19 182.96 468.41 182.4 460.65 182.09 452.91 182.33 445.19 183.06 437.5 183.82 429.82 184.9 422.17 186.23 414.57 187.32 406.98 188.49 399.42 189.68 391.92 190.42 384.41 191.07 377.14 191.63 370.1 191.71 363.06 191.76 356.24 191.8 349.67 191.51 343.09 191.35 336.75 191.38 330.65 191.46 321.61 193.81 304.75 196.41 296.93 198.61 291.77 201.45 286.85 204.89 282.19 208.68 277.47 213.08 272.99 218.03 268.75 223.31 264.43 229.09 260.33 235.31 256.44 241.77 252.46 248.58 248.67 255.69 245.07 262.94 241.35 270.41 237.79 278.04 234.4 285.73 230.86 293.53 227.45 301.4 224.2 309.27 220.78 317.19 217.49 325.13 214.34 333.05 211.01 340.98 207.82 348.92 204.78 356.84 201.58 364.77 198.55 372.71 195.7 380.64 192.72 388.59 189.95 396.54 187.43 404.5 184.84 412.47 182.53 420.43 180.55" stroke-dasharray="3 10" transform="rotate(24.24, 400, 400)" opacity="0.43"></path><path d="M416.54 191.56C424.04 189.63 431.28 188.1 438.25 186.98 445.2 185.91 451.84 185.29 458.16 185.1 467.37 185.22 483.72 187.98 490.73 190.61 497.12 193.93 507.37 202.98 511.31 208.64 514.85 214.89 520.71 229.32 523.51 237.39 525.76 242.96 528.18 248.79 530.88 254.86 534.22 260.99 538.02 267.34 542.36 273.85 547.5 280.43 553.25 287.16 559.6 294.02 566.68 300.91 574.26 307.92 582.21 315.01 590.54 322.13 598.92 329.33 607.1 336.57 615.07 343.83 622.39 351.13 628.79 358.44 634.3 365.76 638.46 373.09 641.06 380.41 642.33 387.72 641.87 395.01 639.62 402.25 636.08 409.49 631.07 416.5 624.87 423.26 618 430.02 610.46 436.52 602.56 442.76 594.77 448.98 587.11 454.94 579.82 460.61 573.24 466.26 567.31 471.63 562.12 476.71 556.18 484.16 549.19 497.6 547.59 503.62 546.96 514.6 544.82 529.22 542.5 533.63 539.26 538.18 529.27 547.26 522.61 551.91 517.75 555.29 512.4 558.69 506.61 562.12 500.65 565.84 494.33 569.61 487.7 573.41 480.99 577.48 474.03 581.57 466.88 585.63 459.69 589.92 452.36 594.13 444.91 598.2 437.47 602.4 429.93 606.39 422.33 610.08 414.73 613.77 407.25 616.98 399.89 619.69 392.52 622.24 385.26 624.22 378.11 625.58 370.93 626.71 363.82 627.18 356.8 627.01 349.71 626.54 342.67 625.42 335.68 623.65 328.61 621.59 321.56 618.91 314.53 615.65 307.41 612.12 300.31 608.06 293.24 603.5 286.1 598.72 279.01 593.5 272 587.9 264.98 582.14 258.09 576.05 251.38 569.67 244.75 563.19 238.37 556.48 232.32 549.58 226.46 542.63 221.01 535.52 216.03 528.3 211.36 521.06 207.24 513.74 203.72 506.36 200.56 498.98 198.03 491.56 196.16 484.13 194.62 476.71 193.7 469.28 193.38 461.86 193.27 454.46 193.66 447.06 194.49 439.7 195.32 432.35 196.43 425.03 197.77 417.75 198.87 410.48 200.04 403.25 201.22 396.08 201.97 388.91 202.64 381.96 203.22 375.24 203.35 368.52 203.43 362.02 203.49 355.75 203.14 346.45 202.99 328.98 203.59 320.82 204.71 312.86 209.77 298.04 213.87 291.18 217.1 286.63 220.9 282.29 225.23 278.16 229.88 273.96 235.02 269.96 240.6 266.16 246.44 262.26 252.65 258.53 259.19 254.98 265.9 251.31 272.86 247.79 280.01 244.43 287.27 240.92 294.67 237.55 302.17 234.32 309.71 230.94 317.32 227.69 324.97 224.57 332.62 221.3 340.3 218.16 347.98 215.17 355.65 212.04 363.32 209.07 370.98 206.29 378.63 203.39 386.26 200.7 393.86 198.25 401.46 195.73 409.03 193.49 416.53 191.57" stroke-dasharray="1 9" transform="rotate(28.28, 400, 400)" opacity="0.36"></path><path d="M411.01 202.58C418.03 200.7 424.76 199.21 431.19 198.1 440.64 196.71 457.8 196.15 465.41 197.01 472.54 198.49 484.68 203.78 489.68 207.57 494.29 211.96 501.98 222.81 505.36 229.19 508.99 236.06 517.1 251.35 522.08 259.67 526.09 265.37 530.54 271.27 535.47 277.35 541.07 283.48 547.17 289.77 553.74 296.19 560.88 302.64 568.37 309.22 576.06 315.87 583.99 322.56 591.84 329.32 599.41 336.13 606.69 342.96 613.29 349.83 619 356.71 623.87 363.61 627.5 370.51 629.71 377.39 630.74 384.28 630.21 391.15 628.08 397.96 624.81 404.78 620.22 411.37 614.54 417.74 608.23 424.1 601.26 430.22 593.9 436.09 586.57 441.96 579.26 447.57 572.18 452.93 565.66 458.27 559.63 463.36 554.19 468.18 547.59 475.27 538.68 488.17 536.03 494.01 533.68 504.83 530.5 519.53 528.45 524.06 525.79 528.73 517.58 538.07 512.03 542.83 507.98 546.24 503.45 549.67 498.47 553.1 493.36 556.8 487.86 560.51 482.01 564.22 476.08 568.18 469.86 572.12 463.38 576.01 456.87 580.09 450.15 584.08 443.25 587.93 436.34 591.87 429.27 595.61 422.08 599.07 414.88 602.52 407.73 605.53 400.63 608.06 393.54 610.48 386.48 612.35 379.49 613.68 372.47 614.79 365.49 615.32 358.55 615.26 351.57 614.94 344.61 614.02 337.67 612.52 330.69 610.76 323.72 608.43 316.77 605.56 309.78 602.45 302.82 598.84 295.91 594.76 288.98 590.48 282.13 585.78 275.4 580.71 268.7 575.48 262.17 569.92 255.86 564.08 249.67 558.14 243.77 551.95 238.21 545.56 232.88 539.12 227.96 532.5 223.52 525.76 219.38 518.99 215.78 512.12 212.75 505.17 210.06 498.22 207.95 491.21 206.45 484.17 205.25 477.14 204.61 470.09 204.51 463.04 204.58 456 205.09 448.96 205.99 441.95 206.87 434.95 208.01 427.97 209.34 421.03 210.43 414.09 211.59 407.2 212.76 400.36 213.52 393.52 214.21 386.9 214.8 380.49 214.98 374.08 215.1 367.88 215.2 361.91 214.89 353.04 214.65 336.36 215.05 328.56 215.85 320.93 219.88 306.69 223.27 300.06 227.58 293.55 239.17 281.39 246.35 275.71 251.52 271.88 257.08 268.22 262.98 264.72 269.07 261.1 275.43 257.63 282.02 254.3 288.74 250.85 295.63 247.52 302.64 244.33 309.73 240.99 316.92 237.78 324.15 234.71 331.42 231.5 338.73 228.42 346.03 225.5 353.35 222.44 360.67 219.55 367.95 216.84 375.24 214.03 382.49 211.42 389.68 209.05 396.87 206.62 403.99 204.45 411 202.58" stroke-dasharray="6 5" transform="rotate(32.32, 400, 400)" opacity="0.53"></path><path d="M404.41 213.59C410.93 211.78 417.17 210.32 423.09 209.23 431.8 207.84 447.54 207.13 454.51 207.82 461.09 209.08 472.46 213.75 477.32 217.14 481.96 221.09 490.29 230.92 494.28 236.73 498.67 243 508.59 257.03 514.5 264.7 519.07 269.95 524.03 275.41 529.39 281.04 535.29 286.72 541.59 292.56 548.23 298.53 555.28 304.53 562.54 310.65 569.88 316.87 577.33 323.1 584.61 329.42 591.52 335.79 598.11 342.18 604.02 348.61 609.06 355.05 613.34 361.51 616.47 367.98 618.32 374.44 619.13 380.9 618.55 387.34 616.55 393.73 613.54 400.12 609.35 406.32 604.16 412.3 598.4 418.27 591.99 424.03 585.18 429.56 578.32 435.08 571.4 440.38 564.6 445.44 558.22 450.5 552.2 455.32 546.62 459.91 539.53 466.68 529.03 479.1 525.41 484.79 521.26 495.47 516.49 510.24 514.43 514.86 512.02 519.62 504.95 529.13 500.22 533.95 494.86 539.08 481.84 549.65 474.29 555.08 469.07 558.89 463.53 562.67 457.7 566.38 451.83 570.26 445.71 574.02 439.35 577.64 432.99 581.34 426.42 584.83 419.66 588.06 412.9 591.27 406.12 594.08 399.35 596.45 392.57 598.72 385.79 600.49 379.02 601.77 372.24 602.87 365.46 603.43 358.69 603.46 351.91 603.27 345.13 602.54 338.36 601.27 331.57 599.78 324.8 597.77 318.06 595.26 311.31 592.54 304.61 589.35 297.98 585.73 291.38 581.92 284.88 577.71 278.53 573.15 272.27 568.44 266.19 563.41 260.37 558.09 254.69 552.68 249.33 547.01 244.32 541.15 239.55 535.21 235.2 529.1 231.31 522.85 227.72 516.57 224.63 510.17 222.08 503.68 219.84 497.18 218.13 490.6 216.99 483.99 216.08 477.37 215.69 470.72 215.78 464.07 216 457.41 216.61 450.75 217.57 444.11 218.48 437.47 219.62 430.85 220.93 424.26 222.01 417.68 223.15 411.13 224.29 404.63 225.06 398.13 225.76 391.83 226.38 385.74 226.69 376.69 226.68 359.6 226.6 351.55 226.42 343.68 227.23 328.9 228.51 321.98 230.37 315.19 236.69 302.48 241.18 296.53 246.5 290.64 259.63 279.53 267.3 274.28 272.71 270.73 278.42 267.31 284.37 264.03 290.46 260.63 296.75 257.35 303.19 254.2 309.73 250.93 316.38 247.78 323.1 244.76 329.88 241.62 336.71 238.62 343.55 235.76 350.42 232.8 357.29 229.99 364.12 227.36 370.97 224.64 377.77 222.13 384.5 219.84 391.23 217.49 397.88 215.4 404.4 213.59" stroke-dasharray="6 8" transform="rotate(36.36, 400, 400)" opacity="0.66"></path><path d="M397.37 224.61C406.29 222.15 422.71 219 430.16 218.34 439.87 217.91 448.36 219 455.68 221.53 463.08 224.47 469.56 228.87 475.39 234.56 481.87 240.67 488.35 248.01 495.26 256.37 503.68 265.06 513.21 274.66 524 284.96 536.47 295.47 549.91 306.58 563.61 318.07 577.31 329.66 589.54 341.57 598.98 353.57 602.69 359.59 605.37 365.63 606.89 371.65 607.51 377.68 606.89 383.7 605.01 389.68 602.26 395.66 598.44 401.46 593.73 407.07 588.49 412.67 582.64 418.08 576.37 423.28 563.7 433.68 551.03 443.27 539.35 452.01 529.82 460.79 521.99 468.79 515.75 476.02 511.64 483.43 508.3 490.23 505.12 496.48 502.79 503.14 499.66 509.47 495.36 515.53 490.97 522.24 485.04 528.88 477.58 535.4 469.83 542.68 460.63 549.86 450.18 556.76 444.9 560.41 439.34 563.95 433.52 567.34 427.69 570.79 421.62 574.05 415.32 577.04 409.02 580.03 402.66 582.64 396.25 584.85 389.85 586.97 383.4 588.64 376.94 589.86 364.01 591.84 350.98 591.84 338.01 589.92 325.06 587.22 312.21 582.64 299.71 576.41 287.44 569.52 275.77 561.18 265.07 551.69 255.06 541.8 246.4 530.99 239.47 519.53 233.6 507.92 229.65 495.82 227.75 483.48 226.66 471.12 227.22 458.58 229.21 446.06 230.14 439.81 231.27 433.56 232.55 427.34 233.6 421.12 234.71 414.92 235.83 408.76 236.95 399.62 238.33 382.27 238.63 374.05 238.14 363.19 237.98 353.05 238.46 343.67 238.75 334.19 240.36 325.38 243.46 317.28 247.18 308.99 252.66 301.29 259.73 294.21 267.62 286.82 276.93 279.93 287.34 273.58 298.31 266.81 310.07 260.5 322.26 254.72 334.73 248.51 347.42 242.83 360.04 237.84 366.39 235.23 372.7 232.81 378.93 230.61 385.17 228.36 391.33 226.35 397.36 224.61" stroke-dasharray="4 1" transform="rotate(40.400000000000006, 400, 400)" opacity="0.61"></path><path d="M390.59 235.62C401.73 232.28 411.89 230.24 421.04 229.49 430.16 228.97 438.32 229.84 445.57 232.03 453.01 234.58 459.84 238.47 466.31 243.56 473.47 249.01 480.84 255.61 488.72 263.18 497.92 271.04 508.06 279.78 519.17 289.19 531.51 298.8 544.41 308.99 557.17 319.57 569.66 330.25 580.55 341.25 588.75 352.38 594.46 363.54 596.18 374.79 593.47 385.94 587.77 397.09 578.71 407.59 567.47 417.38 555.76 427.15 543.75 436.23 532.34 444.57 522.58 452.95 514.14 460.68 507.04 467.74 501.81 474.99 497.39 481.73 493.33 487.99 490.22 494.63 486.67 500.98 482.31 507.08 478.08 513.74 472.63 520.3 465.89 526.7 458.99 533.72 450.77 540.59 441.33 547.12 431.78 554.09 421.12 560.5 409.47 566.03 397.83 571.53 385.81 575.54 373.63 577.95 361.49 579.89 349.21 580.03 336.99 578.45 324.88 576.22 312.93 572.28 301.39 566.81 290.19 560.77 279.66 553.36 270.16 544.85 261.35 535.98 253.88 526.18 248.07 515.73 243.19 505.11 240.06 493.98 238.76 482.55 238.1 471.09 238.89 459.41 240.93 447.69 242.65 435.98 244.89 424.25 247.37 412.64 248.55 401.03 249.54 390.07 250.35 379.81 250.01 369.51 249.93 359.85 250.37 350.88 250.49 341.81 251.73 333.35 254.22 325.52 257.16 317.5 261.63 310.02 267.56 303.11 274.16 295.91 282.12 289.18 291.17 282.95 300.74 276.36 311.15 270.2 322.08 264.57 333.29 258.57 344.8 253.1 356.32 248.29 367.95 243.23 379.45 238.94 390.58 235.62" stroke-dasharray="6 10" transform="rotate(44.44, 400, 400)" opacity="0.83"></path><path d="M384.73 246.63C394.98 243.45 404.45 241.47 413.12 240.68 421.81 240.07 429.78 240.75 437.12 242.63 444.69 244.82 451.93 248.23 459.04 252.75 466.82 257.58 474.91 263.47 483.52 270.28 493.2 277.33 503.64 285.22 514.75 293.76 526.68 302.47 538.82 311.76 550.53 321.44 561.75 331.21 571.33 341.31 578.37 351.56 583.21 361.85 584.52 372.25 581.94 382.61 576.8 392.96 568.65 402.76 558.48 411.94 547.74 421.12 536.49 429.7 525.52 437.65 515.76 445.66 506.96 453.11 499.23 460 493.1 467.07 487.72 473.71 482.8 479.94 478.86 486.51 474.73 492.83 470.1 498.9 465.75 505.45 460.49 511.86 454.19 518.08 447.86 524.81 440.38 531.34 431.79 537.48 423.13 543.98 413.4 549.92 402.7 555.02 392 560.09 380.9 563.79 369.61 566.05 358.37 567.92 347.01 568.19 335.74 566.9 324.63 565.07 313.74 561.7 303.35 556.93 293.33 551.68 284.03 545.16 275.78 537.58 268.19 529.68 261.9 520.88 257.14 511.42 253.17 501.79 250.78 491.63 250.01 481.13 249.7 470.58 250.66 459.78 252.7 448.89 254.38 437.99 256.53 427.03 258.9 416.14 260.1 405.25 261.15 394.93 262.06 385.22 261.88 375.48 261.92 366.31 262.36 357.75 262.41 349.09 263.38 340.97 265.4 333.42 267.68 325.7 271.3 318.46 276.21 311.73 281.63 304.75 288.33 298.2 296.07 292.13 304.26 285.75 313.31 279.78 322.95 274.33 332.84 268.56 343.12 263.31 353.52 258.7 364.01 253.89 374.49 249.8 384.73 246.63" stroke-dasharray="2 6" transform="rotate(48.48, 400, 400)" opacity="0.76"></path><path d="M380.37 257.65C389.78 254.62 398.64 252.72 406.93 251.9 415.27 251.24 423.14 251.74 430.62 253.34 438.35 255.19 445.97 258.16 453.61 262.14 461.84 266.38 470.44 271.61 479.48 277.67 489.35 283.96 499.77 291.02 510.57 298.71 521.87 306.55 533.08 314.95 543.64 323.74 553.58 332.62 561.89 341.83 567.86 351.23 571.89 360.65 572.84 370.22 570.4 379.79 565.79 389.36 558.52 398.48 549.38 407.06 539.64 415.66 529.23 423.75 518.83 431.32 509.28 438.94 500.36 446.11 492.26 452.81 485.44 459.67 479.3 466.17 473.63 472.32 468.87 478.77 464.11 484.99 459.1 490.96 454.45 497.33 449.17 503.55 443.1 509.53 437.09 515.93 430.14 522.09 422.24 527.83 414.31 533.86 405.43 539.33 395.66 544 385.89 548.65 375.76 552.05 365.45 554.15 355.22 555.94 344.9 556.3 334.73 555.26 324.74 553.79 315.04 550.93 305.88 546.8 297.1 542.27 289.08 536.56 282.09 529.87 275.69 522.9 270.5 515.06 266.72 506.56 263.58 497.91 261.83 488.71 261.49 479.15 261.47 469.52 262.54 459.61 264.53 449.55 266.15 439.49 268.18 429.32 270.44 419.17 271.64 409.01 272.75 399.34 273.74 390.2 273.74 381.03 273.92 372.35 274.43 364.2 274.48 355.97 275.27 348.22 276.95 340.96 278.72 333.55 281.63 326.58 285.67 320.07 290.07 313.34 295.62 307 302.15 301.12 309.05 294.97 316.8 289.23 325.17 283.98 333.77 278.47 342.83 273.46 352.11 269.08 361.48 264.52 370.96 260.65 380.37 257.65" stroke-dasharray="9 4" transform="rotate(52.52, 400, 400)" opacity="0.94"></path><path d="M377.93 268.66C386.56 265.81 394.88 263.98 402.84 263.16 410.86 262.45 418.64 262.79 426.24 264.14 434.07 265.69 441.94 268.25 449.93 271.73 458.41 275.42 467.22 280.01 476.39 285.38 486.14 290.93 496.24 297.21 506.48 304.08 516.93 311.08 527.08 318.61 536.44 326.54 545.11 334.54 552.22 342.88 557.2 351.43 560.52 360.01 561.15 368.76 558.86 377.57 554.76 386.37 548.32 394.81 540.18 402.82 531.43 410.83 521.92 418.45 512.21 425.62 503.06 432.85 494.26 439.71 486.03 446.18 478.79 452.8 472.09 459.12 465.84 465.13 460.39 471.4 455.04 477.45 449.62 483.25 444.59 489.39 439.15 495.35 433.18 501.05 427.31 507.08 420.72 512.84 413.39 518.17 406.05 523.72 397.93 528.73 389.05 532.99 380.18 537.23 371.02 540.33 361.76 542.27 352.58 543.96 343.38 544.37 334.39 543.56 325.59 542.39 317.13 539.98 309.26 536.43 301.73 532.55 294.97 527.6 289.19 521.74 283.91 515.63 279.74 508.71 276.82 501.15 274.4 493.45 273.19 485.19 273.19 476.55 273.38 467.85 274.5 458.83 276.41 449.62 277.94 440.41 279.84 431.04 281.98 421.63 283.17 412.22 284.32 403.21 285.4 394.65 285.58 386.06 285.92 377.89 286.51 370.18 286.63 362.4 287.36 355.03 288.8 348.09 290.2 341.03 292.57 334.35 295.89 328.09 299.44 321.64 304.01 315.56 309.48 309.91 315.21 304.03 321.77 298.55 328.97 293.53 336.35 288.31 344.24 283.57 352.47 279.42 360.76 275.13 369.3 271.5 377.93 268.66" stroke-dasharray="4 6" transform="rotate(56.56, 400, 400)" opacity="0.19"></path><path d="M377.65 279.67C385.56 277.01 393.35 275.27 400.99 274.45 408.68 273.71 416.32 273.93 423.93 275.05 431.74 276.32 439.69 278.5 447.79 281.52 456.25 284.7 465 288.7 473.99 293.41 483.34 298.27 492.86 303.8 502.3 309.89 511.76 316.08 520.78 322.78 528.91 329.88 536.35 337.03 542.34 344.52 546.41 352.25 549.08 360 549.45 367.95 547.33 376.01 543.7 384.06 538.05 391.83 530.87 399.25 523.1 406.69 514.52 413.81 505.61 420.58 497.02 427.4 488.54 433.92 480.42 440.12 473.03 446.45 466.02 452.53 459.39 458.34 453.43 464.36 447.61 470.18 441.83 475.76 436.44 481.61 430.81 487.26 424.85 492.63 419.03 498.26 412.71 503.59 405.84 508.5 398.99 513.57 391.53 518.12 383.51 521.98 375.48 525.81 367.3 528.62 359.11 530.39 350.98 531.96 342.93 532.42 335.15 531.78 327.54 530.87 320.33 528.86 313.71 525.83 307.4 522.54 301.82 518.28 297.15 513.19 292.89 507.9 289.62 501.84 287.45 495.17 285.63 488.37 284.85 481.04 285.1 473.3 285.43 465.51 286.54 457.37 288.34 449.02 289.75 440.66 291.52 432.1 293.51 423.45 294.69 414.81 295.87 406.47 297.02 398.51 297.38 390.53 297.88 382.89 298.6 375.64 298.84 368.34 299.56 361.37 300.87 354.79 302.05 348.11 304.02 341.76 306.8 335.79 309.68 329.67 313.44 323.88 318.01 318.49 322.75 312.93 328.26 307.73 334.42 302.98 340.69 298.07 347.53 293.62 354.79 289.73 362.09 285.72 369.74 282.33 377.65 279.67" stroke-dasharray="10 3" transform="rotate(60.599999999999994, 400, 400)" opacity="0.76"></path><path d="M379.56 290.69C386.78 288.21 394.05 286.58 401.32 285.77 408.64 285.03 416.04 285.14 423.51 286.05 431.13 287.08 438.93 288.92 446.87 291.51 455.07 294.23 463.47 297.68 471.99 301.77 480.69 305.98 489.41 310.81 497.89 316.16 506.26 321.58 514.09 327.49 521.01 333.78 527.28 340.12 532.23 346.8 535.49 353.73 537.6 360.68 537.75 367.85 535.79 375.16 532.61 382.47 527.7 389.57 521.43 396.41 514.63 403.27 507.01 409.88 498.96 416.21 491.06 422.59 483.1 428.74 475.3 434.63 468.01 440.62 460.95 446.4 454.19 451.94 447.93 457.65 441.83 463.18 435.83 468.46 430.15 473.96 424.38 479.25 418.44 484.25 412.65 489.45 406.54 494.34 400.08 498.81 393.65 503.41 386.81 507.51 379.58 510.96 372.36 514.4 365.11 516.92 357.96 518.52 350.86 519.98 343.93 520.44 337.33 519.95 330.86 519.25 324.83 517.59 319.4 515.03 311.94 510.45 301.38 497.08 298.56 488.63 297.23 482.7 296.77 476.24 297.18 469.39 297.58 462.48 298.65 455.23 300.3 447.72 301.59 440.2 303.2 432.46 305.05 424.59 306.2 416.71 307.39 409.07 308.6 401.73 309.12 394.38 309.78 387.3 310.63 380.54 311.02 373.74 311.81 367.22 313.07 361.04 314.14 354.77 315.85 348.79 318.24 343.16 320.62 337.4 323.76 331.95 327.61 326.87 331.55 321.65 336.19 316.78 341.45 312.33 346.78 307.76 352.69 303.61 359.08 300 365.49 296.29 372.34 293.15 379.56 290.69" stroke-dasharray="8 8" transform="rotate(64.64, 400, 400)" opacity="0.39"></path><path d="M383.47 301.7C390.04 299.43 396.76 297.92 403.58 297.13 410.45 296.4 417.47 296.42 424.6 297.15 431.85 297.97 439.27 299.5 446.81 301.7 454.49 303.99 462.29 306.94 470.09 310.46 477.95 314.08 485.7 318.24 493.12 322.89 500.33 327.6 506.97 332.75 512.73 338.28 517.9 343.83 521.89 349.73 524.44 355.89 526.06 362.05 526.03 368.46 524.25 375.04 521.5 381.61 517.28 388.05 511.89 394.3 506.01 400.55 499.35 406.64 492.22 412.5 485.11 418.41 477.81 424.14 470.53 429.65 463.57 435.25 456.72 440.68 450.06 445.89 443.76 451.23 437.59 456.4 431.53 461.33 425.74 466.43 419.94 471.31 414.09 475.9 408.36 480.64 402.48 485.08 396.42 489.11 390.39 493.23 384.13 496.88 377.66 499.95 371.19 503 364.82 505.24 358.66 506.67 349.58 508.22 333.25 506.87 326.39 504.05 320.39 500.21 312.17 488.83 310.14 481.54 309.17 476.42 308.94 470.81 309.42 464.81 309.84 458.76 310.82 452.36 312.3 445.69 313.45 439.01 314.89 432.08 316.59 424.99 317.69 417.9 318.88 410.98 320.13 404.29 320.79 397.59 321.6 391.09 322.59 384.86 323.15 378.6 324.04 372.57 325.31 366.82 327.15 358.23 333.46 342.32 338.1 335.05 341.41 330.21 345.35 325.7 349.88 321.58 354.43 317.37 359.54 313.55 365.17 310.23 370.79 306.84 376.91 303.97 383.47 301.7" stroke-dasharray="1 5" transform="rotate(68.68, 400, 400)" opacity="0.49"></path><path d="M389 312.71C400.83 308.61 413.59 307.24 426.75 308.34 440.18 309.68 454.22 313.53 468.01 319.47 481.69 325.66 494.26 333.79 504.04 343.36 511.82 353.01 515.12 363.94 512.71 375.65 507.35 387.35 497.56 398.75 485.34 409.44 472.87 420.27 459.65 430.63 446.78 440.16 434.87 450.08 423.15 459.39 411.75 467.59 400.77 476.19 389.43 483.58 377.92 488.93 366.41 494.26 355.78 496.62 346.65 496.17 337.76 495.28 330.79 491.5 326.33 485.3 322.3 478.71 320.77 469.93 321.78 459.58 322.4 449.09 324.63 437.26 328.13 424.67 329.7 412.06 331.82 399.89 334.42 388.59 335.54 377.19 338.01 366.5 342.06 356.91 345.7 347.06 351.5 338.17 359.38 330.73 367.22 323.02 377.17 316.8 389 312.71" stroke-dasharray="10 11" transform="rotate(72.72, 400, 400)" opacity="0.80"></path><path d="M395.61 323.73C406.13 320.06 417.58 318.78 429.4 319.63 441.34 320.64 453.65 323.81 465.46 328.8 476.96 333.95 487.24 340.83 494.93 349.02 501.02 357.26 503.41 366.71 501.18 376.98 496.73 387.24 488.58 397.37 478.25 406.98 467.52 416.7 455.81 426.06 444.12 434.71 432.98 443.64 421.91 451.99 411.24 459.28 400.87 466.86 390.47 473.3 380.34 477.92 370.21 482.52 361.23 484.57 353.8 484.24 346.5 483.6 340.97 480.51 337.6 475.35 334.41 469.9 333.29 462.53 334.24 453.72 334.72 444.8 336.59 434.62 339.66 423.61 341.2 412.6 343.39 401.83 346.08 391.73 347.56 381.57 350.15 371.96 354.03 363.3 357.43 354.46 362.6 346.47 369.53 339.79 376.36 332.92 385.09 327.37 395.61 323.73" stroke-dasharray="4 6" transform="rotate(76.76, 400, 400)" opacity="0.68"></path><path d="M402.65 334.74C411.82 331.54 421.78 330.36 431.97 331 442.18 331.74 452.52 334.3 462.2 338.42 471.51 342.63 479.59 348.34 485.42 355.22 490.02 362.14 491.66 370.16 489.64 378.98 486.03 387.81 479.42 396.63 470.93 405.08 462 413.6 452 421.86 441.8 429.51 431.85 437.34 421.84 444.65 412.21 450.99 402.76 457.5 393.47 463 384.69 466.91 375.91 470.8 368.4 472.54 362.38 472.3 354.21 470.61 346.41 457.69 346.74 447.3 347.06 439.87 348.57 431.27 351.2 421.86 352.67 412.44 354.84 403.13 357.55 394.31 359.3 385.45 362.01 377.02 365.74 369.38 369.03 361.63 373.73 354.62 379.86 348.75 385.86 342.76 393.47 337.93 402.65 334.74" stroke-dasharray="1 8" transform="rotate(80.80000000000001, 400, 400)" opacity="0.63"></path><path d="M409.42 345.76C417.19 343.04 425.5 342 433.88 342.46 442.23 342.98 450.49 345 458.03 348.31 465.23 351.68 471.3 356.3 475.49 361.94 478.83 367.59 479.86 374.23 478.1 381.61 475.26 388.99 470.08 396.45 463.34 403.65 456.21 410.9 448.04 417.96 439.54 424.51 431.1 431.16 422.49 437.35 414.18 442.69 405.97 448.13 397.96 452.69 390.54 455.89 372.74 459.43 359.11 448.77 359.25 440.36 359.39 434.33 360.55 427.28 362.74 419.46 364.08 411.65 366.16 403.82 368.78 396.36 370.7 388.87 373.44 381.7 377 375.18 380.18 368.59 384.46 362.62 389.85 357.62 395.12 352.55 401.66 348.46 409.42 345.76" stroke-dasharray="11 10" transform="rotate(84.84, 400, 400)" opacity="0.32"></path><path d="M415.28 356.77C427.87 352.35 441.56 353.32 452.81 358.45 463.03 363.67 468.77 372.9 466.57 384.78 461.67 396.65 450.35 409.03 437.06 419.66 423.65 430.53 409.39 439.84 397.32 444.88 385.24 449.89 377.29 449.25 374.01 444.1 370.27 438.67 370.31 428.94 374.27 416.49 376.06 404.04 380.79 391.32 387.58 380.71 393.32 369.97 402.68 361.16 415.28 356.77" stroke-dasharray="7 3" transform="rotate(88.88, 400, 400)" opacity="0.99"></path><path d="M419.63 367.78C429.17 364.41 438.9 365.05 446.44 368.81 453.33 372.6 456.91 379.44 455.03 388.4 451.67 397.35 443.71 406.79 434.11 414.91 424.29 423.15 413.56 430.14 404.35 433.87 392.08 437.35 383.08 425.89 385.81 413.04 387.41 403.74 391.57 394.11 397.33 386 402.46 377.85 410.09 371.15 419.63 367.78" stroke-dasharray="9 1" transform="rotate(92.92, 400, 400)" opacity="0.34"></path><path d="M422.07 378.8C434.86 374.22 445.59 380.33 443.49 392.36 438.83 404.37 423.43 417.97 410.96 422.85 398.49 427.71 393.15 421.51 397.35 409.2 399.23 396.87 409.26 383.35 422.07 378.8" stroke-dasharray="10 4" transform="rotate(96.96, 400, 400)" opacity="0.65"></path></g></svg>