<?xml version="1.0" encoding="utf-8"?>
<!-- Generator: Adobe Illustrator 25.2.0, SVG Export Plug-In . SVG Version: 6.00 Build 0)  -->
<svg version="1.1" id="Layer_1" xmlns="http://www.w3.org/2000/svg" xmlns:xlink="http://www.w3.org/1999/xlink" x="0px" y="0px"
	 viewBox="0 0 512 512" style="enable-background:new 0 0 512 512;" xml:space="preserve">
<style type="text/css">
	.st0{fill:#034EA2;}
	.st1{fill:#FFFFFF;}
</style>
<g id="g8882">
	<path id="path10" class="st0" d="M511.7,211.5c7,40-101.8,92.3-243.1,116.9C127.4,353,7.3,340.5,0.3,300.5s101.9-92.3,243.1-116.9
		S504.7,171.5,511.7,211.5z"/>
	<g id="g8872">
		<polygon id="polygon16" class="st1" points="377.4,271.4 376.7,229.8 389.8,229.8 389.8,282.2 370.9,282.2 357.9,239.2 
			357.6,239.2 358.3,282.2 345.3,282.2 345.3,229.8 364.9,229.8 377.1,271.4 		"/>
		<polygon id="polygon18" class="st1" points="139.2,234.7 131.9,282.8 117.6,282.8 127.4,229.8 151,229.8 160.7,282.8 146.5,282.8 
			139.5,234.7 		"/>
		<polygon id="polygon20" class="st1" points="194,282.8 185.2,235.2 184.9,235.2 184.6,282.8 171.3,282.8 172.5,229.8 194.1,229.8 
			200.6,270.3 200.9,270.3 207.4,229.8 229,229.8 230.2,282.8 216.9,282.8 216.6,235.2 216.3,235.2 207.5,282.8 		"/>
		<path id="path22" class="st1" d="M95.3,267.8c0.4,1.3,0.5,2.6,0.1,3.9c-0.4,1.8-1.7,3.6-5.2,3.6c-3.3,0-5.3-1.9-5.3-4.8v-5.1H70.7
			v4.1c0,11.8,9.3,15.4,19.2,15.4c9.6,0,17.5-3.3,18.7-12.1c0.5-2.9,0.4-5.8-0.1-8.7c-2.2-11.1-22.3-14.4-23.8-20.6
			c-0.2-0.9-0.2-1.9-0.1-2.8c0.4-1.7,1.5-3.5,4.8-3.5c3.1,0,4.9,1.9,4.9,4.8v3.3h13.2v-3.7c0-11.5-10.3-13.3-17.8-13.3
			c-9.4,0-17.1,3.1-18.5,11.7c-0.4,2.4-0.4,4.8,0.1,7.2C73.8,257.8,92.6,261,95.3,267.8L95.3,267.8z"/>
		<path id="path24" class="st1" d="M267.5,267.7c0.4,1.3,0.5,2.6,0.1,3.9c-0.4,1.8-1.6,3.5-5.1,3.5c-3.3,0-5.3-1.9-5.3-4.7v-5.1
			h-14.1v4c0,11.7,9.2,15.2,19.1,15.2c9.5,0,17.3-3.2,18.5-12c0.5-2.8,0.5-5.8,0-8.6c-2.2-11-22.1-14.3-23.6-20.4
			c-0.2-0.9-0.2-1.8-0.1-2.7c0.4-1.7,1.5-3.5,4.8-3.5c3.1,0,4.8,1.9,4.8,4.7v3.2h13.1v-3.7c0-11.4-10.3-13.2-17.7-13.2
			c-9.3,0-16.9,3.1-18.3,11.6c-0.4,2.3-0.4,4.7,0.1,7.1C246.2,257.8,264.8,261,267.5,267.7L267.5,267.7z"/>
		<path id="path26" class="st1" d="M311.9,274.8c3.7,0,4.8-2.5,5.1-3.8c0.1-0.7,0.1-1.3,0.1-2v-39.2h13.4v38c0,1-0.1,3-0.1,3.5
			c-0.9,9.9-8.8,13.1-18.5,13.1s-17.6-3.2-18.5-13.1c-0.1-0.5-0.1-2.5-0.1-3.5v-38h13.4V269c0,0.7,0,1.4,0.1,2
			C307.1,272.3,308.2,274.8,311.9,274.8z"/>
		<path id="path28" class="st1" d="M422.4,274.3c3.8,0,5.2-2.4,5.4-3.8c0.1-0.7,0.1-1.3,0.1-2v-7.7h-5.4V253h18.8v14.2
			c0,1,0,1.7-0.2,3.5c-0.9,9.6-9.2,13.1-18.6,13.1c-9.4,0-17.7-3.4-18.6-13.1c-0.2-1.8-0.2-2.5-0.2-3.5v-22.3c0-0.9,0.1-2.6,0.2-3.5
			c1.2-9.9,9.2-13.1,18.6-13.1s17.6,3.2,18.6,13.1c0.1,1.2,0.1,2.3,0.1,3.5v1.8h-13.4v-3c0-0.7-0.1-1.3-0.2-2
			c-0.2-1.2-1.2-3.9-5.3-3.9c-3.9,0-5,2.5-5.3,3.9c-0.2,0.8-0.2,1.7-0.2,2.5v24.2c0,0.7,0,1.3,0.1,2
			C417.2,271.9,418.5,274.3,422.4,274.3z"/>
	</g>
</g>
</svg>
