<?xml version="1.0" encoding="utf-8"?>
<!-- Generator: Adobe Illustrator 25.2.0, SVG Export Plug-In . SVG Version: 6.00 Build 0)  -->
<svg version="1.1" id="Layer_1" xmlns="http://www.w3.org/2000/svg" xmlns:xlink="http://www.w3.org/1999/xlink" x="0px" y="0px"
	 viewBox="0 0 512 512" style="enable-background:new 0 0 512 512;" xml:space="preserve">
<style type="text/css">
	.st0{fill:#EFEFEF;}
</style>
<g>
	<path class="st0" d="M303.8,315.4L303.8,315.4c-20,0-37.6-14.2-37.6-39.6v-52.3h20.9v53.8c0,11.7,6,19.4,16.9,19.4
		c10.9,0,16.9-7.7,16.9-19.4v-53.8h20.9v52.3C341.7,301.2,323.9,315.4,303.8,315.4"/>
	<path class="st0" d="M121.6,196.6h-20.5v24.7C111.8,217.4,119.8,208.1,121.6,196.6"/>
	<path class="st0" d="M101.2,225.5v87.8h20.9v-59.2C121.5,241,113.1,229.8,101.2,225.5"/>
	<path class="st0" d="M173.4,223.4c-17.7,0-32.2,14.4-32.2,32.2v57.6h20.5v-54.9c0-8.9,7.2-16.2,16.2-16.2h7.4v-18.7H173.4z"/>
	<path class="st0" d="M399.7,259.4l-14.2-3.3c-0.7-0.1-1.3-0.3-1.9-0.6c-4.1-1.4-7-4.1-7-8c0-4.6,4.6-8.4,12.3-8.4
		c10.2,0,17.2,5.9,21.2,11.4l13-14.3c-8.3-8.6-18.6-15-33.6-15c-18.9,0-32.9,10.2-32.9,26.7c0,15.6,10.4,24.2,27.3,28.5l11.9,3
		c1.4,0.4,2.7,0.9,3.9,1.3c4.9,2,6.6,4.4,6.6,7.6c0,4.4-3.1,9.2-14,9.2c-10.7,0-19.3-4.4-26-13.2L353,297.9
		c7,8.9,18.6,17.4,37.5,17.4c23.6,0,35.8-12.3,35.8-27.9C426.5,271.7,415.1,263,399.7,259.4"/>
	<path class="st0" d="M252.6,294.5c-0.6,0-4.9,0.4-6.7,0.4l0,0l0,0c-11.7,0-14.7-3.3-14.7-16.3v-36.5h0.1h21.5v-18.7h-21.5h-0.1
		v-26.7h-20.6v26.7h-13.2v18.7h13.2v39.5c0,22.7,7.6,31.9,31,31.9c6.6,0,10.6-0.3,11.2-0.4v-18.6H252.6z"/>
	<polygon class="st0" points="86.7,223.4 54.7,313.3 32,313.3 0.1,223.4 21.5,223.4 43.4,289.3 65.3,223.4 	"/>
	<path class="st0" d="M469.6,297.8c-9.9,0-14.4-5.1-14.4-11.2c0-7.9,6.9-12,17-12c8,0,14.3,1.7,20,3.9v11
		C487.2,294.2,478.2,297.8,469.6,297.8 M491.3,306.3c0.3-0.3,0.6-0.4,0.9-0.7v7.7h19.7v-58.2c0-22.9-16-33.9-38.3-33.9
		c-13.7,0-28.5,6-35.6,18.7l14,13.2c5.7-10.3,14.4-13,21.5-13.2c11.2-0.1,18.7,7.3,18.7,16.4v4.9c-0.4-0.1-0.7-0.3-1.1-0.4l0,0
		c-0.6-0.1-1.3-0.4-2.1-0.7c-0.1,0-0.4-0.1-0.6-0.1c-0.1,0-0.3,0-0.4-0.1c-0.3,0-0.4-0.1-0.7-0.1c-0.1,0-0.4-0.1-0.6-0.1
		c-0.1,0-0.1,0-0.3-0.1c-3.9-1-8.9-1.9-13.4-1.9c-20.7,0-37.5,9.6-37.5,30c0,17.3,13.9,27.3,30.3,27.3
		C477.2,315.4,485.6,311.3,491.3,306.3z"/>
</g>
</svg>
