<svg width="120" height="29" viewBox="0 0 120 29" fill="none" xmlns="http://www.w3.org/2000/svg">
<path d="M46.6936 27.3076H53.2838C53.6456 27.3076 53.8588 26.8967 53.6521 26.5967L47.8953 18.294C47.7984 18.157 47.8566 17.9679 48.0052 17.8961C49.3555 17.2439 50.4345 16.3503 51.2163 15.2024C52.1144 13.885 52.5666 12.2283 52.5666 10.2456V9.66509C52.5666 7.68234 52.1208 6.01918 51.2357 4.6756C50.3505 3.33203 49.0777 2.31457 47.4237 1.62321C45.7696 0.931858 43.8055 0.586182 41.5247 0.586182H31.0773C30.8318 0.586182 30.625 0.78837 30.625 1.04274V26.8511C30.625 27.0989 30.8253 27.3076 31.0773 27.3076H36.8663C37.1119 27.3076 37.3186 27.1055 37.3186 26.8511V19.6245C37.3186 19.3766 37.5189 19.1679 37.7709 19.1679H40.8916C41.0402 19.1679 41.1823 19.2462 41.2663 19.3701L46.3253 27.0989C46.4093 27.2229 46.5514 27.3011 46.7 27.3011L46.6936 27.3076ZM37.3186 6.70401C37.3186 6.45616 37.5189 6.24745 37.7709 6.24745H41.9253C42.7136 6.24745 43.3984 6.40399 43.9735 6.71705C44.5485 7.03012 45.0008 7.48015 45.3238 8.06063C45.6469 8.6411 45.8084 9.33246 45.8084 10.1282C45.8084 10.9239 45.6469 11.5826 45.3238 12.1631C45.0008 12.7436 44.5485 13.1936 43.9735 13.5067C43.3984 13.8197 42.7136 13.9763 41.9253 13.9763H37.7709C37.5254 13.9763 37.3186 13.7741 37.3186 13.5197V6.69749V6.70401Z" fill="black"></path>
<path d="M78.3051 0.796875C78.1178 0.796875 77.9498 0.914275 77.8852 1.08385L72.445 14.3696C72.3868 14.5196 72.1736 14.5196 72.1155 14.3696L66.6365 1.09037C66.5719 0.914275 66.4039 0.803397 66.2166 0.803397H57.6945C57.4489 0.803397 57.2422 1.00559 57.2422 1.25995V26.8531C57.2422 27.1009 57.4425 27.3096 57.6945 27.3096H62.9085C63.154 27.3096 63.3608 27.1074 63.3608 26.8531V8.99529C63.3608 8.69526 63.7743 8.617 63.8841 8.89745L68.9366 21.681C69.0077 21.8505 69.1692 21.9679 69.3566 21.9679H74.8226C75.01 21.9679 75.1715 21.8571 75.2426 21.681L80.3274 8.7344C80.4373 8.45394 80.8508 8.53221 80.8508 8.83223V26.8466C80.8508 27.0944 81.0511 27.3031 81.303 27.3031H87.021C87.2666 27.3031 87.4733 27.1009 87.4733 26.8466V1.25343C87.4733 1.00559 87.273 0.796875 87.021 0.796875H78.318H78.3051Z" fill="black"></path>
<path d="M105.66 28.0324C103.263 28.0324 101.176 27.615 99.3991 26.7802C97.6223 25.9453 96.1492 24.8431 94.9733 23.4734C93.7974 22.1038 92.9252 20.6232 92.3501 19.0253C91.7751 17.4273 91.4844 15.8816 91.4844 14.3749V13.5792C91.4844 11.9095 91.7816 10.2659 92.3825 8.66149C92.9833 7.0505 93.8814 5.59605 95.0832 4.28509C96.2849 2.98065 97.7645 1.93709 99.5219 1.16095C101.286 0.38481 103.327 0 105.653 0C107.979 0 109.989 0.38481 111.753 1.16095C113.516 1.93709 114.996 2.97412 116.198 4.28509C117.393 5.58953 118.304 7.0505 118.911 8.66149C119.525 10.2725 119.829 11.9095 119.829 13.5792V14.3749C119.829 15.875 119.538 17.4273 118.95 19.0253C118.362 20.6232 117.484 22.1038 116.308 23.4734C115.132 24.8431 113.659 25.9453 111.882 26.7802C110.105 27.615 108.031 28.0324 105.66 28.0324ZM105.66 21.7124C106.81 21.7124 107.844 21.5168 108.755 21.1319C109.666 20.7471 110.447 20.1993 111.094 19.5014C111.74 18.797 112.231 17.9817 112.567 17.049C112.903 16.1164 113.071 15.1054 113.071 14.0162C113.071 12.8553 112.896 11.7987 112.547 10.8595C112.198 9.91375 111.701 9.105 111.055 8.42669C110.409 7.74838 109.627 7.2266 108.716 6.86788C107.805 6.50264 106.784 6.32001 105.66 6.32001C104.536 6.32001 103.476 6.50264 102.565 6.86788C101.654 7.23312 100.872 7.7549 100.226 8.42669C99.58 9.105 99.089 9.91375 98.753 10.8595C98.4171 11.8052 98.2491 12.8553 98.2491 14.0162C98.2491 15.1054 98.4171 16.1164 98.753 17.049C99.089 17.9817 99.58 18.797 100.226 19.5014C100.872 20.2058 101.654 20.7471 102.565 21.1319C103.476 21.5168 104.51 21.7124 105.66 21.7124Z" fill="black"></path>
<path d="M18.6481 0.796875H8.58183C8.388 0.796875 8.21355 0.927319 8.1554 1.10994L0.0209741 26.7161C-0.0694802 27.0096 0.143734 27.3096 0.447402 27.3096H27.0539C27.3576 27.3096 27.5772 27.0096 27.4803 26.7161L19.0745 1.10994C19.0164 0.927319 18.8419 0.796875 18.6481 0.796875ZM8.36862 21.1983L12.788 6.5625C12.8461 6.37336 13.0206 6.24291 13.2208 6.24291H13.8993C14.0931 6.24291 14.2675 6.37336 14.3257 6.5625L18.8678 21.1983C18.9582 21.4918 18.745 21.7853 18.4414 21.7853H8.80151C8.49784 21.7853 8.28462 21.4918 8.36862 21.1983Z" fill="black"></path>
</svg>