<svg width="145" height="62" viewBox="0 0 145 62" fill="none" xmlns="http://www.w3.org/2000/svg"><path d="M72.5477 39.2668H63.8815L61.6315 44.1922H58.3359L68.3471 22.6274L78.0134 44.189H74.67L72.5477 39.2668ZM71.3026 36.3869L68.3016 29.4872L65.1553 36.3869H71.3026Z" fill="#12153E"></path><path d="M79.3965 31.3927L82.7008 38.5812L85.9907 31.3927H89.3102L82.6737 44.185L76.0938 31.3927H79.3965Z" fill="#12153E"></path><path d="M101.797 38.4901H92.6435C92.6729 39.4225 93.0358 40.3132 93.6659 40.9996C93.9685 41.3051 94.3308 41.5445 94.7301 41.7028C95.1294 41.8611 95.557 41.9349 95.9862 41.9196C96.6344 41.9453 97.2736 41.761 97.8091 41.394C98.4527 40.8415 98.9978 40.1833 99.4214 39.4477L101.912 40.8396C101.565 41.4435 101.157 42.0094 100.693 42.5284C100.29 42.9758 99.8262 43.3649 99.316 43.6843C98.8246 43.9875 98.2886 44.2113 97.7277 44.3475C97.1222 44.4917 96.5016 44.5623 95.8792 44.5579C95.0278 44.5951 94.1782 44.4502 93.387 44.133C92.5957 43.8157 91.8808 43.3334 91.2899 42.718C90.094 41.3698 89.4725 39.6057 89.5587 37.8038C89.4764 36.0121 90.0754 34.2558 91.2348 32.8896C92.4225 31.7117 94.023 31.0467 95.6938 31.037C97.3646 31.0273 98.9728 31.6736 100.174 32.8376C101.324 34.2216 101.906 35.9927 101.8 37.791L101.797 38.4901ZM98.7685 36.0686C98.6546 35.3743 98.2867 34.7473 97.7365 34.3101C97.1864 33.8729 96.4935 33.6568 95.793 33.7039C95.4499 33.7003 95.1086 33.7543 94.7833 33.8639C94.4723 33.9717 94.1819 34.1319 93.9245 34.3375C93.6644 34.5464 93.4408 34.7973 93.2629 35.0799C93.0721 35.3842 92.9304 35.7168 92.8431 36.0654L98.7685 36.0686Z" fill="#12153E"></path><path d="M111.769 33.5752L109.33 34.8767C108.947 34.0874 108.471 33.6933 107.902 33.6944C107.645 33.6883 107.395 33.7837 107.207 33.96C107.112 34.0474 107.037 34.1543 106.987 34.2735C106.938 34.3927 106.914 34.5212 106.919 34.6503C106.919 35.141 107.487 35.6271 108.623 36.1087C109.78 36.5336 110.85 37.1657 111.781 37.9742C112.345 38.6027 112.638 39.4298 112.594 40.2741C112.605 40.8593 112.489 41.4398 112.254 41.9754C112.018 42.511 111.669 42.9888 111.231 43.3756C110.637 43.887 109.929 44.2478 109.167 44.4278C108.405 44.6077 107.611 44.6015 106.851 44.4096C106.092 44.2178 105.39 43.8459 104.804 43.3253C104.218 42.8047 103.765 42.1506 103.484 41.4181L106.001 40.2485C106.215 40.6716 106.483 41.0648 106.799 41.4181C107.146 41.7464 107.607 41.9256 108.083 41.9172C109.079 41.9172 109.578 41.4618 109.579 40.5509C109.579 40.0256 109.194 39.5352 108.425 39.0797C108.127 38.931 107.83 38.7864 107.533 38.6462C107.236 38.5059 106.935 38.3614 106.629 38.2126C105.948 37.918 105.332 37.489 104.82 36.951C104.356 36.366 104.119 35.6333 104.151 34.8871C104.136 34.3725 104.23 33.8606 104.427 33.3851C104.623 32.9095 104.918 32.4811 105.292 32.128C106.056 31.406 107.073 31.0143 108.123 31.0377C108.917 31.034 109.693 31.2758 110.346 31.7301C110.998 32.1845 111.494 32.8293 111.768 33.5768L111.769 33.5752Z" fill="#12153E"></path><path d="M114.578 21.9995H117.532V32.4575C118.465 31.5595 119.705 31.0522 120.999 31.0392C121.642 31.0109 122.285 31.1219 122.882 31.3646C123.479 31.6072 124.017 31.9759 124.459 32.4455C125.289 33.568 125.681 34.9559 125.561 36.3477V44.1922H122.608V36.6269C122.672 35.8451 122.482 35.0635 122.064 34.3998C121.846 34.1564 121.574 33.9674 121.27 33.8478C120.966 33.7283 120.639 33.6814 120.314 33.711C119.899 33.6685 119.481 33.7346 119.099 33.9028C118.718 34.0711 118.386 34.3358 118.137 34.671C117.643 35.7101 117.43 36.861 117.52 38.0085V44.2002H114.566L114.578 21.9995Z" fill="#12153E"></path><path d="M138.037 31.3936H141V44.193H138.037V42.8515C136.986 43.9278 135.552 44.5418 134.05 44.5584C132.547 44.5751 131.1 43.9931 130.025 42.9403C129.927 42.8438 129.832 42.7438 129.741 42.6403C128.577 41.2838 127.963 39.5379 128.024 37.7493C127.964 35.9884 128.579 34.2713 129.741 32.9495C130.273 32.3324 130.934 31.8403 131.677 31.5085C132.42 31.1766 133.227 31.0131 134.041 31.0296C134.799 31.0394 135.546 31.2081 136.235 31.525C136.924 31.8419 137.539 32.2999 138.04 32.8695L138.037 31.3936ZM131.037 37.7541C130.99 38.8395 131.34 39.9047 132.022 40.7492C132.331 41.1235 132.72 41.4231 133.16 41.6256C133.601 41.8281 134.081 41.9283 134.565 41.9187C135.062 41.9366 135.556 41.8446 136.013 41.6494C136.47 41.4542 136.879 41.1605 137.21 40.7892C137.864 39.9381 138.219 38.894 138.219 37.8197C138.219 36.7454 137.864 35.7013 137.21 34.8502C136.885 34.4769 136.481 34.1807 136.028 33.983C135.574 33.7853 135.083 33.6911 134.588 33.7071C134.105 33.6993 133.627 33.799 133.187 33.9989C132.747 34.1987 132.357 34.4939 132.045 34.863C131.362 35.6677 131.002 36.6982 131.035 37.7541H131.037Z" fill="#12153E"></path><path d="M30.4018 10L20.6836 31.3064L25.229 35.519L30.0778 40.018L34.9241 35.519L39.6818 31.1088L30.4018 10Z" fill="url(#paint0_linear_1595_1387)"></path><path d="M4 15.8413L12.1547 49.9999L20.6764 31.3087L4 15.8413Z" fill="#69BDFA"></path><path d="M25.225 35.5198L20.6835 31.3071L12.1602 49.9976H19.3123L30.0793 40.0188L25.225 35.5198Z" fill="url(#paint1_linear_1595_1387)"></path><path d="M39.6875 31.1089L47.9994 49.9985L56.1604 15.8463L39.6875 31.1089Z" fill="#69BDFA"></path><path d="M34.93 35.5183L30.082 40.0149L40.8458 49.9961H48.0004L39.6901 31.1064L34.93 35.5183Z" fill="url(#paint2_linear_1595_1387)"></path><path d="M19.3125 49.9968H40.8441L30.0795 40.0156L19.3125 49.9968Z" fill="#2868F3"></path><defs><linearGradient id="paint0_linear_1595_1387" x1="28.8148" y1="2.40545" x2="32.2142" y2="41.2209" gradientUnits="userSpaceOnUse"><stop stop-color="#2C2AD2"></stop><stop offset="1" stop-color="#2BBAFE"></stop></linearGradient><linearGradient id="paint1_linear_1595_1387" x1="21.1197" y1="31.3071" x2="21.1197" y2="49.9976" gradientUnits="userSpaceOnUse"><stop stop-color="#2863E4"></stop><stop offset="1" stop-color="#3A87F4"></stop></linearGradient><linearGradient id="paint2_linear_1595_1387" x1="39.0412" y1="31.1064" x2="39.0412" y2="49.9961" gradientUnits="userSpaceOnUse"><stop stop-color="#2863E4"></stop><stop offset="1" stop-color="#3A87F4"></stop></linearGradient></defs></svg>