<svg width="285" height="67" viewBox="0 0 285 67" fill="none" xmlns="http://www.w3.org/2000/svg" class="logo_Ufb2" role=""><path d="M50.301 65.537A3.822 3.822 0 0 1 47.276 67l-26.765-.04a3.85 3.85 0 0 1-3.017-1.47L.841 44.346a3.951 3.951 0 0 1-.746-3.303l6.003-26.326a3.87 3.87 0 0 1 2.09-2.642L32.33.382a3.82 3.82 0 0 1 3.348.008l24.101 11.756a3.911 3.911 0 0 1 2.083 2.65l5.917 26.35a3.939 3.939 0 0 1-.755 3.294L50.301 65.537Z" fill="url(#a)"></path><path d="M38.03 41.074c.66.008 1.352.04 1.54.07.19.032.637.127.983.22.354.095.864.268 1.147.378.275.11.668.29.873.401.204.11.518.29.691.393.181.102.503.322.723.487.22.165.653.55.975.865.314.306.7.73.856.935.15.204.401.558.55.778.142.22.362.59.48.825.126.236.314.668.432.967.11.29.252.7.315.912.055.204.11.432.125.503.016.078.063.314.11.534.047.22.095.645.118.943.016.291.063.566.095.598.039.047.204.07.503.07.243 0 .55.016.691.047.134.024.417.079.62.11.205.04.527.118.724.173.188.055.471.158.636.213a7.8 7.8 0 0 1 .716.314c.236.11.652.354.935.534.33.22.715.543 1.116.96.346.345.73.793.88 1.02.142.22.338.559.432.748.095.188.173.392.173.455 0 .055-.118.252-.26.425-.14.18-.58.746-.99 1.257-.408.519-.801 1.022-.887 1.124-.087.11-.393.503-.692.888-.299.385-.558.708-.574.723-.016.016-.157.197-.322.401-.165.204-.424.543-.581.747-.158.204-.3.385-.315.4-.016.016-.173.213-.346.433-.18.22-.353.44-.4.487a6.632 6.632 0 0 0-.268.346c-.102.134-.448.574-.762.974-.322.401-.652.81-.747.904a1.2 1.2 0 0 1-.416.26c-.22.063-.747.078-3.568.07-1.815-.007-8.102-.023-13.965-.031-5.863-.008-10.743-.031-10.845-.047a1.996 1.996 0 0 1-.401-.157 2.205 2.205 0 0 1-.354-.275 7.684 7.684 0 0 1-.377-.448c-.126-.165-.385-.503-.574-.755a22.952 22.952 0 0 0-.369-.471c-.023-.016-.228-.283-.471-.59a62.297 62.297 0 0 0-.747-.967c-.18-.22-.472-.59-.652-.825a73.603 73.603 0 0 0-.417-.518c-.047-.048-.157-.197-.251-.323-.095-.126-.362-.471-.59-.77l-1.17-1.486c-.417-.518-.755-.974-.755-.997 0-.032.07-.158.157-.284a4.9 4.9 0 0 1 .519-.581c.196-.189.455-.417.573-.511.118-.086.37-.26.558-.377a5.936 5.936 0 0 1 1.038-.519 4.42 4.42 0 0 1 .597-.196c.212-.056.44-.102.503-.102.07 0 .15-.032.18-.063.04-.047.072-.393.087-.873.024-.503.07-1.03.15-1.391.062-.33.188-.81.274-1.077.087-.26.244-.66.346-.88.102-.22.291-.581.425-.802.141-.22.377-.573.526-.778.15-.204.527-.613.825-.911a9.677 9.677 0 0 1 1.006-.857c.244-.173.715-.448 1.038-.62.322-.166.723-.347.903-.41.173-.062.488-.157.692-.212.204-.063.527-.141.715-.18.236-.048.739-.071 1.572-.071.81 0 1.32.023 1.509.063.165.039.393.102.51.133.118.032.44.134.716.22.275.095.73.283 1.014.425.275.141.526.26.558.26.023 0 .141-.143.259-.315.11-.165.346-.48.51-.684.166-.204.52-.582.779-.825.26-.252.676-.613.92-.81.25-.189.604-.448.8-.558.19-.118.598-.338.905-.495.306-.15.809-.354 1.115-.456.307-.102.77-.236 1.038-.298.26-.056.62-.134.794-.158.173-.031.856-.047 1.517-.039ZM23.25 21.412h2.53l-3.41-4.332 3.293-4.168h-2.437l-2.83 3.727v-3.727H18.33v8.5h2.067v-3.75l2.854 3.75Zm10.18-6.762h-2.068v3.672c0 .92-.511 1.431-1.313 1.431-.77 0-1.289-.511-1.289-1.43V14.65H26.7v3.947c0 1.809 1.054 2.886 2.618 2.886.904 0 1.627-.417 2.044-.99v.92h2.067V14.65Zm3.56.951v-3.16h-2.067v8.963h2.067v-.943c.377.59 1.093 1.038 2.083 1.038 1.659 0 2.98-1.353 2.98-3.484 0-2.13-1.313-3.467-2.98-3.467-.967 0-1.706.448-2.083 1.053Zm2.956 2.414c0 1.078-.708 1.683-1.494 1.683-.77 0-1.478-.598-1.478-1.675s.708-1.667 1.478-1.667c.786 0 1.494.582 1.494 1.66Zm6.17-1.808c.692 0 1.273.424 1.273 1.164h-2.594c.126-.747.645-1.164 1.321-1.164Zm3.23 2.956h-2.2c-.173.362-.495.653-1.077.653-.668 0-1.21-.409-1.281-1.297h4.685c.023-.205.031-.41.031-.606 0-2.052-1.391-3.365-3.364-3.365-2.005 0-3.412 1.336-3.412 3.475 0 2.147 1.43 3.476 3.412 3.476 1.682 0 2.885-1.014 3.207-2.336Zm-34.664 13.25c-.032-2.516-3.687-1.754-3.687-2.831 0-.322.267-.519.747-.519.581 0 .935.299.998.763h1.91c-.133-1.337-1.1-2.304-2.845-2.304-1.769 0-2.751.944-2.751 2.1 0 2.476 3.686 1.69 3.686 2.783 0 .299-.283.542-.817.542-.566 0-.99-.314-1.038-.786H8.841c.095 1.306 1.305 2.312 3.105 2.312 1.698 0 2.736-.88 2.736-2.06Zm1.273 1.966h2.067v-6.755h-2.067v6.755Zm1.046-7.463c.723 0 1.218-.495 1.218-1.116 0-.63-.495-1.125-1.218-1.125-.74 0-1.235.496-1.235 1.125 0 .621.496 1.116 1.235 1.116Zm11.838 7.463h2.06V30.43c0-1.816-1.086-2.886-2.752-2.886-.983 0-1.832.543-2.28 1.259-.456-.81-1.28-1.258-2.295-1.258-.888 0-1.572.377-1.973.92v-.85h-2.075v6.763h2.075v-3.672c0-.881.503-1.369 1.297-1.369.786 0 1.29.488 1.29 1.368v3.673h2.059v-3.672c0-.881.51-1.369 1.297-1.369.786 0 1.297.488 1.297 1.368v3.673Zm5.58-5.803v-.952h-2.075v9.979h2.076v-4.168c.369.566 1.084 1.038 2.083 1.038 1.658 0 2.971-1.352 2.971-3.483 0-2.131-1.313-3.468-2.971-3.468-.999 0-1.714.464-2.083 1.054Zm2.948 2.414c0 1.077-.7 1.682-1.485 1.682-.779 0-1.478-.597-1.478-1.675 0-1.077.7-1.667 1.478-1.667.786 0 1.485.582 1.485 1.66Zm3.2 3.389h2.067v-8.964h-2.068v8.964Zm3.568 0h2.075v-6.755h-2.075v6.755Zm1.046-7.463c.723 0 1.218-.495 1.218-1.108 0-.63-.495-1.125-1.218-1.125-.74 0-1.234.496-1.234 1.125 0 .613.495 1.108 1.234 1.108Zm2.735 7.463h2.068v-5.04H51.1v-1.715h-1.116v-.063c0-.715.282-.959 1.076-.904v-1.761c-2.06-.11-3.144.762-3.144 2.532v.196h-.754v1.714h.754v5.04Zm7.263-2.524-1.564-4.23h-2.31l2.75 6.526-1.556 3.444h2.232l4.237-9.97h-2.24l-1.549 4.23Z" fill="#fff"></path><path fill-rule="evenodd" clip-rule="evenodd" d="M33.86 46.915c-.508.152-.791 1.354-.548 2.324.042.166.048.216.048.414v.226l-.059.025c-.032.013-.12.034-.195.045a.881.881 0 0 0-.168.037.706.706 0 0 1-.146.035c-.42.065-1.03.33-1.617.703-.352.224-.525.177-.706-.192-.34-.696-1.397-1.48-1.876-1.394-.82.15-.187 1.511 1.04 2.238.345.204.408.35.257.589l-.141.223a.988.988 0 0 0-.075.13.499.499 0 0 1-.05.09c-.245.382-.523 1.164-.595 1.669-.03.22-.217.28-.56.178-1.175-.348-2.764.15-2.41.754.09.154.34.358.463.377.031.006.117.03.19.056.358.125 1.253.13 1.679.011.096-.026.178-.036.349-.04.266-.006.258-.012.295.21a5.11 5.11 0 0 0 .78 1.985c.05.078.118.186.15.24l.058.1-.05.061c-.079.1-.2.202-.36.3-.613.377-1.176 1.012-1.328 1.498-.407 1.304 1.332.802 2.171-.627.215-.366.365-.44.59-.29.619.41 1.164.656 1.72.775.084.018.176.043.204.054a.686.686 0 0 0 .146.032c.24.028.244.033.244.289a.893.893 0 0 1-.048.344c-.182.59-.11 1.44.166 1.992.59 1.174 1.435-.32 1.084-1.915-.121-.547-.084-.656.247-.724.782-.162 1.196-.33 1.9-.774.366-.23.447-.203.703.23.643 1.086 1.915 1.734 2.222 1.132.134-.263-.02-.662-.482-1.257a4.192 4.192 0 0 0-.767-.678c-.24-.148-.463-.325-.503-.402-.029-.053-.015-.083.16-.354.401-.626.558-.982.713-1.626l.1-.417.042-.174h.212c.174.001.233.008.324.036 1.103.344 2.71-.164 2.405-.76-.232-.455-1.52-.714-2.332-.47-.167.05-.299.065-.475.053l-.134-.01-.034-.133a38.523 38.523 0 0 1-.1-.418c-.154-.654-.335-1.063-.743-1.686-.205-.313-.163-.432.23-.648 1.235-.679 1.87-2.255.906-2.251-.27 0-.351.037-.842.378-.322.223-.718.671-.925 1.047-.21.38-.325.402-.744.136-.532-.337-1.008-.547-1.461-.647a7.28 7.28 0 0 0-.396-.087c-.324-.065-.378-.182-.265-.576.318-1.102-.095-2.637-.663-2.466Zm-.523 4.503c.021.047.028 1.469.008 1.545-.024.09-.058.117-.2.159l-.122.036-.556-.557c-.323-.324-.556-.57-.556-.586 0-.065.41-.301.748-.432.435-.169.653-.222.678-.165Zm1.465.027c.41.11 1.157.475 1.157.565 0 .01-.254.273-.565.584l-.564.564-.125-.043c-.233-.08-.23-.07-.224-.963.006-.825-.007-.795.321-.707Zm-3.6 1.47c.039.03.286.273.548.538.546.552.508.487.413.716l-.05.122h-.586c-.749 0-1.034-.013-1.046-.045-.035-.092.156-.64.376-1.076.186-.368.194-.374.345-.255Zm5.652-.012c.198.273.49 1 .529 1.313l.009.075H35.77l-.042-.083a1.604 1.604 0 0 1-.072-.168l-.029-.086.121-.127c.772-.812 1.03-1.028 1.105-.924Zm-4.729 2.564c.024.04.06.119.08.175l.037.102-.374.38c-.206.21-.466.47-.577.578l-.202.196-.038-.043c-.23-.267-.642-1.321-.552-1.411.035-.035.226-.044.998-.047l.586-.003.042.073Zm4.816-.063c.478.012.45 0 .42.192-.033.203-.213.678-.355.936-.236.429-.14.455-.816-.221l-.564-.565.041-.109c.023-.06.059-.14.08-.176l.04-.067h.375c.206 0 .557.004.78.01Zm-1.635 1.617c.745.733.723.686.4.858-.366.195-.877.388-1.122.423l-.075.011.005-.825.004-.824.126-.051c.187-.077.14-.106.662.408Zm-2.037-.39.09.042v1.64l-.075-.008a3.195 3.195 0 0 1-.562-.168 2.65 2.65 0 0 0-.173-.072c-.202-.072-.638-.318-.638-.36 0-.046.979-1.041 1.093-1.11.048-.029.16-.014.265.035Z" fill="url(#b)"></path><path d="m96.947 43.807-7.69-9.42v9.42H85.02V22.666h4.238v9.48l7.69-9.48h5.116l-8.719 10.48 8.961 10.661h-5.358Zm23.979-16.78v16.78h-4.269v-2.12c-.545.727-1.261 1.302-2.149 1.726-.868.404-1.817.606-2.846.606-1.312 0-2.472-.273-3.481-.818-1.009-.565-1.807-1.383-2.392-2.453-.565-1.09-.848-2.383-.848-3.877v-9.844h4.239v9.238c0 1.333.333 2.363.999 3.09.666.706 1.574 1.06 2.724 1.06 1.171 0 2.089-.354 2.755-1.06.666-.727.999-1.757.999-3.09v-9.238h4.269Zm8.42 2.454c.544-.808 1.291-1.464 2.24-1.969.969-.505 2.068-.757 3.299-.757 1.433 0 2.725.353 3.875 1.06 1.171.707 2.089 1.716 2.755 3.029.686 1.292 1.03 2.796 1.03 4.513 0 1.716-.344 3.24-1.03 4.573-.666 1.313-1.584 2.332-2.755 3.06-1.15.726-2.442 1.09-3.875 1.09-1.251 0-2.351-.243-3.299-.727-.929-.505-1.675-1.151-2.24-1.939v2.393h-4.239V21.394h4.239v8.087Zm8.869 5.876c0-1.01-.211-1.878-.635-2.605-.404-.747-.949-1.313-1.635-1.696a4.292 4.292 0 0 0-2.18-.576c-.767 0-1.493.202-2.179.606-.666.384-1.211.949-1.635 1.696-.404.747-.605 1.626-.605 2.635 0 1.01.201 1.888.605 2.635.424.747.969 1.323 1.635 1.727a4.398 4.398 0 0 0 2.179.575c.787 0 1.514-.202 2.18-.605.686-.404 1.231-.98 1.635-1.727.424-.747.635-1.636.635-2.665Zm23-.303c0 .606-.04 1.15-.122 1.635h-12.26c.101 1.212.525 2.16 1.272 2.847.747.687 1.665 1.03 2.755 1.03 1.574 0 2.694-.676 3.36-2.029h4.57c-.484 1.615-1.412 2.948-2.785 3.998-1.371 1.03-3.057 1.545-5.055 1.545-1.614 0-3.067-.354-4.359-1.06-1.271-.727-2.27-1.747-2.997-3.06-.706-1.312-1.059-2.827-1.059-4.543 0-1.736.353-3.26 1.059-4.573.706-1.313 1.695-2.322 2.967-3.03 1.271-.706 2.734-1.06 4.389-1.06 1.595 0 3.018.344 4.269 1.03a7.098 7.098 0 0 1 2.936 2.939c.707 1.252 1.06 2.695 1.06 4.33Zm-4.389-1.212c-.02-1.09-.414-1.958-1.181-2.605-.767-.666-1.706-.999-2.816-.999-1.049 0-1.937.323-2.664.97-.706.625-1.14 1.504-1.302 2.634h7.963Zm13.901 10.238c-1.373 0-2.604-.243-3.695-.727-1.088-.505-1.957-1.181-2.602-2.03a5.166 5.166 0 0 1-1.029-2.816h4.267c.081.646.394 1.18.939 1.605.565.424 1.262.636 2.088.636.808 0 1.434-.161 1.878-.485.464-.323.697-.737.697-1.241 0-.546-.283-.95-.848-1.212-.546-.283-1.423-.586-2.634-.909-1.251-.303-2.281-.616-3.088-.939a5.49 5.49 0 0 1-2.059-1.484c-.564-.666-.847-1.565-.847-2.695 0-.93.263-1.777.788-2.545.543-.767 1.31-1.373 2.299-1.817 1.009-.444 2.19-.666 3.543-.666 1.998 0 3.592.505 4.783 1.514 1.19.99 1.846 2.332 1.968 4.029h-4.057c-.061-.667-.343-1.192-.848-1.576-.484-.403-1.14-.605-1.968-.605-.767 0-1.362.141-1.786.424-.403.282-.606.676-.606 1.181 0 .565.283 1 .849 1.302.565.283 1.443.576 2.633.879 1.211.303 2.21.616 2.998.939a5.112 5.112 0 0 1 2.027 1.514c.586.666.889 1.555.909 2.666 0 .969-.273 1.837-.818 2.604-.525.768-1.292 1.373-2.301 1.818-.989.424-2.149.636-3.48.636Zm12.228-19.052c-.747 0-1.373-.232-1.878-.696-.484-.485-.726-1.08-.726-1.787 0-.707.242-1.293.726-1.757.505-.485 1.131-.727 1.878-.727.746 0 1.362.242 1.846.727.505.465.756 1.05.756 1.757 0 .706-.251 1.302-.756 1.787-.484.464-1.1.696-1.846.696Zm2.088 2v16.78h-4.238v-16.78h4.238Zm25.015-.243c2.059 0 3.713.636 4.964 1.908 1.272 1.252 1.908 3.009 1.908 5.27v9.844h-4.238V34.54c0-1.313-.333-2.312-.998-2.999-.667-.706-1.575-1.06-2.726-1.06-1.15 0-2.068.354-2.754 1.06-.667.687-1 1.686-1 2.999v9.268h-4.238V34.54c0-1.313-.332-2.312-.999-2.999-.666-.706-1.573-1.06-2.725-1.06-1.17 0-2.098.354-2.785 1.06-.665.687-.998 1.686-.998 2.999v9.268h-4.238v-16.78h4.238v2.03a5.665 5.665 0 0 1 2.088-1.666c.869-.404 1.817-.606 2.847-.606 1.312 0 2.482.283 3.511.848a5.747 5.747 0 0 1 2.392 2.363c.545-.97 1.332-1.747 2.36-2.332a6.852 6.852 0 0 1 3.391-.879Zm15.132 2.666c.545-.768 1.292-1.404 2.24-1.909.968-.525 2.07-.787 3.301-.787 1.432 0 2.724.353 3.874 1.06 1.171.707 2.09 1.716 2.755 3.029.686 1.292 1.029 2.796 1.029 4.513 0 1.716-.343 3.24-1.029 4.573-.665 1.313-1.584 2.332-2.755 3.06-1.15.726-2.442 1.09-3.874 1.09-1.231 0-2.322-.253-3.27-.758-.929-.504-1.685-1.14-2.271-1.908v10.39h-4.238V27.026h4.238v2.424Zm8.871 5.906c0-1.01-.213-1.878-.636-2.605-.404-.747-.95-1.313-1.635-1.696a4.288 4.288 0 0 0-2.179-.576c-.767 0-1.494.202-2.181.606-.666.384-1.211.949-1.634 1.696-.405.747-.606 1.626-.606 2.635 0 1.01.201 1.888.606 2.635.423.747.968 1.323 1.634 1.727a4.408 4.408 0 0 0 2.181.575c.787 0 1.513-.202 2.179-.605.685-.404 1.231-.98 1.635-1.727.423-.747.636-1.636.636-2.665Zm11.647-13.963v22.413h-4.24V21.394h4.24Zm6.336 3.634c-.747 0-1.372-.232-1.877-.696-.484-.485-.726-1.08-.726-1.787 0-.707.242-1.293.726-1.757.505-.485 1.13-.727 1.877-.727.746 0 1.362.242 1.846.727.504.465.757 1.05.757 1.757 0 .706-.253 1.302-.757 1.787-.484.464-1.1.696-1.846.696Zm2.09 2v16.78h-4.24v-16.78h4.24Zm11.876 3.483h-2.937v13.296h-4.299V30.511h-1.907v-3.484h1.907v-.848c0-2.06.586-3.574 1.756-4.543 1.17-.97 2.937-1.424 5.297-1.363v3.574c-1.029-.02-1.745.152-2.149.515-.403.364-.605 1.02-.605 1.969v.696h2.937v3.484Zm18.79-3.484-10.383 24.716h-4.511l3.633-8.36-6.72-16.356h4.752l4.33 11.722 4.389-11.722h4.51Z" fill="url(#c)"></path><defs><linearGradient id="a" x1="0.457" y1="0.005" x2="67.46" y2="66.956" gradientUnits="userSpaceOnUse"><stop stop-color="#5CFF68"></stop><stop offset="1" stop-color="#05CAFF"></stop></linearGradient><linearGradient id="b" x1="26.115" y1="46.903" x2="42.009" y2="62.553" gradientUnits="userSpaceOnUse"><stop stop-color="#5CFF68"></stop><stop offset="1" stop-color="#05CAFF"></stop></linearGradient><linearGradient id="c" x1="84.291" y1="10.49" x2="103.981" y2="96.871" gradientUnits="userSpaceOnUse"><stop stop-color="#5CFF68"></stop><stop offset="1" stop-color="#05CAFF"></stop></linearGradient></defs></svg>