<svg width="512" height="128" viewBox="0 0 512 128" fill="none" xmlns="http://www.w3.org/2000/svg">
<path d="M45.7538 48.3869H0.383558V61.2626H45.7538C46.1563 61.2626 46.4582 61.5575 46.4582 61.9508V70.4033H0.383558V91.83C0.383558 99.2999 6.62078 105.394 14.2665 105.394H59.6368V61.9508C59.6368 54.4809 53.3994 48.3869 45.7538 48.3869H45.7538ZM46.4582 92.5182H14.2665C13.8639 92.5182 13.562 92.2234 13.562 91.83V83.3775H46.4582V92.5182ZM439.273 61.9508V105.394H426.196V61.9508C426.196 61.5576 425.894 61.2626 425.39 61.2626H403.46C403.058 61.2626 402.856 61.5575 402.856 61.9508V105.394H389.578V61.9508C389.578 61.5576 389.276 61.2626 388.974 61.2626H366.943C366.54 61.2626 366.238 61.5575 366.238 61.9508V105.394H353.06V48.3869H425.39C433.036 48.3869 439.273 54.4809 439.273 61.9508ZM326.004 48.3869H294.517C286.871 48.3869 280.634 54.4809 280.634 61.9508V91.83C280.634 99.2999 286.871 105.394 294.517 105.394H339.887V92.5182H294.517C294.114 92.5182 293.812 92.2234 293.812 91.83V83.3775H339.887V61.9508C339.887 54.4809 333.65 48.3869 326.004 48.3869ZM326.708 70.4033H293.812V61.9508C293.812 61.5576 294.114 61.2626 294.517 61.2626H326.004C326.406 61.2626 326.708 61.5575 326.708 61.9508V70.4033H326.708ZM512 48.5839V114.436C512 121.906 505.863 128 498.218 128H462.505V115.026H498.218C498.52 115.026 498.822 114.829 498.822 114.436V105.394H466.63C458.984 105.394 452.747 99.2999 452.747 91.83V48.5839H465.926V91.83C465.926 92.2234 466.227 92.5182 466.63 92.5182H498.218C498.52 92.5182 498.822 92.2234 498.822 91.83V48.5839H512ZM186.483 48.3869H141.113V61.2626H186.483C186.885 61.2626 187.187 61.5575 187.187 61.9508V70.4033H141.113V91.83C141.113 99.2999 147.35 105.394 154.995 105.394H200.366V61.9508C200.366 54.4809 194.128 48.3869 186.483 48.3869ZM187.187 92.5182H154.995C154.593 92.5182 154.291 92.2234 154.291 91.83V83.3775H187.187V92.5182ZM256.695 48.3869H224.403C216.758 48.3869 210.52 54.4809 210.52 61.9508V91.83C210.52 99.2999 216.758 105.394 224.403 105.394H269.874V29.7128H256.695V48.3869ZM256.695 91.83C256.695 92.2234 256.393 92.5182 255.991 92.5182H224.403C224.001 92.5182 223.8 92.2234 223.8 91.83V61.9508C223.8 61.5576 224.001 61.2626 224.403 61.2626H255.991C256.393 61.2626 256.695 61.5575 256.695 61.9508V91.83ZM83.9766 92.5182H129.347V105.394H83.9766C76.331 105.394 70.0937 99.2999 70.0937 91.83V61.9508C70.0937 54.4809 76.331 48.3869 83.9766 48.3869H129.146V61.2626H83.9766C83.5741 61.2626 83.2722 61.5575 83.2722 61.9508V91.83C83.2722 92.2234 83.574 92.5182 83.9766 92.5182ZM231.594 31.8013V26.0991H211.501C211.323 26.0991 211.189 25.9685 211.189 25.7945V22.0509H231.594V12.5618C231.594 9.25357 228.832 6.55485 225.446 6.55485H211.501C208.115 6.55485 205.353 9.25357 205.353 12.5618V25.7945C205.353 29.1026 208.115 31.8013 211.501 31.8013H231.594L231.594 31.8013ZM211.189 12.5618C211.189 12.3877 211.323 12.2572 211.501 12.2572H225.446C225.624 12.2572 225.757 12.3877 225.757 12.5618V16.3053H211.189V12.5618H211.189ZM148.983 31.8013H162.928C166.314 31.8013 169.076 29.1026 169.076 25.7945V12.5618C169.076 9.25357 166.314 6.55485 162.928 6.55485H148.983C145.597 6.55485 142.835 9.25357 142.835 12.5618V25.7945C142.835 29.1026 145.597 31.8013 148.983 31.8013V31.8013ZM148.671 12.5618C148.671 12.3877 148.805 12.2572 148.983 12.2572H162.928C163.106 12.2572 163.24 12.3877 163.24 12.5618V25.7945C163.24 25.9685 163.106 26.0991 162.928 26.0991H148.983C148.805 26.0991 148.671 25.9685 148.671 25.7945V12.5618V12.5618ZM132.9 6.55484H139.182V8.03472L128.846 19.1779L139.182 30.3213V31.8013H132.9L124.666 22.6944L119.089 28.3702V31.8013H113.253V0H119.089V20.9357L123.678 16.3053L132.901 6.55485L132.9 6.55484ZM55.3979 6.55484H35.3048V12.2572H55.3979C55.5759 12.2572 55.7097 12.3877 55.7097 12.5618V16.3052H35.3048V25.7945C35.3048 29.1026 38.0671 31.8013 41.4529 31.8013H61.546V12.5618C61.546 9.25357 58.7838 6.55485 55.3979 6.55485L55.3979 6.55484ZM55.7097 26.0991H41.4529C41.2748 26.0991 41.1411 25.9685 41.1411 25.7945V22.0509H55.7097V26.0991V26.0991ZM180.063 31.8013H200.201V0H194.365V6.55485H180.063C176.678 6.55485 173.915 9.25357 173.915 12.5618V25.7945C173.915 29.1026 176.678 31.8013 180.063 31.8013V31.8013ZM179.796 12.5618C179.796 12.3877 179.885 12.2572 180.063 12.2572H194.053C194.231 12.2572 194.365 12.3877 194.365 12.5618V25.7945C194.365 25.9685 194.231 26.0991 194.053 26.0991H180.063C179.885 26.0991 179.796 25.9685 179.796 25.7945V12.5618V12.5618ZM74.7469 31.8013L64.5889 6.55485H70.7817L77.019 21.4416C79.202 16.5228 81.5189 11.4301 83.6573 6.55485H89.7163L96.7557 21.5286C98.7159 16.6099 100.721 11.4301 102.592 6.55485H108.785L99.0725 31.8013H94.528L86.7313 14.9124L79.2467 31.8013H74.7469H74.7469ZM9.09129 17.5439C12.9005 12.9484 18.7753 5.80294 23.2258 0.352515H31.7624C27.3379 5.31521 22.7924 10.4358 18.3852 15.7262L18.0397 16.1407L18.3955 16.5469C18.9195 17.1449 28.6681 28.135 31.7723 31.6342H24.0316C23.0371 30.5138 21.893 29.2384 20.7332 27.9453C18.47 25.4219 16.1296 22.8128 14.7481 21.1859L14.2493 20.599L13.744 21.1806C12.1895 22.9698 10.6102 24.7652 9.0913 26.485V17.5439H9.09129ZM6.27427 29.7243L0 36.9574V4.0398C0.0013082 2.00565 1.68969 0.357216 3.77168 0.357073L19.658 0.354079C18.9042 1.29122 18.1406 2.22366 17.3955 3.13359C16.4913 4.23786 15.5584 5.37691 14.6491 6.51652H6.27428V29.7243H6.27427Z" fill="#23282D"/>
</svg>
