<?xml version="1.0" standalone="no"?>
<!DOCTYPE svg PUBLIC "-//W3C//DTD SVG 1.1//EN" "http://www.w3.org/Graphics/SVG/1.1/DTD/svg11.dtd">
<svg xmlns="http://www.w3.org/2000/svg" xmlns:xlink="http://www.w3.org/1999/xlink" zoomAndPan="magnify" preserveAspectRatio="xMidYMid meet" version="1.0" viewBox="89.51 105.73 418.8 103.5" width="418.79998779296875" height="103.5"><defs><g/><clipPath id="e6748ac3d7"><path d="M 89.507812 142 L 168 142 L 168 160 L 89.507812 160 Z M 89.507812 142 " clip-rule="nonzero"/></clipPath><clipPath id="62e793b4f2"><path d="M 103 145 L 206 145 L 206 209.230469 L 103 209.230469 Z M 103 145 " clip-rule="nonzero"/></clipPath><clipPath id="57c94b5a5b"><path d="M 208 105.730469 L 240.257812 105.730469 L 240.257812 137 L 208 137 Z M 208 105.730469 " clip-rule="nonzero"/></clipPath></defs><path fill="#48d6b5" d="M 134.007812 178.945312 C 156.628906 171.652344 177.046875 161.605469 194.839844 148.292969 C 197.519531 146.292969 200.136719 144.214844 202.691406 142.0625 C 207.078125 138.371094 211.285156 134.457031 215.304688 130.3125 C 211.617188 135.683594 207.71875 140.636719 203.640625 145.230469 C 201.082031 148.105469 198.457031 150.839844 195.765625 153.445312 C 177.730469 170.910156 156.808594 182.625 135.117188 192.804688 Z M 134.007812 178.945312 " fill-opacity="1" fill-rule="evenodd"/><g clip-path="url(#e6748ac3d7)"><path fill="#48d6b5" d="M 167.578125 150.285156 C 149.097656 158.398438 130.824219 161.199219 112.738281 159.066406 C 109.636719 158.699219 106.542969 158.1875 103.457031 157.535156 C 98.808594 156.550781 94.171875 155.242188 89.550781 153.617188 L 99.964844 142.835938 C 101.726562 143.53125 103.492188 144.1875 105.257812 144.804688 C 108.203125 145.835938 111.15625 146.765625 114.121094 147.585938 C 131.570312 152.417969 149.367188 153.550781 167.578125 150.285156 Z M 167.578125 150.285156 " fill-opacity="1" fill-rule="evenodd"/></g><g clip-path="url(#62e793b4f2)"><path fill="#48d6b5" d="M 117.070312 176.792969 C 118.085938 178.839844 119.285156 180.828125 120.667969 182.738281 C 123.269531 186.324219 126.335938 189.375 129.726562 191.867188 C 143.855469 202.476562 163.949219 202.808594 178.84375 192 C 189.40625 184.332031 195.3125 172.621094 195.976562 160.523438 C 197.144531 159.453125 198.304688 158.367188 199.449219 157.257812 C 201.3125 155.453125 203.132812 153.605469 204.902344 151.710938 C 207.207031 169.609375 199.917969 188.179688 184.292969 199.519531 C 161.527344 216.042969 129.667969 210.96875 113.15625 188.191406 C 107.589844 180.511719 104.476562 171.800781 103.664062 162.992188 C 106.460938 163.550781 109.28125 164 112.117188 164.332031 C 112.472656 164.375 112.832031 164.414062 113.1875 164.453125 C 124.085938 165.625 134.78125 165.058594 145.234375 162.960938 C 160.085938 160.269531 174.734375 154.625 189.164062 145.882812 C 167.3125 161.617188 143.316406 171.828125 117.070312 176.792969 Z M 117.070312 176.792969 " fill-opacity="1" fill-rule="evenodd"/></g><path fill="#48d6b5" d="M 188.101562 133.792969 C 174.597656 115.164062 148.546875 111.015625 129.929688 124.527344 C 123.386719 129.277344 118.632812 135.570312 115.804688 142.546875 C 115.714844 142.527344 115.625 142.5 115.539062 142.476562 C 112.667969 141.679688 109.824219 140.785156 107.011719 139.800781 C 106.980469 139.789062 106.949219 139.777344 106.917969 139.769531 C 110.339844 130.949219 116.257812 122.976562 124.476562 117.007812 C 147.246094 100.484375 179.101562 105.558594 195.617188 128.339844 C 197.589844 131.0625 199.257812 133.917969 200.621094 136.863281 C 200.179688 137.246094 199.730469 137.625 199.28125 138.003906 C 197.269531 139.695312 195.21875 141.34375 193.132812 142.9375 C 191.875 139.757812 190.203125 136.6875 188.101562 133.792969 Z M 188.101562 133.792969 " fill-opacity="1" fill-rule="evenodd"/><g clip-path="url(#57c94b5a5b)"><path fill="#48d6b5" d="M 209.054688 121.589844 L 208.992188 121.660156 C 208.851562 121.800781 208.835938 121.769531 208.699219 121.960938 L 208.660156 122.019531 C 208.417969 122.328125 208.535156 122.910156 208.707031 123.171875 C 208.910156 123.476562 209.25 123.578125 209.648438 123.761719 C 210.339844 124.078125 211.050781 124.410156 211.746094 124.707031 C 213.128906 125.300781 214.546875 126.023438 215.9375 126.585938 C 216.085938 126.523438 217.941406 124.996094 218.285156 124.707031 C 218.441406 124.574219 218.589844 124.484375 218.75 124.359375 C 219.074219 124.105469 219.335938 123.863281 219.664062 123.601562 L 230.777344 114.621094 L 231.042969 114.390625 C 231.097656 114.335938 231.050781 114.378906 231.113281 114.332031 L 234.75 111.425781 C 234.769531 111.261719 234.695312 111.359375 234.992188 111.222656 C 234.921875 111.375 234.828125 111.449219 234.734375 111.5625 L 234.445312 111.890625 C 234.265625 112.007812 233.703125 112.703125 233.542969 112.890625 L 233.390625 113.109375 C 233.328125 113.171875 233.34375 113.152344 233.296875 113.214844 L 232.914062 113.621094 C 232.910156 113.613281 232.898438 113.632812 232.890625 113.640625 C 232.453125 114.140625 231.996094 114.683594 231.554688 115.183594 C 231.332031 115.4375 231.101562 115.707031 230.882812 115.957031 C 230.691406 116.171875 230.375 116.484375 230.234375 116.699219 C 230.152344 116.867188 230.207031 116.742188 230.089844 116.878906 L 229.648438 117.351562 L 226.992188 120.414062 L 226.335938 121.167969 L 226.328125 121.148438 C 226.296875 121.207031 226.285156 121.238281 226.25 121.289062 L 225.675781 121.898438 C 224.953125 122.703125 224.289062 123.5 223.578125 124.316406 C 222.871094 125.121094 222.148438 125.914062 221.464844 126.714844 C 221.351562 126.921875 220.984375 127.339844 220.8125 127.46875 C 220.59375 127.710938 220.410156 127.953125 220.1875 128.195312 C 219.21875 129.226562 219.445312 128.925781 219.402344 130.179688 L 219.265625 134.269531 C 219.25 134.652344 219.179688 135.222656 219.308594 135.546875 C 219.421875 135.828125 219.703125 136.109375 220.011719 136.207031 C 220.90625 136.5 221.351562 135.652344 221.707031 135.273438 C 221.9375 135.027344 225.378906 131.132812 225.519531 130.917969 C 225.769531 130.964844 226.328125 131.253906 226.597656 131.375 L 229.675781 132.753906 C 230.371094 133.054688 231.046875 133.375 231.722656 133.667969 C 232.179688 133.867188 233.382812 134.515625 233.863281 134.480469 C 234.863281 134.40625 234.890625 133.40625 235.035156 132.703125 L 236.535156 125.238281 C 237.210938 121.898438 237.882812 118.601562 238.542969 115.269531 L 240.046875 107.800781 C 240.121094 107.4375 240.289062 106.890625 240.175781 106.519531 C 240.085938 106.214844 239.800781 105.898438 239.46875 105.785156 C 239.011719 105.628906 238.621094 105.84375 238.324219 106 L 233.589844 108.519531 C 232.964844 108.867188 232.34375 109.210938 231.703125 109.53125 C 230.480469 110.144531 229.171875 110.902344 227.929688 111.546875 C 227.328125 111.859375 226.640625 112.203125 226.039062 112.550781 L 223.199219 114.066406 C 222.261719 114.535156 221.273438 115.128906 220.378906 115.566406 C 220.0625 115.722656 219.742188 115.902344 219.421875 116.074219 L 214.710938 118.582031 C 213.554688 119.203125 212.070312 120.027344 210.9375 120.59375 C 210.300781 120.914062 209.675781 121.320312 209.054688 121.59375 Z M 209.054688 121.589844 " fill-opacity="1" fill-rule="evenodd"/></g><path fill="#48d6b5" d="M 234.753906 111.425781 C 234.730469 111.550781 234.707031 111.566406 234.625 111.644531 C 234.507812 111.757812 234.519531 111.761719 234.445312 111.890625 L 234.738281 111.5625 C 234.832031 111.449219 234.925781 111.375 234.992188 111.222656 C 234.699219 111.359375 234.769531 111.261719 234.75 111.425781 Z M 234.753906 111.425781 " fill-opacity="1" fill-rule="evenodd"/><path fill="#48d6b5" d="M 220.8125 127.46875 C 220.988281 127.339844 221.355469 126.921875 221.464844 126.714844 L 220.964844 127.285156 C 220.859375 127.402344 220.890625 127.328125 220.8125 127.46875 Z M 220.8125 127.46875 " fill-opacity="1" fill-rule="evenodd"/><path fill="#48d6b5" d="M 232.890625 113.640625 C 232.898438 113.632812 232.914062 113.613281 232.917969 113.621094 L 233.300781 113.214844 C 233.347656 113.152344 233.328125 113.171875 233.394531 113.109375 L 233.542969 112.890625 C 233.472656 112.941406 233.535156 112.867188 233.453125 112.976562 L 233.058594 113.441406 C 232.957031 113.5625 232.964844 113.503906 232.890625 113.640625 Z M 232.890625 113.640625 " fill-opacity="1" fill-rule="evenodd"/><path fill="#48d6b5" d="M 225.679688 121.898438 L 226.253906 121.289062 C 226.289062 121.242188 226.300781 121.210938 226.332031 121.148438 C 226.265625 121.199219 226.300781 121.15625 226.242188 121.234375 Z M 225.679688 121.898438 " fill-opacity="1" fill-rule="evenodd"/><path fill="#48d6b5" d="M 226.339844 121.167969 L 226.992188 120.414062 C 226.820312 120.542969 226.441406 120.988281 226.339844 121.167969 Z M 226.339844 121.167969 " fill-opacity="1" fill-rule="evenodd"/><path fill="#48d6b5" d="M 208.660156 122.019531 L 208.703125 121.960938 C 208.839844 121.765625 208.851562 121.796875 208.992188 121.65625 L 209.054688 121.589844 C 208.960938 121.632812 209.035156 121.585938 208.929688 121.671875 C 208.859375 121.722656 208.882812 121.703125 208.824219 121.757812 C 208.757812 121.824219 208.707031 121.890625 208.660156 122.019531 Z M 208.660156 122.019531 " fill-opacity="1" fill-rule="evenodd"/><path fill="#48d6b5" d="M 229.648438 117.351562 L 230.089844 116.878906 C 230.210938 116.742188 230.15625 116.867188 230.238281 116.703125 L 229.648438 117.355469 Z M 229.648438 117.351562 " fill-opacity="1" fill-rule="evenodd"/><path fill="#48d6b5" d="M 230.78125 114.617188 L 231.117188 114.332031 C 231.050781 114.375 231.101562 114.335938 231.046875 114.390625 Z M 230.78125 114.617188 " fill-opacity="1" fill-rule="evenodd"/><g fill="#48d6b5" fill-opacity="1"><g transform="translate(241.060085, 157.698973)"><g><path d="M 13 -24.265625 L 19.875 -24.265625 L 13.90625 0 L 6.234375 0 L 0.265625 -24.265625 L 7.140625 -24.265625 L 10.046875 -8.046875 Z M 13 -24.265625 "/></g></g></g><g fill="#48d6b5" fill-opacity="1"><g transform="translate(261.207462, 157.698973)"><g><path d="M 1.40625 -20.75 L 1.40625 -25.28125 L 8.046875 -25.28125 L 8.046875 -20.75 Z M 7.9375 0 L 1.515625 0 L 1.515625 -18.859375 L 7.9375 -18.859375 Z M 7.9375 0 "/></g></g></g><g fill="#48d6b5" fill-opacity="1"><g transform="translate(270.657451, 157.698973)"><g><path d="M 11.90625 -19.046875 L 12.46875 -19.046875 L 12.46875 -13.453125 L 10.3125 -13.453125 C 8.726562 -13.453125 7.9375 -12.597656 7.9375 -10.890625 L 7.9375 0 L 1.515625 0 L 1.515625 -18.859375 L 7.828125 -18.859375 L 7.828125 -15.953125 C 8.023438 -16.910156 8.476562 -17.664062 9.1875 -18.21875 C 9.894531 -18.769531 10.800781 -19.046875 11.90625 -19.046875 Z M 11.90625 -19.046875 "/></g></g></g><g fill="#48d6b5" fill-opacity="1"><g transform="translate(283.320435, 157.698973)"><g><path d="M 11.078125 -14.140625 L 8.6875 -14.140625 L 8.6875 -5.5625 C 8.6875 -5 9.003906 -4.71875 9.640625 -4.71875 L 11.03125 -4.71875 L 11.03125 0 L 7.828125 0 C 4.117188 0 2.265625 -1.5625 2.265625 -4.6875 L 2.265625 -14.140625 L 0.1875 -14.140625 L 0.1875 -18.859375 L 2.265625 -18.859375 L 2.265625 -22.5625 L 8.6875 -22.5625 L 8.6875 -18.859375 L 11.078125 -18.859375 Z M 11.078125 -14.140625 "/></g></g></g><g fill="#48d6b5" fill-opacity="1"><g transform="translate(294.77382, 157.698973)"><g><path d="M 10.359375 -18.859375 L 16.78125 -18.859375 L 16.78125 0 L 10.46875 0 L 10.46875 -2.421875 C 10.113281 -0.804688 8.96875 0 7.03125 0 L 6.34375 0 C 3 0 1.328125 -1.5625 1.328125 -4.6875 L 1.328125 -18.859375 L 7.75 -18.859375 L 7.75 -5.5625 C 7.75 -5 8.0625 -4.71875 8.6875 -4.71875 L 9.328125 -4.71875 C 10.015625 -4.71875 10.359375 -5.097656 10.359375 -5.859375 Z M 10.359375 -18.859375 "/></g></g></g><g fill="#48d6b5" fill-opacity="1"><g transform="translate(313.069005, 157.698973)"><g><path d="M 10.28125 -18.859375 L 16.59375 -18.859375 L 16.59375 0 L 10.171875 0 L 10.171875 -2.046875 C 9.691406 -0.679688 8.582031 0 6.84375 0 L 6.15625 0 C 2.8125 0 1.140625 -1.5625 1.140625 -4.6875 L 1.140625 -14.171875 C 1.140625 -17.296875 2.8125 -18.859375 6.15625 -18.859375 L 6.84375 -18.859375 C 8.78125 -18.859375 9.925781 -18.050781 10.28125 -16.4375 Z M 8.5 -4.71875 L 9.140625 -4.71875 C 9.828125 -4.71875 10.171875 -5.097656 10.171875 -5.859375 L 10.171875 -13 C 10.171875 -13.757812 9.828125 -14.140625 9.140625 -14.140625 L 8.5 -14.140625 C 7.875 -14.140625 7.5625 -13.859375 7.5625 -13.296875 L 7.5625 -5.5625 C 7.5625 -5 7.875 -4.71875 8.5 -4.71875 Z M 8.5 -4.71875 "/></g></g></g><g fill="#48d6b5" fill-opacity="1"><g transform="translate(331.175188, 157.698973)"><g><path d="M 7.9375 0 L 1.515625 0 L 1.515625 -25.28125 L 7.9375 -25.28125 Z M 7.9375 0 "/></g></g></g><g fill="#48d6b5" fill-opacity="1"><g transform="translate(340.625178, 157.698973)"><g><path d="M 16.140625 -24.265625 L 16.140625 -19.546875 L 11.453125 -19.546875 L 11.453125 0 L 4.84375 0 L 4.84375 -19.546875 L 0.1875 -19.546875 L 0.1875 -24.265625 Z M 16.140625 -24.265625 "/></g></g></g><g fill="#48d6b5" fill-opacity="1"><g transform="translate(356.954766, 157.698973)"><g><path d="M 6.6875 -18.859375 L 11.296875 -18.859375 C 15.003906 -18.859375 16.859375 -17.296875 16.859375 -14.171875 L 16.859375 -7.75 L 7.21875 -7.75 L 7.21875 -5.25 C 7.21875 -4.695312 7.535156 -4.421875 8.171875 -4.421875 L 9.828125 -4.421875 C 10.453125 -4.421875 10.765625 -4.722656 10.765625 -5.328125 L 10.765625 -6.390625 L 16.859375 -6.390625 L 16.859375 -4.6875 C 16.859375 -1.5625 15.003906 0 11.296875 0 L 6.6875 0 C 2.988281 0 1.140625 -1.5625 1.140625 -4.6875 L 1.140625 -14.171875 C 1.140625 -17.296875 2.988281 -18.859375 6.6875 -18.859375 Z M 7.21875 -11.21875 L 10.765625 -11.21875 L 10.765625 -13.609375 C 10.765625 -14.160156 10.453125 -14.4375 9.828125 -14.4375 L 8.171875 -14.4375 C 7.535156 -14.4375 7.21875 -14.160156 7.21875 -13.609375 Z M 7.21875 -11.21875 "/></g></g></g><g fill="#48d6b5" fill-opacity="1"><g transform="translate(374.758552, 157.698973)"><g><path d="M 16.296875 -11.5625 L 10.09375 -11.5625 L 10.09375 -13.296875 C 10.09375 -13.859375 9.773438 -14.140625 9.140625 -14.140625 L 8.5 -14.140625 C 7.875 -14.140625 7.5625 -13.859375 7.5625 -13.296875 L 7.5625 -5.5625 C 7.5625 -5 7.875 -4.71875 8.5 -4.71875 L 9.140625 -4.71875 C 9.773438 -4.71875 10.09375 -5 10.09375 -5.5625 L 10.09375 -7.296875 L 16.296875 -7.296875 L 16.296875 -4.6875 C 16.296875 -1.5625 14.441406 0 10.734375 0 L 6.6875 0 C 2.988281 0 1.140625 -1.5625 1.140625 -4.6875 L 1.140625 -14.171875 C 1.140625 -17.296875 2.988281 -18.859375 6.6875 -18.859375 L 10.734375 -18.859375 C 14.441406 -18.859375 16.296875 -17.296875 16.296875 -14.171875 Z M 16.296875 -11.5625 "/></g></g></g><g fill="#48d6b5" fill-opacity="1"><g transform="translate(391.80633, 157.698973)"><g><path d="M 11.265625 -18.859375 L 11.9375 -18.859375 C 15.289062 -18.859375 16.96875 -17.296875 16.96875 -14.171875 L 16.96875 0 L 10.546875 0 L 10.546875 -13.296875 C 10.546875 -13.859375 10.226562 -14.140625 9.59375 -14.140625 L 8.953125 -14.140625 C 8.273438 -14.140625 7.9375 -13.757812 7.9375 -13 L 7.9375 0 L 1.515625 0 L 1.515625 -25.28125 L 7.9375 -25.28125 L 7.9375 -16.8125 C 8.414062 -18.175781 9.523438 -18.859375 11.265625 -18.859375 Z M 11.265625 -18.859375 "/></g></g></g><g fill="#48d6b5" fill-opacity="1"><g transform="translate(410.101524, 157.698973)"><g><path d="M 10.8125 -5.5625 L 10.8125 -9 C 10.8125 -9.550781 10.492188 -9.828125 9.859375 -9.828125 L 6.234375 -9.828125 C 4.367188 -9.828125 3.050781 -10.234375 2.28125 -11.046875 C 1.519531 -11.867188 1.140625 -13.050781 1.140625 -14.59375 L 1.140625 -19.578125 C 1.140625 -22.703125 2.976562 -24.265625 6.65625 -24.265625 L 11.828125 -24.265625 C 15.503906 -24.265625 17.34375 -22.703125 17.34375 -19.578125 L 17.34375 -16.671875 L 10.734375 -16.671875 L 10.734375 -18.703125 C 10.734375 -19.265625 10.421875 -19.546875 9.796875 -19.546875 L 8.6875 -19.546875 C 8.0625 -19.546875 7.75 -19.265625 7.75 -18.703125 L 7.75 -15.125 C 7.75 -14.5625 8.0625 -14.28125 8.6875 -14.28125 L 12.25 -14.28125 C 14.113281 -14.28125 15.441406 -13.890625 16.234375 -13.109375 C 17.023438 -12.328125 17.421875 -11.179688 17.421875 -9.671875 L 17.421875 -4.6875 C 17.421875 -1.5625 15.582031 0 11.90625 0 L 6.765625 0 C 3.054688 0 1.203125 -1.5625 1.203125 -4.6875 L 1.203125 -7.59375 L 7.828125 -7.59375 L 7.828125 -5.5625 C 7.828125 -5 8.140625 -4.71875 8.765625 -4.71875 L 9.859375 -4.71875 C 10.492188 -4.71875 10.8125 -5 10.8125 -5.5625 Z M 10.8125 -5.5625 "/></g></g></g><g fill="#48d6b5" fill-opacity="1"><g transform="translate(428.661298, 157.698973)"><g><path d="M 16.296875 -11.5625 L 10.09375 -11.5625 L 10.09375 -13.296875 C 10.09375 -13.859375 9.773438 -14.140625 9.140625 -14.140625 L 8.5 -14.140625 C 7.875 -14.140625 7.5625 -13.859375 7.5625 -13.296875 L 7.5625 -5.5625 C 7.5625 -5 7.875 -4.71875 8.5 -4.71875 L 9.140625 -4.71875 C 9.773438 -4.71875 10.09375 -5 10.09375 -5.5625 L 10.09375 -7.296875 L 16.296875 -7.296875 L 16.296875 -4.6875 C 16.296875 -1.5625 14.441406 0 10.734375 0 L 6.6875 0 C 2.988281 0 1.140625 -1.5625 1.140625 -4.6875 L 1.140625 -14.171875 C 1.140625 -17.296875 2.988281 -18.859375 6.6875 -18.859375 L 10.734375 -18.859375 C 14.441406 -18.859375 16.296875 -17.296875 16.296875 -14.171875 Z M 16.296875 -11.5625 "/></g></g></g><g fill="#48d6b5" fill-opacity="1"><g transform="translate(445.709076, 157.698973)"><g><path d="M 11.265625 -18.859375 L 11.9375 -18.859375 C 15.289062 -18.859375 16.96875 -17.296875 16.96875 -14.171875 L 16.96875 0 L 10.546875 0 L 10.546875 -13.296875 C 10.546875 -13.859375 10.226562 -14.140625 9.59375 -14.140625 L 8.953125 -14.140625 C 8.273438 -14.140625 7.9375 -13.757812 7.9375 -13 L 7.9375 0 L 1.515625 0 L 1.515625 -25.28125 L 7.9375 -25.28125 L 7.9375 -16.8125 C 8.414062 -18.175781 9.523438 -18.859375 11.265625 -18.859375 Z M 11.265625 -18.859375 "/></g></g></g><g fill="#48d6b5" fill-opacity="1"><g transform="translate(464.004261, 157.698973)"><g><path d="M 6.6875 -18.859375 L 11.484375 -18.859375 C 13.398438 -18.859375 14.773438 -18.453125 15.609375 -17.640625 C 16.441406 -16.835938 16.859375 -15.679688 16.859375 -14.171875 L 16.859375 -4.6875 C 16.859375 -3.175781 16.441406 -2.015625 15.609375 -1.203125 C 14.773438 -0.398438 13.398438 0 11.484375 0 L 6.6875 0 C 4.769531 0 3.394531 -0.398438 2.5625 -1.203125 C 1.738281 -2.015625 1.328125 -3.175781 1.328125 -4.6875 L 1.328125 -14.171875 C 1.328125 -15.679688 1.738281 -16.835938 2.5625 -17.640625 C 3.394531 -18.453125 4.769531 -18.859375 6.6875 -18.859375 Z M 10.546875 -5.296875 L 10.546875 -13.5625 C 10.546875 -14.125 10.226562 -14.40625 9.59375 -14.40625 L 8.578125 -14.40625 C 7.953125 -14.40625 7.640625 -14.125 7.640625 -13.5625 L 7.640625 -5.296875 C 7.640625 -4.734375 7.953125 -4.453125 8.578125 -4.453125 L 9.59375 -4.453125 C 10.226562 -4.453125 10.546875 -4.734375 10.546875 -5.296875 Z M 10.546875 -5.296875 "/></g></g></g><g fill="#48d6b5" fill-opacity="1"><g transform="translate(482.186032, 157.698973)"><g><path d="M 6.6875 -18.859375 L 11.484375 -18.859375 C 13.398438 -18.859375 14.773438 -18.453125 15.609375 -17.640625 C 16.441406 -16.835938 16.859375 -15.679688 16.859375 -14.171875 L 16.859375 -4.6875 C 16.859375 -3.175781 16.441406 -2.015625 15.609375 -1.203125 C 14.773438 -0.398438 13.398438 0 11.484375 0 L 6.6875 0 C 4.769531 0 3.394531 -0.398438 2.5625 -1.203125 C 1.738281 -2.015625 1.328125 -3.175781 1.328125 -4.6875 L 1.328125 -14.171875 C 1.328125 -15.679688 1.738281 -16.835938 2.5625 -17.640625 C 3.394531 -18.453125 4.769531 -18.859375 6.6875 -18.859375 Z M 10.546875 -5.296875 L 10.546875 -13.5625 C 10.546875 -14.125 10.226562 -14.40625 9.59375 -14.40625 L 8.578125 -14.40625 C 7.953125 -14.40625 7.640625 -14.125 7.640625 -13.5625 L 7.640625 -5.296875 C 7.640625 -4.734375 7.953125 -4.453125 8.578125 -4.453125 L 9.59375 -4.453125 C 10.226562 -4.453125 10.546875 -4.734375 10.546875 -5.296875 Z M 10.546875 -5.296875 "/></g></g></g><g fill="#48d6b5" fill-opacity="1"><g transform="translate(500.367821, 157.698973)"><g><path d="M 7.9375 0 L 1.515625 0 L 1.515625 -25.28125 L 7.9375 -25.28125 Z M 7.9375 0 "/></g></g></g><g fill="#48d6b5" fill-opacity="1"><g transform="translate(259.493926, 182.597009)"><g><path d="M 0.46875 -14.296875 L 10.796875 -14.296875 L 10.796875 -11.515625 L 7.15625 -11.515625 L 7.15625 0 L 4.109375 0 L 4.109375 -11.515625 L 0.46875 -11.515625 Z M 0.46875 -14.296875 "/></g></g></g><g fill="#48d6b5" fill-opacity="1"><g transform="translate(270.862075, 182.597009)"><g><path d="M 6.46875 -10.28125 C 7.125 -10.28125 7.738281 -10.140625 8.3125 -9.859375 C 8.882812 -9.585938 9.378906 -9.210938 9.796875 -8.734375 C 10.210938 -8.253906 10.535156 -7.695312 10.765625 -7.0625 C 11.003906 -6.425781 11.125 -5.742188 11.125 -5.015625 L 11.125 0 L 8.40625 0 L 8.40625 -1.828125 C 8.40625 -2.335938 8.40625 -2.863281 8.40625 -3.40625 C 8.414062 -3.957031 8.421875 -4.425781 8.421875 -4.8125 C 8.421875 -5.1875 8.359375 -5.554688 8.234375 -5.921875 C 8.117188 -6.285156 7.953125 -6.601562 7.734375 -6.875 C 7.523438 -7.15625 7.273438 -7.378906 6.984375 -7.546875 C 6.691406 -7.710938 6.382812 -7.796875 6.0625 -7.796875 C 5.757812 -7.796875 5.460938 -7.738281 5.171875 -7.625 C 4.890625 -7.507812 4.640625 -7.34375 4.421875 -7.125 C 4.210938 -6.90625 4.046875 -6.625 3.921875 -6.28125 C 3.796875 -5.945312 3.734375 -5.550781 3.734375 -5.09375 L 3.734375 0 L 0.921875 0 L 0.921875 -14.71875 L 3.734375 -14.71875 L 3.734375 -9.234375 C 4.078125 -9.566406 4.472656 -9.820312 4.921875 -10 C 5.378906 -10.1875 5.894531 -10.28125 6.46875 -10.28125 Z M 6.46875 -10.28125 "/></g></g></g><g fill="#48d6b5" fill-opacity="1"><g transform="translate(282.431788, 182.597009)"><g><path d="M 5.84375 -10.28125 C 6.59375 -10.28125 7.273438 -10.128906 7.890625 -9.828125 C 8.515625 -9.523438 9.046875 -9.128906 9.484375 -8.640625 C 9.929688 -8.148438 10.273438 -7.582031 10.515625 -6.9375 C 10.765625 -6.300781 10.890625 -5.648438 10.890625 -4.984375 C 10.890625 -4.578125 10.832031 -4.144531 10.71875 -3.6875 L 3.59375 -3.6875 C 3.851562 -3.226562 4.234375 -2.84375 4.734375 -2.53125 C 5.234375 -2.21875 5.769531 -2.0625 6.34375 -2.0625 C 6.925781 -2.0625 7.4375 -2.109375 7.875 -2.203125 C 8.3125 -2.296875 8.722656 -2.414062 9.109375 -2.5625 L 10.03125 -0.84375 C 9.539062 -0.5 8.972656 -0.234375 8.328125 -0.046875 C 7.691406 0.140625 7.007812 0.234375 6.28125 0.234375 C 5.488281 0.234375 4.75 0.0976562 4.0625 -0.171875 C 3.382812 -0.441406 2.789062 -0.8125 2.28125 -1.28125 C 1.769531 -1.757812 1.363281 -2.320312 1.0625 -2.96875 C 0.769531 -3.613281 0.625 -4.296875 0.625 -5.015625 C 0.625 -5.734375 0.757812 -6.410156 1.03125 -7.046875 C 1.300781 -7.679688 1.671875 -8.238281 2.140625 -8.71875 C 2.617188 -9.195312 3.171875 -9.578125 3.796875 -9.859375 C 4.429688 -10.140625 5.113281 -10.28125 5.84375 -10.28125 Z M 8.125 -5.84375 C 7.957031 -6.425781 7.664062 -6.894531 7.25 -7.25 C 6.832031 -7.613281 6.363281 -7.796875 5.84375 -7.796875 C 5.300781 -7.796875 4.8125 -7.613281 4.375 -7.25 C 3.945312 -6.894531 3.648438 -6.425781 3.484375 -5.84375 Z M 8.125 -5.84375 "/></g></g></g><g fill="#48d6b5" fill-opacity="1"><g transform="translate(294.525559, 182.597009)"><g/></g></g><g fill="#48d6b5" fill-opacity="1"><g transform="translate(300.169327, 182.597009)"><g><path d="M 11.234375 -10.03125 C 11.234375 -9.582031 11.164062 -9.148438 11.03125 -8.734375 C 10.90625 -8.328125 10.726562 -7.953125 10.5 -7.609375 C 10.269531 -7.265625 9.992188 -6.960938 9.671875 -6.703125 C 9.347656 -6.441406 9 -6.226562 8.625 -6.0625 L 13.359375 0 L 9.796875 0 L 5.375 -5.765625 L 4.015625 -5.765625 L 4.015625 0 L 0.953125 0 L 0.953125 -14.296875 L 7.109375 -14.296875 C 7.679688 -14.296875 8.21875 -14.179688 8.71875 -13.953125 C 9.21875 -13.734375 9.648438 -13.429688 10.015625 -13.046875 C 10.390625 -12.671875 10.6875 -12.222656 10.90625 -11.703125 C 11.125 -11.179688 11.234375 -10.625 11.234375 -10.03125 Z M 6.734375 -8.546875 C 7.117188 -8.546875 7.453125 -8.6875 7.734375 -8.96875 C 8.015625 -9.257812 8.15625 -9.613281 8.15625 -10.03125 C 8.15625 -10.4375 8.015625 -10.785156 7.734375 -11.078125 C 7.453125 -11.367188 7.117188 -11.515625 6.734375 -11.515625 L 4.015625 -11.515625 L 4.015625 -8.546875 Z M 6.734375 -8.546875 "/></g></g></g><g fill="#48d6b5" fill-opacity="1"><g transform="translate(314.117477, 182.597009)"><g><path d="M 5.828125 -10.28125 C 6.535156 -10.28125 7.203125 -10.140625 7.828125 -9.859375 C 8.460938 -9.585938 9.015625 -9.210938 9.484375 -8.734375 C 9.960938 -8.253906 10.335938 -7.695312 10.609375 -7.0625 C 10.890625 -6.425781 11.03125 -5.742188 11.03125 -5.015625 C 11.03125 -4.296875 10.890625 -3.613281 10.609375 -2.96875 C 10.335938 -2.332031 9.960938 -1.773438 9.484375 -1.296875 C 9.015625 -0.816406 8.460938 -0.441406 7.828125 -0.171875 C 7.203125 0.0976562 6.535156 0.234375 5.828125 0.234375 C 5.097656 0.234375 4.414062 0.0976562 3.78125 -0.171875 C 3.15625 -0.441406 2.609375 -0.816406 2.140625 -1.296875 C 1.671875 -1.773438 1.296875 -2.332031 1.015625 -2.96875 C 0.742188 -3.613281 0.609375 -4.296875 0.609375 -5.015625 C 0.609375 -5.742188 0.742188 -6.425781 1.015625 -7.0625 C 1.296875 -7.695312 1.671875 -8.253906 2.140625 -8.734375 C 2.609375 -9.210938 3.15625 -9.585938 3.78125 -9.859375 C 4.414062 -10.140625 5.097656 -10.28125 5.828125 -10.28125 Z M 5.828125 -2.203125 C 6.160156 -2.203125 6.472656 -2.265625 6.765625 -2.390625 C 7.054688 -2.523438 7.3125 -2.710938 7.53125 -2.953125 C 7.75 -3.191406 7.921875 -3.472656 8.046875 -3.796875 C 8.179688 -4.128906 8.25 -4.492188 8.25 -4.890625 C 8.25 -5.296875 8.179688 -5.671875 8.046875 -6.015625 C 7.921875 -6.367188 7.75 -6.675781 7.53125 -6.9375 C 7.3125 -7.207031 7.054688 -7.414062 6.765625 -7.5625 C 6.472656 -7.71875 6.160156 -7.796875 5.828125 -7.796875 C 5.492188 -7.796875 5.175781 -7.71875 4.875 -7.5625 C 4.582031 -7.414062 4.320312 -7.207031 4.09375 -6.9375 C 3.875 -6.675781 3.703125 -6.367188 3.578125 -6.015625 C 3.453125 -5.671875 3.390625 -5.296875 3.390625 -4.890625 C 3.390625 -4.492188 3.453125 -4.128906 3.578125 -3.796875 C 3.703125 -3.472656 3.875 -3.191406 4.09375 -2.953125 C 4.320312 -2.710938 4.582031 -2.523438 4.875 -2.390625 C 5.175781 -2.265625 5.492188 -2.203125 5.828125 -2.203125 Z M 5.828125 -2.203125 "/></g></g></g><g fill="#48d6b5" fill-opacity="1"><g transform="translate(325.787966, 182.597009)"><g><path d="M 11.375 -10 L 11.375 0 L 8.96875 0 L 8.6875 -1.0625 C 8.300781 -0.539062 7.832031 -0.191406 7.28125 -0.015625 C 6.738281 0.148438 6.171875 0.234375 5.578125 0.234375 C 4.867188 0.234375 4.210938 0.0976562 3.609375 -0.171875 C 3.015625 -0.441406 2.492188 -0.816406 2.046875 -1.296875 C 1.609375 -1.773438 1.265625 -2.332031 1.015625 -2.96875 C 0.765625 -3.613281 0.640625 -4.296875 0.640625 -5.015625 C 0.640625 -5.742188 0.765625 -6.425781 1.015625 -7.0625 C 1.265625 -7.695312 1.609375 -8.253906 2.046875 -8.734375 C 2.492188 -9.210938 3.015625 -9.585938 3.609375 -9.859375 C 4.210938 -10.140625 4.867188 -10.28125 5.578125 -10.28125 C 6.222656 -10.28125 6.8125 -10.175781 7.34375 -9.96875 C 7.882812 -9.769531 8.332031 -9.453125 8.6875 -9.015625 L 8.96875 -10 Z M 8.59375 -4.984375 C 8.59375 -5.503906 8.519531 -5.941406 8.375 -6.296875 C 8.226562 -6.648438 8.035156 -6.9375 7.796875 -7.15625 C 7.566406 -7.382812 7.296875 -7.546875 6.984375 -7.640625 C 6.671875 -7.742188 6.332031 -7.796875 5.96875 -7.796875 C 5.601562 -7.796875 5.257812 -7.722656 4.9375 -7.578125 C 4.625 -7.429688 4.347656 -7.234375 4.109375 -6.984375 C 3.867188 -6.734375 3.679688 -6.4375 3.546875 -6.09375 C 3.410156 -5.75 3.34375 -5.390625 3.34375 -5.015625 C 3.34375 -4.628906 3.410156 -4.265625 3.546875 -3.921875 C 3.679688 -3.585938 3.867188 -3.296875 4.109375 -3.046875 C 4.347656 -2.804688 4.625 -2.609375 4.9375 -2.453125 C 5.257812 -2.304688 5.601562 -2.234375 5.96875 -2.234375 C 6.6875 -2.234375 7.296875 -2.457031 7.796875 -2.90625 C 8.304688 -3.363281 8.570312 -4.054688 8.59375 -4.984375 Z M 8.59375 -4.984375 "/></g></g></g><g fill="#48d6b5" fill-opacity="1"><g transform="translate(338.143773, 182.597009)"><g><path d="M 10.984375 -14.71875 L 10.984375 0 L 8.609375 0 L 8.203125 -0.859375 C 7.890625 -0.546875 7.460938 -0.285156 6.921875 -0.078125 C 6.378906 0.128906 5.8125 0.234375 5.21875 0.234375 C 4.507812 0.234375 3.851562 0.0976562 3.25 -0.171875 C 2.644531 -0.441406 2.125 -0.816406 1.6875 -1.296875 C 1.25 -1.773438 0.90625 -2.332031 0.65625 -2.96875 C 0.40625 -3.613281 0.28125 -4.296875 0.28125 -5.015625 C 0.28125 -5.742188 0.40625 -6.425781 0.65625 -7.0625 C 0.90625 -7.695312 1.25 -8.253906 1.6875 -8.734375 C 2.125 -9.210938 2.644531 -9.585938 3.25 -9.859375 C 3.851562 -10.140625 4.507812 -10.28125 5.21875 -10.28125 C 5.851562 -10.28125 6.414062 -10.207031 6.90625 -10.0625 C 7.394531 -9.914062 7.828125 -9.664062 8.203125 -9.3125 L 8.203125 -14.71875 Z M 8.203125 -4.984375 C 8.203125 -5.503906 8.132812 -5.941406 8 -6.296875 C 7.863281 -6.648438 7.675781 -6.9375 7.4375 -7.15625 C 7.195312 -7.382812 6.914062 -7.546875 6.59375 -7.640625 C 6.28125 -7.742188 5.941406 -7.796875 5.578125 -7.796875 C 5.210938 -7.796875 4.875 -7.722656 4.5625 -7.578125 C 4.25 -7.429688 3.972656 -7.234375 3.734375 -6.984375 C 3.503906 -6.734375 3.320312 -6.4375 3.1875 -6.09375 C 3.050781 -5.75 2.984375 -5.390625 2.984375 -5.015625 C 2.984375 -4.628906 3.050781 -4.265625 3.1875 -3.921875 C 3.320312 -3.585938 3.503906 -3.296875 3.734375 -3.046875 C 3.972656 -2.804688 4.25 -2.609375 4.5625 -2.453125 C 4.875 -2.304688 5.210938 -2.234375 5.578125 -2.234375 C 6.304688 -2.234375 6.921875 -2.457031 7.421875 -2.90625 C 7.929688 -3.363281 8.191406 -4.054688 8.203125 -4.984375 Z M 8.203125 -4.984375 "/></g></g></g><g fill="#48d6b5" fill-opacity="1"><g transform="translate(350.136769, 182.597009)"><g/></g></g><g fill="#48d6b5" fill-opacity="1"><g transform="translate(355.780537, 182.597009)"><g><path d="M 4.015625 -2.765625 L 9.875 -2.765625 L 9.875 0 L 0.953125 0 L 0.953125 -14.296875 L 4.015625 -14.296875 Z M 4.015625 -2.765625 "/></g></g></g><g fill="#48d6b5" fill-opacity="1"><g transform="translate(365.959472, 182.597009)"><g><path d="M 5.84375 -10.28125 C 6.59375 -10.28125 7.273438 -10.128906 7.890625 -9.828125 C 8.515625 -9.523438 9.046875 -9.128906 9.484375 -8.640625 C 9.929688 -8.148438 10.273438 -7.582031 10.515625 -6.9375 C 10.765625 -6.300781 10.890625 -5.648438 10.890625 -4.984375 C 10.890625 -4.578125 10.832031 -4.144531 10.71875 -3.6875 L 3.59375 -3.6875 C 3.851562 -3.226562 4.234375 -2.84375 4.734375 -2.53125 C 5.234375 -2.21875 5.769531 -2.0625 6.34375 -2.0625 C 6.925781 -2.0625 7.4375 -2.109375 7.875 -2.203125 C 8.3125 -2.296875 8.722656 -2.414062 9.109375 -2.5625 L 10.03125 -0.84375 C 9.539062 -0.5 8.972656 -0.234375 8.328125 -0.046875 C 7.691406 0.140625 7.007812 0.234375 6.28125 0.234375 C 5.488281 0.234375 4.75 0.0976562 4.0625 -0.171875 C 3.382812 -0.441406 2.789062 -0.8125 2.28125 -1.28125 C 1.769531 -1.757812 1.363281 -2.320312 1.0625 -2.96875 C 0.769531 -3.613281 0.625 -4.296875 0.625 -5.015625 C 0.625 -5.734375 0.757812 -6.410156 1.03125 -7.046875 C 1.300781 -7.679688 1.671875 -8.238281 2.140625 -8.71875 C 2.617188 -9.195312 3.171875 -9.578125 3.796875 -9.859375 C 4.429688 -10.140625 5.113281 -10.28125 5.84375 -10.28125 Z M 8.125 -5.84375 C 7.957031 -6.425781 7.664062 -6.894531 7.25 -7.25 C 6.832031 -7.613281 6.363281 -7.796875 5.84375 -7.796875 C 5.300781 -7.796875 4.8125 -7.613281 4.375 -7.25 C 3.945312 -6.894531 3.648438 -6.425781 3.484375 -5.84375 Z M 8.125 -5.84375 "/></g></g></g><g fill="#48d6b5" fill-opacity="1"><g transform="translate(378.053244, 182.597009)"><g><path d="M 7.25 -5.234375 C 7.988281 -4.710938 8.359375 -3.96875 8.359375 -3 C 8.359375 -2.5625 8.253906 -2.144531 8.046875 -1.75 C 7.835938 -1.363281 7.550781 -1.019531 7.1875 -0.71875 C 6.832031 -0.425781 6.410156 -0.195312 5.921875 -0.03125 C 5.441406 0.132812 4.925781 0.21875 4.375 0.21875 C 3.957031 0.21875 3.550781 0.164062 3.15625 0.0625 C 2.757812 -0.0390625 2.390625 -0.1875 2.046875 -0.375 C 1.710938 -0.570312 1.421875 -0.800781 1.171875 -1.0625 C 0.929688 -1.320312 0.75 -1.613281 0.625 -1.9375 C 0.9375 -2.082031 1.28125 -2.242188 1.65625 -2.421875 C 2.03125 -2.609375 2.359375 -2.773438 2.640625 -2.921875 C 2.765625 -2.722656 2.953125 -2.535156 3.203125 -2.359375 C 3.460938 -2.191406 3.8125 -2.109375 4.25 -2.109375 C 4.707031 -2.109375 5.039062 -2.21875 5.25 -2.4375 C 5.46875 -2.65625 5.578125 -2.859375 5.578125 -3.046875 C 5.578125 -3.179688 5.503906 -3.304688 5.359375 -3.421875 C 5.210938 -3.535156 5.046875 -3.625 4.859375 -3.6875 C 4.585938 -3.789062 4.363281 -3.847656 4.1875 -3.859375 C 4.019531 -3.867188 3.820312 -3.90625 3.59375 -3.96875 C 2.863281 -4.144531 2.304688 -4.375 1.921875 -4.65625 C 1.535156 -4.945312 1.253906 -5.238281 1.078125 -5.53125 C 0.910156 -5.832031 0.816406 -6.117188 0.796875 -6.390625 C 0.773438 -6.660156 0.765625 -6.875 0.765625 -7.03125 C 0.765625 -7.457031 0.859375 -7.863281 1.046875 -8.25 C 1.234375 -8.644531 1.488281 -8.988281 1.8125 -9.28125 C 2.144531 -9.570312 2.53125 -9.800781 2.96875 -9.96875 C 3.40625 -10.144531 3.875 -10.234375 4.375 -10.234375 C 4.789062 -10.234375 5.1875 -10.171875 5.5625 -10.046875 C 5.9375 -9.929688 6.273438 -9.765625 6.578125 -9.546875 C 6.890625 -9.335938 7.15625 -9.082031 7.375 -8.78125 C 7.601562 -8.488281 7.769531 -8.160156 7.875 -7.796875 L 5.71875 -7.078125 C 5.644531 -7.316406 5.484375 -7.507812 5.234375 -7.65625 C 4.984375 -7.800781 4.71875 -7.875 4.4375 -7.875 C 4.15625 -7.875 3.925781 -7.78125 3.75 -7.59375 C 3.570312 -7.40625 3.484375 -7.21875 3.484375 -7.03125 C 3.484375 -6.800781 3.566406 -6.625 3.734375 -6.5 C 3.898438 -6.375 4.085938 -6.285156 4.296875 -6.234375 C 4.441406 -6.203125 4.582031 -6.175781 4.71875 -6.15625 C 4.863281 -6.132812 5.003906 -6.113281 5.140625 -6.09375 C 5.609375 -5.976562 6.015625 -5.851562 6.359375 -5.71875 C 6.703125 -5.582031 7 -5.421875 7.25 -5.234375 Z M 7.25 -5.234375 "/></g></g></g><g fill="#48d6b5" fill-opacity="1"><g transform="translate(387.083273, 182.597009)"><g><path d="M 7.25 -5.234375 C 7.988281 -4.710938 8.359375 -3.96875 8.359375 -3 C 8.359375 -2.5625 8.253906 -2.144531 8.046875 -1.75 C 7.835938 -1.363281 7.550781 -1.019531 7.1875 -0.71875 C 6.832031 -0.425781 6.410156 -0.195312 5.921875 -0.03125 C 5.441406 0.132812 4.925781 0.21875 4.375 0.21875 C 3.957031 0.21875 3.550781 0.164062 3.15625 0.0625 C 2.757812 -0.0390625 2.390625 -0.1875 2.046875 -0.375 C 1.710938 -0.570312 1.421875 -0.800781 1.171875 -1.0625 C 0.929688 -1.320312 0.75 -1.613281 0.625 -1.9375 C 0.9375 -2.082031 1.28125 -2.242188 1.65625 -2.421875 C 2.03125 -2.609375 2.359375 -2.773438 2.640625 -2.921875 C 2.765625 -2.722656 2.953125 -2.535156 3.203125 -2.359375 C 3.460938 -2.191406 3.8125 -2.109375 4.25 -2.109375 C 4.707031 -2.109375 5.039062 -2.21875 5.25 -2.4375 C 5.46875 -2.65625 5.578125 -2.859375 5.578125 -3.046875 C 5.578125 -3.179688 5.503906 -3.304688 5.359375 -3.421875 C 5.210938 -3.535156 5.046875 -3.625 4.859375 -3.6875 C 4.585938 -3.789062 4.363281 -3.847656 4.1875 -3.859375 C 4.019531 -3.867188 3.820312 -3.90625 3.59375 -3.96875 C 2.863281 -4.144531 2.304688 -4.375 1.921875 -4.65625 C 1.535156 -4.945312 1.253906 -5.238281 1.078125 -5.53125 C 0.910156 -5.832031 0.816406 -6.117188 0.796875 -6.390625 C 0.773438 -6.660156 0.765625 -6.875 0.765625 -7.03125 C 0.765625 -7.457031 0.859375 -7.863281 1.046875 -8.25 C 1.234375 -8.644531 1.488281 -8.988281 1.8125 -9.28125 C 2.144531 -9.570312 2.53125 -9.800781 2.96875 -9.96875 C 3.40625 -10.144531 3.875 -10.234375 4.375 -10.234375 C 4.789062 -10.234375 5.1875 -10.171875 5.5625 -10.046875 C 5.9375 -9.929688 6.273438 -9.765625 6.578125 -9.546875 C 6.890625 -9.335938 7.15625 -9.082031 7.375 -8.78125 C 7.601562 -8.488281 7.769531 -8.160156 7.875 -7.796875 L 5.71875 -7.078125 C 5.644531 -7.316406 5.484375 -7.507812 5.234375 -7.65625 C 4.984375 -7.800781 4.71875 -7.875 4.4375 -7.875 C 4.15625 -7.875 3.925781 -7.78125 3.75 -7.59375 C 3.570312 -7.40625 3.484375 -7.21875 3.484375 -7.03125 C 3.484375 -6.800781 3.566406 -6.625 3.734375 -6.5 C 3.898438 -6.375 4.085938 -6.285156 4.296875 -6.234375 C 4.441406 -6.203125 4.582031 -6.175781 4.71875 -6.15625 C 4.863281 -6.132812 5.003906 -6.113281 5.140625 -6.09375 C 5.609375 -5.976562 6.015625 -5.851562 6.359375 -5.71875 C 6.703125 -5.582031 7 -5.421875 7.25 -5.234375 Z M 7.25 -5.234375 "/></g></g></g><g fill="#48d6b5" fill-opacity="1"><g transform="translate(396.113302, 182.597009)"><g/></g></g><g fill="#48d6b5" fill-opacity="1"><g transform="translate(401.75707, 182.597009)"><g><path d="M 0.46875 -14.296875 L 10.796875 -14.296875 L 10.796875 -11.515625 L 7.15625 -11.515625 L 7.15625 0 L 4.109375 0 L 4.109375 -11.515625 L 0.46875 -11.515625 Z M 0.46875 -14.296875 "/></g></g></g><g fill="#48d6b5" fill-opacity="1"><g transform="translate(413.125218, 182.597009)"><g><path d="M 3.640625 -8.609375 C 3.773438 -8.816406 3.929688 -9.019531 4.109375 -9.21875 C 4.285156 -9.414062 4.492188 -9.59375 4.734375 -9.75 C 4.972656 -9.90625 5.25 -10.03125 5.5625 -10.125 C 5.875 -10.21875 6.222656 -10.265625 6.609375 -10.265625 C 7.066406 -10.265625 7.597656 -10.179688 8.203125 -10.015625 L 7.9375 -7.53125 C 7.789062 -7.5625 7.644531 -7.597656 7.5 -7.640625 C 7.375 -7.660156 7.238281 -7.679688 7.09375 -7.703125 C 6.945312 -7.722656 6.8125 -7.734375 6.6875 -7.734375 C 6.257812 -7.734375 5.859375 -7.671875 5.484375 -7.546875 C 5.117188 -7.429688 4.800781 -7.265625 4.53125 -7.046875 C 4.257812 -6.835938 4.039062 -6.582031 3.875 -6.28125 C 3.71875 -5.976562 3.640625 -5.648438 3.640625 -5.296875 L 3.640625 0 L 0.859375 0 L 0.859375 -10 L 3.390625 -10 Z M 3.640625 -8.609375 "/></g></g></g><g fill="#48d6b5" fill-opacity="1"><g transform="translate(421.530399, 182.597009)"><g><path d="M 11.375 -10 L 11.375 0 L 8.96875 0 L 8.6875 -1.0625 C 8.300781 -0.539062 7.832031 -0.191406 7.28125 -0.015625 C 6.738281 0.148438 6.171875 0.234375 5.578125 0.234375 C 4.867188 0.234375 4.210938 0.0976562 3.609375 -0.171875 C 3.015625 -0.441406 2.492188 -0.816406 2.046875 -1.296875 C 1.609375 -1.773438 1.265625 -2.332031 1.015625 -2.96875 C 0.765625 -3.613281 0.640625 -4.296875 0.640625 -5.015625 C 0.640625 -5.742188 0.765625 -6.425781 1.015625 -7.0625 C 1.265625 -7.695312 1.609375 -8.253906 2.046875 -8.734375 C 2.492188 -9.210938 3.015625 -9.585938 3.609375 -9.859375 C 4.210938 -10.140625 4.867188 -10.28125 5.578125 -10.28125 C 6.222656 -10.28125 6.8125 -10.175781 7.34375 -9.96875 C 7.882812 -9.769531 8.332031 -9.453125 8.6875 -9.015625 L 8.96875 -10 Z M 8.59375 -4.984375 C 8.59375 -5.503906 8.519531 -5.941406 8.375 -6.296875 C 8.226562 -6.648438 8.035156 -6.9375 7.796875 -7.15625 C 7.566406 -7.382812 7.296875 -7.546875 6.984375 -7.640625 C 6.671875 -7.742188 6.332031 -7.796875 5.96875 -7.796875 C 5.601562 -7.796875 5.257812 -7.722656 4.9375 -7.578125 C 4.625 -7.429688 4.347656 -7.234375 4.109375 -6.984375 C 3.867188 -6.734375 3.679688 -6.4375 3.546875 -6.09375 C 3.410156 -5.75 3.34375 -5.390625 3.34375 -5.015625 C 3.34375 -4.628906 3.410156 -4.265625 3.546875 -3.921875 C 3.679688 -3.585938 3.867188 -3.296875 4.109375 -3.046875 C 4.347656 -2.804688 4.625 -2.609375 4.9375 -2.453125 C 5.257812 -2.304688 5.601562 -2.234375 5.96875 -2.234375 C 6.6875 -2.234375 7.296875 -2.457031 7.796875 -2.90625 C 8.304688 -3.363281 8.570312 -4.054688 8.59375 -4.984375 Z M 8.59375 -4.984375 "/></g></g></g><g fill="#48d6b5" fill-opacity="1"><g transform="translate(433.886206, 182.597009)"><g><path d="M 8.78125 -10 L 11.796875 -10 L 7.765625 0 L 4.171875 0 L 0.140625 -10 L 3.125 -10 L 5.96875 -2.59375 Z M 8.78125 -10 "/></g></g></g><g fill="#48d6b5" fill-opacity="1"><g transform="translate(445.959825, 182.597009)"><g><path d="M 5.84375 -10.28125 C 6.59375 -10.28125 7.273438 -10.128906 7.890625 -9.828125 C 8.515625 -9.523438 9.046875 -9.128906 9.484375 -8.640625 C 9.929688 -8.148438 10.273438 -7.582031 10.515625 -6.9375 C 10.765625 -6.300781 10.890625 -5.648438 10.890625 -4.984375 C 10.890625 -4.578125 10.832031 -4.144531 10.71875 -3.6875 L 3.59375 -3.6875 C 3.851562 -3.226562 4.234375 -2.84375 4.734375 -2.53125 C 5.234375 -2.21875 5.769531 -2.0625 6.34375 -2.0625 C 6.925781 -2.0625 7.4375 -2.109375 7.875 -2.203125 C 8.3125 -2.296875 8.722656 -2.414062 9.109375 -2.5625 L 10.03125 -0.84375 C 9.539062 -0.5 8.972656 -0.234375 8.328125 -0.046875 C 7.691406 0.140625 7.007812 0.234375 6.28125 0.234375 C 5.488281 0.234375 4.75 0.0976562 4.0625 -0.171875 C 3.382812 -0.441406 2.789062 -0.8125 2.28125 -1.28125 C 1.769531 -1.757812 1.363281 -2.320312 1.0625 -2.96875 C 0.769531 -3.613281 0.625 -4.296875 0.625 -5.015625 C 0.625 -5.734375 0.757812 -6.410156 1.03125 -7.046875 C 1.300781 -7.679688 1.671875 -8.238281 2.140625 -8.71875 C 2.617188 -9.195312 3.171875 -9.578125 3.796875 -9.859375 C 4.429688 -10.140625 5.113281 -10.28125 5.84375 -10.28125 Z M 8.125 -5.84375 C 7.957031 -6.425781 7.664062 -6.894531 7.25 -7.25 C 6.832031 -7.613281 6.363281 -7.796875 5.84375 -7.796875 C 5.300781 -7.796875 4.8125 -7.613281 4.375 -7.25 C 3.945312 -6.894531 3.648438 -6.425781 3.484375 -5.84375 Z M 8.125 -5.84375 "/></g></g></g><g fill="#48d6b5" fill-opacity="1"><g transform="translate(458.053597, 182.597009)"><g><path d="M 0.984375 -14.734375 L 3.765625 -14.734375 L 3.765625 0 L 0.984375 0 Z M 0.984375 -14.734375 "/></g></g></g><g fill="#48d6b5" fill-opacity="1"><g transform="translate(462.729882, 182.597009)"><g><path d="M 0.984375 -14.734375 L 3.765625 -14.734375 L 3.765625 0 L 0.984375 0 Z M 0.984375 -14.734375 "/></g></g></g><g fill="#48d6b5" fill-opacity="1"><g transform="translate(467.406166, 182.597009)"><g><path d="M 5.84375 -10.28125 C 6.59375 -10.28125 7.273438 -10.128906 7.890625 -9.828125 C 8.515625 -9.523438 9.046875 -9.128906 9.484375 -8.640625 C 9.929688 -8.148438 10.273438 -7.582031 10.515625 -6.9375 C 10.765625 -6.300781 10.890625 -5.648438 10.890625 -4.984375 C 10.890625 -4.578125 10.832031 -4.144531 10.71875 -3.6875 L 3.59375 -3.6875 C 3.851562 -3.226562 4.234375 -2.84375 4.734375 -2.53125 C 5.234375 -2.21875 5.769531 -2.0625 6.34375 -2.0625 C 6.925781 -2.0625 7.4375 -2.109375 7.875 -2.203125 C 8.3125 -2.296875 8.722656 -2.414062 9.109375 -2.5625 L 10.03125 -0.84375 C 9.539062 -0.5 8.972656 -0.234375 8.328125 -0.046875 C 7.691406 0.140625 7.007812 0.234375 6.28125 0.234375 C 5.488281 0.234375 4.75 0.0976562 4.0625 -0.171875 C 3.382812 -0.441406 2.789062 -0.8125 2.28125 -1.28125 C 1.769531 -1.757812 1.363281 -2.320312 1.0625 -2.96875 C 0.769531 -3.613281 0.625 -4.296875 0.625 -5.015625 C 0.625 -5.734375 0.757812 -6.410156 1.03125 -7.046875 C 1.300781 -7.679688 1.671875 -8.238281 2.140625 -8.71875 C 2.617188 -9.195312 3.171875 -9.578125 3.796875 -9.859375 C 4.429688 -10.140625 5.113281 -10.28125 5.84375 -10.28125 Z M 8.125 -5.84375 C 7.957031 -6.425781 7.664062 -6.894531 7.25 -7.25 C 6.832031 -7.613281 6.363281 -7.796875 5.84375 -7.796875 C 5.300781 -7.796875 4.8125 -7.613281 4.375 -7.25 C 3.945312 -6.894531 3.648438 -6.425781 3.484375 -5.84375 Z M 8.125 -5.84375 "/></g></g></g><g fill="#48d6b5" fill-opacity="1"><g transform="translate(479.499938, 182.597009)"><g><path d="M 10.984375 -14.71875 L 10.984375 0 L 8.609375 0 L 8.203125 -0.859375 C 7.890625 -0.546875 7.460938 -0.285156 6.921875 -0.078125 C 6.378906 0.128906 5.8125 0.234375 5.21875 0.234375 C 4.507812 0.234375 3.851562 0.0976562 3.25 -0.171875 C 2.644531 -0.441406 2.125 -0.816406 1.6875 -1.296875 C 1.25 -1.773438 0.90625 -2.332031 0.65625 -2.96875 C 0.40625 -3.613281 0.28125 -4.296875 0.28125 -5.015625 C 0.28125 -5.742188 0.40625 -6.425781 0.65625 -7.0625 C 0.90625 -7.695312 1.25 -8.253906 1.6875 -8.734375 C 2.125 -9.210938 2.644531 -9.585938 3.25 -9.859375 C 3.851562 -10.140625 4.507812 -10.28125 5.21875 -10.28125 C 5.851562 -10.28125 6.414062 -10.207031 6.90625 -10.0625 C 7.394531 -9.914062 7.828125 -9.664062 8.203125 -9.3125 L 8.203125 -14.71875 Z M 8.203125 -4.984375 C 8.203125 -5.503906 8.132812 -5.941406 8 -6.296875 C 7.863281 -6.648438 7.675781 -6.9375 7.4375 -7.15625 C 7.195312 -7.382812 6.914062 -7.546875 6.59375 -7.640625 C 6.28125 -7.742188 5.941406 -7.796875 5.578125 -7.796875 C 5.210938 -7.796875 4.875 -7.722656 4.5625 -7.578125 C 4.25 -7.429688 3.972656 -7.234375 3.734375 -6.984375 C 3.503906 -6.734375 3.320312 -6.4375 3.1875 -6.09375 C 3.050781 -5.75 2.984375 -5.390625 2.984375 -5.015625 C 2.984375 -4.628906 3.050781 -4.265625 3.1875 -3.921875 C 3.320312 -3.585938 3.503906 -3.296875 3.734375 -3.046875 C 3.972656 -2.804688 4.25 -2.609375 4.5625 -2.453125 C 4.875 -2.304688 5.210938 -2.234375 5.578125 -2.234375 C 6.304688 -2.234375 6.921875 -2.457031 7.421875 -2.90625 C 7.929688 -3.363281 8.191406 -4.054688 8.203125 -4.984375 Z M 8.203125 -4.984375 "/></g></g></g></svg>