<?xml version="1.0" encoding="utf-8"?>
<!-- Generator: Adobe Illustrator 25.2.0, SVG Export Plug-In . SVG Version: 6.00 Build 0)  -->
<svg version="1.1" width="512" height="512" id="Layer_1" xmlns="http://www.w3.org/2000/svg" xmlns:xlink="http://www.w3.org/1999/xlink" x="0px" y="0px"
	 viewBox="0 0 512 512" style="enable-background:new 0 0 512 512;" xml:space="preserve">
<style type="text/css">
	.st0{fill:#FF9900;}
	.st1{fill:#FFF5F5;}
</style>
<g>
	<path class="st0" d="M317.5,299.5c-29.7,21.9-72.9,33.7-109.9,33.7c-52,0-98.9-19.2-134.4-51.3c-2.8-2.5-0.3-5.9,3.1-3.9
		c38.3,22.3,85.5,35.6,134.5,35.6c33,0,69.1-6.9,102.5-21C318.2,290.4,322.5,295.8,317.5,299.5"/>
	<path class="st0" d="M330,285.3c-3.8-4.9-25.1-2.2-34.8-1.1c-2.9,0.4-3.4-2.2-0.7-4.1c17-11.9,44.9-8.5,48.1-4.5
		c3.2,4.1-0.8,32-16.8,45.3c-2.4,2.1-4.8,1-3.6-1.8C325.6,310.3,333.8,290.2,330,285.3"/>
	<path class="st1" d="M295.9,195.7v-11.6c0-1.8,1.4-2.9,2.9-2.9h52c1.7,0,2.9,1.3,2.9,2.9v10c0,1.7-1.4,3.8-3.9,7.3L323,239.9
		c10-0.3,20.6,1.3,29.7,6.3c2.1,1.1,2.7,2.8,2.8,4.5V263c0,1.7-1.8,3.6-3.8,2.7c-16-8.4-37.3-9.3-55,0.1c-1.8,1-3.6-1-3.6-2.7v-11.8
		c0-2,0-5.2,2-8l31.3-44.9h-27.2C297.2,198.6,295.9,197.5,295.9,195.7"/>
	<path class="st1" d="M105.9,268.3H90c-1.5-0.1-2.7-1.3-2.8-2.7v-81.3c0-1.7,1.4-2.9,3.1-2.9H105c1.5,0,2.8,1.3,2.8,2.7v10.7h0.3
		c3.8-10.2,11.1-15,20.9-15c10,0,16.1,4.8,20.6,15c3.8-10.2,12.5-15,21.9-15c6.6,0,13.9,2.8,18.4,8.8c5.1,6.9,3.9,16.8,3.9,25.5
		v51.3c0,1.7-1.4,2.9-3.1,2.9h-15.9c-1.5-0.1-2.8-1.4-2.8-2.9v-43.1c0-3.4,0.3-11.9-0.4-15.3c-1.1-5.5-4.8-7-9.3-7
		c-3.8,0-7.9,2.5-9.5,6.7c-1.7,4.1-1.4,10.9-1.4,15.6v43c0,1.7-1.4,2.9-3.1,2.9h-15.9c-1.5-0.1-2.8-1.4-2.8-2.9v-43.1
		c0-9.1,1.5-22.4-9.8-22.4s-10.9,13-10.9,22.4v43.1C109,266.9,107.6,268.3,105.9,268.3"/>
	<path class="st1" d="M398.7,179.7c23.6,0,36.2,20.2,36.2,45.9c0,24.8-14,44.5-36.2,44.5c-23.1,0-35.6-20.2-35.6-45.3
		C363.1,199.3,375.8,179.7,398.7,179.7 M398.8,196.3c-11.6,0-12.3,15.9-12.3,25.8c0,10-0.1,31.1,12.3,31.1
		c12.3,0,12.9-17.1,12.9-27.5c0-6.9-0.3-15-2.4-21.6C407.4,198.5,403.9,196.3,398.8,196.3"/>
	<path class="st1" d="M465.5,268.3h-15.7c-1.5-0.1-2.8-1.4-2.8-2.9v-81.3c0.1-1.5,1.4-2.7,3.1-2.7h14.7c1.4,0,2.5,1,2.8,2.2v12.5
		h0.3c4.5-11.1,10.7-16.4,21.6-16.4c7.1,0,14,2.5,18.5,9.5c4.2,6.4,4.2,17.4,4.2,25.2v51.2c-0.1,1.4-1.5,2.5-3.1,2.5h-16.1
		c-1.4-0.1-2.7-1.1-2.8-2.5v-44.2c0-8.8,1-21.9-10-21.9c-3.8,0-7.4,2.5-9.1,6.4c-2.2,4.9-2.5,10-2.5,15.4v43.8
		C468.5,266.9,467.1,268.3,465.5,268.3"/>
	<path class="st1" d="M282.6,253.3c-2.9-4.1-6-7.3-6-14.7v-24.7c0-10.5,0.7-20.1-7-27.2c-6-5.9-16.1-7.9-23.8-7.9
		c-15,0-32,5.6-35.5,24.3c-0.4,2,1.1,3.1,2.4,3.4l15.3,1.7c1.4,0,2.5-1.4,2.8-2.9c1.3-6.4,6.7-9.5,12.8-9.5c3.2,0,7,1.3,8.8,4.1
		c2.2,3.2,2,7.7,2,11.5v2.1c-9.1,1-21.2,1.7-29.7,5.5c-10,4.4-16.8,13-16.8,25.9c0,16.4,10.4,24.7,23.7,24.7
		c11.2,0,17.4-2.7,26.1-11.5c2.8,4.2,3.8,6.2,9.1,10.5c1.1,0.6,2.7,0.6,3.8-0.4l0,0c3.2-2.8,9-7.9,12.2-10.5
		C283.9,256.6,283.6,254.7,282.6,253.3z M251.4,246.2c-2.5,4.5-6.6,7.1-10.9,7.1c-6,0-9.7-4.6-9.7-11.5c0-13.5,12.1-16,23.6-16v3.4
		l0,0C254.4,235.7,254.5,240.7,251.4,246.2z"/>
	<path class="st1" d="M74.9,253.3c-2.9-4.1-6-7.3-6-14.7v-24.7c0-10.5,0.7-20.1-7-27.2c-6-5.9-16.1-7.9-23.8-7.9
		c-15,0-31.8,5.6-35.5,24.3c-0.4,2,1.1,3.1,2.4,3.4l15.4,1.7c1.4,0,2.5-1.4,2.8-2.9c1.3-6.4,6.7-9.5,12.8-9.5c3.2,0,7,1.3,8.8,4.1
		c2.2,3.2,2,7.7,2,11.5v2.1c-9.1,1-21.2,1.7-29.7,5.5c-10,4.4-16.8,13-16.8,25.9c0,16.4,10.4,24.7,23.7,24.7
		c11.2,0,17.4-2.7,26.1-11.5c2.9,4.2,3.8,6.2,9.1,10.5c1.1,0.6,2.7,0.6,3.8-0.4l0,0c3.2-2.8,9-7.9,12.2-10.5
		C76.2,256.6,75.9,254.7,74.9,253.3z M43.8,246.2c-2.5,4.5-6.5,7.1-10.9,7.1c-6,0-9.7-4.6-9.7-11.5c0-13.5,12.1-16,23.6-16v3.4
		C46.7,235.7,46.8,240.7,43.8,246.2z"/>
</g>
</svg>
