<?xml version="1.0" encoding="utf-8"?>
<!-- Generator: Adobe Illustrator 25.2.0, SVG Export Plug-In . SVG Version: 6.00 Build 0)  -->
<svg version="1.1" width="512" height="512" id="Layer_1" xmlns="http://www.w3.org/2000/svg" xmlns:xlink="http://www.w3.org/1999/xlink" x="0px" y="0px"
	 viewBox="0 0 512 512" style="enable-background:new 0 0 512 512;" xml:space="preserve">
<style type="text/css">
	.st0{fill:#C4122E;}
	.st1{clip-path:url(#SVGID_1_);}
	.st2{fill:#15495D;}
</style>
<g>
	<path class="st0" d="M166.4,370.8h-20.9v-83h20.9V370.8L166.4,370.8z"/>
	<g transform="matrix(10.33728 0 0 -10.33728 -861.345 7843.84)">
		<g>
			<defs>
				<rect id="SVGID_3_" x="-147.9" y="588.2" width="512" height="291.7"/>
			</defs>
			<clipPath id="SVGID_1_">
				<use xlink:href="#SVGID_3_"  style="overflow:visible;"/>
			</clipPath>
			<g class="st1">
				<path class="st0" d="M115.8,728.7c-0.1,0-0.7,0.4-1.7,0.4c-1.3,0-2.2-0.9-2.2-2.1c0-1.2,0.9-2.1,2.2-2.1c1,0,1.6,0.4,1.7,0.4
					v-2.2c-0.3-0.1-0.9-0.3-1.8-0.3c-2.3,0-4.3,1.6-4.3,4.2c0,2.4,1.8,4.2,4.3,4.2c0.9,0,1.7-0.2,1.8-0.3V728.7z M94.6,728.7
					c-0.1,0-0.7,0.4-1.7,0.4c-1.3,0-2.2-0.9-2.2-2.1c0-1.2,0.9-2.1,2.2-2.1c1,0,1.6,0.4,1.7,0.4v-2.2c-0.3-0.1-0.9-0.3-1.8-0.3
					c-2.3,0-4.3,1.6-4.3,4.2c0,2.4,1.8,4.2,4.3,4.2c1,0,1.7-0.2,1.8-0.3V728.7z M122.1,729c-1.2,0-2.1-0.9-2.1-2.1
					c0-1.2,0.9-2.1,2.1-2.1c1.2,0,2.1,0.9,2.1,2.1C124.2,728.1,123.3,729,122.1,729 M126.4,726.9c0-2.3-1.8-4.2-4.2-4.2
					c-2.5,0-4.2,1.9-4.2,4.2c0,2.3,1.8,4.2,4.2,4.2C124.6,731.1,126.4,729.2,126.4,726.9 M107.1,729.1c0,0-0.9,0.2-1.6,0.2
					c-0.8,0-1.3-0.3-1.3-0.7c0-0.5,0.6-0.7,0.9-0.8l0.6-0.2c1.3-0.4,1.9-1.3,1.9-2.3c0-2-1.8-2.7-3.3-2.7c-1.1,0-2.1,0.2-2.2,0.2
					v1.8c0.2,0,1-0.3,1.9-0.3c1,0,1.5,0.3,1.5,0.7c0,0.4-0.4,0.6-0.9,0.8c-0.1,0-0.3,0.1-0.4,0.1c-1.1,0.4-2.1,1-2.1,2.3
					c0,1.5,1.1,2.5,3,2.5c1,0,1.9-0.2,2-0.3V729.1L107.1,729.1z"/>
				<path class="st2" d="M86.3,739.6c0,0.6-0.5,1-1,1c-0.6,0-1-0.4-1-1v-2.1c0-0.6,0.5-1,1-1c0.5,0,1,0.4,1,1V739.6z M91.9,742.3
					c0,0.6-0.5,1-1,1s-1-0.5-1-1v-4.9c0-0.6,0.5-1,1-1s1,0.5,1,1l0,0V742.3L91.9,742.3z M97.4,746.1c0,0.6-0.5,1-1,1
					c-0.6,0-1-0.4-1-1v-10.7c0-0.6,0.5-1,1-1c0.5,0,1,0.4,1,1V746.1z M102.9,742.3c0,0.6-0.5,1-1,1c-0.6,0-1-0.5-1-1v-4.9
					c0-0.6,0.5-1,1-1c0.6,0,1,0.5,1,1l0,0V742.3L102.9,742.3z M108.4,739.6c0,0.6-0.4,1-1,1c-0.6,0-1-0.4-1-1v-2.1c0-0.6,0.4-1,1-1
					s1,0.4,1,1l0,0V739.6z M114,742.3c0,0.6-0.5,1-1,1c-0.5,0-1-0.4-1-1v-4.9c0-0.6,0.4-1,1-1s1,0.4,1,1l0,0V742.3L114,742.3z
					 M119.5,746.1c0,0.6-0.4,1-1,1s-1-0.4-1-1v-10.7c0-0.6,0.4-1,1-1s1,0.4,1,1c0,0,0,0.1,0,0.1V746.1z M125,742.3c0,0.6-0.4,1-1,1
					c-0.6,0-1-0.4-1-1v-4.9c0-0.6,0.4-1,1-1c0.6,0,1,0.4,1,1V742.3L125,742.3z M130.5,739.6c0,0.6-0.4,1-1,1c-0.6,0-1-0.4-1-1v-2.1
					c0-0.6,0.4-1,1-1c0.6,0,1,0.4,1,1L130.5,739.6L130.5,739.6z"/>
				<path class="st0" d="M129.4,724v-0.1H129v-0.9h-0.1v0.9h-0.4v0.1L129.4,724L129.4,724z M129.5,724h0.2l0.3-0.9h0l0.3,0.9h0.2
					v-1.1h-0.2v0.9h0l-0.3-0.9h-0.1l-0.3,0.9h0v-0.9h-0.1V724L129.5,724z"/>
			</g>
		</g>
	</g>
</g>
</svg>
