<?xml version="1.0" encoding="utf-8"?>
<!-- Generator: Adobe Illustrator 24.1.1, SVG Export Plug-In . SVG Version: 6.00 Build 0)  -->
<svg version="1.1" id="Layer_1" xmlns="http://www.w3.org/2000/svg" xmlns:xlink="http://www.w3.org/1999/xlink" x="0px" y="0px"
	 viewBox="0 0 512 512" style="enable-background:new 0 0 512 512;" xml:space="preserve">
<style type="text/css">
	.st0{fill:#706D6E;}
	.st1{fill:#F1511B;}
	.st2{fill:#80CC28;}
	.st3{fill:#00ADEF;}
	.st4{fill:#FBBC09;}
</style>
<g>
	<path class="st0" d="M512,250.8v-9h-11.2v-14l-0.4,0.1l-10.5,3.2l-0.2,0.1v10.6h-16.6v-5.9c0-2.8,0.6-4.9,1.8-6.3
		c1.2-1.4,2.9-2.1,5.1-2.1c1.6,0,3.2,0.4,4.9,1.1l0.4,0.2v-9.5l-0.2-0.1c-1.5-0.6-3.6-0.8-6.2-0.8c-3.3,0-6.2,0.7-8.8,2.1
		c-2.6,1.4-4.6,3.4-6,6c-1.4,2.6-2.1,5.5-2.1,8.8v6.5h-7.8v9h7.8v37.9h11.2v-37.9h16.6v24.1c0,9.9,4.7,15,13.9,15
		c1.5,0,3.1-0.2,4.7-0.5c1.7-0.4,2.8-0.7,3.5-1.1l0.1-0.1v-9.1l-0.5,0.3c-0.6,0.4-1.4,0.7-2.2,1c-0.9,0.3-1.6,0.4-2.2,0.4
		c-2.2,0-3.8-0.6-4.8-1.7c-1-1.2-1.5-3.2-1.5-6v-22.2H512z M429.2,280.7c-4.1,0-7.3-1.3-9.5-4c-2.3-2.7-3.4-6.5-3.4-11.3
		c0-5,1.1-8.9,3.4-11.6c2.3-2.7,5.4-4.1,9.4-4.1c3.9,0,7,1.3,9.2,3.9c2.2,2.6,3.3,6.5,3.3,11.5c0,5.1-1.1,9-3.1,11.6
		C436.4,279.4,433.3,280.7,429.2,280.7z M429.7,240.7c-7.7,0-13.9,2.3-18.3,6.7c-4.4,4.5-6.6,10.7-6.6,18.4c0,7.3,2.2,13.3,6.4,17.6
		c4.3,4.3,10.1,6.5,17.3,6.5c7.5,0,13.5-2.3,17.9-6.8c4.4-4.5,6.6-10.7,6.6-18.2c0-7.5-2.1-13.4-6.2-17.7
		C442.8,242.8,437,240.7,429.7,240.7z M386.8,240.7c-5.3,0-9.6,1.3-12.9,4c-3.3,2.7-5,6.2-5,10.4c0,2.2,0.4,4.2,1.1,5.8
		c0.7,1.7,1.8,3.1,3.3,4.4c1.5,1.2,3.8,2.5,6.8,3.8c2.5,1,4.4,1.9,5.6,2.6c1.2,0.7,2,1.4,2.5,2c0.5,0.7,0.7,1.6,0.7,2.7
		c0,3.2-2.4,4.7-7.2,4.7c-1.8,0-3.9-0.4-6.1-1.1c-2.3-0.7-4.4-1.8-6.3-3.2l-0.5-0.3v10.8l0.2,0.1c1.6,0.7,3.6,1.3,5.9,1.8
		c2.3,0.5,4.5,0.7,6.3,0.7c5.7,0,10.3-1.4,13.7-4c3.4-2.7,5.1-6.3,5.1-10.7c0-3.2-0.9-5.9-2.7-8.1c-1.8-2.2-4.9-4.2-9.3-5.9
		c-3.5-1.4-5.7-2.6-6.6-3.4c-0.9-0.9-1.3-2.1-1.3-3.6c0-1.4,0.6-2.5,1.7-3.3c1.1-0.9,2.7-1.3,4.8-1.3c1.9,0,3.8,0.3,5.7,0.9
		c1.9,0.6,3.6,1.3,4.9,2.3l0.5,0.3v-10.2l-0.2-0.1c-1.3-0.5-3-1-5-1.4C390.3,240.9,388.4,240.7,386.8,240.7z M339.7,280.7
		c-4.1,0-7.3-1.3-9.5-4c-2.3-2.7-3.4-6.5-3.4-11.3c0-5,1.1-8.9,3.4-11.6c2.3-2.7,5.4-4.1,9.4-4.1c3.9,0,7,1.3,9.2,3.9
		c2.2,2.6,3.3,6.5,3.3,11.5c0,5.1-1.1,9-3.2,11.6C346.9,279.4,343.8,280.7,339.7,280.7z M340.2,240.7c-7.7,0-13.9,2.3-18.3,6.7
		c-4.4,4.5-6.6,10.7-6.6,18.4c0,7.4,2.2,13.3,6.4,17.6c4.3,4.3,10.1,6.5,17.3,6.5c7.5,0,13.5-2.3,17.9-6.8
		c4.4-4.5,6.6-10.7,6.6-18.2c0-7.5-2.1-13.4-6.2-17.7C353.3,242.8,347.5,240.7,340.2,240.7z M298.4,249.9v-8.1h-11v46.9h11v-24
		c0-4.1,0.9-7.4,2.8-10c1.8-2.5,4.2-3.8,7.1-3.8c1,0,2.1,0.2,3.3,0.5c1.2,0.3,2.1,0.7,2.6,1l0.5,0.3v-11.1l-0.2-0.1
		c-1-0.4-2.5-0.7-4.3-0.7c-2.8,0-5.3,0.9-7.4,2.6c-1.9,1.5-3.2,3.7-4.2,6.3H298.4z M267.6,240.7c-5.1,0-9.6,1.1-13.4,3.2
		c-3.9,2.1-6.8,5.2-8.9,9.1c-2,3.9-3,8.4-3,13.5c0,4.4,1,8.5,3,12.1c2,3.6,4.7,6.4,8.3,8.4c3.5,1.9,7.6,2.9,12.1,2.9
		c5.2,0,9.7-1,13.3-3.1l0.1-0.1v-10.1l-0.5,0.3c-1.6,1.2-3.4,2.1-5.4,2.8c-2,0.7-3.7,1-5.3,1c-4.3,0-7.8-1.4-10.3-4
		c-2.5-2.7-3.8-6.4-3.8-11.2c0-4.8,1.3-8.6,4-11.5c2.6-2.8,6.1-4.3,10.4-4.3c3.6,0,7.2,1.2,10.5,3.7l0.5,0.3v-10.7l-0.1-0.1
		c-1.3-0.7-3-1.3-5.1-1.7C271.6,240.9,269.5,240.7,267.6,240.7z M234.6,241.8h-11v46.9h11V241.8z M229.2,221.8
		c-1.8,0-3.4,0.6-4.7,1.8c-1.3,1.2-2,2.8-2,4.6c0,1.8,0.7,3.3,2,4.5c1.3,1.2,2.9,1.8,4.7,1.8c1.8,0,3.4-0.6,4.7-1.8
		c1.3-1.2,2-2.7,2-4.5c0-1.8-0.6-3.3-1.9-4.6C232.7,222.4,231.1,221.8,229.2,221.8z M201.7,238.3v50.4h11.3v-65.5h-15.6l-19.8,48.6
		l-19.2-48.6h-16.2v65.5h10.6v-50.4h0.4l20.3,50.4h8l20-50.4H201.7z"/>
	<rect y="201.3" class="st1" width="51.9" height="51.9"/>
	<rect x="57.3" y="201.3" class="st2" width="51.9" height="51.9"/>
	<rect y="258.7" class="st3" width="51.9" height="51.9"/>
	<rect x="57.3" y="258.7" class="st4" width="51.9" height="51.9"/>
</g>
</svg>
