<?xml version="1.0" encoding="utf-8"?>
<!-- Generator: Adobe Illustrator 26.5.0, SVG Export Plug-In . SVG Version: 6.00 Build 0)  -->
<svg version="1.1" id="Layer_1" xmlns="http://www.w3.org/2000/svg" xmlns:xlink="http://www.w3.org/1999/xlink" x="0px" y="0px"
	 viewBox="0 0 512 512" style="enable-background:new 0 0 512 512;" xml:space="preserve">
<g id="XMLID_1_">
	<path id="path813" d="M420.05,218.21v52.57c0,2.63,1.38,4.15,2.77,5.12c1.52,0.97,3.74,1.52,6.64,1.52c1.94,0,4.29-0.55,4.29-0.55
		v-4.7c-0.69,0-1.38,0.14-2.08,0.14c-4.43,0-5.12-1.66-5.12-3.6v-50.22h-6.5V218.21z M281.16,218.77c-4.98,0-9.41,1.52-12.59,4.29
		c-3.04,2.77-4.84,6.5-4.84,10.51c0,4.43,1.8,8.02,5.53,10.79c3.32,2.49,7.75,4.01,12.04,5.53c7.33,2.63,14.25,4.98,14.25,11.76
		c0,3.04-0.97,5.53-2.91,7.33c-2.08,1.94-5.12,2.91-9.13,2.91c-7.06,0-12.17-3.87-15.08-11.48l-6.36,1.66
		c1.38,3.04,3.74,7.47,7.06,10.51c3.74,3.32,8.3,4.84,13.97,4.84c6.78,0,11.9-1.8,15.22-5.26c3.46-3.6,4.29-8.3,4.29-11.62
		c0-4.7-1.94-8.3-5.95-11.07c-3.46-2.49-8.02-4.15-12.31-5.53c-7.19-2.49-13.97-4.7-13.83-10.79c0-2.77,0.97-4.98,2.77-6.5
		c1.8-1.52,4.29-2.35,7.61-2.35c3.46,0,6.5,0.97,8.85,2.91c2.21,1.66,3.74,4.29,4.43,7.06l6.09-0.83
		C297.76,224.3,291.12,218.77,281.16,218.77z M0.05,219.46v57h6.64V224.3l0.14,0.14l15.63,52.02h5.12l15.77-52.02l0.14-0.14v52.15
		h6.64v-57H39.2l-13.97,45.79v0.14l-0.14-0.14l-13.97-45.79H0.05z M313.12,220.7v13.7h-6.36v5.26h6.36c0,0,0,29.33,0,31.13
		c0,2.63,1.25,4.15,2.63,5.12c1.52,0.97,3.74,1.52,6.64,1.52c1.94,0,4.43-0.55,4.43-0.55v-4.7c-0.69,0-1.52,0.14-2.21,0.14
		c-4.43,0-4.84-1.66-4.84-3.6v-28.77h7.06v-5.26h-7.06v-13.7h-6.64V220.7z M76.55,233.57c-5.53,0-10.24,2.21-13.56,6.36
		c-3.04,3.87-4.7,9.41-4.7,15.49c0,6.09,1.66,11.62,4.7,15.49c3.32,4.15,8.02,6.36,13.56,6.36s10.24-2.21,13.56-6.36
		c3.04-3.87,4.7-9.41,4.7-15.49c0-6.09-1.66-11.62-4.7-15.49C86.79,235.78,82.09,233.57,76.55,233.57z M455.88,233.57
		c-2.77,0-5.4,0.55-7.61,1.52c-2.21,0.97-4.15,2.49-5.53,4.29c-3.04,3.74-4.7,9.27-4.7,16.05c0,7.47,2.21,13.14,6.09,17.02
		c4.15,4.01,9.41,4.84,13,4.84c9.41,0,14.11-5.12,16.05-9.82l-5.26-2.63c-1.25,2.91-4.15,7.19-10.79,7.19
		c-3.74,0-6.78-1.52-8.99-4.29c-2.08-2.77-3.32-6.5-3.32-11.07h28.77v-4.01c0-6.92-1.8-12.04-5.26-15.22
		C465.43,234.81,461.28,233.57,455.88,233.57z M143.92,233.71c-7.47,0-17.98,4.98-17.98,21.72c0,16.32,10.51,21.72,17.57,21.72
		c4.15,0,7.89-2.35,10.51-5.53l0.42-0.14v8.02c0,5.67-4.84,9.13-10.1,9.13c-4.98,0-9.55-0.97-13.14-2.63v5.67
		c3.04,1.38,8.02,2.08,12.31,2.08c11.62,0,17.29-6.36,17.29-15.77v-43.44h-4.84l-1.38,4.43
		C152.09,235.78,148.9,233.71,143.92,233.71z M186.4,233.71c-9.41,0-13.7,5.53-15.63,9.13l5.26,2.77c0.69-1.94,3.32-6.64,10.51-6.64
		c5.53,0,8.44,2.49,8.44,7.33v1.52c0,0,0,0.42-0.14,0.55c-0.28,0.28-0.83,0.42-2.21,0.55c-7.89,0.83-13,2.21-16.88,4.57
		c-4.15,2.63-6.78,6.36-6.78,11.62c0,3.6,1.8,6.78,4.15,8.99c2.21,2.08,5.12,3.04,8.3,3.18c6.92,0.28,11.48-2.63,13.7-6.09
		c0.14,2.35,0.97,3.6,2.91,4.57c1.66,0.97,4.57,0.69,5.81,0.42v-4.43c-1.52-0.14-2.35-0.83-2.35-2.63v-20.06v-2.63
		c0-4.15-1.66-7.61-4.84-9.82C193.87,234.68,190.27,233.71,186.4,233.71z M231.63,233.71c-4.29,0-8.72,2.21-12.31,6.36v-5.53h-6.64
		v42.06h6.64v-31.27c2.21-2.35,7.19-6.36,11.76-6.36s6.64,2.21,6.64,7.33v30.44h6.64v-30.57
		C244.22,237.03,237.72,233.71,231.63,233.71z M350.61,233.71c-9.27,0-13.7,5.53-15.63,9.13l5.26,2.77
		c0.69-1.94,3.32-6.64,10.51-6.64c5.53,0,8.44,2.49,8.44,7.33v1.52c0,0,0,0.42-0.14,0.55c-0.14,0.28-0.69,0.42-2.08,0.55
		c-7.89,0.83-13,2.21-16.88,4.57c-4.15,2.63-6.78,6.36-6.78,11.62c0,3.6,1.8,6.78,4.15,8.99c2.21,2.08,5.12,3.04,8.3,3.18
		c6.92,0.28,11.48-2.63,13.7-6.09c0.14,2.35,0.97,3.6,2.91,4.57c1.66,0.97,4.57,0.69,5.81,0.42v-4.43
		c-1.52-0.14-2.35-0.83-2.35-2.63v-20.06v-2.63c0-4.15-1.8-7.61-4.84-9.82C358.08,234.68,354.48,233.71,350.61,233.71z
		 M395.84,233.71c-4.29,0-8.72,2.21-12.31,6.36v-5.53h-6.64v42.06h6.64v-31.27c2.21-2.35,7.19-6.36,11.76-6.36s6.64,2.21,6.64,7.33
		v30.44h6.64v-30.57C408.43,237.03,402.07,233.71,395.84,233.71z M123.45,233.85c-6.64,0-10.65,2.63-13.97,8.72v-0.42v-7.61h-6.64
		v42.06h6.64V252.8c1.66-8.72,6.23-12.73,13.97-12.73V233.85z M478.02,234.4l14.66,41.78v0.42c-0.83,4.01-3.46,8.99-5.67,10.51
		c-2.08,1.38-4.15,1.52-5.81,1.52c-0.83,0-2.49-0.28-3.18-0.42v5.12c0.97,0.28,3.04,0.55,4.29,0.55c3.18,0,5.81-0.83,8.02-2.35
		c2.63-1.94,5.67-6.92,7.06-11.34l14.66-45.65h-6.36l-9.55,32.37L496,267.6l-0.14-0.69l-11.34-32.37h-6.5V234.4z M76.55,238.83
		c7.06,0,11.34,6.23,11.34,16.6c0,10.38-4.15,16.6-11.34,16.6c-7.06,0-11.34-6.23-11.34-16.6C65.21,245.05,69.5,238.83,76.55,238.83
		z M144.34,238.83c3.74,0,6.92,1.66,10.1,5.4v20.06c-1.66,4.84-6.64,7.61-10.1,7.61c-6.78,0-11.48-4.29-11.48-16.88
		C132.86,244.5,137.15,238.83,144.34,238.83z M456.16,238.83c7.47,0,10.93,4.01,10.93,12.59h-22.13
		C445.51,242.84,449.1,238.83,456.16,238.83z M195.11,253.77v10.65c-0.28,3.74-7.19,8.16-12.87,7.89c-3.04-0.14-6.09-2.63-6.36-6.78
		c-0.55-6.78,4.57-9.68,16.05-10.93C192.76,254.46,194.28,254.18,195.11,253.77z M359.32,253.77v10.65
		c-0.28,3.74-7.19,8.16-12.87,7.89c-3.04-0.14-6.09-2.63-6.36-6.78c-0.55-6.78,4.57-9.68,16.05-10.93
		C356.97,254.46,358.63,254.18,359.32,253.77z"/>
</g>
</svg>
