<?xml version="1.0" encoding="utf-8"?>
<!-- Generator: Adobe Illustrator 25.2.0, SVG Export Plug-In . SVG Version: 6.00 Build 0)  -->
<svg version="1.1" id="Layer_1" xmlns="http://www.w3.org/2000/svg" xmlns:xlink="http://www.w3.org/1999/xlink" x="0px" y="0px"
	 viewBox="0 0 512 512" style="enable-background:new 0 0 512 512;" xml:space="preserve">
<style type="text/css">
	.st0{fill-rule:evenodd;clip-rule:evenodd;fill:#0F53A5;}
	.st1{fill-rule:evenodd;clip-rule:evenodd;fill:#115BA5;}
	.st2{fill-rule:evenodd;clip-rule:evenodd;fill:#3395FF;}
</style>
<g id="Page-1">
	<g id="Group">
		<path id="Fill-1" class="st0" d="M121.9,242.7c-0.8,3-2.4,5.2-4.7,6.6c-2.3,1.4-5.6,2.1-9.8,2.1H94l4.7-17.5h13.4
			c4.2,0,7.1,0.7,8.7,2.1C122.3,237.5,122.7,239.7,121.9,242.7 M135.8,242.4c1.7-6.3,1-11.2-2.1-14.6c-3.1-3.4-8.6-5.1-16.3-5.1h-30
			l-18,67H84l7.2-27h9.5c2.1,0,3.8,0.3,5,1s2,1.9,2.2,3.7l2.6,22.3H126l-2.5-20.8c-0.5-4.6-2.6-7.4-6.4-8.2c4.8-1.4,8.8-3.7,12-6.9
			C132.4,250.6,134.6,246.8,135.8,242.4"/>
		<path id="Fill-3" class="st1" d="M171,265.7c-1.2,4.5-3.1,8-5.6,10.4s-5.5,3.6-9.1,3.6s-6-1.2-7.3-3.5c-1.3-2.4-1.3-5.8-0.1-10.2
			c1.2-4.5,3.1-7.9,5.7-10.5c2.6-2.5,5.7-3.8,9.2-3.8s5.9,1.2,7.1,3.6C172.2,257.7,172.2,261.2,171,265.7L171,265.7z M177.4,242
			l-1.8,6.8c-0.8-2.4-2.3-4.4-4.6-5.8c-2.3-1.4-5-2.2-8.4-2.2c-4.1,0-8,1.1-11.8,3.2c-3.8,2.1-7.1,5.1-9.9,8.9
			c-2.8,3.8-4.9,8.2-6.2,13.1s-1.6,9.2-0.8,12.9c0.8,3.7,2.5,6.6,5.1,8.6s6,3,10.2,3c3.3,0,6.5-0.7,9.5-2.1s5.6-3.3,7.7-5.7
			l-1.9,7.1h14l12.8-47.7L177.4,242L177.4,242z"/>
		<polygon id="Fill-5" class="st0" points="241.8,242 201.1,242 198.2,252.6 221.9,252.6 190.6,279.7 187.9,289.7 230,289.7 
			232.8,279.1 207.4,279.1 239.3,251.6 		"/>
		<path id="Fill-7" class="st0" d="M277.7,265.6c-1.3,4.7-3.1,8.2-5.6,10.5s-5.5,3.5-9,3.5c-7.3,0-9.8-4.7-7.3-14
			c1.2-4.6,3.1-8.1,5.6-10.5s5.6-3.5,9.1-3.5s5.9,1.2,7.1,3.5C279,257.5,279,261,277.7,265.6 M285.9,243.8c-3.2-2-7.4-3-12.4-3
			c-5.1,0-9.8,1-14.1,3c-4.3,2-8,4.9-11.1,8.7c-3.1,3.8-5.2,8.2-6.6,13.2c-1.3,5-1.5,9.4-0.5,13.2c1,3.8,3.2,6.7,6.4,8.7
			c3.3,2,7.4,3,12.5,3c5,0,9.7-1,14-3s8-4.9,11-8.7c3-3.8,5.2-8.2,6.6-13.2c1.3-5,1.5-9.4,0.5-13.2
			C291.3,248.7,289.2,245.8,285.9,243.8"/>
		<path id="Fill-9" class="st0" d="M432.7,265.7c-1.2,4.5-3.1,8-5.6,10.4s-5.5,3.6-9.1,3.6s-6-1.2-7.3-3.5
			c-1.3-2.4-1.3-5.8-0.1-10.2c1.2-4.5,3.1-7.9,5.7-10.5c2.6-2.5,5.7-3.8,9.2-3.8s5.9,1.2,7.1,3.6
			C433.9,257.7,433.9,261.2,432.7,265.7L432.7,265.7z M439.1,242l-1.8,6.8c-0.8-2.4-2.3-4.4-4.6-5.8c-2.3-1.4-5-2.2-8.4-2.2
			c-4.1,0-8,1.1-11.8,3.2c-3.8,2.1-7.1,5.1-9.9,8.9s-4.9,8.2-6.2,13.1c-1.3,4.9-1.6,9.2-0.8,12.9c0.8,3.7,2.5,6.6,5.1,8.6
			s6,3,10.2,3c3.3,0,6.5-0.7,9.5-2.1s5.6-3.3,7.7-5.7l-1.9,7.1h14l12.8-47.7L439.1,242L439.1,242z"/>
		<path id="Fill-11" class="st0" d="M336,254.8l3.6-13c-1.2-0.6-2.8-0.9-4.8-0.9c-3.2,0-6.3,0.8-9.3,2.4c-2.6,1.4-4.7,3.3-6.6,5.7
			l1.9-7h-4.1h-10l-12.9,47.7H308l6.7-25c1-3.6,2.7-6.5,5.2-8.5s5.7-3.1,9.4-3.1C331.8,253.2,333.9,253.7,336,254.8"/>
		<path id="Fill-13" class="st0" d="M375.6,265.9c-1.2,4.5-3.1,7.9-5.6,10.2c-2.5,2.4-5.5,3.5-9,3.5s-5.9-1.2-7.2-3.6
			c-1.3-2.4-1.3-5.8-0.1-10.4c1.2-4.5,3.1-8,5.7-10.4s5.6-3.6,9.1-3.6s5.8,1.3,7,3.8C376.7,258,376.8,261.4,375.6,265.9
			 M385.5,243.9c-2.6-2.1-6-3.2-10.1-3.2c-3.6,0-7,0.8-10.2,2.4c-3.2,1.6-5.9,3.9-7.9,6.7v-0.3l2.4-7.6H357l0,0h-11.1l-3.5,13.2
			c0,0.2-0.1,0.3-0.1,0.5l-14.6,54.4h14.2l7.3-27.4c0.7,2.4,2.2,4.4,4.5,5.7c2.3,1.4,5.1,2.1,8.4,2.1c4.1,0,8.1-1,11.8-3
			c3.7-2,7-4.9,9.7-8.6c2.8-3.7,4.8-8.1,6.1-12.9c1.3-4.9,1.6-9.3,0.8-13.1C389.9,249,388.1,246,385.5,243.9"/>
		<path id="Fill-15" class="st0" d="M512,242L512,242h-8.6c-0.3,0-0.5,0-0.8,0h-4.5l-2.3,3.2c-0.2,0.2-0.4,0.5-0.6,0.8l-0.2,0.4
			l-18.2,25.3L473,242h-14.9l7.5,45L449,310.1h0.5h8.5h5.9l4-5.7c0.1-0.2,0.2-0.3,0.3-0.5l4.7-6.7l0.1-0.2l21.1-29.9L512,242
			L512,242L512,242z"/>
		<polygon id="Fill-17" class="st2" points="32.9,230.4 28.7,246 53,230.3 37.1,289.7 53.3,289.7 76.8,201.9 		"/>
		<path id="Fill-19" class="st0" d="M6.7,264.7l-6.7,25h33.2l13.6-50.8C46.7,238.9,6.7,264.7,6.7,264.7"/>
	</g>
</g>
</svg>
