<svg width="164" height="49" viewBox="0 0 164 49" fill="none" xmlns="http://www.w3.org/2000/svg">
<g clip-path="url(#clip0_313_15)">
<path d="M81.718 35.4253H71.4044L68.7267 41.2736H64.8047L76.7189 15.668L88.2228 41.2699H84.2437L81.718 35.4253ZM80.2363 32.0057L76.6646 23.8131L72.9203 32.0057H80.2363Z" fill="#12153E"/>
<path d="M89.869 26.0747L93.8014 34.6104L97.7169 26.0747H101.667L93.7691 41.2642L85.9385 26.0747H89.869Z" fill="#12153E"/>
<path d="M116.529 34.5028H105.635C105.67 35.6097 106.102 36.6674 106.852 37.4824C107.212 37.8452 107.643 38.1294 108.118 38.3174C108.593 38.5053 109.102 38.5931 109.613 38.5748C110.384 38.6053 111.145 38.3865 111.782 37.9507C112.548 37.2946 113.197 36.5131 113.701 35.6397L116.665 37.2925C116.252 38.0095 115.766 38.6814 115.214 39.2977C114.734 39.8289 114.183 40.291 113.576 40.6702C112.991 41.0302 112.353 41.296 111.685 41.4577C110.965 41.6289 110.226 41.7127 109.486 41.7075C108.472 41.7517 107.461 41.5797 106.519 41.2029C105.578 40.8263 104.727 40.2535 104.024 39.5227C102.601 37.922 101.861 35.8274 101.964 33.6877C101.866 31.5604 102.578 29.4749 103.958 27.8527C105.372 26.4542 107.276 25.6645 109.265 25.653C111.253 25.6414 113.167 26.4088 114.597 27.791C115.966 29.4343 116.658 31.5374 116.532 33.6726L116.529 34.5028ZM112.924 31.6275C112.788 30.803 112.351 30.0586 111.696 29.5394C111.041 29.0203 110.217 28.7637 109.383 28.8196C108.975 28.8154 108.568 28.8796 108.181 29.0097C107.811 29.1377 107.466 29.3278 107.159 29.5719C106.85 29.82 106.584 30.1179 106.372 30.4534C106.145 30.8148 105.976 31.2096 105.872 31.6236L112.924 31.6275Z" fill="#12153E"/>
<path d="M128.399 28.667L125.496 30.2125C125.04 29.2752 124.474 28.8073 123.797 28.8086C123.49 28.8014 123.193 28.9145 122.969 29.1239C122.856 29.2278 122.767 29.3548 122.708 29.4963C122.649 29.6378 122.621 29.7904 122.626 29.9437C122.626 30.5262 123.302 31.1034 124.654 31.6754C126.031 32.1798 127.305 32.9305 128.413 33.8905C129.084 34.6367 129.432 35.6187 129.381 36.6213C129.394 37.316 129.256 38.0054 128.975 38.6414C128.695 39.2773 128.28 39.8447 127.759 40.304C127.052 40.9111 126.209 41.3396 125.302 41.5534C124.395 41.7669 123.45 41.7596 122.546 41.5318C121.643 41.3039 120.807 40.8624 120.11 40.2443C119.412 39.626 118.874 38.8494 118.539 37.9796L121.534 36.5908C121.789 37.0933 122.108 37.5601 122.484 37.9796C122.896 38.3694 123.445 38.5822 124.012 38.5723C125.198 38.5723 125.791 38.0315 125.792 36.95C125.792 36.3262 125.334 35.7439 124.419 35.2031C124.065 35.0264 123.711 34.8549 123.358 34.6882C123.004 34.5218 122.646 34.3501 122.282 34.1735C121.471 33.8236 120.738 33.3143 120.128 32.6755C119.577 31.9809 119.294 31.1109 119.332 30.2248C119.314 29.6138 119.426 29.006 119.66 28.4414C119.895 27.8766 120.246 27.3679 120.69 26.9487C121.6 26.0915 122.81 25.6263 124.06 25.654C125.005 25.6496 125.929 25.9367 126.705 26.4762C127.481 27.0157 128.072 27.7814 128.397 28.669L128.399 28.667Z" fill="#12153E"/>
<path d="M131.738 14.9224H135.252V27.3401C136.363 26.2738 137.839 25.6713 139.379 25.656C140.145 25.6224 140.909 25.7542 141.62 26.0423C142.33 26.3305 142.971 26.7681 143.497 27.3257C144.485 28.6586 144.951 30.3067 144.808 31.9593V41.2738H141.294V32.2907C141.37 31.3625 141.143 30.4343 140.647 29.6463C140.387 29.3573 140.064 29.1329 139.702 28.9909C139.34 28.8489 138.951 28.7933 138.564 28.8285C138.07 28.778 137.572 28.8564 137.118 29.0563C136.664 29.256 136.269 29.5704 135.973 29.9683C135.385 31.2021 135.132 32.5687 135.238 33.9313V41.2832H131.724L131.738 14.9224Z" fill="#12153E"/>
<path d="M159.659 26.0761H163.185V41.2741H159.659V39.6812C158.409 40.9592 156.702 41.6882 154.914 41.7079C153.126 41.7277 151.403 41.0367 150.124 39.7866C150.007 39.672 149.895 39.5533 149.786 39.4304C148.4 37.8197 147.671 35.7466 147.742 33.6229C147.672 31.5319 148.403 29.4932 149.786 27.9236C150.419 27.1909 151.206 26.6067 152.09 26.2126C152.975 25.8185 153.935 25.6244 154.903 25.6439C155.805 25.6557 156.695 25.856 157.514 26.2322C158.334 26.6085 159.066 27.1524 159.663 27.8287L159.659 26.0761ZM151.328 33.6286C151.272 34.9173 151.689 36.1822 152.501 37.185C152.868 37.6294 153.331 37.985 153.855 38.2255C154.379 38.466 154.951 38.585 155.527 38.5736C156.118 38.5948 156.707 38.4857 157.251 38.2539C157.795 38.022 158.281 37.6733 158.675 37.2324C159.454 36.2219 159.876 34.9821 159.876 33.7064C159.876 32.4309 159.454 31.1912 158.675 30.1806C158.288 29.7373 157.807 29.3856 157.268 29.1508C156.728 28.916 156.143 28.8042 155.555 28.8233C154.98 28.814 154.411 28.9323 153.887 29.1697C153.364 29.407 152.899 29.7575 152.528 30.1958C151.715 31.1512 151.287 32.3748 151.326 33.6286H151.328Z" fill="#12153E"/>
<path d="M31.5608 0.673828L19.9951 25.9726L25.4047 30.9748L31.1752 36.3168L36.9428 30.9748L42.605 25.738L31.5608 0.673828Z" fill="url(#paint0_linear_313_15)"/>
<path d="M0.141602 7.61035L9.84644 48.1699L19.9882 25.9761L0.141602 7.61035Z" fill="#69BDFA"/>
<path d="M25.4019 30.9756L19.9972 25.9736L9.85352 48.1665H18.3653L31.179 36.3178L25.4019 30.9756Z" fill="url(#paint1_linear_313_15)"/>
<path d="M42.6104 25.7383L52.5022 48.1676L62.2147 7.61572L42.6104 25.7383Z" fill="#69BDFA"/>
<path d="M36.9513 30.9734L31.1816 36.3126L43.9916 48.1643H52.5063L42.6162 25.7349L36.9513 30.9734Z" fill="url(#paint2_linear_313_15)"/>
<path d="M18.3633 48.1659H43.9878L31.177 36.3145L18.3633 48.1659Z" fill="#2868F3"/>
</g>
<defs>
<linearGradient id="paint0_linear_313_15" x1="29.6722" y1="-8.34385" x2="33.6994" y2="37.7467" gradientUnits="userSpaceOnUse">
<stop stop-color="#2C2AD2"/>
<stop offset="1" stop-color="#2BBAFE"/>
</linearGradient>
<linearGradient id="paint1_linear_313_15" x1="20.5163" y1="25.9736" x2="20.5163" y2="48.1665" gradientUnits="userSpaceOnUse">
<stop stop-color="#2863E4"/>
<stop offset="1" stop-color="#3A87F4"/>
</linearGradient>
<linearGradient id="paint2_linear_313_15" x1="41.844" y1="25.7349" x2="41.844" y2="48.1643" gradientUnits="userSpaceOnUse">
<stop stop-color="#2863E4"/>
<stop offset="1" stop-color="#3A87F4"/>
</linearGradient>
<clipPath id="clip0_313_15">
<rect width="164" height="49" fill="white"/>
</clipPath>
</defs>
</svg>
