<svg width="184" height="67" viewBox="0 0 184 67" fill="none" xmlns="http://www.w3.org/2000/svg">
<path d="M168.186 27.4782V25.3238C168.186 24.9538 167.882 24.6709 167.489 24.6709H159.938V20.4923C159.938 20.1223 159.633 19.8394 159.241 19.8394H156.369C155.977 19.8394 155.673 20.144 155.673 20.4923V24.6709H151.211C150.819 24.6709 150.515 24.9755 150.515 25.3238V27.4782C150.515 27.8482 150.819 28.1311 151.211 28.1311H155.673V34.5296C155.673 39.4263 157.979 41.6897 162.942 41.6897H166.989C167.381 41.6897 167.685 41.385 167.685 41.0368V38.8823C167.685 38.5123 167.381 38.2294 166.989 38.2294H163.594C160.896 38.2294 159.938 37.163 159.938 34.5078V28.153H167.489C167.882 28.1311 168.186 27.8265 168.186 27.4782Z" fill="black"/>
<path d="M145.488 18.0981H141.57C141.179 18.0981 140.874 18.4028 140.874 18.751V21.515C140.874 21.8849 141.179 22.1679 141.57 22.1679H145.488C145.88 22.1679 146.184 21.8632 146.184 21.515V18.751C146.163 18.3811 145.858 18.0981 145.488 18.0981Z" fill="black"/>
<path d="M146.01 38.2294V25.3238C146.01 24.9538 145.705 24.6709 145.314 24.6709H136.543C136.151 24.6709 135.847 24.9756 135.847 25.3238V27.4783C135.847 27.8482 136.151 28.1312 136.543 28.1312H141.745V38.2294H136.543C136.151 38.2294 135.847 38.5341 135.847 38.8823V41.0368C135.847 41.4068 136.151 41.6897 136.543 41.6897H151.342C151.734 41.6897 152.039 41.385 152.039 41.0368V38.8823C152.039 38.5124 151.734 38.2294 151.342 38.2294H146.01Z" fill="black"/>
<path d="M132.561 38.2293H128.121V18.751C128.121 18.3811 127.816 18.0981 127.424 18.0981H118.719C118.327 18.0981 118.023 18.4028 118.023 18.751V20.9057C118.023 21.2756 118.327 21.5586 118.719 21.5586H123.855V38.2293H118.088C117.696 38.2293 117.392 38.5339 117.392 38.8822V41.0366C117.392 41.4066 117.696 41.6895 118.088 41.6895H132.561C132.952 41.6895 133.257 41.3849 133.257 41.0366V38.8822C133.257 38.5122 132.952 38.2293 132.561 38.2293Z" fill="black"/>
<path d="M108.925 24.3442C107.445 24.3442 106.379 24.6708 105.552 25.4541L104.529 26.4335H103.593L103.245 25.1713C103.158 24.8884 102.897 24.6708 102.57 24.6708H100.612C100.22 24.6708 99.915 24.9754 99.915 25.3237V47.6092C99.915 47.9792 100.22 48.2621 100.612 48.2621H103.484C103.876 48.2621 104.181 47.9575 104.181 47.6092V42.7777L103.811 40.188L104.768 39.9704L105.791 40.9496C106.596 41.6896 107.576 42.0595 109.034 42.0595C113.256 42.0595 115.802 39.1433 115.802 33.2019C115.781 27.2605 113.256 24.3442 108.925 24.3442ZM107.51 38.4904C105.356 38.4904 104.159 37.3805 104.159 35.2695V31.0909C104.159 28.9798 105.334 27.8699 107.51 27.8699C110.144 27.8699 111.341 29.524 111.341 33.1584C111.319 36.8363 110.144 38.4904 107.51 38.4904Z" fill="black"/>
<path d="M87.7495 24.3442C82.2653 24.3442 79.3271 27.2605 79.3271 33.1802C79.3271 39.1216 82.2434 42.0378 87.6408 42.0378C91.8192 42.0378 94.518 40.2967 95.2362 37.3152C95.345 36.9016 94.9967 36.51 94.5614 36.51H91.9499C91.6669 36.51 91.4058 36.684 91.297 36.9452C90.84 38.2293 89.5342 38.8386 87.7714 38.8386C85.0292 38.8386 83.7234 37.3369 83.5492 33.8331H95.4538C96.1067 27.2824 93.3863 24.3442 87.7495 24.3442ZM83.6798 31.1779C84.0933 28.6099 85.3774 27.4128 87.7278 27.4128C90.2307 27.4128 91.4058 28.7405 91.4711 31.1779H83.6798Z" fill="black"/>
<path d="M70.8398 25.4328L69.8604 26.4122H68.8811L68.5765 25.1717C68.5112 24.8669 68.2282 24.6711 67.9017 24.6711H61.6339C61.2422 24.6711 60.9374 24.9758 60.9374 25.324V27.4785C60.9374 27.8484 61.2422 28.1314 61.6339 28.1314H65.3337V38.2297H61.0246C60.6328 38.2297 60.3281 38.5343 60.3281 38.8826V41.037C60.3281 41.407 60.6328 41.6899 61.0246 41.6899H74.5831C74.9748 41.6899 75.2795 41.3853 75.2795 41.037V38.8826C75.2795 38.5126 74.9748 38.2297 74.5831 38.2297H69.5993V31.0912C69.5993 29.0891 70.7745 28.0444 73.0814 28.0444H76.8248C77.2165 28.0444 77.5211 27.7397 77.5211 27.3915V25.0192C77.5211 24.6492 77.2165 24.3663 76.8248 24.3663H74.6049C72.9725 24.3446 71.6886 24.6493 70.8398 25.4328Z" fill="black"/>
<path d="M15.082 17.3443C15.082 16.0949 16.0949 15.082 17.3443 15.082H27.9017C29.1511 15.082 30.164 16.0949 30.164 17.3443V27.1476H17.3443C16.0949 27.1476 15.082 26.1347 15.082 24.8853V17.3443Z" fill="#F26207"/>
<path d="M30.1641 27.1475H42.9837C44.2331 27.1475 45.246 28.1604 45.246 29.4098V36.9507C45.246 38.2001 44.2331 39.213 42.9837 39.213H30.1641V27.1475Z" fill="#F26207"/>
<path d="M15.082 41.4752C15.082 40.2258 16.0949 39.2129 17.3443 39.2129H30.164V49.0162C30.164 50.2656 29.1511 51.2785 27.9017 51.2785H17.3443C16.0949 51.2785 15.082 50.2656 15.082 49.0162V41.4752Z" fill="#F26207"/>
</svg>
