<svg width="56" height="57" viewBox="0 0 56 57" fill="none" xmlns="http://www.w3.org/2000/svg">
<rect y="0.576996" width="56" height="56" rx="28" fill="#D3DEF4"/>
<path d="M30 18.8465V22.9771C30 23.5371 30 23.8171 30.109 24.0311C30.2049 24.2192 30.3578 24.3722 30.546 24.4681C30.7599 24.5771 31.0399 24.5771 31.6 24.5771H35.7305M25.85 28.5792C26.0262 28.0784 26.3739 27.656 26.8317 27.387C27.2895 27.1179 27.8277 27.0196 28.351 27.1094C28.8743 27.1991 29.349 27.4712 29.6909 27.8774C30.0329 28.2836 30.22 28.7977 30.2192 29.3287C30.2192 30.8276 27.9709 31.577 27.9709 31.577M28 34.577H28.01M30 18.577H24.8C23.1198 18.577 22.2798 18.577 21.638 18.904C21.0735 19.1916 20.6146 19.6505 20.327 20.215C20 20.8568 20 21.6968 20 23.377V33.777C20 35.4572 20 36.2972 20.327 36.939C20.6146 37.5035 21.0735 37.9624 21.638 38.25C22.2798 38.577 23.1198 38.577 24.8 38.577H31.2C32.8802 38.577 33.7202 38.577 34.362 38.25C34.9265 37.9624 35.3854 37.5035 35.673 36.939C36 36.2972 36 35.4572 36 33.777V24.577L30 18.577Z" stroke="#3560B3" stroke-width="2" stroke-linecap="round" stroke-linejoin="round"/>
</svg>
