<svg width="56" height="57" viewBox="0 0 56 57" fill="none" xmlns="http://www.w3.org/2000/svg">
<rect y="0.576996" width="56" height="56" rx="28" fill="#CDE8D8"/>
<path d="M25.1363 25.7133L20.9289 21.506M20.9289 35.6481L25.168 31.409M30.8611 31.4408L35.0684 35.6481M35.0684 21.506L30.8287 25.7456M38 28.577C38 34.0998 33.5228 38.577 28 38.577C22.4772 38.577 18 34.0998 18 28.577C18 23.0541 22.4772 18.577 28 18.577C33.5228 18.577 38 23.0541 38 28.577ZM32 28.577C32 30.7861 30.2091 32.577 28 32.577C25.7909 32.577 24 30.7861 24 28.577C24 26.3679 25.7909 24.577 28 24.577C30.2091 24.577 32 26.3679 32 28.577Z" stroke="#24874C" stroke-width="2" stroke-linecap="round" stroke-linejoin="round"/>
</svg>
