<svg width="56" height="57" viewBox="0 0 56 57" fill="none" xmlns="http://www.w3.org/2000/svg">
<rect y="0.576996" width="56" height="56" rx="28" fill="#F7DBCB"/>
<path d="M33 31.077V28.0714C33 27.8919 33 27.8022 32.9727 27.723C32.9485 27.6529 32.9091 27.5891 32.8572 27.5362C32.7986 27.4763 32.7183 27.4361 32.5578 27.3559L28 25.077M20 26.077V32.8836C20 33.2555 20 33.4415 20.058 33.6043C20.1093 33.7482 20.1929 33.8785 20.3024 33.9851C20.4262 34.1057 20.5953 34.1832 20.9334 34.3381L27.3334 37.2715C27.5786 37.3838 27.7012 37.44 27.8289 37.4622C27.9421 37.4819 28.0579 37.4819 28.1711 37.4622C28.2988 37.44 28.4214 37.3838 28.6666 37.2715L35.0666 34.3381C35.4047 34.1832 35.5738 34.1057 35.6976 33.9851C35.8071 33.8785 35.8907 33.7482 35.942 33.6043C36 33.4415 36 33.2555 36 32.8836V26.077M18 25.077L27.6422 20.2559C27.7734 20.1903 27.839 20.1575 27.9078 20.1446C27.9687 20.1332 28.0313 20.1332 28.0922 20.1446C28.161 20.1575 28.2266 20.1903 28.3578 20.2559L38 25.077L28.3578 29.8981C28.2266 29.9637 28.161 29.9965 28.0922 30.0094C28.0313 30.0208 27.9687 30.0208 27.9078 30.0094C27.839 29.9965 27.7734 29.9637 27.6422 29.8981L18 25.077Z" stroke="#D07D4E" stroke-width="2" stroke-linecap="round" stroke-linejoin="round"/>
</svg>
