<svg width="56" height="57" viewBox="0 0 56 57" fill="none" xmlns="http://www.w3.org/2000/svg">
<rect y="0.576996" width="56" height="56" rx="28" fill="#F8E7C8"/>
<path d="M30 18.8465V22.9771C30 23.5371 30 23.8171 30.109 24.0311C30.2049 24.2192 30.3578 24.3722 30.546 24.4681C30.7599 24.5771 31.0399 24.5771 31.6 24.5771H35.7305M32 29.577H24M32 33.577H24M26 25.577H24M30 18.577H24.8C23.1198 18.577 22.2798 18.577 21.638 18.904C21.0735 19.1916 20.6146 19.6505 20.327 20.215C20 20.8568 20 21.6968 20 23.377V33.777C20 35.4572 20 36.2972 20.327 36.939C20.6146 37.5035 21.0735 37.9624 21.638 38.25C22.2798 38.577 23.1198 38.577 24.8 38.577H31.2C32.8802 38.577 33.7202 38.577 34.362 38.25C34.9265 37.9624 35.3854 37.5035 35.673 36.939C36 36.2972 36 35.4572 36 33.777V24.577L30 18.577Z" stroke="#C38D24" stroke-width="2" stroke-linecap="round" stroke-linejoin="round"/>
</svg>
