<svg width="56" height="57" viewBox="0 0 56 57" fill="none" xmlns="http://www.w3.org/2000/svg">
<rect y="0.576996" width="56" height="56" rx="28" fill="#F5D4D7"/>
<path d="M23.5 21.077C23.5 19.6963 24.6193 18.577 26 18.577C27.3807 18.577 28.5 19.6963 28.5 21.077V22.577H29.5C30.8978 22.577 31.5967 22.577 32.1481 22.8054C32.8831 23.1098 33.4672 23.6939 33.7716 24.4289C34 24.9803 34 25.6792 34 27.077H35.5C36.8807 27.077 38 28.1963 38 29.577C38 30.9577 36.8807 32.077 35.5 32.077H34V33.777C34 35.4572 34 36.2972 33.673 36.939C33.3854 37.5035 32.9265 37.9624 32.362 38.25C31.7202 38.577 30.8802 38.577 29.2 38.577H28.5V36.827C28.5 35.5844 27.4926 34.577 26.25 34.577C25.0074 34.577 24 35.5844 24 36.827V38.577H22.8C21.1198 38.577 20.2798 38.577 19.638 38.25C19.0735 37.9624 18.6146 37.5035 18.327 36.939C18 36.2972 18 35.4572 18 33.777V32.077H19.5C20.8807 32.077 22 30.9577 22 29.577C22 28.1963 20.8807 27.077 19.5 27.077H18C18 25.6792 18 24.9803 18.2284 24.4289C18.5328 23.6939 19.1169 23.1098 19.8519 22.8054C20.4033 22.577 21.1022 22.577 22.5 22.577H23.5V21.077Z" stroke="#BF4E59" stroke-width="2" stroke-linecap="round" stroke-linejoin="round"/>
</svg>
