<svg width="56" height="57" viewBox="0 0 56 57" fill="none" xmlns="http://www.w3.org/2000/svg">
<rect y="0.576996" width="56" height="56" rx="28" fill="#E6D3F0"/>
<path d="M33 25.577L27.5657 31.0113C27.3677 31.2093 27.2687 31.3083 27.1545 31.3454C27.0541 31.378 26.9459 31.378 26.8455 31.3454C26.7313 31.3083 26.6323 31.2093 26.4343 31.0113L24.5657 29.1427C24.3677 28.9447 24.2687 28.8457 24.1545 28.8086C24.0541 28.7759 23.9459 28.7759 23.8455 28.8086C23.7313 28.8457 23.6323 28.9447 23.4343 29.1427L19 33.577M33 25.577H29M33 25.577V29.577M23.8 37.577H32.2C33.8802 37.577 34.7202 37.577 35.362 37.25C35.9265 36.9624 36.3854 36.5035 36.673 35.939C37 35.2972 37 34.4572 37 32.777V24.377C37 22.6968 37 21.8568 36.673 21.215C36.3854 20.6505 35.9265 20.1916 35.362 19.904C34.7202 19.577 33.8802 19.577 32.2 19.577H23.8C22.1198 19.577 21.2798 19.577 20.638 19.904C20.0735 20.1916 19.6146 20.6505 19.327 21.215C19 21.8568 19 22.6968 19 24.377V32.777C19 34.4572 19 35.2972 19.327 35.939C19.6146 36.5035 20.0735 36.9624 20.638 37.25C21.2798 37.577 22.1198 37.577 23.8 37.577Z" stroke="#8039A1" stroke-width="2" stroke-linecap="round" stroke-linejoin="round"/>
</svg>
