<svg xmlns:inkscape="http://www.inkscape.org/namespaces/inkscape" xmlns:sodipodi="http://sodipodi.sourceforge.net/DTD/sodipodi-0.dtd" xmlns="http://www.w3.org/2000/svg" xmlns:svg="http://www.w3.org/2000/svg" version="1.1" id="svg2" width="866.66669" height="666.66669" viewBox="0 0 866.66669 666.66669" sodipodi:docname="11107581_4630060.ai">
  <defs id="defs6">
    <clipPath clipPathUnits="userSpaceOnUse" id="clipPath18">
      <path d="M 0,500 H 650 V 0 H 0 Z" id="path16"/>
    </clipPath>
    <clipPath clipPathUnits="userSpaceOnUse" id="clipPath26">
      <path d="M 35.1703,453.185 H 618.335 V 68.53 H 35.1703 Z" id="path24"/>
    </clipPath>
    <clipPath clipPathUnits="userSpaceOnUse" id="clipPath490">
      <path d="m 526.756,336.652 h 69.242 v -2.848 h -69.242 z" id="path488"/>
    </clipPath>
    <clipPath clipPathUnits="userSpaceOnUse" id="clipPath506">
      <path d="m 523.413,323.49 h 67.048 v -2.602 h -67.048 z" id="path504"/>
    </clipPath>
    <clipPath clipPathUnits="userSpaceOnUse" id="clipPath522">
      <path d="m 523.632,312.099 h 61.967 v -3.722 h -61.967 z" id="path520"/>
    </clipPath>
    <clipPath clipPathUnits="userSpaceOnUse" id="clipPath538">
      <path d="m 472.772,301.522 h 107.814 v -3.818 H 472.772 Z" id="path536"/>
    </clipPath>
    <clipPath clipPathUnits="userSpaceOnUse" id="clipPath554">
      <path d="m 471.557,291.803 h 106.599 v -4.21 H 471.557 Z" id="path552"/>
    </clipPath>
    <clipPath clipPathUnits="userSpaceOnUse" id="clipPath570">
      <path d="m 474.426,341.82 h 4.985 v -31.979 h -4.985 z" id="path568"/>
    </clipPath>
    <clipPath clipPathUnits="userSpaceOnUse" id="clipPath586">
      <path d="M 478.638,342.269 H 519.01 V 308.888 H 478.638 Z" id="path584"/>
    </clipPath>
    <clipPath clipPathUnits="userSpaceOnUse" id="clipPath602">
      <path d="m 475.467,312.524 h 39.399 v -4.747 h -39.399 z" id="path600"/>
    </clipPath>
    <clipPath clipPathUnits="userSpaceOnUse" id="clipPath618">
      <path d="m 481.501,335.634 h 2.388 v -17.099 h -2.388 z" id="path616"/>
    </clipPath>
    <clipPath clipPathUnits="userSpaceOnUse" id="clipPath634">
      <path d="m 481.993,319.982 h 32.163 v -2.666 h -32.163 z" id="path632"/>
    </clipPath>
    <clipPath clipPathUnits="userSpaceOnUse" id="clipPath650">
      <path d="m 485.783,332.99 h 27.539 v -10.688 h -27.539 z" id="path648"/>
    </clipPath>
    <clipPath clipPathUnits="userSpaceOnUse" id="clipPath670">
      <path d="m 360.198,433.215 h 77.506 v -3.174 h -77.506 z" id="path668"/>
    </clipPath>
    <clipPath clipPathUnits="userSpaceOnUse" id="clipPath686">
      <path d="m 356.73,424.6 h 74.922 v -2.574 H 356.73 Z" id="path684"/>
    </clipPath>
    <clipPath clipPathUnits="userSpaceOnUse" id="clipPath702">
      <path d="m 355.031,415.865 h 72.832 v -2.543 h -72.832 z" id="path700"/>
    </clipPath>
    <clipPath clipPathUnits="userSpaceOnUse" id="clipPath718">
      <path d="m 353.233,406.764 h 50.391 v -2.587 h -50.391 z" id="path716"/>
    </clipPath>
    <clipPath clipPathUnits="userSpaceOnUse" id="clipPath738">
      <path d="m 120.686,407.469 h 68.981 v -2.397 h -68.981 z" id="path736"/>
    </clipPath>
    <clipPath clipPathUnits="userSpaceOnUse" id="clipPath754">
      <path d="m 117.484,395.472 h 66.647 v -1.966 h -66.647 z" id="path752"/>
    </clipPath>
    <clipPath clipPathUnits="userSpaceOnUse" id="clipPath770">
      <path d="m 76.9946,385.054 h 99.2034 v -2.981 H 76.9946 Z" id="path768"/>
    </clipPath>
    <clipPath clipPathUnits="userSpaceOnUse" id="clipPath786">
      <path d="m 74.4827,372.65 h 68.5833 v -3.107 H 74.4827 Z" id="path784"/>
    </clipPath>
    <clipPath clipPathUnits="userSpaceOnUse" id="clipPath802">
      <path d="M 78.7579,415.399 H 109.705 V 390.912 H 78.7579 Z" id="path800"/>
    </clipPath>
    <clipPath clipPathUnits="userSpaceOnUse" id="clipPath818">
      <path d="m 89.5996,408.547 h 8.05 v -9.18 h -8.05 z" id="path816"/>
    </clipPath>
  </defs>
  <sodipodi:namedview id="namedview4" pagecolor="#ffffff" bordercolor="#000000" borderopacity="0.25" inkscape:showpageshadow="2" inkscape:pageopacity="0.0" inkscape:pagecheckerboard="0" inkscape:deskcolor="#d1d1d1"/>
  <g id="g8" inkscape:groupmode="layer" inkscape:label="11107581_4630060" transform="matrix(1.3333333,0,0,-1.3333333,0,666.66667)">
    <g id="g12">
      <g id="g14" clip-path="url(#clipPath18)">
        <g id="g20">
          <g id="g22"/>
          <g id="g34">
            <g clip-path="url(#clipPath26)" opacity="0.449997" id="g32">
              <g transform="translate(598.3096,206.21)" id="g30">
                <path d="m 0,0 c -14.14,22.48 -33.51,40.39 -53.619,56.51 -16.851,13.52 -35.441,27.44 -42.391,49.01 -3.8,11.76 -3.689,24.76 -7.96,36.32 -5.692,15.411 -23.323,34.082 -38.335,40.812 -22.977,10.301 -50.748,-5.319 -74.614,2.709 -9.856,3.316 -12.461,9.652 -19.252,16.304 -7.271,7.124 -16.012,13.317 -24.409,19.026 -16.474,11.201 -34.708,20.197 -54.35,24.109 -34.59,6.89 -71.49,-2.95 -100.04,-24.44 -17.159,-12.92 -31.349,-29.87 -41.96,-48.92 -10.139,-18.22 -14.62,-38.42 -24.009,-56.82 -17.601,-34.48 -54.13,-53.59 -71.411,-88.27 -12.71,-25.53 -13.23,-56.73 -6.54,-84.88 6.69,-28.14 20,-53.81 33.98,-78.54 0.065,-0.115 0.128,-0.212 0.19,-0.307 h 23.081 c 88.077,0.3 467.575,1.482 476.589,-0.303 h 17.54 c 12.79,11.14 24.46,41.91 26.79,60.49 C 22.681,-50.15 14.131,-22.479 0,0" style="fill:#fbefeb;fill-opacity:1;fill-rule:nonzero;stroke:none" id="path28"/>
              </g>
            </g>
          </g>
        </g>
        <g id="g36" transform="translate(414.1797,234.3652)">
          <path d="m 0,0 c -3.201,-5.02 -11.559,-10.872 -17.491,-10.787 -20.201,0.372 -26.846,14.132 -29.028,19.144 0.412,0.101 1.101,0.183 1.59,0.243 3.725,0.536 7.522,4.216 8.635,8.371 1.434,5.398 3.19,15.956 2.982,22.67 L -7.764,25.5 C -7.804,23.562 -7.932,21.441 -8.118,19.302 -8.25,18 -8.378,16.725 -8.528,15.481 -8.67,14.293 -8.829,13.164 -8.975,12.117 -9.444,8.616 -7.881,5.144 -4.932,3.216 Z" style="fill:#ff8f66;fill-opacity:1;fill-rule:nonzero;stroke:none" id="path38"/>
        </g>
        <g id="g40" transform="translate(416.3828,289.3647)">
          <path d="m 0,0 c -1.378,-3.618 -0.795,-7.727 0.604,-11.336 0.991,-2.554 3.19,-0.301 5.928,-0.346 4.236,-0.071 7.547,4.338 10.113,16.032 1.626,8.579 2.04,12.933 1.714,13.756 -1.169,2.966 -5.025,4.56 -8.207,4.838" style="fill:#3f2c25;fill-opacity:1;fill-rule:nonzero;stroke:none" id="path42"/>
        </g>
        <g id="g44" transform="translate(422.832,315.0747)">
          <path d="m 0,0 c 6.677,-8.048 9.11,-30.702 3.467,-46.476 -4.012,-11.216 -8.667,-18.459 -14.114,-18.226 -8.258,0.352 -24.267,7.135 -29.485,12.811 -9.387,10.214 -6.655,30.226 -4.717,42.834 1.762,11.454 7.119,26.318 21.511,23.488 C -13.874,12.571 -5.995,7.227 0,0" style="fill:#ff8f66;fill-opacity:1;fill-rule:nonzero;stroke:none" id="path46"/>
        </g>
        <g id="g48" transform="translate(384.8926,307.8291)">
          <path d="m 0,0 c 1.484,-1.771 4.093,-2.164 6.243,-2.512 2.888,-0.467 4.324,-1.453 5.816,-4.078 0.954,-1.679 1.902,-3.517 3.604,-4.43 0.802,-0.429 2.018,-0.488 2.413,0.33 -0.763,0.505 -1.017,1.552 -0.826,2.446 0.191,0.895 0.744,1.665 1.323,2.373 0.49,-0.665 0.542,-1.544 0.812,-2.325 0.356,-1.035 1.129,-1.92 2.107,-2.413 0.155,-0.078 0.325,-0.148 0.498,-0.125 0.234,0.033 0.407,0.226 0.56,0.407 1.054,1.259 2.081,3.663 3.543,4.428 0.29,-1.374 0.816,-2.455 1.664,-3.591 0.737,-0.988 1.621,-2.006 2.832,-2.242 0.39,-0.076 0.876,-0.018 1.061,0.334 0.225,0.429 -0.127,0.864 -0.073,1.299 0.051,0.411 0.244,0.591 0.455,0.938 0.538,0.89 1.025,1.752 1.729,2.53 1.429,-1.625 2.99,-3.134 4.662,-4.508 0.369,-0.303 0.913,-0.604 1.282,-0.3 0.196,0.161 0.249,0.434 0.289,0.685 0.206,1.27 0.411,2.54 0.616,3.811 0.116,0.713 0.535,1.643 1.234,1.461 0.339,-0.088 0.544,-0.421 0.727,-0.719 0.235,-0.382 4.335,-4.714 4.423,-4.378 0.639,2.459 1.952,4.701 2.59,7.16 C 53.695,12.423 35.332,25.156 21.3,25.223 18.177,25.238 15.256,24.583 12.23,23.913 9.004,23.197 5.663,22.665 2.728,21.056 -1.378,18.805 -4.496,14.718 -3.694,9.835" style="fill:#3f2c25;fill-opacity:1;fill-rule:nonzero;stroke:none" id="path50"/>
        </g>
        <g id="g52" transform="translate(391.6543,312.0229)">
          <path d="m 0,0 c 2.035,-2.309 2.58,-5.556 2.768,-8.628 0.282,-4.626 -0.097,-9.438 -2.24,-13.548 -0.609,-1.169 -1.056,-6.96 -1.998,-6.64 -0.299,0.101 -0.249,4.587 -1.036,7.008 -1.219,3.751 -6.843,5.176 -9.37,2.812 -4.037,-3.775 -1.668,-8.354 -0.334,-11.202 0.805,-1.718 2.072,-3.651 2.287,-5.473 0.275,-2.332 0.351,-10.816 -1.17,-12.805 -1.269,-1.661 -2.622,6.363 -3.765,7.944 -8.511,11.77 -16.674,41.744 -2.137,48.236 2.209,0.986 9.035,1.501 11.1,0.242" style="fill:#3f2c25;fill-opacity:1;fill-rule:nonzero;stroke:none" id="path54"/>
        </g>
        <g id="g56" transform="translate(445.4463,73.7813)">
          <path d="m 0,0 c 0.845,-0.144 1.694,-0.259 2.565,-0.287 4.678,-0.153 9.197,0.878 13.773,1.664 4.022,0.692 5.113,1.074 5.025,5.924 -0.696,38.412 -6.349,76.715 -16.508,113.766 -1.551,5.66 -3.236,11.357 -6.207,16.416 -5.065,8.627 -16.713,16.083 -25.637,20.265 -1.262,0.592 -6.484,-2.728 -7.753,-2.155 -1.114,0.505 -2.093,1.277 -3.214,1.767 -3.277,1.435 -5.476,-1.563 -8.22,-2.808 -1.415,-0.642 -3,-1.047 -4.562,-0.981 -1.27,0.054 -2.42,0.819 -3.584,0.217 -5.221,-2.697 -18.185,17.345 -18.185,17.345 l -5.611,-5.866 -16.426,-17.208 -41.063,-56.57 c 0,0 -7.45,-46.362 -12.573,-76.749 -0.886,-5.244 -4.413,-16.567 -5.109,-20.543 0.15,0.856 35.046,1.095 36.933,1.095 h 71.128 c 3.99,0 14.719,-1.694 17.522,1.237 3.446,3.605 7.442,20.122 7.647,24.752 0.689,15.569 -0.377,31.019 -0.586,46.685 0.085,-6.368 1.917,-12.131 2.699,-18.371 1.006,-8.03 2.45,-16.054 3.746,-24.043 1.042,-6.424 2.04,-12.857 2.839,-19.316 0.36,-2.906 -0.104,-4.637 2.359,-5.775 C -6.931,-0.495 -2.417,0.412 0,0" style="fill:#d27546;fill-opacity:1;fill-rule:nonzero;stroke:none" id="path58"/>
        </g>
        <g id="g60" transform="translate(432.2695,87.083)">
          <path d="m 0,0 c -1.902,0.784 -13.631,3.693 -18.92,4.788 -2.774,0.574 -15.328,3.83 -18.237,3.83 -2.91,0 -6.869,-4.159 -6.869,-4.159 l 1.048,-14.308 c 2.798,0.281 6.548,-1.174 8.563,-1.455 2.015,-0.279 8.842,-0.314 13.038,1.791 0.24,0.12 0.456,0.255 0.684,0.383 1.69,-1.496 3.812,-2.959 6.155,-3.075 0,0 1.836,0.184 1.661,0.928 -0.085,0.361 -1.297,2.221 -2.519,4.037 1.795,-1.831 4.738,-4.797 8.128,-4.965 0,0 1.836,0.184 1.662,0.928 -0.104,0.437 -1.857,3.07 -3.283,5.163 0.02,-0.016 0.045,-0.033 0.063,-0.049 1.486,-1.312 5.026,-5.834 9.222,-6.042 0,0 1.836,0.184 1.661,0.928 -0.064,0.269 -0.756,1.376 -1.611,2.673 1.072,-0.816 2.384,-1.69 3.974,-2.475 4.532,-2.238 7.107,-0.539 7.107,0 C 11.527,-10.541 1.902,-0.783 0,0" style="fill:#ff8f66;fill-opacity:1;fill-rule:nonzero;stroke:none" id="path62"/>
        </g>
        <g id="g64" transform="translate(391.4795,103.7002)">
          <path d="M 0,0 C 0,0 7.304,-4.141 6.654,-12.939 6.005,-21.739 3.361,-31.943 -7.66,-30.874 -18.682,-29.805 0,0 0,0" style="fill:#994b28;fill-opacity:1;fill-rule:nonzero;stroke:none" id="path66"/>
        </g>
        <g id="g68" transform="translate(381.4453,73.7002)">
          <path d="m 0,0 c -26.417,-9.171 -61.77,-0.411 -84.179,14.821 -14.04,9.524 -22.995,21.608 -21.49,33.418 3.911,30.68 28.021,100.996 48.885,111.262 14.177,6.98 31.384,9.875 40.966,11.028 4.497,0.548 7.312,0.685 7.312,0.685 l -3.48,-9.817 -17.422,-49.119 C -30.054,83.123 -50.918,65.818 -46.772,59.033 -42.627,52.268 -9.854,44.954 7.353,33.358 12.124,30.133 18.166,6.844 0,0" style="fill:#d27546;fill-opacity:1;fill-rule:nonzero;stroke:none" id="path70"/>
        </g>
        <g id="g72" transform="translate(275.7793,121.1846)">
          <path d="m 0,0 -0.055,-2.046 c 0.003,-0.34 -0.046,-0.68 -0.001,-1.017 L 0.061,-4.077 C 0.159,-4.748 0.157,-5.434 0.33,-6.091 l 0.484,-1.972 c 0.805,-2.581 1.915,-5.072 3.428,-7.314 2.903,-4.561 6.744,-8.477 10.98,-11.839 8.489,-6.738 18.266,-11.776 28.465,-15.442 10.178,-3.747 20.854,-6.218 31.676,-7.115 5.408,-0.465 10.858,-0.519 16.273,-0.056 5.419,0.417 10.802,1.413 16.018,3.035 -5.11,-1.945 -10.508,-3.1 -15.944,-3.767 -5.449,-0.617 -10.955,-0.693 -16.433,-0.364 -5.481,0.312 -10.927,1.135 -16.289,2.306 -5.362,1.173 -10.649,2.69 -15.816,4.554 -5.149,1.907 -10.185,4.135 -15.006,6.775 -4.812,2.647 -9.466,5.63 -13.673,9.186 -4.215,3.525 -8.04,7.605 -10.875,12.345 -1.447,2.348 -2.479,4.942 -3.185,7.593 C -0.267,-5.492 -0.321,-2.706 0,0" style="fill:#994b28;fill-opacity:1;fill-rule:nonzero;stroke:none" id="path74"/>
        </g>
        <g id="g76" transform="translate(352.04,185.9727)">
          <path d="m 0,0 c 0.021,-5.528 -0.75,-11.068 -2.186,-16.433 -1.453,-5.363 -3.567,-10.534 -6.031,-15.504 -1.225,-2.491 -2.541,-4.932 -3.889,-7.344 -1.334,-2.417 -2.702,-4.818 -3.821,-7.284 -0.55,-1.231 -1.027,-2.498 -1.219,-3.747 -0.053,-0.613 -0.103,-1.238 0.073,-1.772 0.038,-0.288 0.21,-0.511 0.309,-0.769 0.191,-0.229 0.322,-0.481 0.558,-0.697 1.785,-1.79 4.348,-3.004 6.784,-4.167 9.981,-4.545 20.577,-7.915 30.683,-12.461 5.05,-2.271 10.051,-4.718 14.697,-7.781 l 0.863,-0.584 c 0.287,-0.199 0.561,-0.461 0.838,-0.689 0.516,-0.505 0.972,-1.068 1.333,-1.678 0.741,-1.212 1.242,-2.532 1.628,-3.87 0.736,-2.69 1.05,-5.463 1.073,-8.226 -0.184,2.754 -0.635,5.496 -1.453,8.11 -0.856,2.587 -2.186,5.106 -4.68,6.319 -4.667,2.899 -9.682,5.211 -14.757,7.34 -5.092,2.101 -10.237,4.087 -15.412,6.016 -5.167,1.957 -10.37,3.832 -15.447,6.146 -2.499,1.239 -5.067,2.406 -7.203,4.555 -0.271,0.257 -0.486,0.618 -0.72,0.929 -0.17,0.376 -0.396,0.74 -0.461,1.145 -0.236,0.798 -0.165,1.586 -0.088,2.337 0.243,1.484 0.777,2.821 1.358,4.103 1.187,2.557 2.58,4.95 3.934,7.358 1.351,2.408 2.715,4.798 3.996,7.232 C -4.095,-21.727 -0.519,-11.077 0,0" style="fill:#994b28;fill-opacity:1;fill-rule:nonzero;stroke:none" id="path78"/>
        </g>
        <g id="g80" transform="translate(420.5088,230.5723)">
          <path d="m 0,0 c -2.522,-2.503 -13.74,-10.492 -24.437,-10.492 -1.779,0 -3.657,0.157 -5.651,0.528 -8.975,1.643 -16.542,7.626 -20.962,14.489 -0.821,1.291 -1.545,2.621 -2.131,3.951 -0.801,1.72 -1.369,3.48 -1.701,5.181 4.497,0.548 8.799,1.682 9.503,2.484 0.763,-5.241 7.235,-14.704 17.031,-16.485 1.233,-0.234 2.386,-0.332 3.5,-0.351 h 0.02 c 4.596,-0.078 8.135,1.388 10.54,2.874 0.019,0 4.693,3.683 4.713,3.703 z" style="fill:#d27546;fill-opacity:1;fill-rule:nonzero;stroke:none" id="path82"/>
        </g>
        <g id="g84" transform="translate(407.1396,282.6421)">
          <path d="m 0,0 c 0,-1.977 -0.812,-3.579 -1.814,-3.579 -1.002,0 -1.815,1.602 -1.815,3.579 0,1.977 0.813,3.579 1.815,3.579 C -0.812,3.579 0,1.977 0,0" style="fill:#631b13;fill-opacity:1;fill-rule:nonzero;stroke:none" id="path86"/>
        </g>
        <g id="g88" transform="translate(406.8857,281.2285)">
          <path d="m 0,0 c 0,-0.604 -0.352,-1.094 -0.785,-1.094 -0.435,0 -0.786,0.49 -0.786,1.094 0,0.604 0.351,1.094 0.786,1.094 C -0.352,1.094 0,0.604 0,0" style="fill:#ffffff;fill-opacity:1;fill-rule:nonzero;stroke:none" id="path90"/>
        </g>
        <g id="g92" transform="translate(426.6543,281.0005)">
          <path d="m 0,0 c 0,-1.977 -0.812,-3.579 -1.814,-3.579 -1.002,0 -1.814,1.602 -1.814,3.579 0,1.977 0.812,3.58 1.814,3.58 C -0.812,3.58 0,1.977 0,0" style="fill:#631b13;fill-opacity:1;fill-rule:nonzero;stroke:none" id="path94"/>
        </g>
        <g id="g96" transform="translate(418.6279,265.6221)">
          <path d="M 0,0 C -0.022,-0.755 -3.182,-5.352 -6.254,-4.987 -8.829,-4.681 -11.088,0.15 -9.731,2.35 -9.005,3.118 0.022,0.755 0,0" style="fill:#ffffff;fill-opacity:1;fill-rule:nonzero;stroke:none" id="path98"/>
        </g>
        <g id="g100" transform="translate(399.9297,291.4336)">
          <path d="m 0,0 c 2.246,1.981 7.65,1.212 9.948,-0.257 0.449,-0.287 0.937,0.361 0.565,0.732 C 8.958,2.021 6.361,2.112 4.297,2.037 2.729,1.979 0.157,2.047 -0.379,0.22 -0.445,-0.008 -0.162,-0.143 0,0" style="fill:#3f2c25;fill-opacity:1;fill-rule:nonzero;stroke:none" id="path102"/>
        </g>
        <g id="g104" transform="translate(421.877,290.0923)">
          <path d="M 0,0 C 1.373,0.104 2.647,0.357 4.019,0.016 5.392,-0.326 6.4,-1.164 7.622,-1.806 7.885,-1.944 8.122,-1.672 8.008,-1.42 6.809,1.228 2.153,2.197 -0.164,0.605 -0.406,0.439 -0.348,-0.026 0,0" style="fill:#3f2c25;fill-opacity:1;fill-rule:nonzero;stroke:none" id="path106"/>
        </g>
        <g id="g108" transform="translate(416.3672,282.5474)">
          <path d="m 0,0 c -0.091,-2.059 -0.013,-4.168 0.327,-6.205 0.122,-0.734 1.064,-2.686 0.911,-3.314 -0.166,-0.685 -1.361,-1.534 -1.767,-2.208 -0.206,-0.341 0.194,-0.693 0.523,-0.523 1.219,0.632 2.617,1.568 2.364,3.04 -0.234,1.365 -0.86,2.678 -1.071,4.085 C 1.032,-3.421 1.013,-1.712 0.861,0 0.813,0.547 0.024,0.562 0,0" style="fill:#e86140;fill-opacity:1;fill-rule:nonzero;stroke:none" id="path110"/>
        </g>
        <g id="g112" transform="translate(426.1729,279.5874)">
          <path d="m 0,0 c 0,-0.642 -0.352,-1.163 -0.785,-1.163 -0.435,0 -0.786,0.521 -0.786,1.163 0,0.642 0.351,1.163 0.786,1.163 C -0.352,1.163 0,0.642 0,0" style="fill:#ffffff;fill-opacity:1;fill-rule:nonzero;stroke:none" id="path114"/>
        </g>
        <g id="g116" transform="translate(394.8223,257.0015)">
          <path d="m 0,0 c 2.815,-3.308 7.639,-5.534 11.971,-5.656 0.431,-0.012 0.544,0.687 0.103,0.769 C 7.489,-4.037 4.096,-2.462 0.429,0.429 0.125,0.668 -0.258,0.303 0,0" style="fill:#e86140;fill-opacity:1;fill-rule:nonzero;stroke:none" id="path118"/>
        </g>
        <g id="g120" transform="translate(372.9258,246.5479)">
          <path d="m 0,0 c -6.502,3.081 -9.98,-6.689 -10.638,-11.479 -1.262,-9.205 2.825,-17.782 6.537,-25.928 3.901,-8.556 8.36,-16.826 12.348,-25.337 2.064,-4.406 3.886,-8.92 5.262,-13.59 1.439,-4.883 1.603,-10.325 3.37,-15.03 0.241,-0.642 1.068,-0.5 1.151,0.156 0.862,6.819 -2.159,15.208 -4.511,21.589 -2.252,6.108 -5.162,11.947 -8.064,17.765 -3.788,7.593 -7.631,15.257 -10.745,23.158 -1.561,3.962 -2.849,8.104 -3.125,12.38 -0.221,3.417 1.034,17.327 7.684,14.58 C 0.256,-2.144 0.97,-0.46 0,0" style="fill:#994b28;fill-opacity:1;fill-rule:nonzero;stroke:none" id="path122"/>
        </g>
        <g id="g124" transform="translate(410.9141,236.0332)">
          <path d="M 0,0 C 8.18,-3.111 5.32,-18.062 4.202,-24.544 2.841,-32.434 0.291,-40.083 -2.904,-47.409 -9.138,-61.7 -17.535,-74.955 -25.052,-88.58 c -0.62,-1.123 1.084,-2.123 1.721,-1.006 9.347,16.406 20.001,32.329 26.174,50.306 2.863,8.341 4.69,17.118 4.817,25.957 C 7.744,-7.446 6.879,-0.293 0.511,1.854 -0.676,2.254 -1.138,0.433 0,0" style="fill:#994b28;fill-opacity:1;fill-rule:nonzero;stroke:none" id="path126"/>
        </g>
        <g id="g128" transform="translate(399.998,154.4043)">
          <path d="m 0,0 -18.955,0.562 c -1.021,0.031 -1.618,-0.825 -1.732,-1.732 -1.191,-9.488 -1.604,-19.163 -3.03,-28.611 -0.168,-1.112 0.442,-2.166 1.67,-2.193 6.232,-0.13 12.465,-0.315 18.698,-0.383 0.328,-0.004 0.6,0.074 0.831,0.198 0.01,0.006 0.02,0.013 0.03,0.017 0.061,0.036 0.123,0.069 0.177,0.111 0.288,0.2 0.519,0.506 0.632,0.945 2.406,9.332 2.409,19.779 3.411,29.355 C 1.831,-0.78 0.857,-0.025 0,0" style="fill:#994b28;fill-opacity:1;fill-rule:nonzero;stroke:none" id="path130"/>
        </g>
        <g id="g132" transform="translate(425.0752,115.9121)">
          <path d="m 0,0 c 0.275,5.148 -0.236,10.359 -0.272,15.519 -0.039,5.343 0.122,10.681 0.406,16.017 0.274,5.173 0.692,10.336 1.284,15.484 0.609,5.3 1.718,10.55 2.279,15.848 0.075,0.71 -1.06,0.839 -1.232,0.166 C 1.221,58.159 0.74,52.978 0.151,47.983 -0.492,42.521 -0.964,37.032 -1.228,31.536 -1.483,26.204 -1.516,20.855 -1.396,15.519 -1.279,10.362 -1.276,5.031 -0.219,-0.029 -0.191,-0.157 -0.006,-0.12 0,0" style="fill:#994b28;fill-opacity:1;fill-rule:nonzero;stroke:none" id="path134"/>
        </g>
        <g id="g136" transform="translate(372.5176,236.9395)">
          <path d="m 0,0 c 1.689,-6.931 9.447,-12.808 16.271,-13.83 0.577,-0.087 0.83,0.708 0.247,0.892 -3.521,1.116 -6.844,2.572 -9.685,4.979 C 4.087,-5.632 2.407,-2.764 0.472,0.198 0.313,0.441 -0.07,0.29 0,0" style="fill:#994b28;fill-opacity:1;fill-rule:nonzero;stroke:none" id="path138"/>
        </g>
        <g id="g140" transform="translate(395.2441,223.0752)">
          <path d="M 0,0 C 1.19,0.269 2.369,0.55 3.543,0.883 4.591,1.18 5.691,1.384 6.606,1.996 6.879,2.178 6.779,2.609 6.437,2.618 4.283,2.674 1.789,1.49 -0.215,0.779 -0.702,0.606 -0.513,-0.116 0,0" style="fill:#994b28;fill-opacity:1;fill-rule:nonzero;stroke:none" id="path142"/>
        </g>
        <g id="g144" transform="translate(383.6523,288.0078)">
          <path d="M 0,0 C 0.659,1.013 1.676,-2.128 1.718,-2.392 1.909,-3.612 1.658,-4.703 1.346,-5.87 1.229,-6.309 2.584,-5.962 2.745,-5.651 3.626,-3.949 3.691,-0.987 2.16,0.41 1.204,1.283 -0.655,1.043 -1.354,-0.051 -1.665,-0.538 -0.22,-0.336 0,0" style="fill:#e86140;fill-opacity:1;fill-rule:nonzero;stroke:none" id="path146"/>
        </g>
        <g id="g148" transform="translate(385.8086,285.604)">
          <path d="m 0,0 c -0.009,0.131 0.005,0.261 0.039,0.39 0.014,0.038 0.005,0.071 -0.026,0.098 -0.544,0.663 -1.387,0.971 -2.206,0.658 -0.05,-0.019 -0.223,-0.098 -0.15,-0.175 0.196,-0.208 0.578,-0.2 0.829,-0.325 0.208,-0.102 0.365,-0.243 0.535,-0.394 0.181,-0.16 0.396,-0.226 0.584,-0.38 C -0.312,-0.195 0,-0.125 0,0" style="fill:#e86140;fill-opacity:1;fill-rule:nonzero;stroke:none" id="path150"/>
        </g>
        <g id="g152" transform="translate(408.6816,259.9287)">
          <path d="M 0,0 C 0.757,-1.054 2.396,-1.603 3.569,-0.895 3.657,-0.842 3.651,-0.775 3.538,-0.78 2.49,-0.831 1.533,-0.532 0.901,0.349 0.749,0.562 -0.181,0.252 0,0" style="fill:#e86140;fill-opacity:1;fill-rule:nonzero;stroke:none" id="path154"/>
        </g>
        <g id="g156" transform="translate(401.2617,280.875)">
          <path d="m 0,0 c -0.116,-0.811 -0.092,-1.463 0.37,-2.17 0.395,-0.605 0.902,-1.052 1.621,-1.189 0.08,-0.016 0.5,0.07 0.4,0.211 -0.388,0.54 -0.978,0.846 -1.319,1.452 C 0.769,-1.155 0.492,-0.523 0.451,0.096 0.443,0.21 0.016,0.109 0,0" style="fill:#e86140;fill-opacity:1;fill-rule:nonzero;stroke:none" id="path158"/>
        </g>
        <g id="g160" transform="translate(425.2471,275.9292)">
          <path d="M 0,0 C 0.074,0 0.257,0.112 0.099,0.112 0.023,0.112 -0.158,0 0,0" style="fill:#e86140;fill-opacity:1;fill-rule:nonzero;stroke:none" id="path162"/>
        </g>
        <g id="g164" transform="translate(426.3564,276.1396)">
          <path d="M 0,0 C 0.656,0.337 1.595,1.333 0.969,2.082 0.92,2.14 0.732,2.069 0.707,2.011 0.394,1.304 0.331,0.544 -0.437,0.148 -0.873,-0.076 -0.203,-0.104 0,0" style="fill:#e86140;fill-opacity:1;fill-rule:nonzero;stroke:none" id="path166"/>
        </g>
        <g id="g168" transform="translate(425.3662,155.8994)">
          <path d="m 0,0 c 0.284,4.247 2.227,7.568 4.831,10.856 2.02,2.55 4.54,4.201 6.857,6.398 0.251,0.239 -0.007,0.692 -0.342,0.588 C 7.967,16.786 5.229,13.35 3.207,10.607 1.087,7.734 -1.854,3.685 -0.553,-0.075 -0.448,-0.378 -0.021,-0.321 0,0" style="fill:#994b28;fill-opacity:1;fill-rule:nonzero;stroke:none" id="path170"/>
        </g>
        <g id="g172" transform="translate(424.8613,153.374)">
          <path d="M 0,0 C 1.071,1.305 1.749,2.901 2.69,4.305 3.805,5.968 5.102,7.513 6.531,8.913 6.809,9.185 9.459,11.892 9.717,9.72 9.879,8.346 7.135,7.83 6.328,7.34 5.421,6.789 4.81,6.356 4.807,5.24 4.806,4.878 5.344,4.701 5.517,5.048 6.595,7.216 10.484,7.143 10.895,10.049 11.06,11.216 10.12,11.961 8.981,11.842 6.934,11.626 4.799,8.64 3.652,7.209 2.048,5.208 0.157,2.722 -0.226,0.131 -0.242,0.015 -0.097,-0.117 0,0" style="fill:#994b28;fill-opacity:1;fill-rule:nonzero;stroke:none" id="path174"/>
        </g>
        <g id="g176" transform="translate(385.165,100.6406)">
          <path d="m 0,0 c 0.008,-3.459 -0.053,-6.806 -1.266,-10.099 -1.206,-3.277 -3.395,-5.778 -5.423,-8.549 -0.155,-0.21 0.136,-0.448 0.335,-0.337 C -0.432,-15.706 2.564,-6.2 0.541,0.073 0.447,0.362 -0.001,0.32 0,0" style="fill:#994b28;fill-opacity:1;fill-rule:nonzero;stroke:none" id="path178"/>
        </g>
        <g id="g180" transform="translate(411.5332,132.4658)">
          <path d="m 0,0 c -0.849,-5.333 -1.834,-10.185 -4.588,-14.928 -2.735,-4.713 -6.64,-8.804 -11.215,-11.762 -0.365,-0.238 -0.039,-0.806 0.344,-0.588 9.166,5.224 16.886,16.215 16.254,27.171 C 0.771,0.319 0.076,0.476 0,0" style="fill:#994b28;fill-opacity:1;fill-rule:nonzero;stroke:none" id="path182"/>
        </g>
        <g id="g184" transform="translate(441.5654,268.1421)">
          <path d="M 0,0 C 1.152,0.471 2.632,0.918 3.362,1.989 3.475,2.154 3.324,2.364 3.145,2.369 1.888,2.404 0.664,1.483 -0.357,0.846 -0.78,0.583 -0.506,-0.207 0,0" style="fill:#994b28;fill-opacity:1;fill-rule:nonzero;stroke:none" id="path186"/>
        </g>
        <g id="g188" transform="translate(441.7285,265.1523)">
          <path d="m 0,0 c 0.695,-0.479 1.832,-0.918 2.628,-0.43 0.23,0.141 0.24,0.489 0,0.628 C 2.301,0.387 1.907,0.435 1.544,0.523 1.147,0.62 0.757,0.745 0.38,0.9 -0.166,1.124 -0.43,0.295 0,0" style="fill:#994b28;fill-opacity:1;fill-rule:nonzero;stroke:none" id="path190"/>
        </g>
        <g id="g192" transform="translate(440.6699,259.4722)">
          <path d="m 0,0 c 0.678,-0.404 1.581,-1.051 2.409,-0.996 0.2,0.014 0.354,0.226 0.238,0.415 C 2.21,0.13 1.194,0.48 0.468,0.8 -0.064,1.034 -0.525,0.313 0,0" style="fill:#994b28;fill-opacity:1;fill-rule:nonzero;stroke:none" id="path194"/>
        </g>
        <g id="g196" transform="translate(81.5,68.5303)">
          <path d="m 0,0 h 27.1 45.59 18.99 47.91 352.17 17.54 14.87" style="fill:none;stroke:#000000;stroke-width:2.189;stroke-linecap:round;stroke-linejoin:miter;stroke-miterlimit:10;stroke-dasharray:none;stroke-opacity:1" id="path198"/>
        </g>
        <g id="g200" transform="translate(74.8745,68.5264)">
          <path d="M 0,0 H -29.375" style="fill:none;stroke:#000000;stroke-width:2.189;stroke-linecap:round;stroke-linejoin:miter;stroke-miterlimit:10;stroke-dasharray:none;stroke-opacity:1" id="path202"/>
        </g>
        <g id="g204" transform="translate(614.833,68.5264)">
          <path d="M 0,0 H -4.924" style="fill:none;stroke:#000000;stroke-width:2.189;stroke-linecap:round;stroke-linejoin:miter;stroke-miterlimit:10;stroke-dasharray:none;stroke-opacity:1" id="path206"/>
        </g>
        <g id="g208" transform="translate(546.7539,74.5723)">
          <path d="m 0,0 h -165.996 c -1.605,0 -2.909,-1.305 -2.909,-2.908 V -3.12 c 0,-1.605 1.304,-2.909 2.909,-2.909 H 0 c 1.604,0 2.909,1.304 2.909,2.909 v 0.212 C 2.909,-1.305 1.604,0 0,0" style="fill:#2c1f41;fill-opacity:1;fill-rule:nonzero;stroke:none" id="path210"/>
        </g>
        <g id="g212" transform="translate(579.1641,148.5205)">
          <path d="m 0,0 c -34.54,0.35 -69.08,0.698 -103.62,1.048 -4.905,0.05 -9.811,0.098 -14.715,0.148 -0.762,0.008 -1.745,-0.443 -2.065,-1.184 -9.492,-21.912 -18.982,-43.824 -28.472,-65.736 l -4.064,-9.38 c -0.044,-0.105 -0.068,-0.208 -0.099,-0.31 0,-0.002 -0.001,-0.004 -0.001,-0.006 -0.03,-0.101 -0.06,-0.202 -0.076,-0.302 -0.272,-1.267 0.373,-2.757 1.933,-2.949 0.363,-0.105 0.735,-0.129 1.085,-0.039 l 106.503,-0.832 c 5.068,-0.04 10.136,-0.079 15.203,-0.119 1.133,-0.009 1.931,0.765 2.307,1.757 L 2.308,-3.027 C 2.873,-1.536 1.432,-0.014 0,0" style="fill:#2c1f41;fill-opacity:1;fill-rule:nonzero;stroke:none" id="path214"/>
        </g>
        <g id="g216" transform="translate(579.1641,150.1621)">
          <path d="m 0,0 c -31.883,0.322 -63.767,0.645 -95.649,0.967 -3.884,0.04 -7.767,0.079 -11.65,0.118 -3.513,0.035 -7.572,0.65 -11.036,0.111 -5.146,-0.8 -6.468,-8.889 -8.228,-12.953 -6.328,-14.608 -12.654,-29.216 -18.981,-43.823 -2.711,-6.258 -5.428,-12.513 -8.131,-18.774 -1.02,-2.362 -2.014,-5.22 0.669,-7.012 1.356,-0.905 3.413,-0.622 4.885,-0.643 3.944,-0.054 7.89,-0.061 11.834,-0.092 7.889,-0.061 15.777,-0.124 23.667,-0.185 15.778,-0.123 31.556,-0.246 47.334,-0.369 l 23.596,-0.185 c 3.167,-0.024 6.335,-0.05 9.502,-0.074 2.444,-0.02 4.864,-0.487 6.754,1.309 2.048,1.946 2.741,6.381 3.705,8.927 1.385,3.653 2.77,7.306 4.155,10.958 3.231,8.523 6.463,17.045 9.693,25.568 3.001,7.914 6.001,15.828 9.001,23.741 1.503,3.963 5.685,10.709 -0.683,12.352 -2.047,0.529 -2.92,-2.636 -0.873,-3.165 2.095,-0.541 -5.05,-17.39 -5.763,-19.272 -2.309,-6.087 -4.616,-12.175 -6.924,-18.262 -2.309,-6.088 -4.616,-12.176 -6.924,-18.263 -1.039,-2.74 -2.077,-5.479 -3.116,-8.218 -1.132,-2.987 -1.949,-7.407 -3.808,-10.044 -2.394,-3.398 -7.38,-2.331 -10.919,-2.304 -3.214,0.025 -6.43,0.051 -9.645,0.075 -6.574,0.052 -13.149,0.104 -19.723,0.155 -13.148,0.102 -26.297,0.205 -39.445,0.308 l -39.445,0.308 c -1.361,0.011 -3.664,-0.572 -4.625,0.637 -1.226,1.541 -0.535,-0.684 -0.068,2.093 0.389,2.312 2.117,4.887 3.048,7.036 2.749,6.347 5.498,12.695 8.247,19.041 5.273,12.173 10.545,24.347 15.817,36.52 1.17,2.701 2.114,6.934 3.955,9.13 2.461,2.936 6.358,2.147 9.715,2.114 6.796,-0.069 13.592,-0.138 20.387,-0.206 C -59.781,-2.679 -29.891,-2.98 0,-3.282 2.113,-3.304 2.115,-0.021 0,0" style="fill:#2c1f41;fill-opacity:1;fill-rule:nonzero;stroke:none" id="path218"/>
        </g>
        <g id="g220" transform="translate(507.6416,106.8262)">
          <path d="m 0,0 c 0,-3.224 -3.585,-5.836 -8.008,-5.836 -4.422,0 -8.007,2.612 -8.007,5.836 0,3.224 3.585,5.836 8.007,5.836 C -3.585,5.836 0,3.224 0,0" style="fill:#5e4e74;fill-opacity:1;fill-rule:nonzero;stroke:none" id="path222"/>
        </g>
        <g id="g224" transform="translate(519.2051,106.2334)">
          <path d="m 0,0 c 0,-1.682 -1.87,-3.045 -4.177,-3.045 -2.307,0 -4.177,1.363 -4.177,3.045 0,1.682 1.87,3.045 4.177,3.045 C -1.87,3.045 0,1.682 0,0" style="fill:#5e4e74;fill-opacity:1;fill-rule:nonzero;stroke:none" id="path226"/>
        </g>
        <g id="g228" transform="translate(319.2622,89.8857)">
          <path d="M 0,0 C 5.11,0.613 14.159,1.985 14.387,5.131 11.081,7.269 7.433,9.43 3.5,9.622 0.363,9.775 -2.681,8.619 -5.551,7.343 -7.993,6.258 -10.39,5.072 -12.733,3.789 c -0.963,-0.526 -3.48,-2.407 -3.52,-3.719 -0.05,-1.629 2.942,-0.666 4.129,-0.75 C -8.073,-0.968 -4.017,-0.481 0,0" style="fill:#caafa5;fill-opacity:1;fill-rule:nonzero;stroke:none" id="path230"/>
        </g>
        <g id="g232" transform="translate(307.188,92.5518)">
          <path d="m 0,0 c 0,0 6.796,-22.252 10.394,-22.785 3.597,-0.533 38.774,-0.8 39.707,-0.4 0.933,0.4 1.066,1.066 1.066,1.066 0,0 22.386,-1.466 22.786,-0.933 0.399,0.533 0,3.198 -1.067,3.598 -1.065,0.4 -34.91,7.995 -37.842,9.061 -2.931,1.066 -12.126,0.799 -12.126,0.799 L 21.053,3.332 Z" style="fill:#ff8f66;fill-opacity:1;fill-rule:nonzero;stroke:none" id="path234"/>
        </g>
        <g id="g236" transform="translate(315.3979,371.7568)">
          <path d="m 0,0 c 2.205,-2.36 3.4,-5.634 3.237,-8.859 -0.097,-1.924 -0.652,-3.792 -1.23,-5.629 -1.113,-3.536 -2.432,-7.199 -5.182,-9.685 -0.446,-0.403 -1.006,-0.792 -1.597,-0.685 -1.103,3.396 -2.206,6.792 -3.309,10.189 -0.53,1.632 -1.062,3.271 -1.36,4.961 -0.505,2.856 -0.323,5.847 0.644,8.583 0.438,1.241 1.069,2.47 2.117,3.267 C -4.124,4.088 -1.736,1.859 0,0" style="fill:#453432;fill-opacity:1;fill-rule:nonzero;stroke:none" id="path238"/>
        </g>
        <g id="g240" transform="translate(250.2183,183.5176)">
          <path d="m 0,0 c -0.357,-3.479 0.179,-7.153 0.374,-10.633 0.109,-1.976 0.219,-3.96 0.214,-5.94 -0.003,-1.149 -0.343,-2.547 0.051,-3.628 0.042,-0.113 0.207,-0.193 0.3,-0.079 1.538,1.873 0.665,6.342 0.595,8.599 C 1.412,-7.787 1.228,-3.892 1.077,0 1.05,0.705 0.07,0.68 0,0" style="fill:#a48681;fill-opacity:1;fill-rule:nonzero;stroke:none" id="path242"/>
        </g>
        <g id="g244" transform="translate(260.1323,190.3818)">
          <path d="m 0,0 c -3.699,-8.401 -5.754,-16.952 -10.824,-24.804 -0.287,-0.445 0.425,-0.859 0.709,-0.414 4.483,7.042 9.36,16.708 10.537,25.04 C 0.455,0.054 0.116,0.265 0,0" style="fill:#a48681;fill-opacity:1;fill-rule:nonzero;stroke:none" id="path246"/>
        </g>
        <g id="g248" transform="translate(178.811,68.5264)">
          <path d="M 0,0 2.276,76.874 18.986,0 H 66.905 C 63.72,25.573 49.593,132.464 34.831,141.524 l -57.997,36.112 c 0,0 -33.562,-8.754 -32.829,-57.265 C -53.314,73.646 -47.602,18.657 -45.588,0 Z" style="fill:#2c1f41;fill-opacity:1;fill-rule:nonzero;stroke:none" id="path250"/>
        </g>
        <g id="g252" transform="translate(333.5215,94.9395)">
          <path d="m 0,0 c -1.245,-1.886 -7.578,-0.469 -9.452,-0.65 -1.674,-0.163 -3.262,-0.797 -4.891,-1.222 -5.183,-1.353 -10.973,-0.643 -15.635,-3.284 -0.144,-0.082 -0.31,-0.17 -0.469,-0.121 -0.176,0.053 -0.261,0.247 -0.324,0.421 -2.976,8.243 -5.302,16.843 -7.909,25.244 l -11.749,37.869 c -2.023,6.52 -4.046,13.041 -6.069,19.56 l -14.226,65.932 6.325,46.474 1.5,10.965 0.109,0.832 c 0,0 0.306,-0.11 0.875,-0.307 1.981,-0.7 7.069,-2.604 12.705,-5.351 9.028,-4.41 19.467,-11.019 20.89,-18.505 0.004,-0.025 0.008,-0.051 0.011,-0.077 0.752,-5.246 1.596,-10.48 2.42,-15.716 1.462,-9.287 2.943,-18.571 4.428,-27.854 1.847,-11.551 3.703,-23.101 5.562,-34.65 1.937,-12.036 3.878,-24.07 5.821,-36.104 1.735,-10.738 3.472,-21.476 5.21,-32.213 1.24,-7.66 2.48,-15.32 3.722,-22.979 L -0.114,1.906 C -0.054,1.533 0.264,0.666 0.146,0.303 0.11,0.193 0.062,0.093 0,0" style="fill:#f6dacf;fill-opacity:1;fill-rule:nonzero;stroke:none" id="path254"/>
        </g>
        <g id="g256" transform="translate(270.7314,296.959)">
          <path d="m 0,0 -0.109,-0.832 -1.5,-10.964 -6.325,-46.475 c 0,0 -30.957,-19.073 -30.957,-19.074 -1.617,-0.996 -3.009,-7.843 -3.667,-9.558 -2.138,-5.572 -4.004,-11.359 -6.446,-16.803 -0.501,-1.116 -0.95,-4.154 -2.06,-4.833 -2.231,-1.365 -11.306,0.507 -14.108,0.687 -10.375,0.667 -20.861,2.19 -30.35,6.663 -7.502,3.535 -14.146,8.537 -21.207,12.829 -4.316,2.623 -9.126,4.26 -13.694,6.369 -3.05,1.408 -9.641,4.108 -10.817,7.696 -0.339,1.036 0.186,2.136 0.686,3.105 2.18,4.222 3.63,9.31 6.204,13.23 2.375,3.615 5.298,6.875 7.614,10.579 4.659,7.451 8.771,15.321 14.59,21.97 9.905,11.317 18.229,24.248 28.433,35.533 4.53,5.012 18.647,9.783 25.398,10.057 6.139,0.252 12.092,-0.755 17.301,-2.211 4.191,-1.181 7.911,-2.648 10.844,-3.972 4.301,-1.948 6.916,-3.6 6.916,-3.6 z" style="fill:#f6dacf;fill-opacity:1;fill-rule:nonzero;stroke:none" id="path258"/>
        </g>
        <g id="g260" transform="translate(282.1719,235.1318)">
          <path d="m 0,0 c 3.26,2.005 18.492,11.727 19.856,15.24 0.633,1.631 4.09,6.65 7.075,11.36 1.766,2.787 6.241,8.256 7.371,9.427 1.937,2.009 4.735,6.986 6.424,5.348 2.105,-2.04 -1.182,-7.143 -3.035,-10.272 -0.679,-1.149 -1.41,-2.302 -1.704,-3.603 -0.294,-1.302 -0.228,-2.272 0.535,-3.368 0.416,-0.596 3.264,-0.88 4.218,-0.839 7.194,0.316 10.315,-0.106 15.681,1.892 5.367,1.997 10.379,4.819 15.44,7.496 0.868,0.459 1.394,1.4 3.352,1.581 0.977,0.091 3.045,-0.043 2.934,-1.018 -0.085,-0.759 -6.129,-5.48 -6.752,-5.922 -3.35,-2.38 -2.973,-2.113 -6.324,-4.493 -0.52,-0.37 -1.081,-0.799 -1.209,-1.424 -0.107,-0.525 0.121,-1.057 0.132,-1.593 C 64.013,18.854 63.35,18.031 62.696,17.329 61.551,16.096 60.332,14.944 59.059,13.854 57.277,12.329 58.731,11.027 56.792,9.688 54.653,8.212 49.107,6.712 46.916,5.324 45.163,4.214 43.397,3.098 41.471,2.326 39.164,1.403 36.688,1.001 34.253,0.498 27.58,-0.878 15.904,-12.968 10.259,-16.962" style="fill:#ff8f66;fill-opacity:1;fill-rule:nonzero;stroke:none" id="path262"/>
        </g>
        <g id="g264" transform="translate(320.4834,236.5137)">
          <path d="m 0,0 c 0,0 8.386,1.061 15.058,4.163 6.672,3.103 23.16,13.276 23.16,13.276 0,0 0.228,0.579 0.053,0.982 -0.174,0.404 -2.679,0.962 -4.698,0.086 -2.017,-0.876 -14.936,-6.485 -14.936,-6.485" style="fill:#ff8f66;fill-opacity:1;fill-rule:nonzero;stroke:none" id="path266"/>
        </g>
        <g id="g268" transform="translate(318.8198,239.3291)">
          <path d="m 0,0 c 0,0 10.625,2.216 17.298,5.318 6.672,3.103 23.16,13.277 23.16,13.277 0,0 0.228,0.578 0.053,0.982 -0.176,0.404 -2.679,0.962 -4.698,0.086 -2.019,-0.877 -14.937,-6.485 -14.937,-6.485" style="fill:#ff8f66;fill-opacity:1;fill-rule:nonzero;stroke:none" id="path270"/>
        </g>
        <g id="g272" transform="translate(322.1772,245.4404)">
          <path d="m 0,0 c 0,0 10.625,2.217 17.298,5.319 6.672,3.102 17.033,8.405 22.902,12.41 0.387,0.264 0.486,1.445 0.311,1.848 -0.175,0.404 -2.679,0.962 -4.697,0.085 -2.019,-0.876 -14.937,-6.484 -14.937,-6.484" style="fill:#ff8f66;fill-opacity:1;fill-rule:nonzero;stroke:none" id="path274"/>
        </g>
        <g id="g276" transform="translate(282.7646,309.0874)">
          <path d="m 0,0 c 0,0 25.716,-15.685 31.734,16.05 1.46,13.131 3.284,34.47 -7.659,42.814 -10.943,8.344 -36.112,9.301 -36.659,-15.457 0.958,-7.113 0.684,-7.66 0.684,-7.66 0,0 -9.438,2.599 -7.387,-9.165 1.095,-5.334 2.508,-7.249 2.508,-7.249 0,0 -19.312,-15.123 -19.332,-15.138 -1.778,-1.392 -3.266,-3.71 -5.73,-2.592 -0.269,0.122 -0.53,0.276 -0.822,0.325 -0.292,0.049 -0.633,-0.041 -0.775,-0.3 -0.089,-0.165 -0.083,-0.362 -0.088,-0.549 -0.026,-0.946 -0.398,-1.841 -0.652,-2.752 -0.973,-3.494 0.037,-6.764 1.876,-9.776 1.564,-2.562 3.776,-4.736 6.4,-6.201 2.509,-1.401 5.327,-2.163 8.156,-2.675 3.558,-0.643 7.333,-0.891 10.854,0.088 2.159,0.6 3.628,1.272 5.135,3.023 0.282,0.327 0.549,0.673 0.74,1.061 0.433,0.876 0.448,1.893 0.439,2.87 -0.001,0.136 -0.007,0.284 -0.097,0.387 -0.094,0.106 -0.248,0.128 -0.388,0.151 -1.568,0.266 -0.534,1.087 0.123,1.773 0.651,0.68 1.308,1.354 1.967,2.027 1.383,1.412 2.778,2.812 4.178,4.208 C -3.204,-3.151 -1.607,-1.57 0,0" style="fill:#ff8f66;fill-opacity:1;fill-rule:nonzero;stroke:none" id="path278"/>
        </g>
        <g id="g280" transform="translate(303.729,338.8613)">
          <path d="m 0,0 c 0,-1.977 -0.812,-3.579 -1.814,-3.579 -1.002,0 -1.814,1.602 -1.814,3.579 0,1.977 0.812,3.579 1.814,3.579 C -0.812,3.579 0,1.977 0,0" style="fill:#631b13;fill-opacity:1;fill-rule:nonzero;stroke:none" id="path282"/>
        </g>
        <g id="g284" transform="translate(305.8389,351.1768)">
          <path d="m 0,0 c -3.924,1.442 -10.687,-0.105 -13.169,-3.604 -0.17,-0.239 0.115,-0.626 0.395,-0.515 1.971,0.781 3.624,2.038 5.712,2.631 2.338,0.664 4.566,0.477 6.94,0.59 C 0.407,-0.873 0.481,-0.177 0,0" style="fill:#453432;fill-opacity:1;fill-rule:nonzero;stroke:none" id="path286"/>
        </g>
        <g id="g288" transform="translate(315.4565,342.1328)">
          <path d="m 0,0 c -0.591,-1.902 0.004,-4.071 0.775,-5.908 0.771,-1.836 1.956,-3.463 3.131,-5.072 0.528,-0.724 1.056,-1.448 1.585,-2.172 -1.655,-0.55 -3.266,-1.229 -4.816,-2.029 -0.931,-0.481 -1.934,-1.133 -2.118,-2.165" style="fill:#ff8f66;fill-opacity:1;fill-rule:nonzero;stroke:none" id="path290"/>
        </g>
        <g id="g292" transform="translate(303.6182,322.8672)">
          <path d="m 0,0 c 1.107,-0.379 2.3,-0.51 3.461,-0.366 0.117,0.014 0.253,0.024 0.331,-0.063 0.05,-0.055 0.06,-0.136 0.065,-0.211 C 3.934,-1.787 3.442,-2.887 2.961,-3.931 2.638,-4.632 2.308,-5.344 1.8,-5.926 c -1.066,-1.22 -3.459,-1.994 -4.98,-1.25 -0.683,0.334 -1.186,0.953 -1.578,1.605 -1.067,1.772 -1.819,4.77 -0.913,6.769 C -5.065,2.534 -4.908,2.04 -3.732,1.5 -2.645,1 -1.515,0.603 -0.412,0.154 -0.276,0.099 -0.139,0.047 0,0" style="fill:#fffbf9;fill-opacity:1;fill-rule:nonzero;stroke:none" id="path294"/>
        </g>
        <g id="g296" transform="translate(283.6768,240.6943)">
          <path d="M 0,0 C -18.761,-8.712 -47.966,-24.439 -47.966,-24.439 L -52.161,5.836 -96.297,5.472 c 0,0 12.766,-70.4 22.615,-76.965 0,0 11.672,-8.755 30.64,4.377 12.517,8.665 41.64,31.453 55.945,43.908 z" style="fill:#f6dacf;fill-opacity:1;fill-rule:nonzero;stroke:none" id="path298"/>
        </g>
        <g id="g300" transform="translate(200.7563,189.667)">
          <path d="m 0,0 c -0.285,4.839 -2.579,10.088 -3.811,14.765 -1.749,6.642 -3.502,13.283 -5.137,19.955 -2.952,12.054 -5.47,24.18 -8.105,36.303 -0.076,0.353 -0.668,0.282 -0.637,-0.086 0.98,-12.085 4.174,-24.18 7.082,-35.913 1.604,-6.47 3.252,-12.935 5.064,-19.35 C -4.145,10.72 -3.155,4.305 -0.478,-0.13 -0.353,-0.338 0.016,-0.263 0,0" style="fill:#e4c5be;fill-opacity:1;fill-rule:nonzero;stroke:none" id="path302"/>
        </g>
        <g id="g304" transform="translate(295.5137,219.0771)">
          <path d="m 0,0 c -9.164,-6.045 -17.328,-13.972 -24.84,-21.923 -0.657,-0.696 0.392,-1.748 1.052,-1.052 7.642,8.055 16.082,14.862 24.565,21.968 C 1.333,-0.541 0.606,0.399 0,0" style="fill:#e4c5be;fill-opacity:1;fill-rule:nonzero;stroke:none" id="path306"/>
        </g>
        <g id="g308" transform="translate(264.8877,230.9668)">
          <path d="m 0,0 c 3.026,0.456 6.066,2.008 8.799,3.35 2.382,1.17 5.519,2.279 7.089,4.488 0.281,0.394 -0.182,0.785 -0.559,0.728 C 12.738,8.175 10.232,6.068 7.894,4.899 5.179,3.542 2.169,2.544 -0.389,0.923 -0.898,0.6 -0.548,-0.082 0,0" style="fill:#e4c5be;fill-opacity:1;fill-rule:nonzero;stroke:none" id="path310"/>
        </g>
        <g id="g312" transform="translate(239.77,311.4507)">
          <path d="m 0,0 c -3.39,3.485 -6.712,-2.724 -7.729,-5.554 -2.725,-7.573 -1.098,-16.597 1.107,-24.073 2.683,-9.099 7.171,-17.427 9.568,-26.644 2.729,-10.496 4.741,-21.014 4.33,-31.902 -0.026,-0.672 0.995,-0.663 1.038,0 0.935,14.196 -2.483,30.073 -7.779,43.207 -2.675,6.633 -5.675,13.01 -7.257,20.031 -0.889,3.946 -1.452,8.069 -1.267,12.122 0.072,1.587 2.792,16.706 7.281,12.106 C -0.257,-1.169 0.449,-0.462 0,0" style="fill:#a48681;fill-opacity:1;fill-rule:nonzero;stroke:none" id="path314"/>
        </g>
        <g id="g316" transform="translate(273.5518,298.3779)">
          <path d="m 0,0 c 0.856,-1.427 1.712,-2.855 2.568,-4.282 0.171,-0.955 0.342,-1.909 0.513,-2.864 0.087,-1.047 0.042,-2.119 -0.028,-3.165 -0.189,-2.852 -0.894,-5.652 -1.356,-8.466 -0.891,-5.431 -1.583,-10.89 -2.509,-16.316 -1.785,-10.463 -4.176,-20.792 -7.556,-30.86 -0.186,-0.556 0.682,-0.787 0.874,-0.24 4.721,13.462 7.292,27.443 9.397,41.518 0.975,6.517 6.534,22.067 -2.246,25.45 C -0.697,0.912 -1.033,0.508 -0.94,0.178 -0.912,0.08 -0.884,-0.018 -0.856,-0.116 -0.72,-0.597 -0.021,-0.487 0,0" style="fill:#a48681;fill-opacity:1;fill-rule:nonzero;stroke:none" id="path318"/>
        </g>
        <g id="g320" transform="translate(261.3794,169.6113)">
          <path d="M 0,0 C 0.006,0.89 -0.8,1.794 -1.732,1.731 L -20.653,0.463 c -0.955,-0.065 -1.704,-0.742 -1.732,-1.733 -0.275,-9.712 0.242,-19.537 -0.274,-29.234 -0.047,-0.885 0.833,-1.8 1.732,-1.731 6.216,0.471 12.438,0.887 18.648,1.421 0.051,0.004 0.094,0.018 0.142,0.026 0.708,-0.044 1.383,0.32 1.528,1.245 C 0.888,-20.005 -0.074,-9.644 0,0" style="fill:#dacfd8;fill-opacity:1;fill-rule:nonzero;stroke:none" id="path322"/>
        </g>
        <g id="g324" transform="translate(262.5771,339.6519)">
          <path d="m 0,0 c -2.833,-0.384 -4.987,-1.062 -7.049,1.537 -0.826,1.042 -1.492,2.133 -2.777,2.617 -0.165,0.062 -0.295,-0.179 -0.17,-0.293 1.601,-1.462 2.752,-3.973 4.859,-4.778 1.668,-0.637 3.732,-0.178 5.276,0.589 C 0.338,-0.229 0.184,0.025 0,0" style="fill:#5d4b48;fill-opacity:1;fill-rule:nonzero;stroke:none" id="path326"/>
        </g>
        <g id="g328" transform="translate(310.2134,338.542)">
          <path d="m 0,0 c 0,-4.835 -3.919,-8.754 -8.754,-8.754 -4.835,0 -8.755,3.919 -8.755,8.754 0,4.835 3.92,8.754 8.755,8.754 C -3.919,8.754 0,4.835 0,0 Z" style="fill:none;stroke:#f9f9f9;stroke-width:1.094;stroke-linecap:butt;stroke-linejoin:miter;stroke-miterlimit:10;stroke-dasharray:none;stroke-opacity:1" id="path330"/>
        </g>
        <g id="g332" transform="translate(310.48,340.8403)">
          <path d="M 0,0 C 0.323,0.188 0.461,0.488 0.746,0.73 1.163,1.083 1.712,1.282 2.245,1.38 2.739,1.471 3.262,1.473 3.734,1.288 4.176,1.114 4.28,0.702 4.682,0.525 4.794,0.476 4.896,0.5 4.969,0.6 5.001,0.644 5.033,0.688 5.064,0.732 5.15,0.849 5.121,1.006 5.064,1.126 4.551,2.225 3.089,2.321 2.046,2.1 1.158,1.912 -0.44,1.231 -0.276,0.112 -0.258,-0.011 -0.094,-0.055 0,0" style="fill:#f9f9f9;fill-opacity:1;fill-rule:nonzero;stroke:none" id="path334"/>
        </g>
        <g id="g336" transform="translate(262.4561,354.229)">
          <path d="m 0,0 c 4.47,-3.22 32.423,0.729 41.445,4.865 18.341,8.406 20.138,23.22 15.852,26.002 -0.517,0.336 -1.091,0.604 -1.703,0.678 -1.438,0.174 -2.764,-0.719 -3.935,-1.569 0.461,1.675 2.127,8.974 -2.325,11.869 C 43.358,45.731 35.833,39.159 34.608,38.34 26.08,32.633 21.473,31.658 21.473,31.658 c 0,0 1.503,14.39 -10.283,3.335 C 7.479,31.511 0.589,28.264 -3.108,24.767 -6.986,21.102 -9.195,15.107 -6.957,9.987" style="fill:#453432;fill-opacity:1;fill-rule:nonzero;stroke:none" id="path338"/>
        </g>
        <g id="g340" transform="translate(275.5591,362.9487)">
          <path d="m 0,0 c 2.555,-2.081 3.701,-5.414 4.438,-8.626 1.111,-4.835 1.556,-9.984 0.015,-14.701 -0.438,-1.341 0.107,-7.535 -0.944,-7.363 -0.332,0.054 -1.069,4.801 -2.325,7.219 -1.946,3.747 -8.135,4.264 -10.39,1.324 -2.792,-3.643 -0.997,-6.208 0.244,-9.839 0.921,-2.698 0.012,-6.09 -3.289,-7.025 -3.075,-0.871 -2.192,1.458 -3.417,3.642 -2.637,4.695 -5.401,8.805 -7.173,14.036 -2.793,8.249 -5.093,20.768 3.54,26.483 2.159,1.43 9.278,3.173 11.68,2.205" style="fill:#453432;fill-opacity:1;fill-rule:nonzero;stroke:none" id="path342"/>
        </g>
        <g id="g344" transform="translate(303.3389,337.2656)">
          <path d="m 0,0 c 0,-0.567 -0.352,-1.026 -0.786,-1.026 -0.434,0 -0.785,0.459 -0.785,1.026 0,0.566 0.351,1.026 0.785,1.026 C -0.352,1.026 0,0.566 0,0" style="fill:#ffffff;fill-opacity:1;fill-rule:nonzero;stroke:none" id="path346"/>
        </g>
        <g id="g348" transform="translate(273.4556,344.5435)">
          <path d="m 0,0 c 1.287,-2.538 4.281,-3.039 6.82,-3.676 3.664,-0.918 7.577,-1.642 11.367,-1.629 0.662,0.002 0.62,0.922 0,1 -3.249,0.409 -6.476,0.693 -9.685,1.391 C 5.867,-2.34 2.277,-1.834 0.483,0.373 0.252,0.657 -0.15,0.295 0,0" style="fill:#f9f9f9;fill-opacity:1;fill-rule:nonzero;stroke:none" id="path350"/>
        </g>
        <g id="g352" transform="translate(277.5142,315.3872)">
          <path d="m 0,0 c 1.36,-2.603 3.499,-5.165 6.158,-6.507 0.122,-0.062 0.251,0.09 0.149,0.193 -2.1,2.129 -4.185,4.086 -5.973,6.509 C 0.188,0.393 -0.118,0.226 0,0" style="fill:#e86140;fill-opacity:1;fill-rule:nonzero;stroke:none" id="path354"/>
        </g>
        <g id="g356" transform="translate(329.9453,346.2529)">
          <path d="M 0,0 C 1.251,0.817 2.593,1.586 3.586,2.72 3.657,2.801 3.591,2.967 3.47,2.92 2.072,2.379 0.895,1.398 -0.297,0.509 -0.594,0.288 -0.324,-0.212 0,0" style="fill:#453432;fill-opacity:1;fill-rule:nonzero;stroke:none" id="path358"/>
        </g>
        <g id="g360" transform="translate(331.7588,342.7744)">
          <path d="M 0,0 C 0.936,0.201 2.124,0.418 2.919,0.972 3.129,1.117 3.052,1.435 2.79,1.45 1.82,1.505 0.695,1.069 -0.207,0.75 -0.678,0.584 -0.493,-0.105 0,0" style="fill:#453432;fill-opacity:1;fill-rule:nonzero;stroke:none" id="path362"/>
        </g>
        <g id="g364" transform="translate(332.0986,338.4849)">
          <path d="M 0,0 C 0.583,0.157 1.164,0.292 1.765,0.359 2.255,0.414 2.758,0.41 3.238,0.521 3.379,0.553 3.416,0.775 3.279,0.841 2.241,1.343 0.839,1.098 -0.189,0.684 -0.602,0.518 -0.453,-0.122 0,0" style="fill:#453432;fill-opacity:1;fill-rule:nonzero;stroke:none" id="path366"/>
        </g>
        <g id="g368" transform="translate(147.1128,210.4648)">
          <path d="m 0,0 c -2.548,0.081 -2.445,-3.896 -2.679,-5.601 -0.318,-2.308 -0.966,-5.289 1.019,-7.035 0.343,-0.301 0.804,-0.078 0.849,0.353 0.012,0.107 0.023,0.216 0.035,0.323 0.026,0.247 -0.263,0.331 -0.441,0.254 -0.114,-0.05 -0.228,-0.099 -0.342,-0.148 0.227,-0.06 0.454,-0.119 0.681,-0.178 -1.167,1.776 -1.04,3.503 -0.787,5.511 0.255,2.021 0.11,4.705 1.845,6.087 C 0.363,-0.287 0.2,-0.006 0,0" style="fill:#000000;fill-opacity:1;fill-rule:nonzero;stroke:none" id="path370"/>
        </g>
        <g id="g372" transform="translate(150.0215,208.5205)">
          <path d="m 0,0 c -1.588,-2.623 -1.971,-7.486 -0.677,-10.278 0.154,-0.331 0.632,-0.142 0.645,0.174 0.069,1.682 -0.339,3.331 -0.239,5.03 0.1,1.678 0.589,3.282 0.736,4.948 C 0.488,0.132 0.12,0.199 0,0" style="fill:#000000;fill-opacity:1;fill-rule:nonzero;stroke:none" id="path374"/>
        </g>
        <g id="g376" transform="translate(199.2666,187.3633)">
          <path d="m 0,0 c -0.337,-1.041 -0.657,-2.092 -1.118,-3.087 -0.423,-0.912 -1.062,-1.71 -1.462,-2.625 -0.188,-0.43 0.289,-0.853 0.667,-0.515 1.558,1.397 2.416,4.111 2.567,6.139 C 0.683,0.301 0.111,0.343 0,0" style="fill:#000000;fill-opacity:1;fill-rule:nonzero;stroke:none" id="path378"/>
        </g>
        <g id="g380" transform="translate(201.4893,183.7979)">
          <path d="m 0,0 c -0.317,-1.147 -0.842,-2.101 -1.37,-3.153 -0.225,-0.448 0.393,-1.022 0.743,-0.573 0.795,1.023 1.165,2.365 1.255,3.641 C 0.653,0.28 0.094,0.341 0,0" style="fill:#000000;fill-opacity:1;fill-rule:nonzero;stroke:none" id="path382"/>
        </g>
        <g id="g384" transform="translate(125.7505,210.6064)">
          <path d="m 0,0 c 3.155,-1.9 6.462,-3.505 9.602,-5.479 2.741,-1.725 5.618,-3.341 8.875,-3.775 0.479,-0.063 0.583,0.741 0.114,0.844 -3.783,0.825 -6.877,2.644 -10.104,4.712 C 6.01,-2.111 3.11,0.066 0.075,0.277 -0.078,0.288 -0.12,0.072 0,0" style="fill:#000000;fill-opacity:1;fill-rule:nonzero;stroke:none" id="path386"/>
        </g>
        <g id="g388" transform="translate(149.644,200.7129)">
          <path d="m 0,0 c 7.98,-4.137 15.514,-9.255 23.69,-12.989 3.745,-1.71 7.674,-2.903 11.705,-3.726 3.819,-0.779 8.34,-1.842 12.225,-1.424 0.396,0.042 0.543,0.628 0.1,0.74 -4.162,1.048 -8.675,0.956 -12.909,1.879 -4.251,0.927 -8.321,2.303 -12.23,4.217 C 15.023,-7.604 8.147,-2.385 0.273,0.647 -0.102,0.792 -0.354,0.184 0,0" style="fill:#000000;fill-opacity:1;fill-rule:nonzero;stroke:none" id="path390"/>
        </g>
        <g id="g392" transform="translate(185.8252,143.8418)">
          <path d="m 0,0 c 1.268,1.466 2.564,2.92 4.032,4.19 0.829,0.72 5.075,4.493 6.376,3.23 0.124,-0.12 0.357,-0.001 0.3,0.175 C 10.058,9.599 7.217,7.529 6.271,6.905 3.634,5.168 1.315,2.958 -0.31,0.238 -0.422,0.051 -0.149,-0.173 0,0" style="fill:#000000;fill-opacity:1;fill-rule:nonzero;stroke:none" id="path394"/>
        </g>
        <g id="g396" transform="translate(176.3203,145.0088)">
          <path d="M 0,0 C -3.896,3.856 -9.088,6.547 -14.631,6.773 -14.788,6.78 -14.823,6.534 -14.668,6.499 -9.309,5.276 -4.572,3.265 -0.434,-0.434 -0.141,-0.695 0.283,-0.28 0,0" style="fill:#000000;fill-opacity:1;fill-rule:nonzero;stroke:none" id="path398"/>
        </g>
        <g id="g400" transform="translate(185.4365,141.2881)">
          <path d="m 0,0 c 4.77,-1.682 8.513,-4.654 9.607,-9.821 0.239,0.183 0.478,0.367 0.718,0.551 -1.235,0.792 -2.298,1.771 -3.203,2.923 -0.643,0.82 -1.102,1.915 -1.85,2.641 -0.816,0.792 -2.11,1.058 -3.08,0.429 -0.055,-0.036 -0.021,-0.138 0.047,-0.113 2.164,0.801 3.393,-2.55 4.409,-3.804 0.925,-1.141 2.011,-2.049 3.184,-2.919 0.373,-0.278 0.792,0.178 0.717,0.551 C 9.562,-4.651 5.326,0.233 0.073,0.542 -0.253,0.562 -0.279,0.099 0,0" style="fill:#000000;fill-opacity:1;fill-rule:nonzero;stroke:none" id="path402"/>
        </g>
        <g id="g404" transform="translate(125.1782,178.1162)">
          <path d="m 0,0 c 4.882,3.019 9.336,6.726 12.008,11.899 0.331,0.641 -0.636,1.208 -0.967,0.567 C 8.451,7.452 4.163,3.892 -0.566,0.969 -1.178,0.59 -0.616,-0.38 0,0" style="fill:#000000;fill-opacity:1;fill-rule:nonzero;stroke:none" id="path406"/>
        </g>
        <g id="g408" transform="translate(183.5347,183.7939)">
          <path d="m 0,0 c 0.337,-5.048 1.084,-9.98 0.979,-15.064 -0.11,-5.331 -0.787,-10.625 -1.95,-15.826 -0.111,-0.494 0.648,-0.705 0.76,-0.209 1.153,5.121 1.847,10.311 1.98,15.562 C 1.898,-10.423 1.802,-4.904 0.421,0.058 0.358,0.284 -0.017,0.248 0,0" style="fill:#000000;fill-opacity:1;fill-rule:nonzero;stroke:none" id="path410"/>
        </g>
        <g id="g412" transform="translate(182.6191,150.7139)">
          <path d="m 0,0 c -0.476,-0.801 -0.56,-1.847 -0.734,-2.753 -0.154,-0.801 -0.469,-1.715 -0.209,-2.509 0.05,-0.153 0.24,-0.171 0.328,-0.043 0.491,0.709 0.468,1.719 0.621,2.555 0.157,0.857 0.485,1.762 0.418,2.635 C 0.408,0.103 0.122,0.204 0,0" style="fill:#000000;fill-opacity:1;fill-rule:nonzero;stroke:none" id="path414"/>
        </g>
        <g id="g416" transform="translate(190.6426,183.2471)">
          <path d="m 0,0 c -0.137,-3.988 0.017,-7.999 0.056,-11.99 0.035,-3.727 0.383,-7.593 0.008,-11.305 -0.619,-6.116 -6.573,-9.227 -8.8,-14.601 -0.149,-0.359 0.47,-0.624 0.632,-0.266 2.343,5.178 8.091,8.08 9.022,13.985 0.572,3.627 0.124,7.53 0.063,11.188 C 0.909,-8.667 0.964,-4.315 0.701,0 0.674,0.448 0.016,0.454 0,0" style="fill:#000000;fill-opacity:1;fill-rule:nonzero;stroke:none" id="path418"/>
        </g>
        <g id="g420" transform="translate(235.9092,298.3789)">
          <path d="m 0,0 c -0.084,-7.46 7.773,-12.167 14.484,-12.825 0.535,-0.052 0.559,0.716 0.12,0.879 -3.149,1.162 -6.344,1.757 -9.127,3.782 C 2.814,-6.228 0.851,-3.318 0.479,0 0.445,0.299 0.003,0.316 0,0" style="fill:#caafa5;fill-opacity:1;fill-rule:nonzero;stroke:none" id="path422"/>
        </g>
        <g id="g424" transform="translate(254.5894,285.603)">
          <path d="m 0,0 c 1.054,-0.233 2.115,-0.218 3.189,-0.234 1.09,-0.017 2.13,-0.057 3.169,0.307 0.245,0.086 0.245,0.412 0,0.498 C 5.319,0.935 4.279,0.895 3.189,0.878 2.115,0.862 1.054,0.877 0,0.644 -0.318,0.574 -0.318,0.07 0,0" style="fill:#caafa5;fill-opacity:1;fill-rule:nonzero;stroke:none" id="path426"/>
        </g>
        <g id="g428" transform="translate(183.0688,258.5723)">
          <path d="M 0,0 C -0.185,1.858 -0.754,3.462 -2,4.877 -2.957,5.964 -4.958,7.58 -6.503,7.185 -6.773,7.116 -6.902,6.725 -6.676,6.532 -6.149,6.083 -5.529,6.003 -4.906,5.709 -4.149,5.351 -3.466,4.86 -2.855,4.29 -1.633,3.147 -0.69,1.598 -0.409,-0.055 -0.37,-0.284 0.023,-0.234 0,0" style="fill:#caafa5;fill-opacity:1;fill-rule:nonzero;stroke:none" id="path430"/>
        </g>
        <g id="g432" transform="translate(274.9756,332.6978)">
          <path d="M 0,0 C 0.815,2.679 -1.907,8.089 -5.189,6.944 -6.15,6.609 -5.535,6.142 -4.784,6.347 -3.985,6.565 -2.435,3.903 -2.193,3.444 -1.583,2.282 -1.48,0.958 -0.897,-0.19 -0.776,-0.429 -0.067,-0.219 0,0" style="fill:#e86140;fill-opacity:1;fill-rule:nonzero;stroke:none" id="path434"/>
        </g>
        <g id="g436" transform="translate(273.0332,336.5688)">
          <path d="M 0,0 C -0.026,0.893 -0.83,1.354 -1.66,1.266 -2.1,1.219 -2.581,1.071 -2.935,0.797 -3.147,0.634 -3.437,0.276 -3.208,0.041 c 0.125,-0.13 0.469,0.014 0.583,0.093 0.326,0.227 0.5,0.607 0.879,0.443 0.356,-0.154 0.612,-0.488 0.727,-0.85 C -0.928,-0.561 0.009,-0.294 0,0" style="fill:#e86140;fill-opacity:1;fill-rule:nonzero;stroke:none" id="path438"/>
        </g>
        <g id="g440" transform="translate(299.4253,336.5479)">
          <path d="m 0,0 c 0.142,-1.005 0.833,-1.663 1.869,-1.629 0.041,0.002 0.34,0.079 0.253,0.156 -0.255,0.224 -0.57,0.362 -0.83,0.591 C 0.988,-0.611 0.666,-0.239 0.509,0.137 0.452,0.274 -0.021,0.148 0,0" style="fill:#e86140;fill-opacity:1;fill-rule:nonzero;stroke:none" id="path442"/>
        </g>
        <g id="g444" transform="translate(229.5571,268.5942)">
          <path d="m 0,0 c 0.368,-10.533 1.656,-21.017 3.005,-31.463 0.692,-5.359 0.985,-11.5 2.471,-16.54 0.158,-0.538 0.885,-0.298 0.814,0.224 l -0.003,0.021 c -0.074,0.535 -0.888,0.307 -0.814,-0.225 l 0.003,-0.02 c 0.271,0.075 0.542,0.15 0.814,0.224 0.072,-0.245 0.019,0.886 -0.003,1.149 -0.091,1.074 -0.3,2.148 -0.453,3.216 -0.584,4.086 -1.139,8.176 -1.668,12.271 C 2.828,-20.786 1.638,-10.399 0.667,0 0.628,0.42 -0.015,0.436 0,0" style="fill:#caafa5;fill-opacity:1;fill-rule:nonzero;stroke:none" id="path446"/>
        </g>
        <g id="g448" transform="translate(247.6787,222.6143)">
          <path d="m 0,0 c -4.114,-0.899 -7.925,-2.774 -11.737,-4.568 -3.939,-1.854 -8.009,-3.606 -11.599,-6.089 -0.257,-0.178 -0.109,-0.63 0.223,-0.53 8.14,2.452 15.56,7.331 23.312,10.714 C 0.479,-0.351 0.271,0.06 0,0" style="fill:#caafa5;fill-opacity:1;fill-rule:nonzero;stroke:none" id="path450"/>
        </g>
        <g id="g452" transform="translate(318.478,178.3936)">
          <path d="m 0,0 c -1.091,-3.903 -1.334,-7.733 -2.964,-11.535 -1.722,-4.013 -4.262,-7.124 -6.952,-10.505 -0.327,-0.411 0.167,-0.917 0.58,-0.579 3.289,2.703 5.719,6.795 7.379,10.659 C -0.447,-8.445 1.101,-3.877 0.486,0 0.445,0.257 0.062,0.223 0,0" style="fill:#caafa5;fill-opacity:1;fill-rule:nonzero;stroke:none" id="path454"/>
        </g>
        <g id="g456" transform="translate(144.0464,213.9453)">
          <path d="m 0,0 c -0.925,3.154 -1.657,6.431 -1.72,9.728 -0.065,3.39 0.813,6.49 1.329,9.792 0.065,0.411 -0.496,0.736 -0.725,0.306 C -4.218,13.996 -3.387,5.494 -0.622,-0.262 -0.454,-0.611 0.107,-0.365 0,0" style="fill:#caafa5;fill-opacity:1;fill-rule:nonzero;stroke:none" id="path458"/>
        </g>
        <g id="g460" transform="translate(153.0181,209.5879)">
          <path d="M 0,0 C -0.771,1.999 -1.636,3.977 -2.207,6.046 -2.42,6.822 -3.324,9.293 -2.855,9.88 -1.017,10.731 -0.018,10.321 0.142,8.649 0.263,7.936 0.312,7.217 0.289,6.495 0.29,6.161 0.806,6.075 0.882,6.415 1.289,8.209 -0.289,14.229 -3.115,12 -4.345,11.03 -3.708,8.592 -3.442,7.35 -2.876,4.706 -1.615,2.235 -0.552,-0.233 -0.418,-0.545 0.124,-0.32 0,0" style="fill:#caafa5;fill-opacity:1;fill-rule:nonzero;stroke:none" id="path462"/>
        </g>
        <g id="g464" transform="translate(172.1123,197.7451)">
          <path d="m 0,0 c -2.131,3.435 -3.089,6.88 -4.179,10.71 -0.065,0.228 -0.399,0.178 -0.408,-0.056 -0.164,-3.94 1.761,-7.969 4.191,-10.96 C -0.214,-0.528 0.149,-0.24 0,0" style="fill:#caafa5;fill-opacity:1;fill-rule:nonzero;stroke:none" id="path466"/>
        </g>
        <g id="g468" transform="translate(189.2104,191.0771)">
          <path d="M 0,0 C 2.976,0.269 6.926,2.491 7.412,5.762 7.453,6.042 7.109,6.346 6.875,6.074 5.946,4.996 5.293,3.767 4.184,2.829 2.968,1.802 1.441,1.064 -0.087,0.644 -0.432,0.549 -0.378,-0.034 0,0" style="fill:#caafa5;fill-opacity:1;fill-rule:nonzero;stroke:none" id="path470"/>
        </g>
        <g id="g472" transform="translate(189.2852,194.4131)">
          <path d="M 0,0 C 1.94,0.665 4.336,2.39 4.684,4.575 4.726,4.839 4.395,5.127 4.178,4.87 3.528,4.097 3.061,3.214 2.333,2.496 1.575,1.751 0.658,1.169 -0.311,0.736 -0.726,0.551 -0.431,-0.148 0,0" style="fill:#caafa5;fill-opacity:1;fill-rule:nonzero;stroke:none" id="path474"/>
        </g>
        <g id="g476" transform="translate(298.7632,311.1685)">
          <path d="M 0,0 C 0.896,0.373 1.522,-0.221 2.354,-0.451 2.442,-0.476 2.69,-0.446 2.721,-0.333 2.9,0.34 1.986,0.569 1.471,0.619 0.818,0.682 0.107,0.556 -0.416,0.142 -0.71,-0.091 -0.114,-0.047 0,0" style="fill:#e86140;fill-opacity:1;fill-rule:nonzero;stroke:none" id="path478"/>
        </g>
        <g id="g480" transform="translate(588.3682,356)">
          <path d="m 0,0 h -106.5 c -9.052,0 -16.784,-6.528 -18.301,-15.452 L -134,-69.565 c -1.927,-11.333 6.806,-21.675 18.301,-21.675 h 0.539 l -4.148,-22.183 20.485,22.183 h 89.624 c 9.052,0 16.783,6.529 18.3,15.452 l 9.2,54.114 C 20.227,-10.341 11.495,0 0,0" style="fill:#f6dacf;fill-opacity:1;fill-rule:nonzero;stroke:none" id="path482"/>
        </g>
        <g id="g484">
          <g id="g486"/>
          <g id="g498">
            <g clip-path="url(#clipPath490)" opacity="0.160004" id="g496">
              <g transform="translate(527.2559,335.5991)" id="g494">
                <path d="m 0,0 c 11.347,-0.611 22.729,-0.756 34.088,-1.007 5.6,-0.124 11.198,-0.247 16.797,-0.371 5.691,-0.126 11.622,-0.731 17.292,-0.206 0.585,0.054 0.84,1.029 0.151,1.124 C 62.944,0.281 57.304,-0.016 51.873,0.108 46.109,0.239 40.346,0.371 34.582,0.501 23.062,0.764 11.523,1.139 0,1.036 -0.67,1.029 -0.662,0.036 0,0" style="fill:#000000;fill-opacity:1;fill-rule:nonzero;stroke:none" id="path492"/>
              </g>
            </g>
          </g>
        </g>
        <g id="g500">
          <g id="g502"/>
          <g id="g514">
            <g clip-path="url(#clipPath506)" opacity="0.160004" id="g512">
              <g transform="translate(524.1865,321.7954)" id="g510">
                <path d="m 0,0 c 11.086,-0.641 22.187,-0.952 33.291,-0.902 5.473,0.024 10.946,0.133 16.416,0.327 5.33,0.19 10.822,0.143 16.097,0.964 0.75,0.117 0.536,1.266 -0.174,1.284 C 60.183,1.817 54.658,1.181 49.209,0.995 43.739,0.808 38.267,0.706 32.794,0.689 21.855,0.655 10.92,0.972 0,1.607 -1.033,1.667 -1.029,0.059 0,0" style="fill:#000000;fill-opacity:1;fill-rule:nonzero;stroke:none" id="path508"/>
              </g>
            </g>
          </g>
        </g>
        <g id="g516">
          <g id="g518"/>
          <g id="g530">
            <g clip-path="url(#clipPath522)" opacity="0.160004" id="g528">
              <g transform="translate(524.2656,310.7822)" id="g526">
                <path d="m 0,0 c 10.018,-0.907 20.094,-1.897 30.151,-2.282 10.039,-0.384 20.157,0.219 30.187,0.566 1.325,0.046 1.33,2.115 0,2.063 C 50.297,-0.042 40.205,-0.795 30.151,-0.461 20.089,-0.127 10.064,0.95 0,1.316 -0.857,1.348 -0.831,0.075 0,0" style="fill:#000000;fill-opacity:1;fill-rule:nonzero;stroke:none" id="path524"/>
              </g>
            </g>
          </g>
        </g>
        <g id="g532">
          <g id="g534"/>
          <g id="g546">
            <g clip-path="url(#clipPath538)" opacity="0.160004" id="g544">
              <g transform="translate(473.2334,300.5601)" id="g542">
                <path d="m 0,0 c 28.559,-2.372 57.371,-2.523 86.012,-2.771 6.818,-0.06 13.684,-0.199 20.499,0.098 1.118,0.049 1.127,1.717 0,1.744 -13.225,0.307 -26.48,0.031 -39.709,0.16 C 51.354,-0.619 35.906,-0.354 20.467,0.162 13.642,0.389 6.817,0.56 0,0.961 -0.621,0.998 -0.61,0.051 0,0" style="fill:#000000;fill-opacity:1;fill-rule:nonzero;stroke:none" id="path540"/>
              </g>
            </g>
          </g>
        </g>
        <g id="g548">
          <g id="g550"/>
          <g id="g562">
            <g clip-path="url(#clipPath554)" opacity="0.160004" id="g560">
              <g transform="translate(472.0186,290.8413)" id="g558">
                <path d="m 0,0 c 28.239,-2.352 56.7,-2.769 85.023,-3.127 6.742,-0.085 13.535,-0.246 20.273,0.049 1.118,0.049 1.127,1.717 0,1.744 C 92.073,-1.021 78.827,-1.23 65.601,-1.033 50.477,-0.807 35.354,-0.453 20.24,0.114 13.491,0.367 6.742,0.564 0,0.961 -0.621,0.997 -0.61,0.051 0,0" style="fill:#000000;fill-opacity:1;fill-rule:nonzero;stroke:none" id="path556"/>
              </g>
            </g>
          </g>
        </g>
        <g id="g564">
          <g id="g566"/>
          <g id="g578">
            <g clip-path="url(#clipPath570)" opacity="0.160004" id="g576">
              <g transform="translate(477.376,341.0923)" id="g574">
                <path d="m 0,0 c -1.334,-4.86 -1.446,-9.878 -1.466,-14.887 -0.011,-2.542 -0.008,-5.089 -0.197,-7.626 -0.198,-2.663 -1.15,-5.221 -1.285,-7.846 -0.048,-0.932 1.258,-1.213 1.705,-0.462 1.058,1.776 1.201,4.063 1.442,6.095 0.317,2.667 0.359,5.355 0.363,8.037 0.01,5.444 -0.119,10.863 1.427,16.141 C 2.363,0.727 0.353,1.28 0,0" style="fill:#000000;fill-opacity:1;fill-rule:nonzero;stroke:none" id="path572"/>
              </g>
            </g>
          </g>
        </g>
        <g id="g580">
          <g id="g582"/>
          <g id="g594">
            <g clip-path="url(#clipPath586)" opacity="0.160004" id="g592">
              <g transform="translate(479.3809,340.4067)" id="g590">
                <path d="m 0,0 c 12.846,-0.251 25.626,-0.666 38.405,-2.095 -0.39,0.513 -0.781,1.026 -1.172,1.539 -1.373,-9.809 -2.249,-19.593 -2.228,-29.504 0.004,-1.943 3.034,-1.947 3.021,0 -0.066,9.737 0.347,19.521 1.595,29.181 0.09,0.696 -0.633,1.156 -1.216,1.215 C 25.682,1.623 12.777,2.308 0,1.54 -0.982,1.481 -0.999,0.02 0,0" style="fill:#000000;fill-opacity:1;fill-rule:nonzero;stroke:none" id="path588"/>
              </g>
            </g>
          </g>
        </g>
        <g id="g596">
          <g id="g598"/>
          <g id="g610">
            <g clip-path="url(#clipPath602)" opacity="0.160004" id="g608">
              <g transform="translate(476.6465,308.8809)" id="g606">
                <path d="m 0,0 c 6.325,0.718 12.688,0.977 19.051,0.702 3.023,-0.13 6.043,-0.375 9.048,-0.734 1.752,-0.21 3.497,-0.473 5.242,-0.733 1.494,-0.223 2.614,-0.607 4.035,-0.057 0.732,0.283 1.197,1.277 0.5,1.893 C 35.828,2.883 32.158,2.74 29.522,3.013 26.201,3.357 22.865,3.558 19.528,3.623 12.883,3.75 6.259,3.292 -0.32,2.368 -1.651,2.181 -1.353,-0.153 0,0" style="fill:#000000;fill-opacity:1;fill-rule:nonzero;stroke:none" id="path604"/>
              </g>
            </g>
          </g>
        </g>
        <g id="g612">
          <g id="g614"/>
          <g id="g626">
            <g clip-path="url(#clipPath618)" opacity="0.160004" id="g624">
              <g transform="translate(482.5801,335.0073)" id="g622">
                <path d="m 0,0 c -0.485,-5.16 -0.864,-10.339 -1.078,-15.518 -0.053,-1.268 1.999,-1.276 1.975,0 C 0.799,-10.33 0.915,-5.174 1.307,0 1.37,0.843 0.077,0.828 0,0" style="fill:#000000;fill-opacity:1;fill-rule:nonzero;stroke:none" id="path620"/>
              </g>
            </g>
          </g>
        </g>
        <g id="g628">
          <g id="g630"/>
          <g id="g642">
            <g clip-path="url(#clipPath634)" opacity="0.160004" id="g640">
              <g transform="translate(482.708,318.4966)" id="g638">
                <path d="m 0,0 c 10.114,-0.636 20.346,-1.164 30.481,-1.181 1.299,-0.002 1.28,1.93 0,2.005 C 20.368,1.417 10.129,1.508 0,1.481 -0.961,1.479 -0.945,0.06 0,0" style="fill:#000000;fill-opacity:1;fill-rule:nonzero;stroke:none" id="path636"/>
              </g>
            </g>
          </g>
        </g>
        <g id="g644">
          <g id="g646"/>
          <g id="g658">
            <g clip-path="url(#clipPath650)" opacity="0.160004" id="g656">
              <g transform="translate(487.2539,322.814)" id="g654">
                <path d="m 0,0 c 0.404,1.213 0.81,2.425 1.215,3.638 0.339,1.016 0.637,3.054 1.377,3.833 2.057,2.168 4.98,-4.476 5.607,-5.41 1.197,-1.782 3.34,-3.129 4.925,-0.898 1.056,1.485 1.105,3.512 1.9,5.119 0.055,0.846 0.514,1.358 1.377,1.534 0.369,-0.466 0.737,-0.931 1.105,-1.397 0.604,-0.765 1.177,-1.695 1.966,-2.29 0.784,-0.592 1.675,-0.813 2.611,-0.418 1.561,0.659 1.594,2.851 3.042,3.509 3.162,1.434 -2.667,4.787 -2.316,1.329 C 22.927,7.381 21.776,5.32 20.466,5.999 19.655,6.419 18.902,7.779 18.288,8.452 17.521,9.291 16.53,10.577 15.2,10.055 14.24,9.679 14.035,8.513 13.717,7.666 13.252,6.429 12.751,5.201 12.259,3.974 12.19,2.877 11.618,2.324 10.54,2.316 10.138,2.804 9.771,3.317 9.442,3.856 8.114,5.795 6.344,10.141 3.271,9.623 2.016,9.411 1.435,8.495 0.935,7.415 -0.084,5.216 -0.661,2.693 -1.429,0.394 -1.731,-0.512 -0.302,-0.901 0,0" style="fill:#000000;fill-opacity:1;fill-rule:nonzero;stroke:none" id="path652"/>
              </g>
            </g>
          </g>
        </g>
        <g id="g660" transform="translate(432.5762,444.7812)">
          <path d="m 0,0 h -70.15 c -5.962,0 -11.055,-4.3 -12.054,-10.178 l -6.06,-35.644 c -1.269,-7.465 4.483,-14.276 12.054,-14.276 h 0.356 l -7.024,-10.217 17.784,10.217 H -6.06 c 5.962,0 11.055,4.3 12.055,10.178 l 6.06,35.644 C 13.323,-6.812 7.571,0 0,0" style="fill:#dacfd8;fill-opacity:1;fill-rule:nonzero;stroke:none" id="path662"/>
        </g>
        <g id="g664">
          <g id="g666"/>
          <g id="g678">
            <g clip-path="url(#clipPath670)" opacity="0.160004" id="g676">
              <g transform="translate(360.6279,432.3247)" id="g674">
                <path d="m 0,0 c 12.754,-0.655 25.535,-0.91 38.301,-1.255 6.301,-0.171 12.6,-0.341 18.901,-0.512 6.411,-0.173 12.998,-0.794 19.4,-0.373 0.644,0.042 0.62,0.91 0,0.985 -6.211,0.747 -12.651,0.5 -18.903,0.673 C 51.233,-0.304 44.767,-0.125 38.301,0.053 25.539,0.405 12.767,0.849 0,0.891 -0.576,0.893 -0.569,0.029 0,0" style="fill:#000000;fill-opacity:1;fill-rule:nonzero;stroke:none" id="path672"/>
              </g>
            </g>
          </g>
        </g>
        <g id="g680">
          <g id="g682"/>
          <g id="g694">
            <g clip-path="url(#clipPath686)" opacity="0.160004" id="g692">
              <g transform="translate(357.3965,423.2158)" id="g690">
                <path d="m 0,0 c 12.274,-0.59 24.56,-0.968 36.848,-1.116 5.978,-0.072 11.957,-0.092 17.935,-0.058 6.282,0.036 12.669,-0.149 18.93,0.402 0.713,0.062 0.733,1.095 0,1.125 C 67.591,0.601 61.41,0.23 55.281,0.194 49.137,0.158 42.992,0.178 36.848,0.254 24.56,0.407 12.274,0.789 0,1.383 -0.89,1.426 -0.888,0.042 0,0" style="fill:#000000;fill-opacity:1;fill-rule:nonzero;stroke:none" id="path688"/>
              </g>
            </g>
          </g>
        </g>
        <g id="g696">
          <g id="g698"/>
          <g id="g710">
            <g clip-path="url(#clipPath702)" opacity="0.160004" id="g708">
              <g transform="translate(355.4482,414.9971)" id="g706">
                <path d="m 0,0 c 23.837,-1.848 47.871,-2.037 71.759,-1.198 0.873,0.031 0.877,1.392 0,1.36 C 47.813,-0.718 23.929,-0.271 0,0.867 -0.562,0.894 -0.551,0.042 0,0" style="fill:#000000;fill-opacity:1;fill-rule:nonzero;stroke:none" id="path704"/>
              </g>
            </g>
          </g>
        </g>
        <g id="g712">
          <g id="g714"/>
          <g id="g726">
            <g clip-path="url(#clipPath718)" opacity="0.160004" id="g724">
              <g transform="translate(353.5371,406.1304)" id="g722">
                <path d="m 0,0 c 16.388,-1.442 33.079,-2.362 49.532,-1.772 0.738,0.026 0.742,1.136 0,1.148 C 32.998,-0.351 16.522,-0.256 0,0.633 -0.41,0.655 -0.4,0.035 0,0" style="fill:#000000;fill-opacity:1;fill-rule:nonzero;stroke:none" id="path720"/>
              </g>
            </g>
          </g>
        </g>
        <g id="g728" transform="translate(182.9487,424.8335)">
          <path d="m 0,0 h -96.022 c -8.161,0 -15.132,-5.886 -16.5,-13.932 l -8.294,-48.789 c -1.737,-10.218 6.135,-19.542 16.5,-19.542 h 81.163 l 14.157,-17.841 0.573,17.841 h 0.129 c 8.161,0 15.132,5.886 16.5,13.931 l 8.294,48.79 C 18.237,-9.324 10.364,0 0,0" style="fill:#dacfd8;fill-opacity:1;fill-rule:nonzero;stroke:none" id="path730"/>
        </g>
        <g id="g732">
          <g id="g734"/>
          <g id="g746">
            <g clip-path="url(#clipPath738)" opacity="0.289993" id="g744">
              <g transform="translate(121.0029,406.813)" id="g742">
                <path d="m 0,0 c 11.378,-0.495 22.772,-0.694 34.158,-0.96 l 16.831,-0.394 c 5.745,-0.135 11.585,-0.576 17.326,-0.294 0.472,0.023 0.459,0.681 0,0.725 -5.561,0.536 -11.247,0.38 -16.831,0.513 C 45.708,-0.272 39.933,-0.135 34.158,0.002 22.775,0.274 11.386,0.613 0,0.656 -0.424,0.657 -0.42,0.018 0,0" style="fill:#000000;fill-opacity:1;fill-rule:nonzero;stroke:none" id="path740"/>
              </g>
            </g>
          </g>
        </g>
        <g id="g748">
          <g id="g750"/>
          <g id="g762">
            <g clip-path="url(#clipPath754)" opacity="0.289993" id="g760">
              <g transform="translate(117.9746,394.4526)" id="g758">
                <path d="m 0,0 c 10.943,-0.607 21.9,-0.926 32.86,-0.93 10.886,-0.004 22.07,-0.217 32.897,0.994 0.517,0.058 0.547,0.828 0,0.829 C 54.8,0.923 43.831,0.073 32.86,0.08 21.9,0.086 10.943,0.408 0,1.019 -0.655,1.055 -0.653,0.036 0,0" style="fill:#000000;fill-opacity:1;fill-rule:nonzero;stroke:none" id="path756"/>
              </g>
            </g>
          </g>
        </g>
        <g id="g764">
          <g id="g766"/>
          <g id="g778">
            <g clip-path="url(#clipPath770)" opacity="0.289993" id="g776">
              <g transform="translate(77.375,384.2622)" id="g774">
                <path d="m 0,0 c 32.649,-2.374 65.516,-2.708 98.225,-1.527 0.796,0.029 0.799,1.27 0,1.24 C 65.456,-1.47 32.74,-0.935 0,0.792 -0.511,0.818 -0.504,0.037 0,0" style="fill:#000000;fill-opacity:1;fill-rule:nonzero;stroke:none" id="path772"/>
              </g>
            </g>
          </g>
        </g>
        <g id="g780">
          <g id="g782"/>
          <g id="g794">
            <g clip-path="url(#clipPath786)" opacity="0.289993" id="g792">
              <g transform="translate(74.7603,372.0718)" id="g790">
                <path d="m 0,0 c 22.456,-1.854 45.263,-3.045 67.799,-2.309 0.673,0.022 0.677,1.04 0,1.049 C 45.161,-0.968 22.613,-0.773 0,0.577 -0.374,0.6 -0.367,0.03 0,0" style="fill:#000000;fill-opacity:1;fill-rule:nonzero;stroke:none" id="path788"/>
              </g>
            </g>
          </g>
        </g>
        <g id="g796">
          <g id="g798"/>
          <g id="g810">
            <g clip-path="url(#clipPath802)" opacity="0.289993" id="g808">
              <g transform="translate(80.7725,411.7935)" id="g806">
                <path d="m 0,0 c -0.68,-4.705 -1.679,-9.545 -1.997,-14.285 -0.191,-2.842 1.163,-4.207 3.919,-4.674 4.759,-0.806 9.715,-0.972 14.519,-1.402 2.879,-0.258 8.126,-1.437 10.515,0.937 1.164,1.157 0.868,2.932 0.789,4.414 -0.113,2.108 -0.351,4.211 -0.355,6.324 -0.004,2.651 0.769,4.824 1.36,7.338 0.272,1.154 0.327,2.303 -0.452,3.289 C 26.417,4.322 21.71,3.453 19.116,3.444 13.85,3.425 8.58,3.283 3.314,3.185 1.673,3.154 1.747,0.499 3.314,0.682 c 6.832,0.797 13.861,1.297 20.745,0.969 1.513,-0.071 3.063,0.025 3.032,-2.541 -0.007,-0.591 -0.446,-1.305 -0.612,-1.866 -0.397,-1.349 -0.585,-2.743 -0.647,-4.145 -0.067,-1.497 0.041,-2.999 0.169,-4.489 0.132,-1.548 0.638,-3.432 0.429,-4.972 -0.37,-2.735 -2.573,-3.039 -4.902,-2.974 -1.698,0.047 -3.395,0.262 -5.087,0.403 -3.457,0.288 -6.917,0.551 -10.376,0.827 -1.409,0.112 -4.096,-0.195 -5.353,0.53 -0.924,0.533 -1.692,2.293 -1.75,3.291 -0.057,0.978 0.338,2.456 0.478,3.47 0.485,3.519 1.084,7.016 1.592,10.53 C 1.129,0.389 0.098,0.68 0,0" style="fill:#000000;fill-opacity:1;fill-rule:nonzero;stroke:none" id="path804"/>
              </g>
            </g>
          </g>
        </g>
        <g id="g812">
          <g id="g814"/>
          <g id="g826">
            <g clip-path="url(#clipPath818)" opacity="0.289993" id="g824">
              <g transform="translate(90.7529,400.644)" id="g822">
                <path d="M 0,0 C 0.426,2.301 0.625,4.64 0.903,6.963 0.782,6.751 0.66,6.539 0.539,6.327 0.955,6.604 5.033,1.707 5.493,1.186 5.615,1.646 5.736,2.106 5.858,2.567 4.088,1.849 2.309,1.155 0.547,0.419 -0.437,0.007 -0.023,-1.619 0.997,-1.212 2.772,-0.504 4.529,0.247 6.297,0.973 6.88,1.212 7.108,1.853 6.662,2.354 5.536,3.622 4.387,4.864 3.182,6.057 2.507,6.725 1.468,8.12 0.331,7.874 -0.775,7.635 -0.622,6.428 -0.708,5.545 -0.884,3.75 -1.097,1.958 -1.153,0.156 -1.173,-0.492 -0.123,-0.66 0,0" style="fill:#000000;fill-opacity:1;fill-rule:nonzero;stroke:none" id="path820"/>
              </g>
            </g>
          </g>
        </g>
        <g id="g828" transform="translate(505.917,213.667)">
          <path d="m 0,0 c 0,-1.289 -1.045,-2.334 -2.334,-2.334 -1.288,0 -2.333,1.045 -2.333,2.334 0,1.288 1.045,2.333 2.333,2.333 C -1.045,2.333 0,1.288 0,0" style="fill:#2c1f41;fill-opacity:1;fill-rule:nonzero;stroke:none" id="path830"/>
        </g>
        <g id="g832" transform="translate(513.292,213.667)">
          <path d="m 0,0 c 0,-1.289 -1.045,-2.334 -2.334,-2.334 -1.288,0 -2.333,1.045 -2.333,2.334 0,1.288 1.045,2.333 2.333,2.333 C -1.045,2.333 0,1.288 0,0" style="fill:#2c1f41;fill-opacity:1;fill-rule:nonzero;stroke:none" id="path834"/>
        </g>
        <g id="g836" transform="translate(520.667,213.667)">
          <path d="m 0,0 c 0,-1.289 -1.045,-2.334 -2.334,-2.334 -1.288,0 -2.333,1.045 -2.333,2.334 0,1.288 1.045,2.333 2.333,2.333 C -1.045,2.333 0,1.288 0,0" style="fill:#2c1f41;fill-opacity:1;fill-rule:nonzero;stroke:none" id="path838"/>
        </g>
        <g id="g840" transform="translate(514.917,389)">
          <path d="m 0,0 c 0,-1.289 -1.045,-2.333 -2.334,-2.333 -1.288,0 -2.333,1.044 -2.333,2.333 0,1.289 1.045,2.333 2.333,2.333 C -1.045,2.333 0,1.289 0,0" style="fill:#2c1f41;fill-opacity:1;fill-rule:nonzero;stroke:none" id="path842"/>
        </g>
        <g id="g844" transform="translate(522.292,389)">
          <path d="m 0,0 c 0,-1.289 -1.045,-2.333 -2.334,-2.333 -1.288,0 -2.333,1.044 -2.333,2.333 0,1.289 1.045,2.333 2.333,2.333 C -1.045,2.333 0,1.289 0,0" style="fill:#2c1f41;fill-opacity:1;fill-rule:nonzero;stroke:none" id="path846"/>
        </g>
        <g id="g848" transform="translate(529.667,389)">
          <path d="m 0,0 c 0,-1.289 -1.045,-2.333 -2.334,-2.333 -1.288,0 -2.333,1.044 -2.333,2.333 0,1.289 1.045,2.333 2.333,2.333 C -1.045,2.333 0,1.289 0,0" style="fill:#2c1f41;fill-opacity:1;fill-rule:nonzero;stroke:none" id="path850"/>
        </g>
        <g id="g852" transform="translate(96.2915,299.6665)">
          <path d="m 0,0 c 0,-1.289 -1.044,-2.333 -2.333,-2.333 -1.289,0 -2.334,1.044 -2.334,2.333 0,1.289 1.045,2.333 2.334,2.333 C -1.044,2.333 0,1.289 0,0" style="fill:#2c1f41;fill-opacity:1;fill-rule:nonzero;stroke:none" id="path854"/>
        </g>
        <g id="g856" transform="translate(103.6665,299.6665)">
          <path d="m 0,0 c 0,-1.289 -1.044,-2.333 -2.333,-2.333 -1.289,0 -2.334,1.044 -2.334,2.333 0,1.289 1.045,2.333 2.334,2.333 C -1.044,2.333 0,1.289 0,0" style="fill:#2c1f41;fill-opacity:1;fill-rule:nonzero;stroke:none" id="path858"/>
        </g>
        <g id="g860" transform="translate(111.0415,299.6665)">
          <path d="m 0,0 c 0,-1.289 -1.044,-2.333 -2.333,-2.333 -1.289,0 -2.334,1.044 -2.334,2.333 0,1.289 1.045,2.333 2.334,2.333 C -1.044,2.333 0,1.289 0,0" style="fill:#2c1f41;fill-opacity:1;fill-rule:nonzero;stroke:none" id="path862"/>
        </g>
      </g>
    </g>
  </g>
</svg>