<svg width="941" height="339" viewBox="0 0 941 339" fill="none" xmlns="http://www.w3.org/2000/svg">
<path d="M531.75 213C502.05 234.9 458.85 246.7 421.85 246.7C369.85 246.7 322.95 227.5 287.45 195.4C284.65 192.9 287.15 189.5 290.55 191.5C328.85 213.8 376.05 227.1 425.05 227.1C458.05 227.1 494.15 220.2 527.55 206.1C532.45 203.9 536.75 209.3 531.75 213Z" fill="#FF9900"/>
<path d="M544.25 198.8C540.45 193.9 519.15 196.6 509.45 197.7C506.55 198.1 506.05 195.5 508.75 193.6C525.75 181.7 553.65 185.1 556.85 189.1C560.05 193.2 556.05 221.1 540.05 234.4C537.65 236.5 535.25 235.4 536.45 232.6C539.85 223.8 548.05 203.7 544.25 198.8Z" fill="#FF9900"/>
<path d="M510.15 109.2V97.6C510.15 95.8 511.55 94.7 513.05 94.7H565.05C566.75 94.7 567.95 96 567.95 97.6V107.6C567.95 109.3 566.55 111.4 564.05 114.9L537.25 153.4C547.25 153.1 557.85 154.7 566.95 159.7C569.05 160.8 569.65 162.5 569.75 164.2V176.5C569.75 178.2 567.95 180.1 565.95 179.2C549.95 170.8 528.65 169.9 510.95 179.3C509.15 180.3 507.35 178.3 507.35 176.6V164.8C507.35 162.8 507.35 159.6 509.35 156.8L540.65 111.9H513.45C511.45 112.1 510.15 111 510.15 109.2Z" fill="#FFF5F5"/>
<path d="M320.15 181.8H304.25C302.75 181.7 301.55 180.5 301.45 179.1V97.8C301.45 96.1 302.85 94.9 304.55 94.9H319.25C320.75 94.9 322.05 96.2001 322.05 97.6001V108.3H322.35C326.15 98.1 333.45 93.3 343.25 93.3C353.25 93.3 359.35 98.1 363.85 108.3C367.65 98.1 376.35 93.3 385.75 93.3C392.35 93.3 399.65 96.1001 404.15 102.1C409.25 109 408.05 118.9 408.05 127.6V178.9C408.05 180.6 406.65 181.8 404.95 181.8H389.05C387.55 181.7 386.25 180.4 386.25 178.9V135.8C386.25 132.4 386.55 123.9 385.85 120.5C384.75 115 381.05 113.5 376.55 113.5C372.75 113.5 368.65 116 367.05 120.2C365.35 124.3 365.65 131.1 365.65 135.8V178.8C365.65 180.5 364.25 181.7 362.55 181.7H346.65C345.15 181.6 343.85 180.3 343.85 178.8V135.7C343.85 126.6 345.35 113.3 334.05 113.3C322.75 113.3 323.15 126.3 323.15 135.7V178.8C323.25 180.4 321.85 181.8 320.15 181.8Z" fill="#FFF5F5"/>
<path d="M612.95 93.2C636.55 93.2 649.15 113.4 649.15 139.1C649.15 163.9 635.15 183.6 612.95 183.6C589.85 183.6 577.35 163.4 577.35 138.3C577.35 112.8 590.05 93.2 612.95 93.2ZM613.05 109.8C601.45 109.8 600.75 125.7 600.75 135.6C600.75 145.6 600.65 166.7 613.05 166.7C625.35 166.7 625.95 149.6 625.95 139.2C625.95 132.3 625.65 124.2 623.55 117.6C621.65 112 618.15 109.8 613.05 109.8Z" fill="#FFF5F5"/>
<path d="M679.75 181.8H664.05C662.55 181.7 661.25 180.4 661.25 178.9V97.6C661.35 96.1 662.65 94.8999 664.35 94.8999H679.05C680.45 94.8999 681.55 95.9 681.85 97.1V109.6H682.15C686.65 98.5 692.85 93.2 703.75 93.2C710.85 93.2 717.75 95.7 722.25 102.7C726.45 109.1 726.45 120.1 726.45 127.9V179.1C726.35 180.5 724.95 181.6 723.35 181.6H707.25C705.85 181.5 704.55 180.5 704.45 179.1V134.9C704.45 126.1 705.45 113 694.45 113C690.65 113 687.05 115.5 685.35 119.4C683.15 124.3 682.85 129.4 682.85 134.8V178.6C682.75 180.4 681.35 181.8 679.75 181.8Z" fill="#FFF5F5"/>
<path d="M496.849 166.8C493.949 162.7 490.849 159.5 490.849 152.1V127.4C490.849 116.9 491.549 107.3 483.849 100.2C477.849 94.3 467.749 92.3 460.049 92.3C445.049 92.3 428.049 97.9001 424.549 116.6C424.149 118.6 425.649 119.7 426.949 120L442.249 121.7C443.649 121.7 444.749 120.3 445.049 118.8C446.349 112.4 451.749 109.3 457.849 109.3C461.049 109.3 464.849 110.6 466.649 113.4C468.849 116.6 468.649 121.1 468.649 124.9V127C459.549 128 447.449 128.7 438.949 132.5C428.949 136.9 422.149 145.5 422.149 158.4C422.149 174.8 432.549 183.1 445.849 183.1C457.049 183.1 463.249 180.4 471.949 171.6C474.749 175.8 475.749 177.8 481.049 182.1C482.149 182.7 483.749 182.7 484.849 181.7C488.049 178.9 493.849 173.8 497.049 171.2C498.149 170.1 497.849 168.2 496.849 166.8ZM465.649 159.7C463.149 164.2 459.049 166.8 454.749 166.8C448.749 166.8 445.049 162.2 445.049 155.3C445.049 141.8 457.149 139.3 468.649 139.3V142.7C468.649 149.2 468.749 154.2 465.649 159.7Z" fill="#FFF5F5"/>
<path d="M289.15 166.8C286.25 162.7 283.15 159.5 283.15 152.1V127.4C283.15 116.9 283.85 107.3 276.15 100.2C270.15 94.3 260.05 92.3 252.35 92.3C237.35 92.3 220.55 97.9001 216.85 116.6C216.45 118.6 217.95 119.7 219.25 120L234.65 121.7C236.05 121.7 237.15 120.3 237.45 118.8C238.75 112.4 244.15 109.3 250.25 109.3C253.45 109.3 257.25 110.6 259.05 113.4C261.25 116.6 261.05 121.1 261.05 124.9V127C251.95 128 239.85 128.7 231.35 132.5C221.35 136.9 214.55 145.5 214.55 158.4C214.55 174.8 224.95 183.1 238.25 183.1C249.45 183.1 255.65 180.4 264.35 171.6C267.25 175.8 268.15 177.8 273.45 182.1C274.55 182.7 276.15 182.7 277.25 181.7C280.45 178.9 286.25 173.8 289.45 171.2C290.45 170.1 290.15 168.2 289.15 166.8ZM258.05 159.7C255.55 164.2 251.55 166.8 247.15 166.8C241.15 166.8 237.45 162.2 237.45 155.3C237.45 141.8 249.55 139.3 261.05 139.3V142.7C260.95 149.2 261.05 154.2 258.05 159.7Z" fill="#FFF5F5"/>
</svg>
