<svg width="941" height="339" viewBox="0 0 941 339" fill="none" xmlns="http://www.w3.org/2000/svg">
<path d="M557.334 233.074C556.3 233.074 550.098 228.94 539.76 228.94C526.322 228.94 517.018 238.243 517.018 250.648C517.018 263.052 526.322 272.356 539.76 272.356C550.098 272.356 556.3 268.221 557.334 268.221V290.963C554.233 291.997 548.03 294.064 538.727 294.064C514.951 294.064 494.276 277.524 494.276 250.648C494.276 225.838 512.883 207.231 538.727 207.231C548.03 207.231 556.3 209.298 557.334 210.332V233.074ZM338.183 233.074C337.15 233.074 330.947 228.94 320.61 228.94C307.172 228.94 297.868 238.243 297.868 250.648C297.868 263.052 307.172 272.356 320.61 272.356C330.947 272.356 337.15 268.221 338.183 268.221V290.963C335.082 291.997 328.88 294.064 319.576 294.064C295.801 294.064 275.126 277.524 275.126 250.648C275.126 225.838 293.733 207.231 319.576 207.231C329.914 207.231 337.15 209.298 338.183 210.332V233.074ZM622.459 229.973C610.054 229.973 600.75 239.276 600.75 251.681C600.75 264.086 610.054 273.39 622.459 273.39C634.863 273.39 644.167 264.086 644.167 251.681C644.167 239.276 634.863 229.973 622.459 229.973ZM666.909 251.681C666.909 275.457 648.302 295.098 623.492 295.098C597.649 295.098 580.076 275.457 580.076 251.681C580.076 227.905 598.683 208.265 623.492 208.265C648.302 208.265 666.909 227.905 666.909 251.681ZM467.399 228.94C467.399 228.94 458.096 226.872 450.86 226.872C442.59 226.872 437.421 229.973 437.421 234.108C437.421 239.277 443.624 241.344 446.725 242.378L452.927 244.445C466.366 248.58 472.568 257.884 472.568 268.221C472.568 288.896 453.961 296.132 438.455 296.132C427.084 296.132 416.747 294.064 415.713 294.064V275.457C417.78 275.457 426.05 278.558 435.354 278.558C445.691 278.558 450.86 275.457 450.86 271.322C450.86 267.187 446.725 265.12 441.556 263.052C440.522 263.052 438.455 262.018 437.421 262.018C426.05 257.883 415.713 251.681 415.713 238.243C415.713 222.737 427.084 212.399 446.725 212.399C457.062 212.399 466.366 214.467 467.399 215.501V228.94Z" fill="#C4122E"/>
<path d="M252.384 120.398C252.384 114.196 247.215 110.061 242.046 110.061C235.844 110.061 231.709 114.196 231.709 120.398V142.106C231.709 148.308 236.878 152.443 242.046 152.443C247.215 152.443 252.384 148.308 252.384 142.106V120.398ZM310.272 92.4872C310.272 86.2849 305.104 82.15 299.935 82.15C294.766 82.15 289.598 87.3186 289.598 92.4872V143.14C289.598 149.342 294.766 153.477 299.935 153.477C305.104 153.477 310.272 148.308 310.272 143.14V92.4872ZM367.127 53.2057C367.127 47.0033 361.959 42.8684 356.79 42.8684C350.588 42.8684 346.453 47.0033 346.453 53.2057V163.814C346.453 170.016 351.621 174.151 356.79 174.151C361.959 174.151 367.127 170.016 367.127 163.814V53.2057ZM423.982 92.4872C423.982 86.2849 418.814 82.15 413.645 82.15C407.443 82.15 403.308 87.3186 403.308 92.4872V143.14C403.308 149.342 408.476 153.477 413.645 153.477C419.847 153.477 423.982 148.308 423.982 143.14V92.4872ZM480.837 120.398C480.837 114.196 476.703 110.061 470.5 110.061C464.298 110.061 460.163 114.196 460.163 120.398V142.106C460.163 148.308 464.298 152.443 470.5 152.443C476.703 152.443 480.837 148.308 480.837 142.106V120.398ZM538.726 92.4872C538.726 86.2849 533.558 82.15 528.389 82.15C523.22 82.15 518.052 86.2849 518.052 92.4872V143.14C518.052 149.342 522.187 153.477 528.389 153.477C534.591 153.477 538.726 149.342 538.726 143.14V92.4872ZM595.581 53.2057C595.581 47.0033 591.446 42.8684 585.244 42.8684C579.042 42.8684 574.907 47.0033 574.907 53.2057V163.814C574.907 170.016 579.042 174.151 585.244 174.151C591.446 174.151 595.581 170.016 595.581 163.814V162.781V53.2057ZM652.436 92.4872C652.436 86.2849 648.301 82.15 642.099 82.15C635.897 82.15 631.762 86.2849 631.762 92.4872V143.14C631.762 149.342 635.897 153.477 642.099 153.477C648.301 153.477 652.436 149.342 652.436 143.14V92.4872ZM709.291 120.398C709.291 114.196 705.156 110.061 698.954 110.061C692.752 110.061 688.617 114.196 688.617 120.398V142.106C688.617 148.308 692.752 152.443 698.954 152.443C705.156 152.443 709.291 148.308 709.291 142.106V120.398Z" fill="#15495D"/>
<path d="M383.45 296H362.55V213H383.45V296Z" fill="#C4122E"/>
<path d="M697.921 281.66V282.693H693.786V291.997H692.752V282.693H688.617V281.66H697.921ZM698.954 281.66H701.022L704.123 290.963L707.224 281.66H709.292V293.03H707.224V283.727L704.123 293.03H703.089L699.988 283.727V293.03H698.954V281.66Z" fill="#C4122E"/>
</svg>
