<?xml version="1.0" standalone="no"?>
<!DOCTYPE svg PUBLIC "-//W3C//DTD SVG 20010904//EN"
 "http://www.w3.org/TR/2001/REC-SVG-20010904/DTD/svg10.dtd">
<svg version="1.0" xmlns="http://www.w3.org/2000/svg"
 width="2560.000000pt" height="866.000000pt" viewBox="0 0 2560.000000 866.000000"
 preserveAspectRatio="xMidYMid meet">
<metadata>
Created by potrace 1.16, written by Peter Selinger 2001-2019
</metadata>
<g transform="translate(0.000000,866.000000) scale(0.100000,-0.100000)"
fill="#000000" stroke="none">
<path d="M3070 8610 c-245 -28 -322 -38 -375 -52 -22 -5 -55 -12 -74 -14 -19
-3 -40 -9 -46 -14 -7 -6 -14 -7 -18 -4 -3 3 -14 1 -26 -5 -11 -6 -38 -13 -61
-16 -22 -3 -64 -14 -93 -25 -29 -11 -58 -20 -65 -20 -7 0 -29 -7 -50 -16 -20
-10 -44 -18 -52 -20 -9 -2 -38 -13 -65 -26 -28 -12 -56 -23 -64 -24 -21 -4
-107 -42 -211 -94 -160 -80 -200 -102 -200 -112 0 -5 -4 -7 -9 -3 -5 3 -17 -3
-27 -12 -10 -10 -20 -18 -23 -18 -16 -2 -71 -37 -71 -46 0 -6 -4 -7 -10 -4 -5
3 -10 1 -10 -4 0 -6 -5 -11 -11 -11 -16 0 -169 -112 -169 -123 0 -6 -3 -8 -6
-4 -3 3 -11 2 -18 -3 -16 -13 -123 -104 -185 -158 -75 -65 -248 -238 -296
-295 -22 -27 -51 -61 -65 -77 -47 -53 -60 -70 -60 -80 0 -5 -6 -13 -13 -17 -8
-4 -29 -32 -48 -60 -18 -29 -37 -53 -41 -53 -5 0 -8 -7 -8 -15 0 -8 -4 -15 -9
-15 -5 0 -14 -13 -21 -30 -7 -16 -16 -30 -21 -30 -5 0 -11 -11 -15 -25 -3 -14
-9 -25 -13 -25 -4 0 -14 -12 -22 -27 -8 -16 -18 -32 -22 -38 -15 -19 -187
-356 -187 -367 0 -3 -8 -23 -17 -44 -9 -22 -17 -41 -18 -44 0 -3 -6 -14 -11
-25 -16 -29 -109 -327 -128 -410 -19 -79 -22 -96 -36 -180 -6 -33 -12 -71 -15
-85 -21 -115 -30 -264 -29 -505 0 -232 15 -386 51 -550 4 -16 7 -34 8 -40 1
-5 3 -12 4 -15 1 -3 4 -16 6 -30 10 -73 78 -319 98 -355 6 -11 10 -26 9 -32
-2 -7 2 -13 8 -13 6 0 9 -4 5 -9 -3 -5 -1 -12 5 -16 5 -3 10 -16 10 -29 0 -12
4 -26 8 -31 5 -6 15 -26 22 -45 19 -51 74 -174 80 -180 3 -3 21 -36 39 -75 19
-38 39 -73 45 -77 6 -4 7 -8 3 -8 -5 0 1 -13 12 -29 12 -16 21 -34 21 -40 0
-6 5 -11 10 -11 6 0 10 -5 10 -11 0 -13 67 -120 104 -165 14 -18 26 -36 26
-41 0 -6 9 -18 21 -29 12 -10 27 -31 35 -46 8 -15 35 -51 59 -80 25 -29 64
-75 87 -103 86 -100 321 -328 416 -403 13 -9 39 -32 60 -49 20 -18 40 -33 44
-33 4 0 13 -6 20 -12 8 -7 21 -17 29 -23 9 -5 51 -34 95 -64 43 -29 88 -57 99
-62 25 -11 55 -30 72 -46 42 -38 356 -189 397 -191 5 0 12 -4 15 -9 3 -5 33
-19 66 -30 33 -12 96 -34 140 -50 44 -16 83 -30 87 -32 4 -1 13 -3 20 -5 7 -3
56 -16 108 -30 146 -39 288 -67 425 -82 22 -2 67 -7 100 -11 130 -16 608 -8
770 13 152 19 220 30 220 34 0 1 15 3 34 5 19 2 46 7 60 11 14 4 31 8 36 10 6
1 24 7 42 12 17 6 34 8 36 5 3 -2 14 0 25 6 10 6 34 13 52 16 19 3 79 22 134
41 56 19 122 42 149 51 26 9 47 20 47 25 0 5 5 6 10 3 6 -3 10 -1 10 4 0 6 7
11 15 11 21 0 169 69 173 81 2 5 10 9 17 9 15 0 87 39 96 53 3 5 9 7 12 5 3
-1 50 26 104 62 136 90 263 187 353 270 9 8 34 32 57 52 23 20 39 39 36 41 -2
3 4 8 14 11 10 3 38 29 63 58 25 28 63 70 86 92 22 23 62 70 89 106 27 36 52
67 55 70 4 3 23 30 43 60 21 30 44 64 52 75 8 10 15 25 15 32 0 7 4 13 8 13
10 0 37 50 34 63 -1 4 2 7 7 7 4 0 20 26 35 58 15 31 31 64 36 72 18 28 97
215 115 270 10 30 22 64 27 75 5 12 10 27 11 35 2 8 6 21 10 28 5 6 6 12 3 12
-3 0 2 16 10 35 8 19 11 35 8 35 -4 0 -2 6 3 13 16 19 59 215 78 357 2 8 6 31
10 50 23 116 32 297 30 565 -1 160 -5 301 -8 315 -7 27 -16 86 -21 135 -2 17
-4 33 -5 38 0 4 -674 7 -1496 7 l-1495 0 0 -445 0 -445 1056 0 1055 0 -5 -47
c-8 -72 -15 -112 -25 -152 -6 -20 -12 -47 -15 -61 -3 -14 -7 -35 -10 -47 -4
-13 -8 -31 -10 -40 -8 -35 -68 -209 -86 -248 -10 -23 -20 -47 -22 -55 -2 -8
-5 -17 -8 -20 -5 -5 -35 -59 -69 -125 -9 -16 -19 -31 -23 -33 -5 -2 -8 -8 -8
-13 0 -11 -69 -111 -84 -121 -6 -4 -8 -8 -4 -8 4 0 -3 -10 -15 -23 -12 -13
-29 -32 -38 -43 -22 -27 -188 -182 -238 -223 -107 -86 -172 -130 -325 -215
-168 -93 -452 -196 -589 -212 -21 -3 -48 -9 -60 -13 -12 -4 -42 -9 -66 -10
-25 -1 -48 -4 -53 -7 -39 -25 -636 -24 -677 1 -4 1 -32 6 -64 9 -32 4 -64 9
-70 11 -7 3 -23 7 -37 9 -95 18 -249 62 -305 86 -58 26 -150 60 -162 60 -7 0
-13 4 -13 9 0 10 -39 27 -52 23 -5 -1 -8 2 -8 6 0 5 -19 17 -42 28 -24 10 -66
33 -95 51 -29 18 -56 33 -62 33 -5 0 -16 6 -23 13 -26 25 -116 87 -126 87 -6
0 -12 3 -14 8 -2 6 -86 78 -135 117 -13 10 -179 177 -221 222 -12 13 -41 50
-64 81 -23 31 -47 62 -52 69 -30 34 -36 43 -36 51 0 5 -9 17 -20 27 -11 10
-20 24 -20 32 0 7 -3 13 -8 13 -4 0 -13 14 -20 30 -8 17 -19 36 -25 43 -36 38
-162 323 -209 472 -50 155 -59 186 -64 228 -3 23 -8 49 -11 57 -3 8 -7 29 -9
45 -1 17 -5 44 -8 60 -17 99 -21 170 -21 340 1 166 5 236 21 370 12 103 86
393 120 472 9 21 20 47 24 58 4 11 29 65 55 120 25 55 45 103 43 106 -2 3 4
13 13 22 10 9 34 47 55 84 21 37 57 95 81 128 23 33 51 71 60 84 33 45 92 119
115 143 127 134 160 168 164 168 3 0 21 16 42 35 37 35 131 109 194 153 18 12
53 37 78 55 25 17 48 32 52 32 4 0 17 8 28 18 11 9 22 17 24 17 2 0 65 29 139
65 75 36 138 65 142 65 3 0 22 7 43 16 20 10 46 19 56 21 11 2 33 10 50 18 16
9 44 18 60 21 17 3 49 10 71 15 44 12 42 12 135 29 36 7 72 15 80 18 8 3 18 5
22 4 3 -1 53 4 110 11 96 12 377 14 478 3 63 -6 251 -36 259 -40 3 -2 24 -7
46 -10 22 -4 72 -16 110 -28 39 -11 75 -21 80 -22 6 -1 20 -7 32 -14 12 -7 27
-12 33 -12 7 0 26 -6 43 -14 18 -7 52 -23 77 -34 25 -10 56 -23 70 -27 14 -4
40 -18 59 -31 19 -13 38 -21 43 -18 4 3 8 1 8 -4 0 -4 17 -17 38 -29 87 -47
183 -111 257 -171 6 -4 18 -11 28 -15 9 -3 17 -11 17 -17 0 -5 4 -10 9 -10 9
0 60 -43 119 -101 l27 -26 316 314 316 315 -29 29 c-16 16 -31 29 -33 29 -2 0
-19 15 -37 33 -18 18 -55 51 -83 73 -27 21 -59 47 -70 57 -11 10 -32 26 -47
35 -16 9 -28 19 -28 23 0 3 -39 32 -87 64 -49 32 -107 71 -130 87 -23 15 -46
28 -52 28 -6 0 -11 5 -11 11 0 5 -4 8 -9 5 -4 -3 -18 3 -31 14 -20 17 -253
141 -265 140 -3 0 -19 7 -37 16 -50 26 -316 121 -356 127 -9 1 -21 5 -27 9
-10 5 -65 19 -95 23 -8 1 -22 5 -30 8 -35 13 -164 37 -285 52 -71 9 -146 19
-165 21 -67 9 -496 12 -570 4z"/>
<path d="M8600 6303 c-499 -51 -930 -245 -1274 -573 -757 -722 -837 -1996
-177 -2823 249 -312 584 -544 971 -671 211 -69 375 -97 610 -103 385 -11 685
51 1006 207 624 301 1038 866 1139 1553 135 920 -303 1790 -1103 2191 -235
117 -472 186 -744 216 -90 9 -347 11 -428 3z m427 -847 c352 -75 645 -305 808
-635 145 -294 175 -665 80 -996 -35 -121 -121 -295 -194 -392 -381 -505 -1045
-621 -1562 -272 -86 57 -209 177 -279 270 -350 469 -331 1191 44 1634 188 223
443 364 731 405 83 12 285 4 372 -14z"/>
<path d="M17588 6305 c-2 -2 -28 -6 -58 -9 -169 -17 -402 -78 -494 -128 -11
-7 -30 -13 -41 -15 -10 -2 -28 -10 -40 -17 -11 -7 -23 -14 -28 -14 -20 -3
-147 -76 -147 -85 0 -6 -3 -8 -6 -4 -7 7 -143 -77 -165 -103 -9 -10 -30 -27
-48 -38 -28 -17 -171 -141 -211 -183 -86 -91 -110 -118 -110 -123 0 -3 -12
-18 -27 -35 -32 -33 -73 -85 -88 -112 -5 -9 -31 -49 -57 -87 -27 -38 -48 -73
-48 -76 0 -4 -11 -24 -25 -46 -14 -21 -26 -45 -27 -52 -2 -7 -5 -15 -9 -18 -3
-3 -15 -30 -28 -60 -13 -30 -33 -77 -46 -105 -24 -55 -63 -169 -68 -200 -1
-11 -6 -26 -10 -32 -5 -7 -6 -17 -2 -22 3 -5 1 -12 -4 -15 -7 -5 -18 -57 -26
-121 -1 -5 -4 -19 -8 -30 -3 -11 -9 -47 -13 -80 -3 -33 -8 -73 -10 -90 -5 -42
-5 -344 0 -380 3 -16 7 -59 11 -95 4 -36 9 -68 12 -73 2 -4 8 -35 13 -68 13
-88 77 -296 125 -404 12 -27 28 -65 35 -82 7 -18 16 -33 21 -33 5 0 8 -3 7 -7
-2 -7 35 -76 104 -193 11 -19 24 -36 29 -38 5 -2 9 -10 9 -17 0 -7 7 -15 15
-19 8 -3 15 -10 15 -17 0 -11 35 -59 90 -124 51 -61 256 -258 300 -288 25 -17
59 -44 75 -59 17 -15 36 -28 43 -28 6 0 12 -4 12 -10 0 -5 7 -10 15 -10 8 0
15 -5 15 -11 0 -5 4 -8 9 -5 5 4 11 3 13 -1 6 -15 83 -60 193 -112 61 -30 119
-58 130 -64 11 -5 40 -16 65 -23 25 -7 72 -22 105 -34 33 -12 71 -23 85 -24
14 -2 44 -8 67 -15 24 -6 61 -13 83 -16 22 -2 44 -7 50 -10 6 -4 88 -9 182
-11 170 -5 386 14 428 36 10 6 34 12 52 14 40 5 130 35 142 47 6 5 18 9 27 9
24 0 219 99 219 111 0 5 3 8 8 7 11 -4 82 42 82 53 0 5 6 9 14 9 7 0 56 40
107 90 51 49 100 90 108 90 12 0 13 -39 8 -253 -4 -138 -9 -263 -11 -277 -3
-14 -15 -74 -27 -135 -12 -60 -34 -143 -50 -183 -16 -40 -29 -79 -29 -86 0 -8
-4 -16 -8 -18 -5 -1 -25 -35 -46 -74 -48 -92 -167 -224 -271 -302 -52 -39
-156 -90 -260 -127 -24 -9 -130 -34 -165 -39 -233 -35 -425 -20 -603 45 -45
16 -87 31 -94 32 -7 2 -16 7 -20 11 -4 4 -21 14 -38 22 -56 26 -153 97 -225
165 -25 24 -48 42 -52 41 -5 -1 -8 2 -8 8 0 5 -18 28 -40 52 -22 24 -50 60
-62 81 -12 20 -25 37 -30 37 -4 0 -8 5 -8 12 0 6 -6 19 -14 27 -7 9 -34 55
-58 104 -25 48 -47 85 -50 82 -3 -3 -27 -14 -54 -24 -118 -45 -210 -85 -216
-95 -4 -6 -8 -7 -8 -3 0 4 -10 2 -22 -5 -13 -7 -25 -13 -28 -13 -17 -2 -106
-41 -111 -48 -3 -5 -10 -9 -15 -8 -18 1 -54 -11 -54 -18 0 -4 -10 -7 -22 -8
-11 -1 -25 -8 -29 -15 -5 -7 -9 -10 -9 -5 0 4 -15 0 -32 -10 -18 -9 -42 -18
-53 -20 -10 -2 -23 -9 -27 -16 -4 -6 -8 -9 -8 -4 0 4 -18 -2 -40 -13 -21 -11
-46 -20 -55 -20 -8 0 -15 -2 -15 -4 0 -11 55 -124 68 -138 8 -10 12 -18 9 -18
-4 0 8 -24 25 -53 17 -28 38 -64 45 -79 8 -16 19 -28 24 -28 6 0 8 -4 4 -9 -3
-6 2 -14 11 -19 9 -5 16 -13 16 -18 1 -11 50 -78 61 -82 4 -2 7 -10 7 -18 0
-8 4 -14 8 -14 5 0 22 -19 39 -42 71 -98 350 -358 367 -341 3 3 6 2 6 -4 0
-12 150 -109 162 -106 5 2 8 -1 8 -6 0 -11 234 -126 278 -136 9 -2 49 -15 87
-29 76 -27 186 -54 249 -62 22 -3 43 -7 46 -9 45 -28 688 -25 734 3 5 3 20 7
33 9 12 2 33 5 45 8 13 2 38 6 56 9 18 3 37 8 43 11 5 4 20 8 32 9 38 5 201
57 225 72 12 8 22 12 22 10 0 -8 114 45 121 55 3 5 16 12 29 14 13 2 26 8 29
12 3 5 26 18 51 31 25 12 58 33 74 47 16 14 32 25 35 25 3 0 19 11 35 25 16
14 32 25 35 25 3 0 31 23 61 50 30 27 58 50 62 50 15 0 206 231 237 287 9 15
18 30 22 33 16 15 105 178 114 210 1 3 16 36 34 73 17 38 35 83 38 100 3 18
10 34 14 37 7 5 26 64 51 165 5 22 11 47 14 55 18 71 27 118 43 233 10 73 19
139 20 147 13 159 16 639 13 2208 l-2 1882 -435 0 -435 0 0 -170 c0 -123 -3
-170 -12 -170 -6 0 -32 21 -58 48 -87 88 -196 175 -261 208 -20 11 -63 33 -95
50 -66 35 -176 80 -214 88 -14 3 -43 12 -66 20 -22 8 -58 17 -80 20 -21 3 -64
11 -94 17 -50 10 -394 22 -402 14z m342 -830 c36 -4 72 -8 80 -9 9 -1 21 -6
28 -10 7 -4 16 -5 19 -2 3 3 12 1 18 -4 7 -6 27 -12 44 -13 17 -1 31 -5 31 -8
0 -6 51 -19 66 -18 4 0 10 -4 14 -11 4 -6 13 -12 21 -13 8 -2 25 -10 39 -20
13 -9 28 -17 32 -17 4 0 38 -20 75 -44 112 -72 262 -230 328 -343 11 -18 23
-33 28 -33 4 0 6 -4 3 -9 -4 -5 -3 -11 1 -13 16 -7 92 -182 110 -253 3 -11 7
-27 11 -35 7 -19 6 -18 15 -60 14 -67 17 -85 22 -125 3 -22 8 -47 11 -56 7
-24 7 -265 0 -329 -3 -30 -10 -77 -16 -105 -5 -27 -11 -59 -13 -70 -1 -11 -5
-24 -9 -30 -3 -5 -9 -26 -14 -45 -10 -45 -9 -40 -22 -73 -7 -16 -12 -32 -12
-37 0 -8 -5 -19 -48 -105 -54 -108 -91 -165 -167 -252 -56 -66 -122 -133 -130
-133 -3 0 -16 -9 -28 -20 -12 -12 -42 -33 -67 -47 -25 -14 -47 -29 -50 -33
-10 -13 -78 -50 -91 -50 -8 0 -26 -6 -40 -14 -32 -16 -126 -49 -154 -53 -11
-2 -50 -7 -87 -13 -115 -17 -266 -12 -419 15 -14 3 -39 11 -56 20 -16 8 -42
16 -57 17 -14 1 -26 7 -26 12 0 5 -3 6 -7 3 -3 -4 -17 0 -30 8 -13 9 -23 13
-23 10 0 -4 -7 1 -16 9 -8 9 -24 16 -34 16 -10 0 -20 4 -22 8 -3 7 -25 21
-117 77 -9 6 -26 19 -38 30 -111 106 -172 167 -193 195 -14 18 -33 41 -42 51
-10 11 -16 19 -13 19 3 0 -14 30 -38 68 -23 37 -47 78 -53 92 -6 14 -16 36
-23 50 -33 74 -75 215 -88 295 -21 134 -25 364 -7 453 9 41 17 86 19 100 7 44
12 64 39 142 15 41 28 83 31 92 2 9 29 61 61 115 31 54 63 110 71 126 8 15 19
27 24 27 5 0 9 5 9 10 0 6 12 23 28 38 15 16 51 54 79 85 29 31 57 57 61 57 5
0 21 13 38 28 110 106 394 221 586 238 35 3 64 6 65 7 3 4 80 -1 143 -8z"/>
<path d="M23296 6300 c-457 -57 -876 -266 -1179 -589 -145 -155 -244 -300
-342 -503 -146 -302 -215 -616 -215 -983 0 -617 222 -1144 652 -1551 281 -265
645 -444 1048 -515 148 -27 444 -36 601 -20 411 43 797 205 1104 463 144 121
298 286 386 415 l30 42 -362 242 c-287 191 -364 238 -370 226 -49 -86 -214
-262 -323 -344 -245 -182 -563 -257 -889 -208 -328 49 -575 221 -762 528 -26
43 -46 79 -44 81 2 1 627 260 1389 575 762 315 1388 576 1391 580 9 9 -126
344 -190 470 -181 357 -463 672 -768 854 -171 103 -393 186 -593 222 -109 20
-453 29 -564 15z m379 -814 c265 -21 533 -182 634 -383 l21 -41 -108 -45
c-145 -61 -636 -265 -1027 -427 -176 -73 -410 -170 -519 -216 l-199 -83 6 127
c22 485 351 899 823 1037 86 25 222 44 274 39 14 -2 57 -5 95 -8z"/>
</g>
</svg>
