<?xml version="1.0" encoding="UTF-8"?>
<!DOCTYPE svg PUBLIC "-//W3C//DTD SVG 1.1//EN" "http://www.w3.org/Graphics/SVG/1.1/DTD/svg11.dtd">
<svg xmlns="http://www.w3.org/2000/svg" version="1.1" width="2508px" height="816px" style="shape-rendering:geometricPrecision; text-rendering:geometricPrecision; image-rendering:optimizeQuality; fill-rule:evenodd; clip-rule:evenodd" xmlns:xlink="http://www.w3.org/1999/xlink">
<g><path style="opacity:0.997" fill="#4285f4" d="M 303.5,-0.5 C 316.167,-0.5 328.833,-0.5 341.5,-0.5C 418.214,4.19798 483.88,33.3646 538.5,87C 518.293,107.541 497.793,127.708 477,147.5C 411.949,90.2827 337.449,73.4493 253.5,97C 178.942,123.225 129.776,174.058 106,249.5C 84.3888,333.711 102.055,408.378 159,473.5C 216.072,530.077 284.572,552.244 364.5,540C 416.048,531.391 458.548,507.225 492,467.5C 511.496,439.36 523.329,408.193 527.5,374C 459.501,373.5 391.501,373.333 323.5,373.5C 323.5,344.833 323.5,316.167 323.5,287.5C 419.833,287.5 516.167,287.5 612.5,287.5C 622.614,352.927 614.447,415.927 588,476.5C 550.292,548.859 492.125,596.359 413.5,619C 312.914,644.404 219.914,628.071 134.5,570C 41.5719,499.958 -2.26143,406.458 3,289.5C 16.1613,178.274 70.9947,94.7736 167.5,39C 210.153,16.1663 255.486,2.9996 303.5,-0.5 Z"/></g>
<g><path style="opacity:1" fill="#34a752" d="M 1985.5,23.5 C 2015.5,23.5 2045.5,23.5 2075.5,23.5C 2075.5,221.5 2075.5,419.5 2075.5,617.5C 2045.5,617.5 2015.5,617.5 1985.5,617.5C 1985.5,419.5 1985.5,221.5 1985.5,23.5 Z"/></g>
<g><path style="opacity:0.992" fill="#ea4234" d="M 840.5,223.5 C 919.89,221.774 981.723,253.441 1026,318.5C 1059.86,379.289 1064.53,442.289 1040,507.5C 1010.27,572.876 960.106,612.709 889.5,627C 815.048,638.737 751.548,617.904 699,564.5C 655.58,513.2 639.58,454.2 651,387.5C 664.938,320.243 702.771,271.743 764.5,242C 788.887,231.403 814.22,225.236 840.5,223.5 Z M 843.5,304.5 C 897.982,304.507 935.815,329.507 957,379.5C 973.388,428.176 965.722,472.509 934,512.5C 898.58,548.252 857.08,557.752 809.5,541C 771.402,523.341 748.236,493.841 740,452.5C 731.768,404.866 744.935,364.366 779.5,331C 798.244,315.81 819.577,306.977 843.5,304.5 Z"/></g>
<g><path style="opacity:0.996" fill="#fbbc04" d="M 1284.5,223.5 C 1363.89,221.774 1425.72,253.441 1470,318.5C 1503.86,379.289 1508.53,442.289 1484,507.5C 1454.27,572.876 1404.11,612.709 1333.5,627C 1259.05,638.737 1195.55,617.904 1143,564.5C 1099.58,513.2 1083.58,454.2 1095,387.5C 1108.94,320.243 1146.77,271.743 1208.5,242C 1232.89,231.403 1258.22,225.236 1284.5,223.5 Z M 1287.5,304.5 C 1341.98,304.507 1379.81,329.507 1401,379.5C 1417.39,428.176 1409.72,472.509 1378,512.5C 1342.58,548.252 1301.08,557.752 1253.5,541C 1215.4,523.341 1192.24,493.841 1184,452.5C 1175.77,404.866 1188.93,364.366 1223.5,331C 1242.24,315.81 1263.58,306.977 1287.5,304.5 Z"/></g>
<g><path style="opacity:0.997" fill="#4285f4" d="M 1721.5,223.5 C 1767.48,221.594 1806.48,236.927 1838.5,269.5C 1839.5,258.52 1839.83,247.52 1839.5,236.5C 1868.17,236.5 1896.83,236.5 1925.5,236.5C 1925.96,367.176 1925.46,497.843 1924,628.5C 1921.68,672.482 1907.68,712.148 1882,747.5C 1849.44,785.7 1807.94,806.867 1757.5,811C 1673.81,818.734 1609.31,787.567 1564,717.5C 1559.31,709.446 1555.14,701.112 1551.5,692.5C 1576.94,680.844 1602.77,669.844 1629,659.5C 1660.77,722.794 1710.6,743.961 1778.5,723C 1807.64,710.234 1826.14,688.4 1834,657.5C 1835.76,650.921 1837.1,644.254 1838,637.5C 1839.34,619.863 1839.84,602.196 1839.5,584.5C 1796.6,625.73 1745.93,639.23 1687.5,625C 1613.97,603.809 1565.81,556.642 1543,483.5C 1523.45,400.851 1544.28,330.351 1605.5,272C 1638.9,243.254 1677.57,227.087 1721.5,223.5 Z M 1730.5,304.5 C 1785.02,305.502 1821.18,331.835 1839,383.5C 1850.73,422.71 1847.06,460.377 1828,496.5C 1801.7,537.897 1764.2,554.73 1715.5,547C 1667.77,533.264 1638.6,502.097 1628,453.5C 1620.8,411.635 1630.47,374.301 1657,341.5C 1676.91,319.96 1701.41,307.627 1730.5,304.5 Z"/></g>
<g><path style="opacity:0.991" fill="#ea4234" d="M 2298.5,223.5 C 2370.61,222.13 2425.77,251.797 2464,312.5C 2475.59,332.84 2485.42,354.007 2493.5,376C 2403.17,413.833 2312.83,451.667 2222.5,489.5C 2247.64,535.236 2286.3,554.736 2338.5,548C 2360.26,544.617 2379.26,535.617 2395.5,521C 2404.11,512.068 2412.27,502.901 2420,493.5C 2443.43,508.593 2466.6,524.093 2489.5,540C 2442,606.406 2377.34,636.072 2295.5,629C 2209.39,616.549 2152.89,569.049 2126,486.5C 2111.07,428.898 2117.07,373.565 2144,320.5C 2178.9,261.954 2230.4,229.62 2298.5,223.5 Z M 2301.5,303.5 C 2332.6,300.252 2358.77,309.919 2380,332.5C 2382.88,336.418 2385.38,340.585 2387.5,345C 2327.83,369.833 2268.17,394.667 2208.5,419.5C 2207.66,367.51 2231,331.01 2278.5,310C 2286.16,307.338 2293.83,305.172 2301.5,303.5 Z"/></g>
</svg>
