<?xml version="1.0" encoding="UTF-8"?>
<!DOCTYPE svg PUBLIC "-//W3C//DTD SVG 1.1//EN" "http://www.w3.org/Graphics/SVG/1.1/DTD/svg11.dtd">
<svg width="941" height="360" viewBox="0 0 941 360" fill="none"
  xmlns="http://www.w3.org/2000/svg">
  <g clip-path="url(#clip0_913_345)">
    <path opacity="0.997" fill-rule="evenodd" clip-rule="evenodd" d="M297.746 105.81C300.048 105.81 302.35 105.81 304.652 105.81C318.595 106.664 330.53 111.961 340.457 121.702C336.784 125.432 333.059 129.095 329.279 132.689C317.456 122.298 303.916 119.241 288.658 123.518C275.107 128.281 266.171 137.513 261.85 151.214C257.922 166.508 261.133 180.069 271.483 191.896C281.856 202.171 294.306 206.197 308.832 203.973C318.201 202.41 325.926 198.021 332.006 190.806C335.549 185.695 337.7 180.035 338.458 173.825C326.099 173.734 313.74 173.704 301.381 173.734C301.381 168.528 301.381 163.322 301.381 158.115C318.889 158.115 336.398 158.115 353.907 158.115C355.745 169.998 354.261 181.44 349.454 192.441C342.6 205.582 332.028 214.209 317.738 218.321C299.457 222.934 282.554 219.968 267.03 209.422C250.14 196.701 242.173 179.72 243.13 158.479C245.522 138.278 255.488 123.113 273.028 112.984C280.78 108.837 289.019 106.446 297.746 105.81Z" fill="#4285F4"/>
    <path fill-rule="evenodd" clip-rule="evenodd" d="M603.449 110.169C608.902 110.169 614.354 110.169 619.807 110.169C619.807 146.129 619.807 182.089 619.807 218.048C614.354 218.048 608.902 218.048 603.449 218.048C603.449 182.089 603.449 146.129 603.449 110.169Z" fill="#34A752"/>
    <path opacity="0.992" fill-rule="evenodd" clip-rule="evenodd" d="M395.346 146.492C409.775 146.179 421.013 151.93 429.061 163.746C435.215 174.786 436.064 186.227 431.605 198.071C426.202 209.944 417.084 217.178 404.252 219.774C390.72 221.905 379.179 218.122 369.628 208.423C361.737 199.106 358.829 188.391 360.904 176.277C363.437 164.062 370.314 155.254 381.533 149.852C385.965 147.927 390.57 146.807 395.346 146.492ZM395.891 161.203C405.793 161.204 412.67 165.745 416.52 174.824C419.498 183.664 418.105 191.716 412.34 198.979C405.902 205.472 398.359 207.197 389.712 204.155C382.787 200.948 378.577 195.59 377.08 188.082C375.584 179.431 377.977 172.075 384.259 166.016C387.666 163.257 391.543 161.653 395.891 161.203Z" fill="#EA4234"/>
    <path opacity="0.996" fill-rule="evenodd" clip-rule="evenodd" d="M476.043 146.492C490.472 146.179 501.71 151.93 509.758 163.746C515.912 174.786 516.761 186.227 512.303 198.071C506.899 209.944 497.782 217.178 484.949 219.774C471.418 221.905 459.877 218.122 450.325 208.423C442.434 199.106 439.526 188.391 441.601 176.277C444.135 164.062 451.011 155.254 462.23 149.852C466.663 147.927 471.267 146.807 476.043 146.492ZM476.588 161.203C486.49 161.204 493.366 165.745 497.217 174.824C500.196 183.664 498.802 191.716 493.037 198.979C486.599 205.472 479.057 207.197 470.409 204.155C463.484 200.948 459.275 195.59 457.777 188.082C456.281 179.431 458.673 172.075 464.956 166.016C468.362 163.257 472.241 161.653 476.588 161.203Z" fill="#FBBC04"/>
    <path opacity="0.997" fill-rule="evenodd" clip-rule="evenodd" d="M555.467 146.492C563.824 146.146 570.912 148.931 576.732 154.846C576.914 152.852 576.974 150.854 576.914 148.853C582.124 148.853 587.333 148.853 592.544 148.853C592.628 172.586 592.537 196.317 592.272 220.046C591.85 228.034 589.305 235.238 584.638 241.658C578.72 248.596 571.178 252.44 562.01 253.191C546.799 254.595 535.076 248.935 526.841 236.21C525.989 234.747 525.231 233.234 524.569 231.669C529.193 229.553 533.888 227.555 538.655 225.676C544.429 237.171 553.486 241.016 565.827 237.209C571.123 234.89 574.485 230.925 575.914 225.313C576.234 224.118 576.477 222.907 576.641 221.681C576.885 218.477 576.975 215.269 576.914 212.055C569.117 219.543 559.907 221.995 549.288 219.41C535.923 215.562 527.17 206.996 523.025 193.712C519.471 178.702 523.257 165.898 534.384 155.3C540.454 150.08 547.483 147.144 555.467 146.492ZM557.103 161.203C567.012 161.385 573.584 166.167 576.823 175.55C578.955 182.672 578.288 189.512 574.824 196.073C570.043 203.591 563.228 206.648 554.377 205.244C545.702 202.75 540.4 197.089 538.473 188.263C537.165 180.66 538.922 173.88 543.744 167.923C547.363 164.011 551.816 161.771 557.103 161.203Z" fill="#4285F4"/>
    <path opacity="0.991" fill-rule="evenodd" clip-rule="evenodd" d="M660.339 146.492C673.445 146.243 683.47 151.631 690.419 162.656C692.525 166.35 694.312 170.194 695.78 174.188C679.363 181.059 662.943 187.931 646.526 194.802C651.095 203.108 658.122 206.649 667.609 205.426C671.564 204.812 675.017 203.177 677.969 200.523C679.534 198.9 681.017 197.235 682.422 195.528C686.68 198.269 690.891 201.084 695.053 203.973C686.42 216.034 674.668 221.421 659.794 220.137C644.143 217.876 633.874 209.249 628.987 194.257C626.273 183.795 627.364 173.746 632.258 164.109C638.602 153.476 647.962 147.604 660.339 146.492ZM660.884 161.021C666.537 160.431 671.293 162.187 675.152 166.288C675.675 167 676.129 167.756 676.515 168.558C665.67 173.068 654.826 177.579 643.981 182.089C643.829 172.646 648.071 166.018 656.704 162.202C658.096 161.718 659.49 161.325 660.884 161.021Z" fill="#EA4234"/>
  </g>
  <defs>
    <clipPath id="clip0_913_345">
      <rect width="455.831" height="148.198" fill="white" transform="translate(242.584 105.901)"/>
    </clipPath>
  </defs>
</svg>
