<svg width="941" height="339" viewBox="0 0 941 339" fill="none" xmlns="http://www.w3.org/2000/svg">
<path fill-rule="evenodd" clip-rule="evenodd" d="M336.4 156.2C335.6 159.2 334 161.4 331.7 162.8C329.4 164.2 326.1 164.9 321.9 164.9H308.5L313.2 147.4H326.6C330.8 147.4 333.7 148.1 335.3 149.5C336.8 151 337.2 153.2 336.4 156.2ZM350.3 155.9C352 149.6 351.3 144.7 348.2 141.3C345.1 137.9 339.6 136.2 331.9 136.2H301.9L283.9 203.2H298.5L305.7 176.2H315.2C317.3 176.2 319 176.5 320.2 177.2C321.4 177.9 322.2 179.1 322.4 180.9L325 203.2H340.5L338 182.4C337.5 177.8 335.4 175 331.6 174.2C336.4 172.8 340.4 170.5 343.6 167.3C346.9 164.1 349.1 160.3 350.3 155.9Z" fill="#0F53A5"/>
<path fill-rule="evenodd" clip-rule="evenodd" d="M385.5 179.2C384.3 183.7 382.4 187.2 379.9 189.6C377.4 192 374.4 193.2 370.8 193.2C367.2 193.2 364.8 192 363.5 189.7C362.2 187.3 362.2 183.9 363.4 179.5C364.6 175 366.5 171.6 369.1 169C371.7 166.5 374.8 165.2 378.3 165.2C381.8 165.2 384.2 166.4 385.4 168.8C386.7 171.2 386.7 174.7 385.5 179.2ZM391.9 155.5L390.1 162.3C389.3 159.9 387.8 157.9 385.5 156.5C383.2 155.1 380.5 154.3 377.1 154.3C373 154.3 369.1 155.4 365.3 157.5C361.5 159.6 358.2 162.6 355.4 166.4C352.6 170.2 350.5 174.6 349.2 179.5C347.9 184.4 347.6 188.7 348.4 192.4C349.2 196.1 350.9 199 353.5 201C356.1 203 359.5 204 363.7 204C367 204 370.2 203.3 373.2 201.9C376.2 200.5 378.8 198.6 380.9 196.2L379 203.3H393L405.8 155.6L391.9 155.5Z" fill="#115BA5"/>
<path fill-rule="evenodd" clip-rule="evenodd" d="M456.3 155.5H415.6L412.7 166.1H436.4L405.1 193.2L402.4 203.2H444.5L447.3 192.6H421.9L453.8 165.1L456.3 155.5Z" fill="#0F53A5"/>
<path fill-rule="evenodd" clip-rule="evenodd" d="M492.2 179.1C490.9 183.8 489.1 187.3 486.6 189.6C484.1 191.9 481.1 193.1 477.6 193.1C470.3 193.1 467.8 188.4 470.3 179.1C471.5 174.5 473.4 171 475.9 168.6C478.4 166.2 481.5 165.1 485 165.1C488.5 165.1 490.9 166.3 492.1 168.6C493.5 171 493.5 174.5 492.2 179.1ZM500.4 157.3C497.2 155.3 493 154.3 488 154.3C482.9 154.3 478.2 155.3 473.9 157.3C469.6 159.3 465.9 162.2 462.8 166C459.7 169.8 457.6 174.2 456.2 179.2C454.9 184.2 454.7 188.6 455.7 192.4C456.7 196.2 458.9 199.1 462.1 201.1C465.4 203.1 469.5 204.1 474.6 204.1C479.6 204.1 484.3 203.1 488.6 201.1C492.9 199.1 496.6 196.2 499.6 192.4C502.6 188.6 504.8 184.2 506.2 179.2C507.5 174.2 507.7 169.8 506.7 166C505.8 162.2 503.7 159.3 500.4 157.3Z" fill="#0F53A5"/>
<path fill-rule="evenodd" clip-rule="evenodd" d="M647.2 179.2C646 183.7 644.1 187.2 641.6 189.6C639.1 192 636.1 193.2 632.5 193.2C628.9 193.2 626.5 192 625.2 189.7C623.9 187.3 623.9 183.9 625.1 179.5C626.3 175 628.2 171.6 630.8 169C633.4 166.5 636.5 165.2 640 165.2C643.5 165.2 645.9 166.4 647.1 168.8C648.4 171.2 648.4 174.7 647.2 179.2ZM653.6 155.5L651.8 162.3C651 159.9 649.5 157.9 647.2 156.5C644.9 155.1 642.2 154.3 638.8 154.3C634.7 154.3 630.8 155.4 627 157.5C623.2 159.6 619.9 162.6 617.1 166.4C614.3 170.2 612.2 174.6 610.9 179.5C609.6 184.4 609.3 188.7 610.1 192.4C610.9 196.1 612.6 199 615.2 201C617.8 203 621.2 204 625.4 204C628.7 204 631.9 203.3 634.9 201.9C637.9 200.5 640.5 198.6 642.6 196.2L640.7 203.3H654.7L667.5 155.6L653.6 155.5Z" fill="#0F53A5"/>
<path fill-rule="evenodd" clip-rule="evenodd" d="M550.5 168.3L554.1 155.3C552.9 154.7 551.3 154.4 549.3 154.4C546.1 154.4 543 155.2 540 156.8C537.4 158.2 535.3 160.1 533.4 162.5L535.3 155.5H531.2H521.2L508.3 203.2H522.5L529.2 178.2C530.2 174.6 531.9 171.7 534.4 169.7C536.9 167.7 540.1 166.6 543.8 166.6C546.3 166.7 548.4 167.2 550.5 168.3Z" fill="#0F53A5"/>
<path fill-rule="evenodd" clip-rule="evenodd" d="M590.1 179.4C588.9 183.9 587 187.3 584.5 189.6C582 192 579 193.1 575.5 193.1C572 193.1 569.6 191.9 568.3 189.5C567 187.1 567 183.7 568.2 179.1C569.4 174.6 571.3 171.1 573.9 168.7C576.5 166.3 579.5 165.1 583 165.1C586.5 165.1 588.8 166.4 590 168.9C591.2 171.5 591.3 174.9 590.1 179.4ZM600 157.4C597.4 155.3 594 154.2 589.9 154.2C586.3 154.2 582.9 155 579.7 156.6C576.5 158.2 573.8 160.5 571.8 163.3V163L574.2 155.4H571.5H560.4L556.9 168.6C556.9 168.8 556.8 168.9 556.8 169.1L542.2 223.5H556.4L563.7 196.1C564.4 198.5 565.9 200.5 568.2 201.8C570.5 203.2 573.3 203.9 576.6 203.9C580.7 203.9 584.7 202.9 588.4 200.9C592.1 198.9 595.4 196 598.1 192.3C600.9 188.6 602.9 184.2 604.2 179.4C605.5 174.5 605.8 170.1 605 166.3C604.4 162.5 602.6 159.5 600 157.4Z" fill="#0F53A5"/>
<path fill-rule="evenodd" clip-rule="evenodd" d="M726.5 155.5H717.9C717.6 155.5 717.4 155.5 717.1 155.5H712.6L710.3 158.7C710.1 158.9 709.9 159.2 709.7 159.5L709.5 159.9L691.3 185.2L687.5 155.5H672.6L680.1 200.5L663.5 223.6H664H672.5H678.4L682.4 217.9C682.5 217.7 682.6 217.6 682.7 217.4L687.4 210.7L687.5 210.5L708.6 180.6L726.5 155.5Z" fill="#0F53A5"/>
<path fill-rule="evenodd" clip-rule="evenodd" d="M247.4 143.9L243.2 159.5L267.5 143.8L251.6 203.2H267.8L291.3 115.4L247.4 143.9Z" fill="#3395FF"/>
<path fill-rule="evenodd" clip-rule="evenodd" d="M221.2 178.2L214.5 203.2H247.7L261.3 152.4C261.2 152.4 221.2 178.2 221.2 178.2Z" fill="#0F53A5"/>
</svg>
