<svg width="941" height="360" viewBox="0 0 941 360" fill="none" xmlns="http://www.w3.org/2000/svg">
<path d="M726.2 135.5C733.2 175.5 624.4 227.8 483.1 252.4C341.9 277 221.8 264.5 214.8 224.5C207.8 184.5 316.7 132.2 457.9 107.6C599.1 82.9999 719.2 95.4999 726.2 135.5Z" fill="#034EA2"/>
<path d="M591.9 195.4L591.2 153.8H604.3V206.2H585.4L572.4 163.2H572.1L572.8 206.2H559.8V153.8H579.4L591.6 195.4H591.9Z" fill="white"/>
<path d="M353.701 158.7L346.401 206.8H332.101L341.901 153.8H365.501L375.201 206.8H361.001L354.001 158.7H353.701Z" fill="white"/>
<path d="M408.5 206.8L399.7 159.2H399.4L399.1 206.8H385.8L387 153.8H408.6L415.1 194.3H415.4L421.9 153.8H443.5L444.7 206.8H431.4L431.1 159.2H430.8L422 206.8H408.5Z" fill="white"/>
<path d="M309.8 191.8C310.2 193.1 310.3 194.4 309.9 195.7C309.5 197.5 308.2 199.3 304.7 199.3C301.4 199.3 299.4 197.4 299.4 194.5V189.4H285.2V193.5C285.2 205.3 294.5 208.9 304.4 208.9C314 208.9 321.9 205.6 323.1 196.8C323.6 193.9 323.5 191 323 188.1C320.8 177 300.7 173.7 299.2 167.5C299 166.6 299 165.6 299.1 164.7C299.5 163 300.6 161.2 303.9 161.2C307 161.2 308.8 163.1 308.8 166V169.3H322V165.6C322 154.1 311.7 152.3 304.2 152.3C294.8 152.3 287.1 155.4 285.7 164C285.3 166.4 285.3 168.8 285.8 171.2C288.3 181.8 307.1 185 309.8 191.8Z" fill="white"/>
<path d="M482.001 191.7C482.401 193 482.501 194.3 482.101 195.6C481.701 197.4 480.501 199.1 477.001 199.1C473.701 199.1 471.701 197.2 471.701 194.4V189.3H457.601V193.3C457.601 205 466.801 208.5 476.701 208.5C486.201 208.5 494.001 205.3 495.201 196.5C495.701 193.7 495.701 190.7 495.201 187.9C493.001 176.9 473.101 173.6 471.601 167.5C471.401 166.6 471.401 165.7 471.501 164.8C471.901 163.1 473.001 161.3 476.301 161.3C479.401 161.3 481.101 163.2 481.101 166V169.2H494.201V165.5C494.201 154.1 483.901 152.3 476.501 152.3C467.201 152.3 459.601 155.4 458.201 163.9C457.801 166.2 457.801 168.6 458.301 171C460.701 181.8 479.301 185 482.001 191.7Z" fill="white"/>
<path d="M526.4 198.8C530.1 198.8 531.2 196.3 531.5 195C531.6 194.3 531.6 193.7 531.6 193V153.8H545V191.8C545 192.8 544.9 194.8 544.9 195.3C544 205.2 536.1 208.4 526.4 208.4C516.7 208.4 508.8 205.2 507.9 195.3C507.8 194.8 507.8 192.8 507.8 191.8V153.8H521.2V193C521.2 193.7 521.2 194.4 521.3 195C521.6 196.3 522.7 198.8 526.4 198.8Z" fill="white"/>
<path d="M636.9 198.3C640.7 198.3 642.1 195.9 642.3 194.5C642.4 193.8 642.4 193.2 642.4 192.5V184.8H637V177H655.8V191.2C655.8 192.2 655.8 192.9 655.6 194.7C654.7 204.3 646.4 207.8 637 207.8C627.6 207.8 619.3 204.4 618.4 194.7C618.2 192.9 618.2 192.2 618.2 191.2V168.9C618.2 168 618.3 166.3 618.4 165.4C619.6 155.5 627.6 152.3 637 152.3C646.4 152.3 654.6 155.5 655.6 165.4C655.7 166.6 655.7 167.7 655.7 168.9V170.7H642.3V167.7C642.3 167 642.2 166.4 642.1 165.7C641.9 164.5 640.9 161.8 636.8 161.8C632.9 161.8 631.8 164.3 631.5 165.7C631.3 166.5 631.3 167.4 631.3 168.2V192.4C631.3 193.1 631.3 193.7 631.4 194.4C631.7 195.9 633 198.3 636.9 198.3Z" fill="white"/>
</svg>
