<svg width="941" height="360" viewBox="0 0 941 360" fill="none" xmlns="http://www.w3.org/2000/svg">
<path d="M518.299 239.4C498.299 239.4 480.699 225.2 480.699 199.8V147.5H501.599V201.3C501.599 213 507.599 220.7 518.499 220.7C529.399 220.7 535.399 213 535.399 201.3V147.5H556.299V199.8C556.199 225.2 538.399 239.4 518.299 239.4Z" fill="#EFEFEF"/>
<path d="M336.1 120.6H315.6V145.3C326.3 141.4 334.3 132.1 336.1 120.6Z" fill="#EFEFEF"/>
<path d="M315.699 149.5V237.3H336.599V178.1C335.999 165 327.599 153.8 315.699 149.5Z" fill="#EFEFEF"/>
<path d="M387.899 147.4C370.199 147.4 355.699 161.8 355.699 179.6V237.2H376.199V182.3C376.199 173.4 383.399 166.1 392.399 166.1H399.799V147.4H387.899Z" fill="#EFEFEF"/>
<path d="M614.2 183.4L600 180.1C599.3 180 598.7 179.8 598.1 179.5C594 178.1 591.1 175.4 591.1 171.5C591.1 166.9 595.7 163.1 603.4 163.1C613.6 163.1 620.6 169 624.6 174.5L637.6 160.2C629.3 151.6 619 145.2 604 145.2C585.1 145.2 571.1 155.4 571.1 171.9C571.1 187.5 581.5 196.1 598.4 200.4L610.3 203.4C611.7 203.8 613 204.3 614.2 204.7C619.1 206.7 620.8 209.1 620.8 212.3C620.8 216.7 617.7 221.5 606.8 221.5C596.1 221.5 587.5 217.1 580.8 208.3L567.5 221.9C574.5 230.8 586.1 239.3 605 239.3C628.6 239.3 640.8 227 640.8 211.4C641 195.7 629.6 187 614.2 183.4Z" fill="#EFEFEF"/>
<path d="M467.1 218.5C466.5 218.5 462.2 218.9 460.4 218.9C448.7 218.9 445.7 215.6 445.7 202.6V166.1H445.8H467.3V147.4H445.8H445.7V120.7H425.1V147.4H411.9V166.1H425.1V205.6C425.1 228.3 432.7 237.5 456.1 237.5C462.7 237.5 466.7 237.2 467.3 237.1V218.5H467.1Z" fill="#EFEFEF"/>
<path d="M301.2 147.4L269.2 237.3H246.5L214.6 147.4H236L257.9 213.3L279.8 147.4H301.2Z" fill="#EFEFEF"/>
<path d="M684.1 221.8C674.2 221.8 669.7 216.7 669.7 210.6C669.7 202.7 676.6 198.6 686.7 198.6C694.7 198.6 701 200.3 706.7 202.5V213.5C701.7 218.2 692.7 221.8 684.1 221.8ZM705.8 230.3C706.1 230 706.4 229.9 706.7 229.6V237.3H726.4V179.1C726.4 156.2 710.4 145.2 688.1 145.2C674.4 145.2 659.6 151.2 652.5 163.9L666.5 177.1C672.2 166.8 680.9 164.1 688 163.9C699.2 163.8 706.7 171.2 706.7 180.3V185.2C706.3 185.1 706 184.9 705.6 184.8C705 184.7 704.3 184.4 703.5 184.1C703.4 184.1 703.1 184 702.9 184C702.8 184 702.6 184 702.5 183.9C702.2 183.9 702.1 183.8 701.8 183.8C701.7 183.8 701.4 183.7 701.2 183.7C701.1 183.7 701.1 183.7 700.9 183.6C697 182.6 692 181.7 687.5 181.7C666.8 181.7 650 191.3 650 211.7C650 229 663.9 239 680.3 239C691.7 239.4 700.1 235.3 705.8 230.3Z" fill="#EFEFEF"/>
</svg>
