<svg width="941" height="360" viewBox="0 0 941 360" fill="none" xmlns="http://www.w3.org/2000/svg">
<path d="M462.009 197.56H435.079L428.319 217.94C428.219 218.55 427.809 218.86 427.089 218.86H414.909C414.089 218.86 413.889 218.45 414.089 217.73L438.259 148.71C438.769 147.58 439.179 145.33 439.279 142.16C439.279 141.65 439.589 141.44 440.099 141.44H456.789C457.199 141.44 457.509 141.64 457.709 142.05L484.639 217.83C484.839 218.55 484.639 218.85 483.919 218.85H470.199C469.689 218.85 469.279 218.54 469.069 218.03L462.009 197.56ZM438.049 186.3H458.939C458.629 185.17 456.989 180.26 454.019 171.55C451.149 162.74 449.209 156.7 448.289 153.43H448.189C447.369 157.42 443.989 168.38 438.049 186.3Z" fill="#E63523"/>
<path d="M517.409 219.99C508.399 219.99 501.229 217.53 495.699 212.72C490.269 207.8 487.609 200.53 487.609 191.01C487.609 182.41 490.479 175.34 496.309 169.71C502.149 164.08 510.029 161.21 519.859 161.21C522.519 161.21 524.779 161.41 526.409 161.93V135.92C526.409 135.41 526.719 135.1 527.229 135.1H540.439C540.949 135.1 541.159 135.3 541.159 135.82V205.86C541.159 207.19 541.259 209.85 541.469 213.74C541.569 214.25 541.269 214.66 540.749 214.76C533.489 218.25 525.699 219.99 517.409 219.99ZM526.319 207.9V172.67C524.579 171.85 522.329 171.44 519.559 171.44C514.439 171.44 510.339 173.08 507.269 176.46C504.199 179.74 502.659 184.34 502.659 190.39C502.659 196.74 504.199 201.45 507.269 204.52C510.339 207.59 514.229 209.13 519.049 209.13C522.219 209.24 524.579 208.83 526.319 207.9Z" fill="#E63523"/>
<path d="M578.54 161.21C587.35 161.21 594.31 163.97 599.33 169.5C604.35 175.03 606.91 181.99 606.91 190.39C606.91 199.5 604.25 206.77 599.03 212.1C593.81 217.32 586.84 219.98 578.35 219.98C568.93 219.98 561.86 217.11 556.95 211.48C552.03 205.75 549.68 198.78 549.68 190.59C549.68 181.99 552.34 174.92 557.56 169.39C562.87 163.97 569.84 161.21 578.54 161.21ZM577.93 171.35C573.94 171.35 570.66 173.09 568.2 176.47C565.74 179.85 564.51 184.46 564.51 190.4C564.51 196.34 565.74 201.05 568.2 204.53C570.66 208.01 574.14 209.75 578.54 209.75C582.33 209.75 585.5 208.11 588.06 204.94C590.62 201.66 591.85 196.85 591.85 190.5C591.85 184.66 590.72 180.06 588.37 176.57C586.12 173.09 582.64 171.35 577.93 171.35Z" fill="#E63523"/>
<path d="M616.12 135.1H629.12C629.73 135.1 630.04 135.41 630.04 136.02V163.36C633.83 161.93 637.82 161.31 642.12 161.31C650.21 161.31 656.66 163.87 661.47 169.09C666.39 174.21 668.74 180.87 668.74 188.96C668.74 198.69 665.77 206.27 659.73 211.9C653.69 217.43 646.52 220.19 638.12 220.19C629.42 220.19 622.04 218.76 615.9 215.79C615.39 215.59 615.18 215.18 615.18 214.66V135.91C615.3 135.3 615.51 135.1 616.12 135.1ZM653.7 190.29C653.7 184.35 652.37 179.85 649.6 176.77C646.94 173.7 643.35 172.16 638.75 172.16C635.37 172.16 632.4 172.77 629.94 174V207.89C632.19 209.12 635.16 209.73 638.85 209.73C642.95 209.73 646.43 208.09 649.29 204.71C652.27 201.35 653.7 196.54 653.7 190.29Z" fill="#E63523"/>
<path d="M713.201 193.26H689.851C689.951 197.97 691.391 201.76 694.251 204.63C697.221 207.39 701.421 208.83 707.051 208.83C712.581 208.83 717.391 207.91 721.491 205.96C722.001 205.76 722.211 205.96 722.211 206.57V215.27C722.211 215.99 722.011 216.4 721.491 216.7C716.571 218.95 710.741 220.08 703.981 220.08C698.761 220.08 694.251 219.26 690.361 217.62C686.471 215.98 683.501 213.83 681.351 210.96C679.201 208.2 677.561 205.12 676.431 201.85C675.411 198.47 674.891 194.99 674.891 191.2C674.891 182.8 677.351 175.64 682.161 169.9C687.081 164.06 693.831 161.2 702.331 161.2C710.421 161.2 716.461 163.56 720.451 168.37C724.441 173.18 726.491 178.81 726.491 185.27C726.491 187.63 726.291 189.88 725.981 191.93C725.881 192.44 725.571 192.75 725.061 192.85C722.931 193.16 718.931 193.26 713.201 193.26ZM689.751 184.25H706.241C709.931 184.25 711.971 184.15 712.381 184.05C712.481 183.74 712.481 183.23 712.481 182.41C712.481 179.44 711.661 176.88 709.921 174.53C708.281 172.17 705.621 171.05 701.831 171.05C698.141 171.05 695.281 172.28 693.231 174.84C691.281 177.29 690.161 180.46 689.751 184.25Z" fill="#E63523"/>
<path d="M311.18 112.16H367.8V247.84L311.18 112.16Z" fill="#E63523"/>
<path d="M271.24 112.16H214.51V247.84L271.24 112.16Z" fill="#E63523"/>
<path d="M291.21 162.13L327.25 247.84H303.6L292.85 220.5H266.43L291.21 162.13Z" fill="#E63523"/>
</svg>
