<?xml version="1.0" encoding="utf-8"?>
<!-- Generator: Adobe Illustrator 24.3.0, SVG Export Plug-In . SVG Version: 6.00 Build 0)  -->
<svg version="1.1" width="512" height="512" id="Layer_1" xmlns="http://www.w3.org/2000/svg" xmlns:xlink="http://www.w3.org/1999/xlink" x="0px" y="0px"
	 viewBox="0 0 512 512" style="enable-background:new 0 0 512 512;" xml:space="preserve">
<style type="text/css">
	.st0{fill:#E63523;}
</style>
<g>
	<path class="st0" d="M247.5,273.61h-26.93l-6.76,20.38c-0.1,0.61-0.51,0.92-1.23,0.92H200.4c-0.82,0-1.02-0.41-0.82-1.13
		l24.17-69.02c0.51-1.13,0.92-3.38,1.02-6.55c0-0.51,0.31-0.72,0.82-0.72h16.69c0.41,0,0.72,0.2,0.92,0.61l26.93,75.78
		c0.2,0.72,0,1.02-0.72,1.02h-13.72c-0.51,0-0.92-0.31-1.13-0.82L247.5,273.61z M223.54,262.35h20.89
		c-0.31-1.13-1.95-6.04-4.92-14.75c-2.87-8.81-4.81-14.85-5.73-18.12h-0.1C232.86,233.47,229.48,244.43,223.54,262.35z"/>
	<path class="st0" d="M302.9,296.04c-9.01,0-16.18-2.46-21.71-7.27c-5.43-4.92-8.09-12.19-8.09-21.71c0-8.6,2.87-15.67,8.7-21.3
		c5.84-5.63,13.72-8.5,23.55-8.5c2.66,0,4.92,0.2,6.55,0.72v-26.01c0-0.51,0.31-0.82,0.82-0.82h13.21c0.51,0,0.72,0.2,0.72,0.72
		v70.04c0,1.33,0.1,3.99,0.31,7.88c0.1,0.51-0.2,0.92-0.72,1.02C318.98,294.3,311.19,296.04,302.9,296.04z M311.81,283.95v-35.23
		c-1.74-0.82-3.99-1.23-6.76-1.23c-5.12,0-9.22,1.64-12.29,5.02c-3.07,3.28-4.61,7.88-4.61,13.93c0,6.35,1.54,11.06,4.61,14.13
		c3.07,3.07,6.96,4.61,11.78,4.61C307.71,285.29,310.07,284.88,311.81,283.95z"/>
	<path class="st0" d="M364.03,237.26c8.81,0,15.77,2.76,20.79,8.29c5.02,5.53,7.58,12.49,7.58,20.89c0,9.11-2.66,16.38-7.88,21.71
		c-5.22,5.22-12.19,7.88-20.68,7.88c-9.42,0-16.49-2.87-21.4-8.5c-4.92-5.73-7.27-12.7-7.27-20.89c0-8.6,2.66-15.67,7.88-21.2
		C348.36,240.02,355.33,237.26,364.03,237.26z M363.42,247.4c-3.99,0-7.27,1.74-9.73,5.12c-2.46,3.38-3.69,7.99-3.69,13.93
		s1.23,10.65,3.69,14.13c2.46,3.48,5.94,5.22,10.34,5.22c3.79,0,6.96-1.64,9.52-4.81c2.56-3.28,3.79-8.09,3.79-14.44
		c0-5.84-1.13-10.44-3.48-13.93C371.61,249.14,368.13,247.4,363.42,247.4z"/>
	<path class="st0" d="M401.61,211.15h13c0.61,0,0.92,0.31,0.92,0.92v27.34c3.79-1.43,7.78-2.05,12.08-2.05
		c8.09,0,14.54,2.56,19.35,7.78c4.92,5.12,7.27,11.78,7.27,19.87c0,9.73-2.97,17.31-9.01,22.94c-6.04,5.53-13.21,8.29-21.61,8.29
		c-8.7,0-16.08-1.43-22.22-4.4c-0.51-0.2-0.72-0.61-0.72-1.13v-78.75C400.79,211.35,401,211.15,401.61,211.15z M439.19,266.34
		c0-5.94-1.33-10.44-4.1-13.52c-2.66-3.07-6.25-4.61-10.85-4.61c-3.38,0-6.35,0.61-8.81,1.84v33.89c2.25,1.23,5.22,1.84,8.91,1.84
		c4.1,0,7.58-1.64,10.44-5.02C437.76,277.4,439.19,272.59,439.19,266.34z"/>
	<path class="st0" d="M498.69,269.31h-23.35c0.1,4.71,1.54,8.5,4.4,11.37c2.97,2.76,7.17,4.2,12.8,4.2c5.53,0,10.34-0.92,14.44-2.87
		c0.51-0.2,0.72,0,0.72,0.61v8.7c0,0.72-0.2,1.13-0.72,1.43c-4.92,2.25-10.75,3.38-17.51,3.38c-5.22,0-9.73-0.82-13.62-2.46
		c-3.89-1.64-6.86-3.79-9.01-6.66c-2.15-2.76-3.79-5.84-4.92-9.11c-1.02-3.38-1.54-6.86-1.54-10.65c0-8.4,2.46-15.56,7.27-21.3
		c4.92-5.84,11.67-8.7,20.17-8.7c8.09,0,14.13,2.36,18.12,7.17c3.99,4.81,6.04,10.44,6.04,16.9c0,2.36-0.2,4.61-0.51,6.66
		c-0.1,0.51-0.41,0.82-0.92,0.92C508.42,269.21,504.42,269.31,498.69,269.31z M475.24,260.3h16.49c3.69,0,5.73-0.1,6.14-0.2
		c0.1-0.31,0.1-0.82,0.1-1.64c0-2.97-0.82-5.53-2.56-7.88c-1.64-2.36-4.3-3.48-8.09-3.48c-3.69,0-6.55,1.23-8.6,3.79
		C476.77,253.34,475.65,256.51,475.24,260.3z"/>
	<polygon class="st0" points="96.67,188.21 153.29,188.21 153.29,323.89 	"/>
	<polygon class="st0" points="56.73,188.21 0,188.21 0,323.89 	"/>
	<polygon class="st0" points="76.7,238.18 112.74,323.89 89.09,323.89 78.34,296.55 51.92,296.55 	"/>
</g>
</svg>
