<?xml version="1.0" encoding="utf-8"?>
<!-- Generator: Adobe Illustrator 24.3.0, SVG Export Plug-In . SVG Version: 6.00 Build 0)  -->
<svg version="1.1" id="Layer_1" xmlns="http://www.w3.org/2000/svg" xmlns:xlink="http://www.w3.org/1999/xlink" x="0px" y="0px"
	 viewBox="0 0 512 512" style="enable-background:new 0 0 512 512;" xml:space="preserve">
<style type="text/css">
	.st0{fill:#FF9900;}
	.st1{fill:#221F1F;}
</style>
<g>
	<path class="st0" d="M317.5,299.47c-29.73,21.88-72.92,33.66-109.94,33.66c-52.03,0-98.87-19.21-134.35-51.33
		c-2.8-2.52-0.28-5.89,3.09-3.93c38.28,22.3,85.54,35.62,134.49,35.62c32.96,0,69.14-6.87,102.51-21.04
		C318.2,290.36,322.55,295.83,317.5,299.47"/>
	<path class="st0" d="M329.98,285.31c-3.79-4.91-25.1-2.24-34.78-1.12c-2.94,0.42-3.37-2.24-0.7-4.07
		c16.97-11.92,44.88-8.55,48.1-4.49c3.23,4.07-0.84,31.97-16.83,45.3c-2.38,2.1-4.77,0.98-3.65-1.82
		C325.64,310.27,333.77,290.22,329.98,285.31"/>
	<path class="st1" d="M295.91,195.7v-11.64c0-1.82,1.4-2.94,2.94-2.94h52.03c1.68,0,2.94,1.26,2.94,2.94v9.96
		c0,1.68-1.4,3.79-3.93,7.29l-26.93,38.56c9.96-0.28,20.61,1.26,29.73,6.31c2.1,1.12,2.66,2.8,2.8,4.49v12.34
		c0,1.68-1.82,3.65-3.79,2.66c-15.99-8.41-37.3-9.26-54.97,0.14c-1.82,0.98-3.65-0.98-3.65-2.66v-11.78c0-1.96,0-5.19,1.96-7.99
		l31.27-44.88h-27.21C297.17,198.64,295.91,197.52,295.91,195.7"/>
	<path class="st1" d="M105.89,268.34H90.04c-1.54-0.14-2.66-1.26-2.8-2.66v-81.34c0-1.68,1.4-2.94,3.09-2.94h14.72
		c1.54,0,2.8,1.26,2.8,2.66v10.66h0.28c3.79-10.24,11.08-15.01,20.9-15.01c9.96,0,16.13,4.77,20.61,15.01
		c3.79-10.24,12.48-15.01,21.88-15.01c6.59,0,13.88,2.8,18.37,8.83c5.05,6.87,3.93,16.83,3.93,25.52v51.33
		c0,1.68-1.4,2.94-3.09,2.94h-15.85c-1.54-0.14-2.8-1.4-2.8-2.94v-43.05c0-3.37,0.28-11.92-0.42-15.29
		c-1.12-5.47-4.77-7.01-9.26-7.01c-3.79,0-7.85,2.52-9.54,6.73c-1.68,4.07-1.4,10.94-1.4,15.57v43.05c0,1.68-1.4,2.94-3.09,2.94
		h-15.85c-1.54-0.14-2.8-1.4-2.8-2.94v-43.05c0-9.12,1.54-22.44-9.82-22.44s-10.94,13.04-10.94,22.44v43.05
		C108.97,266.94,107.57,268.34,105.89,268.34"/>
	<path class="st1" d="M398.7,179.71c23.56,0,36.18,20.19,36.18,45.86c0,24.82-14.02,44.45-36.18,44.45
		c-23.14,0-35.62-20.19-35.62-45.3C363.08,199.34,375.84,179.71,398.7,179.71 M398.84,196.26c-11.64,0-12.34,15.85-12.34,25.8
		c0,9.96-0.14,31.13,12.34,31.13c12.34,0,12.9-17.11,12.9-27.49c0-6.87-0.28-15.01-2.38-21.6
		C407.39,198.5,403.89,196.26,398.84,196.26"/>
	<path class="st1" d="M465.45,268.34h-15.71c-1.54-0.14-2.8-1.4-2.8-2.94v-81.34c0.14-1.54,1.4-2.66,3.09-2.66h14.72
		c1.4,0,2.52,0.98,2.8,2.24v12.48h0.28c4.49-11.08,10.66-16.41,21.6-16.41c7.15,0,14.02,2.52,18.51,9.54
		c4.21,6.45,4.21,17.39,4.21,25.24v51.19c-0.14,1.4-1.54,2.52-3.09,2.52h-16.13c-1.4-0.14-2.66-1.12-2.8-2.52V221.5
		c0-8.83,0.98-21.88-9.96-21.88c-3.79,0-7.43,2.52-9.12,6.45c-2.24,4.91-2.52,9.96-2.52,15.43v43.75
		C468.54,266.94,467.13,268.34,465.45,268.34"/>
	<path class="st1" d="M282.58,253.34c-2.94-4.07-6.03-7.29-6.03-14.72v-24.68c0-10.52,0.7-20.05-7.01-27.21
		c-6.03-5.89-16.13-7.85-23.84-7.85c-15.01,0-31.97,5.61-35.48,24.26c-0.42,1.96,1.12,3.09,2.38,3.37l15.29,1.68
		c1.4,0,2.52-1.4,2.8-2.94c1.26-6.45,6.73-9.54,12.76-9.54c3.23,0,7.01,1.26,8.83,4.07c2.24,3.23,1.96,7.71,1.96,11.5v2.1
		c-9.12,0.98-21.18,1.68-29.73,5.47c-9.96,4.35-16.83,13.04-16.83,25.94c0,16.41,10.38,24.68,23.7,24.68
		c11.22,0,17.39-2.66,26.08-11.5c2.8,4.21,3.79,6.17,9.12,10.52c1.12,0.56,2.66,0.56,3.79-0.42l0,0c3.23-2.8,8.98-7.85,12.2-10.52
		C283.85,256.56,283.57,254.74,282.58,253.34z M251.45,246.18c-2.52,4.49-6.59,7.15-10.94,7.15c-6.03,0-9.68-4.63-9.68-11.5
		c0-13.46,12.06-15.99,23.56-15.99v3.37l0,0C254.4,235.67,254.54,240.71,251.45,246.18z"/>
	<path class="st1" d="M74.9,253.34c-2.94-4.07-6.03-7.29-6.03-14.72v-24.68c0-10.52,0.7-20.05-7.01-27.21
		c-6.03-5.89-16.13-7.85-23.84-7.85c-15.01,0-31.83,5.61-35.48,24.26c-0.42,1.96,1.12,3.09,2.38,3.37l15.43,1.68
		c1.4,0,2.52-1.4,2.8-2.94c1.26-6.45,6.73-9.54,12.76-9.54c3.23,0,7.01,1.26,8.83,4.07c2.24,3.23,1.96,7.71,1.96,11.5v2.1
		c-9.12,0.98-21.18,1.68-29.73,5.47c-9.96,4.35-16.83,13.04-16.83,25.94c0,16.41,10.38,24.68,23.7,24.68
		c11.22,0,17.39-2.66,26.08-11.5c2.94,4.21,3.79,6.17,9.12,10.52c1.12,0.56,2.66,0.56,3.79-0.42l0,0c3.23-2.8,8.98-7.85,12.2-10.52
		C76.16,256.56,75.88,254.74,74.9,253.34z M43.76,246.18c-2.52,4.49-6.45,7.15-10.94,7.15c-6.03,0-9.68-4.63-9.68-11.5
		c0-13.46,12.06-15.99,23.56-15.99v3.37C46.71,235.67,46.85,240.71,43.76,246.18z"/>
</g>
</svg>
