<svg version="1.2" xmlns="http://www.w3.org/2000/svg" viewBox="0 0 832 286" width="832" height="286">
	<title>clicklabs-svg</title>
	<defs>
		<linearGradient id="g1" x1="47.9" y1="220.4" x2="231.5" y2="41.6" gradientUnits="userSpaceOnUse">
			<stop offset="0" stop-color="#27b7d1"/>
			<stop offset=".3" stop-color="#27b7d1"/>
			<stop offset=".6" stop-color="#8ebf4a"/>
			<stop offset="1" stop-color="#8ebf4a"/>
		</linearGradient>
		<linearGradient id="g2" x1="47.9" y1="220.4" x2="231.5" y2="41.6" gradientUnits="userSpaceOnUse">
			<stop offset="0" stop-color="#27b7d1"/>
			<stop offset=".3" stop-color="#27b7d1"/>
			<stop offset=".6" stop-color="#8ebf4a"/>
			<stop offset="1" stop-color="#8ebf4a"/>
		</linearGradient>
		<linearGradient id="g3" x1="47.9" y1="220.4" x2="231.5" y2="41.6" gradientUnits="userSpaceOnUse">
			<stop offset="0" stop-color="#27b7d1"/>
			<stop offset=".3" stop-color="#27b7d1"/>
			<stop offset=".6" stop-color="#8ebf4a"/>
			<stop offset="1" stop-color="#8ebf4a"/>
		</linearGradient>
		<linearGradient id="g4" x1="47.9" y1="220.4" x2="231.5" y2="41.6" gradientUnits="userSpaceOnUse">
			<stop offset="0" stop-color="#27b7d1"/>
			<stop offset=".3" stop-color="#27b7d1"/>
			<stop offset=".6" stop-color="#8ebf4a"/>
			<stop offset="1" stop-color="#8ebf4a"/>
		</linearGradient>
		<linearGradient id="g5" x1="47.9" y1="220.4" x2="231.5" y2="41.6" gradientUnits="userSpaceOnUse">
			<stop offset="0" stop-color="#27b7d1"/>
			<stop offset=".3" stop-color="#27b7d1"/>
			<stop offset=".6" stop-color="#8ebf4a"/>
			<stop offset="1" stop-color="#8ebf4a"/>
		</linearGradient>
	</defs>
	<style>
		.s0 { fill: url(#g1) } 
		.s1 { fill: url(#g2) } 
		.s2 { fill: url(#g3) } 
		.s3 { fill: url(#g4) } 
		.s4 { fill: url(#g5) } 
		.s5 { fill: #294035 } 
	</style>
	<g id="layer1">
		<g id="g435">
			<path id="path18" fill-rule="evenodd" class="s0" d="m72.8 240.8c-32.1-16.9-49.5-41.6-56.5-77.2-9.2-46.1 14.6-94 55.2-116.2 15.3-8.4 31.8-13.6 49.6-13.7q53.7-0.1 107.4-0.1c5.9 0 6.6 0.8 6.6 6.8 0 28.3 0 56.6-0.1 84.9 0 8 0.6 16 0.2 24-2.2 47.8-38.9 86.5-71.3 96.4-34.8 10.8-60.2 7-70.9 3.4-6.1-2.5-14.8-5.5-20.2-8.3zm1.4-7.9c20.1 11.3 41.7 15.8 64.5 12.5 52.1-7.4 92-52.7 88.6-110.8-0.9-15.6-0.3-31.3-0.3-46.9 0.1-13.5 0.2-26.9 0.2-40.4 0-4.1-2-5.6-5.9-5.5-6.8 0.2-13.7 0.1-20.5 0.1-24.6 0-49.3 0.2-73.9 0-29.9-0.1-55.5 9.8-76.1 31.6-22.9 24.1-32.3 53-27.4 85.7 4.9 32.2 22.2 56.6 50.8 73.7z"/>
			<path id="path40" fill-rule="evenodd" class="s1" d="m217.9 153.8c-2.6 19.8-9.8 37-22.7 51.8-9.8 11.3-21.7 19.6-35.6 25.1-35.3 14.3-75.6 5.7-102.1-21.7-34.7-35.8-34.9-93.6-0.4-129.4 18.5-19.2 41.2-29 67.9-29 27.1 0 54.3 0.4 81.4 2 8.2 0.5 9.2 1.5 9.6 9.4 1.6 26 2.1 51.9 2.6 77.9 0.1 4.5-0.4 9-0.7 13.9zm-152.3-71.4c-24.1 24.5-32.1 53.4-22.7 86.6 13.3 46.5 67.1 72.8 111.9 54.9 35-13.9 55.8-44.5 55.5-82.3-0.3-24.2-0.6-48.5-1.8-72.8-0.4-8-0.7-8.4-8.7-8.5-23.1-0.5-46.2-0.6-69.3-1.6-24.8-1.1-46.1 6.7-64.9 23.7z"/>
			<path id="path42" fill-rule="evenodd" class="s2" d="m201 129c-0.1 9.8 1.1 19.1-0.7 28.3-7.3 36.7-36.7 62.6-73.9 63.3-38 0.7-68.1-24.9-76.1-59.2-10.2-43.4 18.9-87.1 64.5-93.4 9.4-1.3 19-0.5 28.4-0.1 14.5 0.6 29 1.4 43.3 3.7 8.1 1.4 9.1 2.4 10.5 10.2 2.8 15.4 3.3 31 4 47.2zm-68.4-53.3c-7-0.8-13.9-0.2-20.8 1.1-36.7 6.7-61.6 42.6-54.7 79.2 5.9 31.2 32.4 55 63.2 56.6 32.4 1.8 61-18.4 70.4-49.4 3.2-10.6 2.8-21.3 2.2-32.2-0.8-15.2-1.2-30.5-3.2-45.7-0.6-4-2.3-5.7-6.3-6.2-16.6-2-33.2-2.5-50.8-3.4z"/>
			<path id="path44" fill-rule="evenodd" class="s3" d="m175.7 95.1c6.4 13.2 7 27.2 8.5 41.1 1.7 14.2-1.2 27.3-8.6 39.2-11.4 18.1-28 27.1-49.5 28.1-27.1 1.2-51.1-18-58.5-41.9-9.7-31.1 8.9-66.1 40.6-75 12.9-3.6 25.7-2 38.6-0.5 6.5 0.7 12.9 1.9 19.1 3.6 3.5 1.1 7.1 2.1 9.8 5.4zm-93.3 78.6c13.6 19 36.8 26.9 58.9 19.3 22.3-7.7 33.2-25.2 34.9-43.4 1.3-14.7-1.8-29.2-4.5-43.6-1-5-3.9-7.5-8.8-8.8-8.8-2.3-17.8-2.4-26.7-4-21.8-4-42.6 4.3-54.8 22.6-11.6 17.1-11.3 39.3 1 57.9z"/>
			<path id="path46" class="s4" d="m87.6 146.6c-0.4-16.7 7.8-30.4 21.7-36.6 14.4-6.5 31.2-3.9 42.4 7.8 18 18.8 11.7 48-9.4 59.1-23 12.1-50-1.5-54.2-27.4-0.1-0.8-0.3-1.6-0.5-2.9z"/>
		</g>
		<g id="g14228">
			<path id="path20" fill-rule="evenodd" class="s5" d="m699.9 106.1c0.3 4.3 2.3 2.7 4 1.7 6.8-3.8 14.2-4.9 21.7-3.8 11.2 1.7 20.1 10.2 22.1 21.7 2.2 12.7 1.7 25.7-0.4 38.2-3.8 23.8-29.5 26.5-44.1 17.6-1.4-0.9-2.8-1.8-4.1-2.7-1.6 0.6-1.5 2.2-2.4 3.2-1.8 2.2-4.2 2.4-6.8 2.1-2.6-0.3-4.2-1.9-4.8-4.4-0.4-1.6-0.6-3.3-0.6-4.9q0-46.2 0.1-92.4c0-6.8 1.6-8.6 7.3-8.8 5.8-0.1 7.9 1.8 7.9 7.7 0.1 8.1 0.1 16.3 0.1 24.8zm2.2 17c-2.1 1.6-2.2 3.9-2.2 6.3 0 9.3 0 18.6 0 27.9 0 9 2.1 11.9 10.8 14.6 11.9 3.8 19.9-0.5 21.9-12.7 1.6-10.3 1.7-20.9-0.3-31.2-1.7-8.9-9.1-13-18-10.9-4.3 1-8.1 2.9-12.2 6z"/>
			<path id="path22" class="s5" d="m532.4 121.7c1.4-3.8 2.7-7.2 4.1-10.6 2-5 9.3-7.4 13.9-4.7 1.8 1.1 2.8 2.6 1.7 4.6-3.7 6.9-5.3 14.7-8.5 21.8-1.4 3.1-3.2 6-6 7.9-3.1 2.2-2.7 4.2-0.9 7.1 5.2 8.6 10.1 17.2 15 26 1.6 3 4.8 6.4 0.7 9.7-3.1 2.4-11.3 0.7-13.5-3-4.6-7.7-8.9-15.6-13.2-23.5-1.2-2-2.3-4.1-3.2-6.2-1.5-3.5-4.3-3.8-7.5-3.2-3.4 0.6-3.2 3.2-3.2 5.8 0 7.6 0 15.3-0.1 23-0.1 5.8-2 7.7-7.3 7.8-5.4 0.2-7.7-2-7.8-7.9-0.1-9.7-0.1-19.4-0.1-29 0-22 0-44 0.1-66 0-5.9 1.8-7.9 7-8.3 5.6-0.3 8.1 1.9 8.1 8.1 0.1 14.7 0 29.3 0.2 44 0.1 2.9-2.1 7.1 2.4 8.7 4.7 1.6 12-0.8 14.4-4.6 1.4-2.3 2.4-4.7 3.7-7.5z"/>
			<path id="path24" fill-rule="evenodd" class="s5" d="m660.3 117.7c1.9 4.4 2.8 8.5 2.7 12.9 0 14.9 0 29.7 0 44.5 0 3.8 0.2 7.7-4.5 8.8-4.4 1.1-7.6-0.4-9.3-5.3-5.4 3.7-10.8 6.4-17 7.3-12.8 1.9-24.8-4.2-28.6-14.9-5.5-15.2 3.4-28.8 20.4-31.2 5.6-0.8 11.2-1.4 16.9-0.4 5.5 0.9 6.9-0.7 6.7-6.3-0.5-13.7-7.8-19.1-22.2-16.5-3.1 0.6-6.2 1.3-9.2 2.2-4.1 1.1-5.8-1.3-7.1-4.5-1.2-3.1 0-5.5 2.9-6.5 13-4.4 26.1-6.6 39.1 0.4 3.9 2.1 6.9 5.3 9.2 9.5zm-23.4 54.2c10.5-3.8 12.8-7.1 11.2-16.3-0.4-2.3-1.1-4.4-3.7-4.7-6.9-0.8-13.9-1.7-20.6 1.4-4.9 2.4-7 6.6-6.1 11.9 1 5.4 4.1 8.2 10 8.6 2.8 0.2 5.6 0.1 9.2-0.9z"/>
			<path id="path26" class="s5" d="m785.9 133.8c5.1 2.5 9.9 4.7 14.7 7 11.7 5.7 16.7 16.4 13.4 29-2.1 7.9-7.8 12.3-15.2 14.4-9.1 2.7-18.4 2.7-27.6 0.1-4.7-1.3-7.1-4.8-6.2-8.7 0.9-4.2 4.3-6.1 9.4-4.7 6 1.7 12 2.6 18.1 1 3.9-1 6.9-3 7.5-7.1 0.6-3.9-1.3-7.1-4.4-9.4-4.8-3.5-10.4-5.4-15.6-7.9-14.4-7-18.5-19.8-10.7-32.9 4.1-6.9 10.8-9.7 18.3-10.7 5.3-0.7 10.7-0.1 15.9 1.1 4.7 1.1 7.1 4.4 6.2 8.1-1.1 4-4.2 5.8-9 4.9-2.5-0.4-4.9-1.2-7.4-1.4-4.7-0.5-9.1 0-11.5 4.9-2.2 4.2-0.9 8 4.1 12.3z"/>
			<path id="path28" class="s5" d="m302.9 170.9c6.9 3.4 13.6 2.8 20.4 1.3 2.1-0.4 4.3-1.1 6.3-0.9 3.2 0.4 4.9 2.7 5.3 5.9 0.4 3.5-1.3 6-4.6 6.8-10.4 2.2-21 3.6-31.5 0-10.1-3.5-18.1-14.4-18.4-25.2-0.3-8.8-0.3-17.6 0-26.5 0.5-17.1 12.8-28.6 30-28.7 5.8 0 11.7 0.1 17.4 1.2 5.4 1.1 7.8 3.8 7.1 7.9-0.8 4.4-4.1 6.2-9.6 5.1-3.8-0.7-7.5-1.6-11.4-1.6-11.2 0-16.3 3.8-18.1 15-1.5 9.7-1.5 19.6 0.3 29.3 0.7 4.3 2.7 7.9 6.8 10.4z"/>
			<path id="path30" class="s5" d="m439.1 146.8c0 4.1 0.1 7.7 0.7 11.4 2.1 11.2 8.2 16.1 19.6 15 3.8-0.3 7.6-1 11.4-1.6 4.1-0.8 6.9 0.5 8 4.6 1.1 4.1-0.9 7.1-5.3 8-7.8 1.5-15.8 2.8-23.8 1.4-13.5-2.5-22.4-10.5-24.5-24.1-1.8-11.4-2.1-23.3 0.2-34.7 3.1-15.1 14.1-23.2 29.5-23.2 5.6 0.1 11.3 0 16.9 1.1 5.9 1.3 8.2 4 7.1 8.8-1 4.1-4 5.5-9.6 4.2-4.6-1-9.1-1.7-13.8-1.4-8.6 0.4-14.4 5.5-15.4 14.1-0.6 5.3-0.7 10.6-1 16.4z"/>
			<path id="path32" class="s5" d="m353.3 180c-1.4-3.1-1.8-6-1.8-9.1 0-29.6 0-59.2 0-88.9 0-6.6 2-8.5 8.1-8.4 4.5 0.1 6.9 2.3 7 6.7 0.1 6.2 0.1 12.3 0.1 18.5 0 20.8-0.1 41.6 0 62.4 0 5.1-0.4 10.2 3 14.8 1.5 2.2 0.8 4.9-0.8 7.1-1.9 2.4-4.6 3.2-7.6 2.8-3.4-0.5-6.1-2.3-8-5.9z"/>
			<path id="path34" class="s5" d="m567.8 113c0-10.9-0.1-21.2 0-31.5 0.1-6.1 1.9-7.9 7.7-7.9 5.7 0 7.4 1.8 7.4 8.1q0.1 40.7 0 81.5c0 4.3 0.1 8.6 2.7 12.4 1.8 2.5 1.2 5.1-0.5 7.4-1.9 2.5-4.6 3.3-7.6 2.8-5.5-0.8-8.9-5.3-9.2-11.9-1-20.1-0.4-40.3-0.5-60.9z"/>
			<path id="path36" class="s5" d="m390.3 164c0-13.2 0-25.8 0-38.5 0-2.5-0.1-4.8-3-6.2-3.4-1.6-3.3-5.1-3.1-8.3 0.3-3.2 2.9-4.3 5.5-5 1.8-0.4 3.6-0.7 5.4-0.9 6.3-0.6 9.9 2.5 9.9 8.8q0.1 25.5 0 51c0 3.5 0.5 6.9 2.4 10 1.9 3.2 2.4 6.7-0.7 9-3.3 2.3-7.4 2.2-10.7-0.3-3.6-2.7-5.7-6.4-5.6-11.2 0-2.6 0-5.3-0.1-8.4z"/>
			<path id="path38" class="s5" d="m404.8 82.2c2 4.4 1.1 7.9-2.8 10.1-3.2 1.8-6.7 1.7-9.5-1.2-2.7-2.9-2.9-6.3-0.8-9.5 2.9-4.6 8.5-4.5 13.1 0.6z"/>
		</g>
	</g>
</svg>