<svg width="941" height="340" viewBox="0 0 941 340" fill="none" xmlns="http://www.w3.org/2000/svg">
<path fill-rule="evenodd" clip-rule="evenodd" d="M128.47 267.2C96.3699 250.3 78.9699 225.6 71.9699 190C62.7699 143.9 86.5699 96 127.17 73.8C142.47 65.4 158.97 60.2 176.77 60.1C212.57 60.0333 248.37 60 284.17 60C290.07 60 290.77 60.8 290.77 66.8C290.77 95.1 290.77 123.4 290.67 151.7C290.67 159.7 291.27 167.7 290.87 175.7C288.67 223.5 251.97 262.2 219.57 272.1C184.77 282.9 159.37 279.1 148.67 275.5C142.57 273 133.87 270 128.47 267.2ZM129.87 259.3C149.97 270.6 171.57 275.1 194.37 271.8C246.47 264.4 286.37 219.1 282.97 161C282.07 145.4 282.67 129.7 282.67 114.1C282.77 100.6 282.87 87.2 282.87 73.7C282.87 69.6 280.87 68.1 276.97 68.2C270.17 68.4 263.27 68.3 256.47 68.3C231.87 68.3 207.17 68.5 182.57 68.3C152.67 68.2 127.07 78.1 106.47 99.9C83.5699 124 74.1699 152.9 79.0699 185.6C83.9699 217.8 101.27 242.2 129.87 259.3Z" fill="url(#paint0_linear_607_458)"/>
<path fill-rule="evenodd" clip-rule="evenodd" d="M273.57 180.2C270.97 200 263.77 217.2 250.87 232C241.07 243.3 229.17 251.6 215.27 257.1C179.97 271.4 139.67 262.8 113.17 235.4C78.47 199.6 78.27 141.8 112.77 106C131.27 86.8 153.97 77 180.67 77C207.77 77 234.97 77.4 262.07 79C270.27 79.5 271.27 80.5 271.67 88.4C273.27 114.4 273.77 140.3 274.27 166.3C274.37 170.8 273.87 175.3 273.57 180.2ZM121.27 108.8C97.17 133.3 89.17 162.2 98.57 195.4C111.87 241.9 165.67 268.2 210.47 250.3C245.47 236.4 266.27 205.8 265.97 168C265.67 143.8 265.37 119.5 264.17 95.2C263.77 87.2 263.47 86.8 255.47 86.7C232.37 86.2 209.27 86.1 186.17 85.1C161.37 84 140.07 91.8 121.27 108.8Z" fill="url(#paint1_linear_607_458)"/>
<path fill-rule="evenodd" clip-rule="evenodd" d="M256.67 155.4C256.57 165.2 257.77 174.5 255.97 183.7C248.67 220.4 219.27 246.3 182.07 247C144.07 247.7 113.97 222.1 105.97 187.8C95.77 144.4 124.87 100.7 170.47 94.4C179.87 93.1 189.47 93.9 198.87 94.3C213.37 94.9 227.87 95.7 242.17 98C250.27 99.4 251.27 100.4 252.67 108.2C255.47 123.6 255.97 139.2 256.67 155.4ZM188.27 102.1C181.27 101.3 174.37 101.9 167.47 103.2C130.77 109.9 105.87 145.8 112.77 182.4C118.67 213.6 145.17 237.4 175.97 239C208.37 240.8 236.97 220.6 246.37 189.6C249.57 179 249.17 168.3 248.57 157.4C247.77 142.2 247.37 126.9 245.37 111.7C244.77 107.7 243.07 106 239.07 105.5C222.47 103.5 205.87 103 188.27 102.1Z" fill="url(#paint2_linear_607_458)"/>
<path fill-rule="evenodd" clip-rule="evenodd" d="M231.37 121.5C237.77 134.7 238.37 148.7 239.87 162.6C241.57 176.8 238.67 189.9 231.27 201.8C219.87 219.9 203.27 228.9 181.77 229.9C154.67 231.1 130.67 211.9 123.27 188C113.57 156.9 132.17 121.9 163.87 113C176.77 109.4 189.57 111 202.47 112.5C208.97 113.2 215.37 114.4 221.57 116.1C225.07 117.2 228.67 118.2 231.37 121.5ZM138.07 200.1C151.67 219.1 174.87 227 196.97 219.4C219.27 211.7 230.17 194.2 231.87 176C233.17 161.3 230.07 146.8 227.37 132.4C226.37 127.4 223.47 124.9 218.57 123.6C209.77 121.3 200.77 121.2 191.87 119.6C170.07 115.6 149.27 123.9 137.07 142.2C125.47 159.3 125.77 181.5 138.07 200.1Z" fill="url(#paint3_linear_607_458)"/>
<path d="M143.27 173C142.87 156.3 151.07 142.6 164.97 136.4C179.37 129.9 196.17 132.5 207.37 144.2C225.37 163 219.07 192.2 197.97 203.3C174.97 215.4 147.97 201.8 143.77 175.9C143.67 175.1 143.47 174.3 143.27 173Z" fill="url(#paint4_linear_607_458)"/>
<path fill-rule="evenodd" clip-rule="evenodd" d="M755.57 132.5C755.87 136.8 757.87 135.2 759.57 134.2C766.37 130.4 773.77 129.3 781.27 130.4C792.47 132.1 801.37 140.6 803.37 152.1C805.57 164.8 805.07 177.8 802.97 190.3C799.17 214.1 773.47 216.8 758.87 207.9C757.47 207 756.07 206.1 754.77 205.2C753.17 205.8 753.27 207.4 752.37 208.4C750.57 210.6 748.17 210.8 745.57 210.5C742.97 210.2 741.37 208.6 740.77 206.1C740.37 204.5 740.17 202.8 740.17 201.2C740.17 170.4 740.203 139.6 740.27 108.8C740.27 102 741.87 100.2 747.57 100C753.37 99.9001 755.47 101.8 755.47 107.7C755.57 115.8 755.57 124 755.57 132.5ZM757.77 149.5C755.67 151.1 755.57 153.4 755.57 155.8C755.57 165.1 755.57 174.4 755.57 183.7C755.57 192.7 757.67 195.6 766.37 198.3C778.27 202.1 786.27 197.8 788.27 185.6C789.87 175.3 789.97 164.7 787.97 154.4C786.27 145.5 778.87 141.4 769.97 143.5C765.67 144.5 761.87 146.4 757.77 149.5Z" fill="#294035"/>
<path d="M588.07 148.1C589.47 144.3 590.77 140.9 592.17 137.5C594.17 132.5 601.47 130.1 606.07 132.8C607.87 133.9 608.87 135.4 607.77 137.4C604.07 144.3 602.47 152.1 599.27 159.2C597.87 162.3 596.07 165.2 593.27 167.1C590.17 169.3 590.57 171.3 592.37 174.2C597.57 182.8 602.47 191.4 607.37 200.2C608.97 203.2 612.17 206.6 608.07 209.9C604.97 212.3 596.77 210.6 594.57 206.9C589.97 199.2 585.67 191.3 581.37 183.4C580.17 181.4 579.07 179.3 578.17 177.2C576.67 173.7 573.87 173.4 570.67 174C567.27 174.6 567.47 177.2 567.47 179.8C567.47 187.4 567.47 195.1 567.37 202.8C567.27 208.6 565.37 210.5 560.07 210.6C554.67 210.8 552.37 208.6 552.27 202.7C552.17 193 552.17 183.3 552.17 173.7C552.17 151.7 552.17 129.7 552.27 107.7C552.27 101.8 554.07 99.8 559.27 99.4C564.87 99.1 567.37 101.3 567.37 107.5C567.47 122.2 567.37 136.8 567.57 151.5C567.67 154.4 565.47 158.6 569.97 160.2C574.67 161.8 581.97 159.4 584.37 155.6C585.77 153.3 586.77 150.9 588.07 148.1Z" fill="#294035"/>
<path fill-rule="evenodd" clip-rule="evenodd" d="M715.97 144.1C717.87 148.5 718.77 152.6 718.67 157C718.67 171.9 718.67 186.7 718.67 201.5C718.67 205.3 718.87 209.2 714.17 210.3C709.77 211.4 706.57 209.9 704.87 205C699.47 208.7 694.07 211.4 687.87 212.3C675.07 214.2 663.07 208.1 659.27 197.4C653.77 182.2 662.67 168.6 679.67 166.2C685.27 165.4 690.87 164.8 696.57 165.8C702.07 166.7 703.47 165.1 703.27 159.5C702.77 145.8 695.47 140.4 681.07 143C677.97 143.6 674.87 144.3 671.87 145.2C667.77 146.3 666.07 143.9 664.77 140.7C663.57 137.6 664.77 135.2 667.67 134.2C680.67 129.8 693.77 127.6 706.77 134.6C710.67 136.7 713.67 139.9 715.97 144.1ZM692.57 198.3C703.07 194.5 705.37 191.2 703.77 182C703.37 179.7 702.67 177.6 700.07 177.3C693.17 176.5 686.17 175.6 679.47 178.7C674.57 181.1 672.47 185.3 673.37 190.6C674.37 196 677.47 198.8 683.37 199.2C686.17 199.4 688.97 199.3 692.57 198.3Z" fill="#294035"/>
<path d="M841.57 160.2C846.67 162.7 851.47 164.9 856.27 167.2C867.97 172.9 872.97 183.6 869.67 196.2C867.57 204.1 861.87 208.5 854.47 210.6C845.37 213.3 836.07 213.3 826.87 210.7C822.17 209.4 819.77 205.9 820.67 202C821.57 197.8 824.97 195.9 830.07 197.3C836.07 199 842.07 199.9 848.17 198.3C852.07 197.3 855.07 195.3 855.67 191.2C856.27 187.3 854.37 184.1 851.27 181.8C846.47 178.3 840.87 176.4 835.67 173.9C821.27 166.9 817.17 154.1 824.97 141C829.07 134.1 835.77 131.3 843.27 130.3C848.57 129.6 853.97 130.2 859.17 131.4C863.87 132.5 866.27 135.8 865.37 139.5C864.27 143.5 861.17 145.3 856.37 144.4C853.87 144 851.47 143.2 848.97 143C844.27 142.5 839.87 143 837.47 147.9C835.27 152.1 836.57 155.9 841.57 160.2Z" fill="#294035"/>
<path d="M358.57 197.3C365.47 200.7 372.17 200.1 378.97 198.6C381.07 198.2 383.27 197.5 385.27 197.7C388.47 198.1 390.17 200.4 390.57 203.6C390.97 207.1 389.27 209.6 385.97 210.4C375.57 212.6 364.97 214 354.47 210.4C344.37 206.9 336.37 196 336.07 185.2C335.77 176.4 335.77 167.6 336.07 158.7C336.57 141.6 348.87 130.1 366.07 130C371.87 130 377.77 130.1 383.47 131.2C388.87 132.3 391.27 135 390.57 139.1C389.77 143.5 386.47 145.3 380.97 144.2C377.17 143.5 373.47 142.6 369.57 142.6C358.37 142.6 353.27 146.4 351.47 157.6C349.97 167.3 349.97 177.2 351.77 186.9C352.47 191.2 354.47 194.8 358.57 197.3Z" fill="#294035"/>
<path d="M494.769 173.2C494.769 177.3 494.869 180.9 495.469 184.6C497.569 195.8 503.669 200.7 515.069 199.6C518.869 199.3 522.669 198.6 526.469 198C530.569 197.2 533.369 198.5 534.469 202.6C535.569 206.7 533.569 209.7 529.169 210.6C521.369 212.1 513.369 213.4 505.369 212C491.869 209.5 482.969 201.5 480.869 187.9C479.069 176.5 478.769 164.6 481.069 153.2C484.169 138.1 495.169 130 510.569 130C516.169 130.1 521.869 130 527.469 131.1C533.369 132.4 535.669 135.1 534.569 139.9C533.569 144 530.569 145.4 524.969 144.1C520.369 143.1 515.869 142.4 511.169 142.7C502.569 143.1 496.769 148.2 495.769 156.8C495.169 162.1 495.069 167.4 494.769 173.2Z" fill="#294035"/>
<path d="M408.97 206.4C407.57 203.3 407.17 200.4 407.17 197.3C407.17 167.7 407.17 138.1 407.17 108.4C407.17 101.8 409.17 99.9 415.27 100C419.77 100.1 422.17 102.3 422.27 106.7C422.37 112.9 422.37 119 422.37 125.2C422.37 146 422.27 166.8 422.37 187.6C422.37 192.7 421.97 197.8 425.37 202.4C426.87 204.6 426.17 207.3 424.57 209.5C422.67 211.9 419.97 212.7 416.97 212.3C413.57 211.8 410.87 210 408.97 206.4Z" fill="#294035"/>
<path d="M623.469 139.4C623.469 128.5 623.369 118.2 623.469 107.9C623.569 101.8 625.369 100 631.169 100C636.869 100 638.569 101.8 638.569 108.1C638.636 135.233 638.636 162.4 638.569 189.6C638.569 193.9 638.669 198.2 641.269 202C643.069 204.5 642.469 207.1 640.769 209.4C638.869 211.9 636.169 212.7 633.169 212.2C627.669 211.4 624.269 206.9 623.969 200.3C622.969 180.2 623.569 160 623.469 139.4Z" fill="#294035"/>
<path d="M445.969 190.4C445.969 177.2 445.969 164.6 445.969 151.9C445.969 149.4 445.869 147.1 442.969 145.7C439.569 144.1 439.669 140.6 439.869 137.4C440.169 134.2 442.769 133.1 445.369 132.4C447.169 132 448.969 131.7 450.769 131.5C457.069 130.9 460.669 134 460.669 140.3C460.736 157.3 460.736 174.3 460.669 191.3C460.669 194.8 461.169 198.2 463.069 201.3C464.969 204.5 465.469 208 462.369 210.3C459.069 212.6 454.969 212.5 451.669 210C448.069 207.3 445.969 203.6 446.069 198.8C446.069 196.2 446.069 193.5 445.969 190.4Z" fill="#294035"/>
<path d="M460.47 108.6C462.47 113 461.57 116.5 457.67 118.7C454.47 120.5 450.97 120.4 448.17 117.5C445.47 114.6 445.27 111.2 447.37 108C450.27 103.4 455.87 103.5 460.47 108.6Z" fill="#294035"/>
<defs>
<linearGradient id="paint0_linear_607_458" x1="103.57" y1="246.8" x2="287.17" y2="68" gradientUnits="userSpaceOnUse">
<stop stop-color="#27B7D1"/>
<stop offset="0.3" stop-color="#27B7D1"/>
<stop offset="0.6" stop-color="#8EBF4A"/>
<stop offset="1" stop-color="#8EBF4A"/>
</linearGradient>
<linearGradient id="paint1_linear_607_458" x1="103.57" y1="246.8" x2="287.17" y2="68" gradientUnits="userSpaceOnUse">
<stop stop-color="#27B7D1"/>
<stop offset="0.3" stop-color="#27B7D1"/>
<stop offset="0.6" stop-color="#8EBF4A"/>
<stop offset="1" stop-color="#8EBF4A"/>
</linearGradient>
<linearGradient id="paint2_linear_607_458" x1="103.57" y1="246.8" x2="287.17" y2="68" gradientUnits="userSpaceOnUse">
<stop stop-color="#27B7D1"/>
<stop offset="0.3" stop-color="#27B7D1"/>
<stop offset="0.6" stop-color="#8EBF4A"/>
<stop offset="1" stop-color="#8EBF4A"/>
</linearGradient>
<linearGradient id="paint3_linear_607_458" x1="103.57" y1="246.8" x2="287.17" y2="67.9999" gradientUnits="userSpaceOnUse">
<stop stop-color="#27B7D1"/>
<stop offset="0.3" stop-color="#27B7D1"/>
<stop offset="0.6" stop-color="#8EBF4A"/>
<stop offset="1" stop-color="#8EBF4A"/>
</linearGradient>
<linearGradient id="paint4_linear_607_458" x1="103.57" y1="246.8" x2="287.17" y2="68.0001" gradientUnits="userSpaceOnUse">
<stop stop-color="#27B7D1"/>
<stop offset="0.3" stop-color="#27B7D1"/>
<stop offset="0.6" stop-color="#8EBF4A"/>
<stop offset="1" stop-color="#8EBF4A"/>
</linearGradient>
</defs>
</svg>
