<?xml version="1.0" encoding="utf-8"?>
<!-- Generator: Adobe Illustrator 24.1.1, SVG Export Plug-In . SVG Version: 6.00 Build 0)  -->
<svg version="1.1" width="512" height="512" id="Layer_1" xmlns="http://www.w3.org/2000/svg" xmlns:xlink="http://www.w3.org/1999/xlink" x="0px" y="0px"
	 viewBox="0 0 512 512" style="enable-background:new 0 0 512 512;" xml:space="preserve">
<style type="text/css">
	.st0{fill:#166DEE;}
	.st1{fill:#F7BF34;}
	.st2{fill:#D3402B;}
	.st3{fill:#009A57;}
</style>
<g>
	<path class="st0" d="M119.6,290.3l-24.8,5.7c-10.1,1.6-19.1,2.9-28.6,2.9C18.2,299,0,263.8,0,236.2c0-33.7,25.9-64.9,70.1-64.9
		c9.4,0,18.4,1.4,26.6,3.6c13,3.6,19.1,8.2,22.9,10.8l-14.4,13.7l-6.1,1.4l4.3-6.9c-5.9-5.7-16.7-16.3-37.1-16.3
		c-27.4,0-48.1,20.8-48.1,51.2c0,32.6,23.6,63.3,61.4,63.3c11.1,0,16.8-2.2,22-4.3v-27.9l-26.2,1.4l13.9-7.5h36.8l-4.5,4.3
		c-1.2,1-1.4,1.4-1.7,2.8c-0.2,1.6-0.3,6.6-0.3,8.3V290.3"/>
	<path class="st1" d="M290.1,279.1c4.2-5.5,5.2-12.4,5.2-19.2c0-15.2-7.3-44.2-28.7-44.2c-5.7,0-11.4,2.2-15.5,5.9
		c-6.7,6-7.9,13.6-7.9,21.1c0,17.1,8.5,45.2,29.4,45.2C279.2,287.9,286.1,284.6,290.1,279.1z M268.5,293.1
		c-27.4,0-42.1-21.4-42.1-40.8c0-22.6,18.5-42,44.7-42c25.4,0,41.3,19.9,41.3,40.7C312.4,271.5,296.6,293.1,268.5,293.1z"/>
	<path class="st2" d="M196.5,279.1c4.1-5.5,5.2-12.4,5.2-19.2c0-15.2-7.3-44.2-28.7-44.2c-5.7,0-11.4,2.2-15.5,5.9
		c-6.7,6-7.9,13.6-7.9,21.1c0,17.1,8.5,45.2,29.4,45.2C185.6,287.9,192.5,284.6,196.5,279.1z M174.9,293.1
		c-27.5,0-42.1-21.4-42.1-40.8c0-22.6,18.5-42,44.7-42c25.4,0,41.3,19.9,41.3,40.7C218.8,271.5,203.1,293.1,174.9,293.1z"/>
	<path class="st0" d="M370.1,263c4-4,4.3-9.5,4.3-12.6c0-12.5-7.4-31.8-21.8-31.8c-4.5,0-9.3,2.2-12.1,5.7
		c-2.9,3.6-3.8,8.3-3.8,12.8c0,11.6,6.7,30.8,21.6,30.8C362.7,267.8,367.3,265.7,370.1,263z M365.1,295.8c-1.4-0.2-2.2-0.2-4-0.2
		c-1.6,0-10.9,0.3-18.2,2.8c-3.8,1.4-14.9,5.5-14.9,17.8c0,12.3,11.9,21.1,30.4,21.1c16.6,0,25.4-8,25.4-18.7
		C383.9,309.8,378.2,305.2,365.1,295.8z M377.4,219c4,3.3,12.3,10.2,12.3,23.3c0,12.8-7.3,18.9-14.5,24.6c-2.2,2.2-4.8,4.7-4.8,8.5
		c0,3.8,2.6,5.9,4.5,7.4l6.2,4.8c7.6,6.4,14.5,12.3,14.5,24.2c0,16.3-15.7,32.7-45.5,32.7c-25.1,0-37.2-11.9-37.2-24.7
		c0-6.2,3.1-15,13.3-21.1c10.7-6.6,25.2-7.4,33-8c-2.4-3.1-5.2-6.4-5.2-11.8c0-2.9,0.9-4.7,1.7-6.7c-1.9,0.2-3.8,0.3-5.5,0.3
		c-18.3,0-28.7-13.7-28.7-27.1c0-8,3.6-16.8,11.1-23.2c9.9-8.1,21.6-9.5,31-9.5h35.6l-11.1,6.2H377.4z"/>
	<path class="st3" d="M432.2,285.4c-5.7-0.5-6.9-1.6-6.9-8.3v-98.2c0-0.4,0.1-0.8,0.1-1.1c0.7-6.1,2.4-7.1,7.8-10.2h-24.8l-13,6.3
		h13.3v0.1l0-0.1v107.2c0,3.5-0.7,4-4.7,9.2h30.7l6.4-3.8C438.1,285.9,435.2,285.7,432.2,285.4"/>
	<path class="st2" d="M486.7,235.6c3.3-1.2,5-2.2,5-4.7c0-6.9-7.8-14.8-17.1-14.8c-6.9,0-19.8,5.3-19.8,24c0,2.9,0.3,6,0.5,9.1
		L486.7,235.6z M497.2,290.1c-5.7,2.6-11.6,3.3-16.7,3.3c-5.5,0-14.1-0.3-22.9-6.7c-12.2-8.6-17.6-23.4-17.6-36.4
		c0-26.7,21.7-39.8,39.5-39.8c6.2,0,12.6,1.5,17.8,4.8c8.6,5.7,10.9,13.1,12.1,17.1l-40.5,16.4c0,0-12.4,4.9-12.3,5.2
		c5.3,19.4,19.2,30.5,34.5,30.5c8.8,0,15.2-3.1,21-6l-9.1,8.6C501,288,499.1,289.2,497.2,290.1z"/>
</g>
</svg>
