<svg width="941" height="360" viewBox="0 0 941 360" fill="none" xmlns="http://www.w3.org/2000/svg">
<path d="M334.05 214.25L309.25 219.95C299.15 221.55 290.15 222.85 280.65 222.85C232.65 222.95 214.45 187.75 214.45 160.15C214.45 126.45 240.35 95.25 284.55 95.25C293.95 95.25 302.95 96.65 311.15 98.85C324.15 102.45 330.25 107.05 334.05 109.65L319.65 123.35L313.55 124.75L317.85 117.85C311.95 112.15 301.15 101.55 280.75 101.55C253.35 101.55 232.65 122.35 232.65 152.75C232.65 185.35 256.25 216.05 294.05 216.05C305.15 216.05 310.85 213.85 316.05 211.75V183.85L289.85 185.25L303.75 177.75H340.55L336.05 182.05C334.85 183.05 334.65 183.45 334.35 184.85C334.15 186.45 334.05 191.45 334.05 193.15V214.25Z" fill="#166DEE"/>
<path d="M504.551 203.05C508.751 197.55 509.751 190.65 509.751 183.85C509.751 168.65 502.451 139.65 481.051 139.65C475.351 139.65 469.651 141.85 465.551 145.55C458.851 151.55 457.651 159.15 457.651 166.65C457.651 183.75 466.151 211.85 487.051 211.85C493.651 211.85 500.551 208.55 504.551 203.05ZM482.951 217.05C455.551 217.05 440.851 195.65 440.851 176.25C440.851 153.65 459.351 134.25 485.551 134.25C510.951 134.25 526.851 154.15 526.851 174.95C526.851 195.45 511.051 217.05 482.951 217.05Z" fill="#F7BF34"/>
<path d="M410.95 203.05C415.05 197.55 416.15 190.65 416.15 183.85C416.15 168.65 408.85 139.65 387.45 139.65C381.75 139.65 376.05 141.85 371.95 145.55C365.25 151.55 364.05 159.15 364.05 166.65C364.05 183.75 372.55 211.85 393.45 211.85C400.05 211.85 406.95 208.55 410.95 203.05ZM389.35 217.05C361.85 217.05 347.25 195.65 347.25 176.25C347.25 153.65 365.75 134.25 391.95 134.25C417.35 134.25 433.25 154.15 433.25 174.95C433.25 195.45 417.55 217.05 389.35 217.05Z" fill="#D3402B"/>
<path d="M584.551 186.95C588.551 182.95 588.851 177.45 588.851 174.35C588.851 161.85 581.451 142.55 567.051 142.55C562.551 142.55 557.751 144.75 554.951 148.25C552.051 151.85 551.151 156.55 551.151 161.05C551.151 172.65 557.851 191.85 572.751 191.85C577.151 191.75 581.751 189.65 584.551 186.95ZM579.551 219.75C578.151 219.55 577.351 219.55 575.551 219.55C573.951 219.55 564.651 219.85 557.351 222.35C553.551 223.75 542.451 227.85 542.451 240.15C542.451 252.45 554.351 261.25 572.851 261.25C589.451 261.25 598.251 253.25 598.251 242.55C598.351 233.75 592.651 229.15 579.551 219.75ZM591.851 142.95C595.851 146.25 604.151 153.15 604.151 166.25C604.151 179.05 596.851 185.15 589.651 190.85C587.451 193.05 584.851 195.55 584.851 199.35C584.851 203.15 587.451 205.25 589.351 206.75L595.551 211.55C603.151 217.95 610.051 223.85 610.051 235.75C610.051 252.05 594.351 268.45 564.551 268.45C539.451 268.45 527.351 256.55 527.351 243.75C527.351 237.55 530.451 228.75 540.651 222.65C551.351 216.05 565.851 215.25 573.651 214.65C571.251 211.55 568.451 208.25 568.451 202.85C568.451 199.95 569.351 198.15 570.151 196.15C568.251 196.35 566.351 196.45 564.651 196.45C546.351 196.45 535.951 182.75 535.951 169.35C535.951 161.35 539.551 152.55 547.051 146.15C556.951 138.05 568.651 136.65 578.051 136.65H613.651L602.551 142.85H591.851V142.95Z" fill="#166DEE"/>
<path d="M646.651 209.35C640.951 208.85 639.751 207.75 639.751 201.05V102.85C639.751 102.45 639.851 102.05 639.851 101.75C640.551 95.65 642.251 94.65 647.651 91.55H622.851L609.851 97.85H623.151V205.05C623.151 208.55 622.451 209.05 618.451 214.25H649.151L655.551 210.45C652.551 209.85 649.651 209.65 646.651 209.35Z" fill="#009A57"/>
<path d="M701.15 159.55C704.45 158.35 706.15 157.35 706.15 154.85C706.15 147.95 698.35 140.05 689.05 140.05C682.15 140.05 669.25 145.35 669.25 164.05C669.25 166.95 669.55 170.05 669.75 173.15L701.15 159.55ZM711.65 214.05C705.95 216.65 700.05 217.35 694.95 217.35C689.45 217.35 680.85 217.05 672.05 210.65C659.85 202.05 654.45 187.25 654.45 174.25C654.45 147.55 676.15 134.45 693.95 134.45C700.15 134.45 706.55 135.95 711.75 139.25C720.35 144.95 722.65 152.35 723.85 156.35L683.35 172.75C683.35 172.75 670.95 177.65 671.05 177.95C676.35 197.35 690.25 208.45 705.55 208.45C714.35 208.45 720.75 205.35 726.55 202.45L717.45 211.05C715.45 211.95 713.55 213.15 711.65 214.05Z" fill="#D3402B"/>
</svg>
