<svg width="1986" height="242" viewBox="0 0 1986 242" fill="none" xmlns="http://www.w3.org/2000/svg">
<g clip-path="url(#clip0_1601_16878)">
<g filter="url(#filter0_d_1601_16878)">
<path d="M638.37 204H673.79L716.34 38.86H682.07L655.16 151.33L625.72 38.86H590.07L559.71 150.87L533.03 38.86H498.99L541.31 204H576.73L607.55 88.54L638.37 204ZM776.999 206.07C806.899 206.07 828.289 190.2 835.189 162.37H803.449C799.769 174.56 790.339 181.46 776.309 181.46C759.979 181.46 750.319 170.42 748.249 150.41H835.419C841.169 110.39 815.409 78.88 776.539 78.88C741.119 78.88 715.589 105.56 715.589 142.13C715.589 180.54 740.199 206.07 776.999 206.07ZM775.849 102.34C791.029 102.34 800.689 113.15 801.609 130.17H748.709C751.469 112 760.899 102.34 775.849 102.34ZM934.572 204H963.782L1007.48 93.37V204H1039.22V38.86H997.362L949.292 161.22L901.452 38.86H859.592V204H891.332V94.29L934.572 204ZM1143.35 204H1169.34V126.72C1169.34 96.59 1150.48 78.88 1118.28 78.88C1088.61 78.88 1068.14 97.28 1066.3 125.57H1095.05C1096.2 111.77 1104.48 103.72 1118.28 103.72C1131.62 103.72 1139.44 111.77 1139.44 125.57V132.93C1131.85 132.01 1125.87 131.55 1118.97 131.55C1083.09 131.55 1063.77 144.43 1063.77 168.35C1063.77 191.35 1080.79 206.3 1106.32 206.3C1123.11 206.3 1135.3 200.32 1143.35 188.82V204ZM1093.9 167.43C1093.9 156.39 1102.87 150.64 1121.04 150.64C1126.56 150.64 1131.85 151.1 1139.44 152.25V160.99C1139.44 175.25 1129.55 184.22 1113.22 184.22C1101.26 184.22 1093.9 177.78 1093.9 167.43ZM1228.86 204V146.96L1275.78 204H1316.49L1259.68 140.06L1310.51 81.18H1273.71L1228.86 133.16V38.86H1196.89V204H1228.86ZM1376.93 206.07C1406.83 206.07 1428.22 190.2 1435.12 162.37H1403.38C1399.7 174.56 1390.27 181.46 1376.24 181.46C1359.91 181.46 1350.25 170.42 1348.18 150.41H1435.35C1441.1 110.39 1415.34 78.88 1376.47 78.88C1341.05 78.88 1315.52 105.56 1315.52 142.13C1315.52 180.54 1340.13 206.07 1376.93 206.07ZM1375.78 102.34C1390.96 102.34 1400.62 113.15 1401.54 130.17H1348.64C1351.4 112 1360.83 102.34 1375.78 102.34ZM1518.17 204C1569.46 204 1602.35 168.58 1602.35 120.51C1602.35 72.44 1570.61 38.86 1518.17 38.86H1459.52V204H1518.17ZM1494.48 68.99H1516.33C1549.22 68.99 1566.47 87.62 1566.47 120.51C1566.47 154.78 1549.22 173.87 1516.33 173.87H1494.48V68.99ZM1677.23 206.07C1707.13 206.07 1728.52 190.2 1735.42 162.37H1703.68C1700 174.56 1690.57 181.46 1676.54 181.46C1660.21 181.46 1650.55 170.42 1648.48 150.41H1735.65C1741.4 110.39 1715.64 78.88 1676.77 78.88C1641.35 78.88 1615.82 105.56 1615.82 142.13C1615.82 180.54 1640.43 206.07 1677.23 206.07ZM1676.08 102.34C1691.26 102.34 1700.92 113.15 1701.84 130.17H1648.94C1651.7 112 1661.13 102.34 1676.08 102.34ZM1863.43 81.18H1831.23L1801.79 167.66L1772.58 81.18H1738.08L1783.39 204H1818.35L1863.43 81.18ZM1978.04 164.67C1978.04 146.96 1965.85 135.92 1941.93 131.32L1918.24 126.95C1907.2 124.88 1902.14 121.89 1902.14 114.53C1902.14 106.71 1909.96 102.34 1921.69 102.34C1935.26 102.34 1944.23 109.7 1945.38 121.66H1975.97C1973.67 95.21 1952.51 78.88 1921.69 78.88C1891.1 78.88 1871.55 94.75 1871.55 117.52C1871.55 136.61 1884.89 148.8 1906.97 152.71L1929.05 156.85C1940.78 159.15 1945.84 162.37 1945.84 170.19C1945.84 178.93 1936.41 182.84 1923.99 182.84C1908.12 182.84 1897.31 174.79 1897.08 162.14H1866.49C1869.02 189.51 1888.57 206.3 1923.53 206.3C1958.49 206.3 1978.04 190.43 1978.04 164.67Z" fill="#060046"/>
</g>
<path fill-rule="evenodd" clip-rule="evenodd" d="M90.1589 211.383L9.57458 141.961C-2.06364 131.926 -3.27759 114.457 6.95298 102.962L6.95892 102.955C7.84131 101.966 8.76231 101.084 9.68637 100.288L90.1639 30.9414C101.76 20.9623 119.373 22.101 129.553 33.5396C139.764 45.0167 138.573 62.4859 126.931 72.5239L70.4658 121.172L126.926 169.815C138.578 179.842 139.762 197.329 129.554 208.803L129.549 208.808C119.375 220.221 101.764 221.387 90.1611 211.385L90.1589 211.383ZM406.313 100.288L325.836 30.9414C314.24 20.9623 296.627 22.101 286.447 33.5396C276.236 45.0167 277.427 62.4859 289.069 72.5239L289.071 72.5256L345.534 121.172L289.074 169.815L289.071 169.818C277.422 179.845 276.239 197.33 286.446 208.803L286.451 208.808C296.625 220.221 314.236 221.387 325.839 211.385L325.841 211.383L406.423 141.963L406.425 141.961C418.064 131.926 419.278 114.457 409.047 102.962L409.041 102.955C408.159 101.966 407.238 101.084 406.313 100.288ZM269.807 38.629L269.806 38.6324L196.919 224.345L196.917 224.35M196.917 224.35C191.324 238.627 175.092 245.602 160.749 240.145C146.366 234.673 139.078 218.671 144.682 204.371L144.683 204.368L217.573 18.6387L217.575 18.6354C223.166 4.37131 239.399 -2.60141 253.74 2.85486C268.124 8.32731 275.411 24.329 269.807 38.629" fill="#AD009C"/>
</g>
<defs>
<filter id="filter0_d_1601_16878" x="458.99" y="-1.14014" width="1559.05" height="247.44" filterUnits="userSpaceOnUse" color-interpolation-filters="sRGB">
<feFlood flood-opacity="0" result="BackgroundImageFix"/>
<feColorMatrix in="SourceAlpha" type="matrix" values="0 0 0 0 0 0 0 0 0 0 0 0 0 0 0 0 0 0 127 0" result="hardAlpha"/>
<feOffset/>
<feGaussianBlur stdDeviation="20"/>
<feComposite in2="hardAlpha" operator="out"/>
<feColorMatrix type="matrix" values="0 0 0 0 0 0 0 0 0 0 0 0 0 0 0 0 0 0 0.1 0"/>
<feBlend mode="normal" in2="BackgroundImageFix" result="effect1_dropShadow_1601_16878"/>
<feBlend mode="normal" in="SourceGraphic" in2="effect1_dropShadow_1601_16878" result="shape"/>
</filter>
<clipPath id="clip0_1601_16878">
<rect width="1986" height="242" fill="white"/>
</clipPath>
</defs>
</svg>
