<svg width="941" height="360" viewBox="0 0 941 360" fill="none" xmlns="http://www.w3.org/2000/svg">
<path d="M726.5 174.85V165.85H715.3V151.85L714.9 151.95L704.4 155.15L704.2 155.25V165.85H687.6V159.95C687.6 157.15 688.2 155.05 689.4 153.65C690.6 152.25 692.3 151.55 694.5 151.55C696.1 151.55 697.7 151.95 699.4 152.65L699.8 152.85V143.35L699.6 143.25C698.1 142.65 696 142.45 693.4 142.45C690.1 142.45 687.2 143.15 684.6 144.55C682 145.95 680 147.95 678.6 150.55C677.2 153.15 676.5 156.05 676.5 159.35V165.85H668.7V174.85H676.5V212.75H687.7V174.85H704.3V198.95C704.3 208.85 709 213.95 718.2 213.95C719.7 213.95 721.3 213.75 722.9 213.45C724.6 213.05 725.7 212.75 726.4 212.35L726.5 212.25V203.15L726 203.45C725.4 203.85 724.6 204.15 723.8 204.45C722.9 204.75 722.2 204.85 721.6 204.85C719.4 204.85 717.8 204.25 716.8 203.15C715.8 201.95 715.3 199.95 715.3 197.15V174.95H726.5V174.85ZM643.7 204.75C639.6 204.75 636.4 203.45 634.2 200.75C631.9 198.05 630.8 194.25 630.8 189.45C630.8 184.45 631.9 180.55 634.2 177.85C636.5 175.15 639.6 173.75 643.6 173.75C647.5 173.75 650.6 175.05 652.8 177.65C655 180.25 656.1 184.15 656.1 189.15C656.1 194.25 655 198.15 653 200.75C650.9 203.45 647.8 204.75 643.7 204.75ZM644.2 164.75C636.5 164.75 630.3 167.05 625.9 171.45C621.5 175.95 619.3 182.15 619.3 189.85C619.3 197.15 621.5 203.15 625.7 207.45C630 211.75 635.8 213.95 643 213.95C650.5 213.95 656.5 211.65 660.9 207.15C665.3 202.65 667.5 196.45 667.5 188.95C667.5 181.45 665.4 175.55 661.3 171.25C657.3 166.85 651.5 164.75 644.2 164.75ZM601.3 164.75C596 164.75 591.7 166.05 588.4 168.75C585.1 171.45 583.4 174.95 583.4 179.15C583.4 181.35 583.8 183.35 584.5 184.95C585.2 186.65 586.3 188.05 587.8 189.35C589.3 190.55 591.6 191.85 594.6 193.15C597.1 194.15 599 195.05 600.2 195.75C601.4 196.45 602.2 197.15 602.7 197.75C603.2 198.45 603.4 199.35 603.4 200.45C603.4 203.65 601 205.15 596.2 205.15C594.4 205.15 592.3 204.75 590.1 204.05C587.8 203.35 585.7 202.25 583.8 200.85L583.3 200.55V211.35L583.5 211.45C585.1 212.15 587.1 212.75 589.4 213.25C591.7 213.75 593.9 213.95 595.7 213.95C601.4 213.95 606 212.55 609.4 209.95C612.8 207.25 614.5 203.65 614.5 199.25C614.5 196.05 613.6 193.35 611.8 191.15C610 188.95 606.9 186.95 602.5 185.25C599 183.85 596.8 182.65 595.9 181.85C595 180.95 594.6 179.75 594.6 178.25C594.6 176.85 595.2 175.75 596.3 174.95C597.4 174.05 599 173.65 601.1 173.65C603 173.65 604.9 173.95 606.8 174.55C608.7 175.15 610.4 175.85 611.7 176.85L612.2 177.15V166.95L612 166.85C610.7 166.35 609 165.85 607 165.45C604.8 164.95 602.9 164.75 601.3 164.75ZM554.2 204.75C550.1 204.75 546.9 203.45 544.7 200.75C542.4 198.05 541.3 194.25 541.3 189.45C541.3 184.45 542.4 180.55 544.7 177.85C547 175.15 550.1 173.75 554.1 173.75C558 173.75 561.1 175.05 563.3 177.65C565.5 180.25 566.6 184.15 566.6 189.15C566.6 194.25 565.5 198.15 563.4 200.75C561.4 203.45 558.3 204.75 554.2 204.75ZM554.7 164.75C547 164.75 540.8 167.05 536.4 171.45C532 175.95 529.8 182.15 529.8 189.85C529.8 197.25 532 203.15 536.2 207.45C540.5 211.75 546.3 213.95 553.5 213.95C561 213.95 567 211.65 571.4 207.15C575.8 202.65 578 196.45 578 188.95C578 181.45 575.9 175.55 571.8 171.25C567.8 166.85 562 164.75 554.7 164.75ZM512.9 173.95V165.85H501.9V212.75H512.9V188.75C512.9 184.65 513.8 181.35 515.7 178.75C517.5 176.25 519.9 174.95 522.8 174.95C523.8 174.95 524.9 175.15 526.1 175.45C527.3 175.75 528.2 176.15 528.7 176.45L529.2 176.75V165.65L529 165.55C528 165.15 526.5 164.85 524.7 164.85C521.9 164.85 519.4 165.75 517.3 167.45C515.4 168.95 514.1 171.15 513.1 173.75H512.9V173.95ZM482.1 164.75C477 164.75 472.5 165.85 468.7 167.95C464.8 170.05 461.9 173.15 459.8 177.05C457.8 180.95 456.8 185.45 456.8 190.55C456.8 194.95 457.8 199.05 459.8 202.65C461.8 206.25 464.5 209.05 468.1 211.05C471.6 212.95 475.7 213.95 480.2 213.95C485.4 213.95 489.9 212.95 493.5 210.85L493.6 210.75V200.65L493.1 200.95C491.5 202.15 489.7 203.05 487.7 203.75C485.7 204.45 484 204.75 482.4 204.75C478.1 204.75 474.6 203.35 472.1 200.75C469.6 198.05 468.3 194.35 468.3 189.55C468.3 184.75 469.6 180.95 472.3 178.05C474.9 175.25 478.4 173.75 482.7 173.75C486.3 173.75 489.9 174.95 493.2 177.45L493.7 177.75V167.05L493.6 166.95C492.3 166.25 490.6 165.65 488.5 165.25C486.1 164.95 484 164.75 482.1 164.75ZM449.1 165.85H438.1V212.75H449.1V165.85ZM443.7 145.85C441.9 145.85 440.3 146.45 439 147.65C437.7 148.85 437 150.45 437 152.25C437 154.05 437.7 155.55 439 156.75C440.3 157.95 441.9 158.55 443.7 158.55C445.5 158.55 447.1 157.95 448.4 156.75C449.7 155.55 450.4 154.05 450.4 152.25C450.4 150.45 449.8 148.95 448.5 147.65C447.2 146.45 445.6 145.85 443.7 145.85ZM416.2 162.35V212.75H427.5V147.25H411.9L392.1 195.85L372.9 147.25H356.7V212.75H367.3V162.35H367.7L388 212.75H396L416 162.35H416.2Z" fill="white"/>
<path d="M266.4 125.35H214.5V177.25H266.4V125.35Z" fill="#F1511B"/>
<path d="M323.7 125.35H271.8V177.25H323.7V125.35Z" fill="#80CC28"/>
<path d="M266.4 182.75H214.5V234.65H266.4V182.75Z" fill="#00ADEF"/>
<path d="M323.7 182.75H271.8V234.65H323.7V182.75Z" fill="#FBBC09"/>
</svg>
